<svg width="105" height="121" viewBox="0 0 105 121" fill="none" xmlns="http://www.w3.org/2000/svg">
<path fill-rule="evenodd" clip-rule="evenodd" d="M88.8559 40.6399C81.4233 21.0779 68.0253 6.75537 45.4382 15.7513C44.7903 15.31 43.9448 15.1916 43.1346 15.7084C30.8305 23.4373 21.9702 35.8285 18.1304 49.8011C15.7936 50.2456 13.5229 51.0208 11.4947 52.2921C7.08681 55.055 4.12125 59.4516 1.34139 63.7335C0.505406 65.0208 1.27949 67.1521 2.85048 67.4444C3.53287 67.5716 4.20914 67.6473 4.8816 67.6672C4.71787 68.2617 4.50238 68.8361 4.22794 69.363C3.23435 71.2703 5.11146 73.2952 6.87069 72.7738C7.0659 72.8772 7.27041 72.9621 7.48231 73.0259C7.50639 74.1064 8.06139 75.5526 9.15977 75.771C10.9361 76.1522 13.2968 74.7922 12.8777 72.8047C13.4143 72.8991 13.949 72.911 14.4702 72.8455C14.5285 73.8804 14.5103 74.9604 14.6532 75.9151C15.1201 80.4143 19.6137 83.4366 23.8991 82.0679C24.1619 83.4698 24.4705 85.4396 25.8508 86.2C27.4644 90.7286 30.2508 95.8968 34.8146 97.9602C34.4084 99.0015 34.6287 100.268 35.8524 100.965C44.2061 105.73 54.2329 107.342 63.6774 105.571C67.4519 105.346 71.1294 104.492 74.6593 102.675C77.2334 101.349 79.5998 99.6656 81.9098 97.9302C84.221 96.1942 86.6922 94.5038 88.537 92.2497C90.5407 89.8017 91.4734 86.9214 92.0787 83.8557C94.8524 69.9407 93.8944 56.2775 88.8559 43.0221C82.619 26.6139 95.0906 57.0489 88.8559 40.6399Z" fill="white"/>
<path fill-rule="evenodd" clip-rule="evenodd" d="M52.923 11.9393C56.7269 11.6706 60.6001 12.3121 64.2225 13.4595C69.9998 15.2889 75.3056 18.5175 79.6647 22.7207C84.1573 27.0523 87.4799 32.3929 89.5002 38.2915C91.9366 45.4051 92.3012 53.0006 92.987 60.4264C93.3334 64.1782 93.9042 67.8728 94.4977 71.5883L94.5916 72.1751C95.1713 75.7952 95.4975 79.4564 94.6966 83.0707C93.3651 89.0777 89.3739 94.1767 84.6362 97.9445C74.9037 105.685 59.7529 110.403 48.4211 103.281C46.668 102.179 48.3292 99.3611 50.0407 100.509C51.2451 101.318 52.5212 102.026 53.8896 102.516C59.6069 104.56 65.886 103.832 71.5366 101.93C77.1049 100.057 82.4481 96.8909 86.5568 92.6664C90.8726 88.2291 93.2644 82.7482 92.9187 76.5116C92.7128 72.801 91.8677 69.159 91.3987 65.4785C90.9832 62.2188 90.7341 58.9414 90.447 55.6685L90.3417 54.4912C89.733 47.823 88.8586 40.9718 85.8259 34.9189C83.2748 29.8267 79.5394 25.2964 75.0478 21.7977C70.3454 18.1348 64.7289 15.573 58.8358 14.6175C51.9058 13.4939 45.272 15.5371 39.4911 19.3405C34.364 22.7137 29.9561 27.2214 26.5763 32.336C24.9373 34.816 23.541 37.4645 22.3353 40.1805C21.1991 42.7395 20.4157 45.4216 19.502 48.0592C20.2539 48.0368 21.0182 48.0658 21.7944 48.1516C25.7756 48.5929 29.4848 50.6569 31.8461 53.9115C34.7318 57.8885 33.9518 62.7703 35.079 67.2932C35.1662 67.6442 35.0179 67.9879 34.7173 68.1821C33.0083 69.287 30.7211 69.3238 29.0671 68.0796C27.6316 66.9998 26.9576 65.0476 27.5388 63.3418C27.6147 63.1194 27.9383 63.1587 27.9474 63.3971C28.0566 66.3 30.7488 68.5355 33.3878 67.1541C32.2558 63.254 32.8516 58.8983 30.5363 55.3755C26.4383 49.1407 17.958 48.8831 12.0018 52.3978C8.86708 54.2473 6.3859 57.0282 4.53834 60.1388L4.00606 61.0418C3.29786 62.2483 2.54786 63.6132 2.40092 64.9419C2.31621 65.7087 2.59909 66.4292 3.47839 66.0428C4.18973 65.7304 4.7405 65.0015 5.16304 64.3748C5.88365 63.306 7.5396 64.2294 6.94437 65.3676L6.92416 65.4047C6.05788 66.9401 5.52454 68.632 5.4266 70.3948L5.40171 70.8829C5.38538 71.2387 5.37364 71.7443 5.44888 71.7628C5.53909 71.785 6.16592 71.0611 6.27029 70.9609C6.77311 70.4778 7.29092 70.083 7.99085 69.9543C8.91095 69.7856 9.83928 70.9244 9.04059 71.671L9.00726 71.7011C8.29444 72.321 8.32613 73.5572 9.11353 74.1369C10.2248 74.9551 11.5929 73.6196 11.7542 72.5201L11.7597 72.4795C11.9023 71.2915 13.5516 71.2494 13.6412 72.4795C13.8358 75.1488 10.659 77.3862 8.24184 76.0395C7.28606 75.5073 6.67846 74.5328 6.48811 73.4883C6.18304 73.6495 5.85388 73.7613 5.50592 73.7922C4.37311 73.8926 3.56775 73.0958 3.38459 72.0264C3.17121 70.7804 3.29775 69.4464 3.62585 68.1525C3.01064 68.3009 2.36353 68.2442 1.71304 67.8687C-0.254921 66.7327 0.310219 64.2058 1.05325 62.4997C4.22543 55.2179 10.7975 48.6104 18.9398 48.0859C18.9844 46.8011 19.1585 45.5864 19.4432 44.2999C22.2282 31.7164 31.2501 20.0642 42.9956 14.6181C46.1342 13.1628 49.4627 12.1838 52.923 11.9393ZM22.1216 62.2059L22.2332 62.1807C23.5021 61.9072 26.8415 61.5859 26.439 63.7221C26.42 63.8225 26.274 63.8103 26.2481 63.7221C25.8538 62.379 23.1758 63.4531 22.3939 63.7765C21.316 64.222 20.2527 64.8793 19.3726 65.6433C17.4456 67.3164 16.1539 69.6742 15.9574 72.2349C15.7626 74.7751 16.4993 77.5189 18.331 79.3564C19.2289 80.2569 20.375 80.8684 21.6625 80.9134C22.8192 80.9535 24.0971 80.0528 25.1645 80.5803C25.3749 80.6843 25.5416 80.9698 25.5226 81.2048C25.4866 81.6497 25.2876 81.9961 24.9914 82.2647C26.7783 85.5223 28.2407 88.9703 30.5201 91.9325C31.6639 93.4188 32.96 94.7951 34.4277 95.9664C35.1253 96.5233 35.8838 97.0123 36.6659 97.442C37.5823 97.9461 38.3754 98.2614 39.0295 99.1153C39.5873 99.8434 39.0293 101.251 38.1099 101.377C35.9446 101.672 33.8404 99.9205 32.2508 98.6087C30.6627 97.2979 29.2901 95.6811 28.1558 93.9655C25.9776 90.6712 24.4876 86.7849 23.8918 82.8531C23.2001 83.0725 22.4214 83.1395 21.8355 83.1408C20.2768 83.1444 18.7884 82.5835 17.5635 81.6356C13.0791 78.1658 12.5807 71.0418 15.7453 66.5494C17.2597 64.3997 19.5608 62.8114 22.1216 62.2059ZM22.1497 70.4684C23.1895 70.3771 24.2285 70.5414 25.2059 70.896L25.6088 71.0421C26.4598 71.3534 27.3658 71.7195 27.9804 72.3577C28.9195 73.3333 27.9845 75.0237 26.6467 74.6498C25.1676 74.2364 23.9655 72.9903 22.4869 72.4676C21.1652 72.0005 19.6681 72.0667 18.4952 72.8711C18.3403 72.9774 18.1366 72.7677 18.2378 72.6134C19.1351 71.2466 20.5516 70.6086 22.1497 70.4684Z" fill="black"/>
<path fill-rule="evenodd" clip-rule="evenodd" d="M57.9043 78.766C61.5259 78.3263 65.0363 79.4355 68.5767 79.9946C70.446 80.2896 72.3176 80.5099 74.2092 80.5918C74.5898 80.6084 74.9705 80.6181 75.3512 80.6259C75.3866 80.2907 75.5743 79.9828 75.9807 79.7983C76.8138 79.4205 77.4807 79.2501 78.3954 79.2866C79.2327 79.3196 80.073 79.4058 80.8975 79.5568C82.3947 79.8314 83.8987 80.4545 84.9938 81.5371C87.5284 84.0423 87.1427 88.0662 85.1842 90.7948C81.138 96.4331 73.753 96.6948 67.4282 96.6213L66.8445 96.6136C61.0855 96.5313 52.846 97.3903 50.2296 90.8355C49.2675 88.4251 49.4011 85.6312 50.5792 83.3194C51.9842 80.5619 54.9419 79.1257 57.9043 78.766ZM75.8934 88.1538L75.8418 88.156C73.1866 88.2583 70.5318 88.3303 67.8751 88.3773C67.9546 89.0598 68.0358 89.7425 68.1285 90.4236C68.2013 90.9595 68.2793 91.4948 68.3604 92.0295C68.3948 92.2559 68.5209 92.6074 68.4852 92.8317L68.4724 92.9203V92.9203C68.6088 92.982 68.7325 93.0814 68.8246 93.2257C68.8567 93.2756 68.8799 93.3259 68.9031 93.376C70.9657 93.3922 73.1853 93.3522 75.288 92.9772L75.2922 92.9315V92.9315C75.3304 92.6628 75.4421 92.4819 75.5905 92.3578C75.7383 91.5009 75.7248 90.5878 75.7819 89.7377C75.8175 89.2095 75.8561 88.6818 75.8934 88.1538ZM65.8461 88.4135C63.9323 88.4461 62.0176 88.4712 60.1042 88.4478L59.2356 88.4344V88.4344C59.419 89.4189 59.6186 90.4 59.7845 91.391C59.9576 92.424 59.0488 93.0806 58.2623 93.054C58.3506 93.0686 58.4387 93.0835 58.527 93.096C60.9845 93.4436 63.5362 93.3514 66.0301 93.3487C65.8959 92.5652 65.9503 91.6813 65.9302 91.0273L65.9264 90.926C65.8882 90.0881 65.8615 89.2508 65.8461 88.4135ZM52.8465 88.2328C52.9129 88.7448 53.0421 89.2458 53.2354 89.7122C54.0523 91.6829 55.9252 92.6025 57.9068 92.9898C57.563 92.871 57.29 92.5857 57.2211 92.0969C57.0492 90.8816 56.9875 89.6461 56.9828 88.412C55.6018 88.3992 54.2115 88.3697 52.8465 88.2328ZM83.0955 87.8121C82.1122 88.0441 80.9696 87.9378 80.0049 87.9816C79.1012 88.0227 78.197 88.0585 77.2932 88.0951C77.3358 88.7123 77.3774 89.3294 77.4225 89.9462C77.4807 90.7435 77.4861 91.586 77.6388 92.38C79.4577 91.7589 81.0875 90.763 82.3102 89.1706C82.6148 88.7738 82.8876 88.3082 83.0955 87.8121ZM57.4888 81.9994C55.852 82.3871 54.303 83.2061 53.4705 84.7044C52.9763 85.5935 52.759 86.6473 52.8007 87.6857C54.1841 87.5246 55.5913 87.4635 56.9917 87.413C56.9963 87.1607 57.0023 86.9087 57.0098 86.6572L57.0314 86.0127C57.0696 84.7834 57.0888 83.2397 57.4888 81.9994ZM65.9605 82.1493L65.24 82.0684C63.2387 81.8402 61.2385 81.6008 59.2371 81.738C58.9474 81.758 58.6533 81.7896 58.3586 81.8328C58.7123 83.1098 58.6826 84.6096 58.8304 85.8738C58.8875 86.3626 58.9596 86.8474 59.0395 87.3302L59.3867 87.314V87.314C61.5343 87.1976 63.684 87.126 65.8332 87.0407C65.833 86.637 65.8353 86.233 65.8417 85.829L65.8496 85.4248C65.8741 84.3927 65.8075 83.2301 65.9605 82.1493ZM76.0104 81.9855C73.9143 82.3239 71.748 82.3959 69.689 82.3984C68.8666 82.3995 68.0446 82.349 67.2231 82.2761C67.2766 82.7137 67.3045 83.1564 67.3447 83.5879C67.4259 84.4599 67.5186 85.3305 67.6194 86.2004L67.7092 86.9615V86.9615C70.3509 86.8417 72.9924 86.7122 75.6335 86.578L76.0062 86.558V86.558L76.1107 85.0953C76.1818 84.1199 76.26 83.1447 76.3705 82.1737L76.2877 82.1438V82.1438C76.1903 82.1038 76.0979 82.0487 76.0104 81.9855ZM76.9207 82.3485C77.0363 83.7277 77.1001 85.1125 77.1851 86.494L78.9262 86.4009C79.2163 86.3851 79.5065 86.369 79.7966 86.3523C80.9249 86.2872 82.3747 85.9454 83.4901 86.2642C83.5753 85.2498 83.2854 84.2615 82.3703 83.5801C80.7637 82.3831 78.7179 82.8093 76.9207 82.3485ZM70.9721 70.0197C73.5648 68.5344 80.0699 67.0162 80.4819 71.6839C80.6713 73.8318 79.0751 75.6116 77.2111 76.4057L77.1411 76.4351C75.3929 77.1541 72.2942 77.9661 70.7813 76.4069C69.5222 75.1093 71.1922 72.7825 72.7569 73.8456C73.561 74.3917 75.2535 73.9893 76.1507 73.7295L76.2069 73.7131C77.1751 73.4284 78.466 72.5173 78.0656 71.3246C77.7113 70.2695 76.2037 70.0768 75.2596 70.0426C73.8502 69.992 72.4786 70.3194 71.0822 70.4259C70.861 70.4429 70.7927 70.1224 70.9721 70.0197ZM81.7119 62.5141C85.2307 62.3493 87.4197 66.1929 86.6105 69.3422C86.4707 69.8856 85.8631 70.419 85.2766 70.358L85.1288 70.3444C85.0538 70.3371 84.9783 70.3276 84.909 70.3085C84.3521 70.1542 83.8529 69.5747 83.8934 68.974L83.9042 68.799C83.9863 67.3113 83.8251 65.5972 82.0577 65.2369C80.5588 64.9313 79.7219 66.3746 79.7042 67.7032C79.7008 67.9391 79.4359 68.1037 79.2274 67.9769C78.1438 67.3173 77.9562 66.005 78.37 64.8749C78.8946 63.443 80.2074 62.5845 81.7119 62.5141ZM55.5986 63.3385C58.1593 62.4838 60.9221 63.8493 62.162 66.1141C62.597 66.2401 63.0314 66.5755 62.971 67.0891C62.8837 67.828 62.7523 68.2938 62.2402 68.8541C61.4392 69.7306 59.939 69.2824 59.6061 68.2034L59.5919 68.1547C59.2138 66.76 57.6791 65.8398 56.2812 66.328C54.6481 66.8982 54.6954 68.6237 53.5499 69.6289C53.4153 69.747 53.2539 69.7658 53.0925 69.6878C51.8758 69.0997 52.0945 67.3294 52.5282 66.3162C53.0972 64.9866 54.2029 63.8041 55.5986 63.3385ZM52.1111 55.5592C54.1861 53.4411 59.5971 51.3914 61.0166 55.3029C61.287 56.0479 60.7113 57.0524 59.936 57.2069C58.6663 57.4597 57.5398 56.9083 56.2785 57.0072C55.2575 57.0877 54.1925 57.429 53.3761 58.0618C51.1151 59.8143 50.6178 62.7785 49.0424 65.0091C48.9657 65.1178 48.8168 65.0721 48.8026 64.944C48.4439 61.6966 49.8382 57.879 52.1111 55.5592ZM79.1734 53.4741C80.5505 52.9875 82.1098 53.0292 83.4941 53.4608C84.8884 53.8957 86.1685 54.7217 87.1547 55.8008C87.6022 56.2907 88.0162 56.8314 88.3484 57.4069C88.5248 57.7119 88.7103 58.3419 88.9108 58.717C89.9955 59.3436 90.4592 60.7713 89.488 61.787L89.4442 61.8315L89.3143 61.9604C88.7922 62.4774 88.0051 62.7014 87.2924 62.4949C85.6978 62.0333 85.5041 60.7769 84.952 59.4432C84.5874 58.5623 83.9627 57.7829 83.2053 57.2103C81.4152 55.8577 78.48 55.4267 76.3249 56.0642C76.2102 56.0982 76.0754 55.9519 76.1572 55.8458C76.5655 55.3166 76.8009 54.8823 77.3477 54.4554C77.9027 54.0221 78.5084 53.7091 79.1734 53.4741Z" fill="black"/>
<path fill-rule="evenodd" clip-rule="evenodd" d="M85.3797 38.3791C86.6008 37.9605 87.5748 39.2309 87.3403 40.3381C87.0635 41.6422 85.7029 42.6888 84.8008 43.6079C83.8544 44.5759 82.8889 45.5249 81.8875 46.4379C79.9755 48.1839 77.9938 49.828 75.9044 51.3603L75.2655 51.8286C73.3501 53.2305 71.4405 54.5999 69.3889 55.8134C68.2776 56.4686 67.1558 57.1027 66.0191 57.7135C65.6137 57.9312 65.1191 58.267 64.6102 58.5166C66.4713 59.9538 67.9036 62.1476 68.2142 64.1914C68.9832 69.268 65.7128 73.9726 61.0985 75.8431C58.798 76.7752 56.2374 77.0457 53.7783 76.7646C51.2769 76.4791 48.7417 75.7393 47.117 73.6894C45.6741 71.8697 45.1544 69.5472 45.0508 67.2665C45.0022 66.1844 45.0128 65.119 45.241 64.1618C44.2459 64.1702 43.2508 64.166 42.2642 64.1766C39.8262 64.1998 37.3837 64.2106 34.9438 64.1427C32.4276 64.0709 29.9241 63.9589 27.4163 63.7351C26.3156 63.6355 25.2213 63.4728 24.1267 63.3164C23.0642 63.1663 21.8917 63.1092 20.8987 62.6739C20.8311 62.6464 20.8591 62.5492 20.9177 62.5299C21.9762 62.1878 23.1783 62.2488 24.2811 62.1814L25.356 62.1162C26.2512 62.0627 27.1459 62.0135 28.0438 61.9846C30.1179 61.9164 32.1904 61.8996 34.2641 61.8641L35.1529 61.8475C37.5931 61.7989 40.0332 61.7714 42.4734 61.6932C43.4853 61.6615 44.4994 61.6023 45.5156 61.5474C45.6339 61.2787 45.8074 61.0336 45.9741 60.795C46.4727 60.0806 47.1065 59.4508 47.7635 58.8801C49.1091 57.7048 50.6241 56.8321 52.3142 56.2467C53.9891 55.6685 56.4387 55.3817 58.2106 55.419C59.9825 55.4563 62.5077 55.7063 63.3191 57.1555C63.4036 57.3056 64.948 57.016 65.4065 56.665C66.4776 55.8472 67.5297 55.0061 68.5626 54.1438C70.4811 52.5396 72.4541 50.9608 74.2713 49.2447C76.1452 47.4735 78.0044 45.6728 79.7875 43.813C80.6832 42.8809 81.5769 41.9467 82.4452 40.9914C83.3325 40.0171 84.0952 38.8166 85.3797 38.3791Z" fill="black"/>
</svg>
