<svg width="106" height="129" viewBox="0 0 106 129" fill="none" xmlns="http://www.w3.org/2000/svg">
<path fill-rule="evenodd" clip-rule="evenodd" d="M96.5523 67.0117C97.8609 57.5637 95.0662 48.4458 91.4457 39.8109C91.2469 39.285 90.9315 38.8296 90.5261 38.5058C80.3086 17.904 65.2953 16.0384 44.3504 17.4572C43.7316 17.4435 43.6948 17.4545 43.225 17.2442C43.1472 8.87511 33.5926 4.44204 26.3219 7.20333C-5.92432 22.1942 4.21525 64.3977 10.6321 91.9503C12.9214 102.616 15.2113 113.281 17.501 123.947C17.5779 124.303 17.74 124.612 17.9555 124.872C17.6229 124.998 17.2902 125.116 16.9638 125.227C16.2188 125.481 16.5148 126.592 17.2902 126.412C18.0501 126.236 18.7824 125.999 19.5068 125.741C20.6362 125.987 21.5831 125.248 22.4698 124.66C32.8528 120.552 37.2117 107.053 39.8749 97.1084C50.7026 104.751 68.0039 110.475 80.384 103.602C91.9843 96.6138 96.1619 82.0359 95.3377 69.1691C96.1843 68.7794 96.5259 67.9298 96.5481 67.044H96.5531C96.5529 67.0332 96.5523 67.0224 96.5523 67.0117V67.0117Z" fill="white"/>
<path fill-rule="evenodd" clip-rule="evenodd" d="M23.3466 7.99032C25.7405 6.43901 28.8129 5.8616 31.6334 5.97467C33.1376 6.03491 34.5419 6.41005 35.9286 6.97351C37.214 7.49597 38.3472 8.24648 39.5988 8.81839C39.6748 8.85305 39.6174 8.95978 39.5455 8.9452C38.0635 8.64597 36.3234 8.82673 34.8206 9.04098L34.6712 9.0625C33.1942 9.27702 31.6912 9.38798 30.2354 9.72847C27.5536 10.3555 25.0591 11.7219 23.5872 14.0986C21.6653 17.2024 21.1727 21.2202 21.3782 24.8013C21.4822 26.6132 21.8392 28.3958 22.3953 30.1231C22.7291 31.1598 23.5046 32.2028 23.867 33.2906C24.1427 32.7758 24.4272 32.266 24.722 31.7624C23.3793 31.1294 23.0029 29.3701 22.9334 27.7824C22.7265 27.5825 22.5934 27.2932 22.589 27.0275C22.5772 26.3133 22.7451 25.6668 23.0308 25.0752C23.1939 23.3997 23.5395 21.7291 24.1344 20.159C26.4696 13.9946 32.6299 8.43859 39.6159 8.98747C41.5359 9.13838 43.4041 9.95398 44.3969 11.6879C45.1944 13.0803 45.1997 14.7599 44.6496 16.2408C44.4865 16.6804 44.2743 17.0773 44.0251 17.4394C44.7799 17.2479 45.536 17.0642 46.2909 16.8822C48.9098 16.2507 51.542 15.756 54.2234 15.4808C57.8751 15.1063 61.6021 15.6729 64.9484 17.131C65.8661 17.3671 66.7794 17.6207 67.6872 17.8917C71.6821 19.0833 75.7807 20.6396 79.0074 23.3595C80.492 24.6109 81.5544 26.0667 82.4168 27.6653C85.6469 30.5463 88.7356 33.812 90.9159 37.5479C95.4081 45.245 96.4809 54.7662 96.6655 63.5167C96.8352 71.5552 96.1294 79.6761 94.6234 87.5745C93.9398 91.159 92.8346 94.4903 90.599 97.4299C88.1094 100.704 84.7889 103.283 81.063 105.013C73.4774 108.536 64.0889 109.049 56.7157 104.684C54.498 103.371 56.4949 99.9492 58.735 101.228C66.0142 105.383 75.3041 104.434 82.308 100.029C85.2668 98.168 87.8166 95.6231 89.4364 92.5068C90.6193 90.2305 91.1269 87.6204 91.5664 85.0789L91.8001 83.7194C93.157 75.9041 93.7705 67.8878 93.4441 59.9594C93.1184 52.0507 91.8645 43.4847 87.3865 36.761C85.0245 33.2146 82.0125 30.1077 78.8487 27.2748C78.6265 27.0757 78.4038 26.8774 78.1809 26.6798C76.9443 25.9365 75.6628 25.2874 74.4017 24.7335L74.1334 24.6174C73.4081 24.3081 72.3936 23.9085 71.4524 23.589C70.1071 23.1323 68.74 22.7265 67.3672 22.3609C66.6476 22.1692 65.9246 21.9933 65.1998 21.8253C65.4524 22.0572 65.7036 22.2911 65.9504 22.531C67.1196 23.6674 68.047 25.018 69.1555 26.2096C69.2808 26.344 69.1228 26.5401 68.9635 26.4583C67.2778 25.593 65.4085 25.033 63.6484 24.3319C61.9843 23.6691 60.367 22.9062 58.7324 22.1749C58.323 21.9914 57.9148 21.7955 57.5077 21.6017C55.9002 21.6182 54.2927 21.656 52.6887 21.7475C54.6277 23.1283 56.3986 24.7601 57.8654 26.5496C57.9865 26.6969 57.8764 26.933 57.6727 26.8808C54.6021 26.0943 51.682 24.9383 48.7635 23.7269L47.3671 23.1454V23.1454C46.3408 23.0934 45.3129 23.0691 44.2849 23.0843L43.7867 23.0926C42.7075 23.1132 41.6303 23.156 40.5607 23.3196C40.3063 23.3582 40.057 23.395 39.8094 23.4288C38.3041 24.0434 36.8557 24.7844 35.5524 25.7611L35.8919 25.741V25.741C37.9526 25.6237 40.0536 25.8012 42.0493 26.3334C45.9269 27.368 49.2355 29.8592 51.6432 33.0355C51.7152 33.1306 51.5751 33.263 51.4807 33.1983C48.4517 31.1239 44.9386 30.079 41.3392 29.5115C39.5994 29.2369 37.8077 29.1425 36.0512 29.2792C34.5968 29.3923 33.0924 29.9048 31.6454 29.656C31.251 30.1474 30.8722 30.6536 30.5075 31.171C30.6991 31.1587 30.8916 31.1475 31.0853 31.1385C33.1634 31.0408 35.2796 31.1742 37.3086 31.6527C41.3614 32.609 44.748 35.0429 47.846 37.715C47.9073 37.7679 47.8283 37.8621 47.762 37.8241C44.4022 35.8843 40.4971 35.3046 36.6911 34.9546C34.7745 34.7783 32.8363 34.6984 30.9155 34.8515C30.0355 34.9214 29.1653 35.0666 28.2879 35.1569C28.217 35.1643 28.1432 35.1662 28.0701 35.1695C27.4342 36.3692 26.8577 37.5903 26.3375 38.8079C27.925 38.3819 29.6377 38.1582 31.2767 38.2686C34.6059 38.4928 37.908 40.0198 40.5655 41.9729C40.6488 42.034 40.6023 42.1967 40.4893 42.154C37.5966 41.0607 34.7291 41.0518 31.7103 41.4737C30.295 41.6715 28.8941 41.9399 27.5267 42.3609C26.8393 42.5727 26.1596 42.8037 25.5072 43.1079C25.211 43.2457 24.9227 43.4063 24.6311 43.5578C24.3979 44.35 24.1893 45.1495 24.0013 45.9539C28.9357 46.2322 33.5842 48.5622 37.6298 51.2362C37.7276 51.3009 37.6665 51.4809 37.5457 51.4353C35.1307 50.5237 32.5036 50.1023 29.942 49.8569C27.7021 49.6424 25.5041 49.759 23.2771 49.8216C23.1577 50.6681 23.0612 51.5171 22.9912 52.3677C23.3493 52.4681 23.7007 52.5763 24.0385 52.678C25.1496 53.0119 26.2585 53.4615 27.2952 53.9827C29.4011 55.0413 31.1075 56.4724 32.8245 58.0632C32.9141 58.1463 32.8207 58.3276 32.6992 58.2784C30.7063 57.4725 28.5288 56.9564 26.4309 56.4996C25.3452 56.2634 24.2591 56.0452 23.1658 55.8451C23.0599 55.8256 22.9524 55.8094 22.8451 55.7933C22.8347 57.7328 22.9443 59.6728 23.1861 61.597L23.2329 61.9576C23.3639 62.9315 23.2568 63.8734 22.6122 64.5462C23.5038 63.9533 24.5238 63.5427 25.6543 63.3852C28.6312 62.9708 31.3879 64.1607 33.2612 66.4623C33.3489 66.5698 33.2136 66.711 33.1072 66.6163C31.2892 64.998 28.4876 64.7117 26.2298 65.4736C24.1395 66.1788 22.5681 67.8627 21.9383 69.9696C21.269 72.2087 21.5755 74.6806 22.796 76.6766C23.4041 77.671 24.2823 78.56 25.3813 78.9972C25.517 79.0513 25.6551 79.0964 25.7948 79.1355C26.4581 78.8928 27.172 79.0027 27.8542 79.3103L27.9427 79.3519V79.3519C28.3779 79.3494 28.8112 79.336 29.2323 79.3398C30.0518 79.3477 30.4458 80.218 30.1019 80.8658C30.2969 81.2232 30.4397 81.6248 30.611 81.975C30.9205 82.6069 31.2446 83.2348 31.5704 83.8587C32.0312 84.3875 32.4712 84.9349 32.77 85.5732C32.8925 85.8351 33.0083 86.1187 33.097 86.4032C33.3531 86.7885 33.6134 87.1716 33.88 87.5529C34.742 88.7847 35.6498 89.9515 36.6565 91.0698C37.2615 91.7419 37.9577 92.3419 38.5982 92.9861C38.7924 93.0119 38.9827 93.1442 39.0427 93.3344L39.0951 93.5164V93.5164C39.3015 93.7491 39.4991 93.9887 39.677 94.2441C40.0716 94.8103 39.9634 95.3847 39.6167 95.7987C40.1658 99.226 39.7919 102.872 39.0573 106.195C38.5824 108.343 38.0278 110.488 37.2835 112.56C36.9051 113.613 36.4469 114.624 35.8137 115.549C35.4666 116.056 35.0145 116.646 34.5074 117.128C34.4303 117.69 34.3302 118.246 34.1867 118.792C32.4858 125.259 25.5233 127.228 19.6936 128.054C18.5684 128.213 17.4548 127.941 16.8419 126.892C16.7003 126.65 16.6053 126.389 16.5541 126.121C16.3002 126.054 16.056 125.935 15.8369 125.764C15.8003 126.169 15.7581 126.575 15.7046 126.986C15.5713 128.014 14.1848 128.323 13.8372 127.239C12.3706 122.665 11.5739 117.842 10.5689 113.142C9.56603 108.452 8.4461 103.787 7.40984 99.1034L6.09773 93.1931C2.89614 78.7206 -0.102611 64.0631 0.633428 49.1783C1.03526 41.0531 2.52554 32.9491 5.71526 25.4407C8.37237 19.1858 12.8567 12.1586 20.1009 10.8797C20.1508 10.871 20.1951 10.8761 20.2365 10.8867C21.0968 9.76756 22.1246 8.78204 23.3466 7.99032ZM27.7177 86.6602C28.3019 88.5989 28.7189 90.5864 28.9458 92.6148C29.3238 95.9953 29.1364 99.4583 28.9722 102.848C28.8212 105.962 28.4627 109.103 27.8523 112.161C27.2665 115.097 26.3483 117.976 24.9833 120.646C24.7625 121.078 24.5253 121.499 24.276 121.911C25.0308 121.66 25.7124 121.367 26.4222 120.961C27.3157 120.449 28.1333 119.79 28.5805 119.094C29.2984 117.978 29.5393 116.739 29.6443 115.409C29.9143 111.989 30.0391 108.559 30.2113 105.133L30.2495 104.387C30.528 99.0344 30.8931 93.5451 30.3478 88.1868C29.5807 87.9851 28.8886 87.5893 28.2499 87.0926C28.0737 86.9556 27.8958 86.8107 27.7177 86.6602ZM21.8836 80.1785C22.0448 81.8067 22.199 83.4352 22.3386 85.0649C22.8341 90.8498 23.1402 96.6668 22.8586 102.472C22.712 105.495 22.4174 108.526 21.9083 111.511C21.6788 112.856 21.4014 114.201 21.0914 115.531L20.987 115.974C20.6724 117.292 20.4719 118.939 19.4646 119.898L19.4722 120.097V120.097C20.1793 119.023 20.8334 117.816 21.3017 116.692C23.3889 111.686 23.7702 106.235 24.1473 100.897C24.3797 97.6069 24.5519 94.3125 24.8208 91.0252L24.9514 89.4432C25.1013 87.6021 25.2303 85.7747 25.2127 83.9352C24.8107 83.3356 24.4841 82.7052 24.2812 82.058C24.2487 81.9538 24.2263 81.8486 24.2107 81.7433C23.3605 81.3403 22.56 80.7901 21.8836 80.1785ZM33.3079 91.6343C33.7272 93.0303 34.0695 94.444 34.3133 95.8636C34.7016 98.1234 34.9346 100.397 35.0371 102.679L35.2513 101.873C35.7907 99.8568 36.3639 97.8378 37.0743 95.8814C35.9506 95.0943 35.0117 93.8583 34.195 92.8253C33.8897 92.4393 33.5937 92.0409 33.3079 91.6343ZM17.2156 29.5525C16.7838 30.947 16.4062 32.3573 16.0162 33.7632C15.0998 37.0658 14.5048 40.4588 14.092 43.8582C12.4448 57.4306 13.8167 71.0581 15.611 84.5418C16.3545 90.1286 17.1628 95.7072 17.8566 101.301C17.875 100.752 17.8904 100.203 17.9003 99.6546C18.1112 87.7822 16.1136 76.076 15.3138 64.2649L15.2658 63.5452C14.9033 58.0227 14.6815 52.3971 15.3377 46.8948C15.6753 44.0627 16.2701 41.2912 17.0618 38.5545L17.5331 36.9471C17.8516 35.8663 18.1901 34.7567 18.5918 33.6806C18.5381 33.5774 18.487 33.4735 18.4395 33.3693C17.8836 32.1468 17.4968 30.8618 17.2156 29.5525ZM18.6072 13.5535C14.4609 18.9013 10.9815 24.5822 8.87646 31.1163C4.05871 46.0706 5.13427 62.0615 7.92618 77.3045C9.24174 84.4866 10.9382 91.5851 12.4862 98.7173C10.8292 85.9097 8.69244 73.1302 8.3523 60.1993C8.1666 53.1419 8.53146 46.0515 9.83096 39.1032L9.90788 38.6946C10.4648 35.7581 11.1548 32.6469 12.5671 30.0079C13.334 28.575 14.1805 27.2378 15.1845 25.9578C15.6079 25.4181 16.0832 24.9852 16.5875 24.5893C16.4396 20.9028 16.9969 16.9051 18.6072 13.5535ZM25.372 70.5329C27.4348 70.6141 29.4958 71.1894 31.1202 72.5306C32.391 73.5796 30.5787 75.3524 29.3183 74.333C27.9476 73.2247 26.7182 71.9657 25.2571 70.9576C25.083 70.8373 25.1308 70.5234 25.372 70.5329ZM21.9499 65.0346C21.4912 65.2711 21.0355 65.3189 20.516 65.1912C20.497 65.1866 20.4787 65.1813 20.4608 65.1757L20.3546 65.1411C20.4 65.6331 20.4478 66.1252 20.4951 66.6172C20.9143 66.0267 21.4004 65.492 21.9499 65.0346ZM19.8966 35.3418C19.7141 36.8677 19.5951 38.4011 19.5317 39.9368C19.4702 41.4329 19.4445 42.9335 19.4375 44.4347L19.4356 45.0781L19.4384 45.0658C20.1476 42.0389 21.1507 39.0599 22.4318 36.2092C22.2112 36.2459 21.9873 36.24 21.7667 36.2134C21.2622 36.1523 20.7784 35.9285 20.3455 35.6666C20.1877 35.5711 20.0396 35.4597 19.8966 35.3418ZM40.9378 17.6549C40.0562 18.0536 39.2048 18.5118 38.32 18.9013C36.5654 19.674 34.8486 20.5722 33.2248 21.592C31.5816 22.624 29.9986 23.7106 28.5427 24.9977C28.3722 25.1486 28.2032 25.3012 28.0344 25.4536C28.0004 25.7864 27.9757 26.1206 27.9645 26.4575C27.9584 26.6386 27.9581 26.828 27.9605 27.0226C30.7076 23.6184 34.0289 20.9326 38.2424 19.243C38.9728 18.9501 39.7152 18.6893 40.4643 18.4479C40.6427 18.2002 40.8026 17.9373 40.9378 17.6549ZM40.8594 14.3894C40.3695 13.7388 38.9612 13.7919 38.0732 13.9369C36.6374 14.1715 35.3728 14.6736 34.1422 15.4007C32.6876 16.2596 31.4329 17.4233 30.4511 18.792C30.9343 18.5194 31.4265 18.2622 31.9291 18.0233L32.2735 17.8606C34.1772 16.9679 36.2393 16.1192 38.3215 15.8424C39.2848 15.7143 40.3209 15.529 41.2942 15.6334C41.2462 15.1602 41.1055 14.7163 40.8594 14.3894Z" fill="black"/>
<path fill-rule="evenodd" clip-rule="evenodd" d="M70.1522 90.2739C68.732 89.6943 67.4648 88.7275 66.5384 87.4924C66.2163 87.0631 66.1328 86.6097 66.2003 86.195C66.2763 85.7287 66.5521 85.3061 66.9281 85.0227C67.3053 84.7383 67.7772 84.5981 68.2334 84.6696C68.6298 84.7317 69.0244 84.9488 69.3367 85.3991L69.4019 85.4892C69.9527 86.2346 70.6704 86.8462 71.4882 87.2404C72.2764 87.6204 73.158 87.7978 74.0702 87.6946C75.8076 87.4983 77.0052 86.5583 78.278 85.2818C78.4358 85.1206 78.5936 84.9544 78.7523 84.7855C78.8525 84.6325 78.9915 84.5341 79.1458 84.4824C79.3172 84.4251 79.5111 84.4284 79.6887 84.4903C79.86 84.5501 80.0131 84.6635 80.1158 84.8143C80.2133 84.9576 80.2687 85.1347 80.2507 85.3383C80.1342 86.6612 79.4429 87.8418 78.4608 88.7688C77.3702 89.7984 75.9244 90.5107 74.5633 90.7605C73.0638 91.0357 71.5358 90.8385 70.1522 90.2739V90.2739ZM75.2707 69.866C76.8661 70.8361 79.2969 73.0982 77.5807 75.5032C75.5605 77.6238 72.6519 75.1924 71.2186 74.0928C69.8895 73.2406 68.3963 75.4324 69.6294 76.4275C79.9865 84.0985 84.1896 70.1197 76.0776 68.7254C75.1845 68.5718 74.8527 69.5659 75.2707 69.866ZM56.7106 60.9426C56.8869 58.7538 60.2192 58.2568 60.5506 60.4227C60.8475 62.3629 60.498 64.1452 59.6244 65.892C58.7897 67.5609 56.6917 66.7823 56.5331 65.2627C56.3204 63.2257 56.601 62.3042 56.7106 60.9426ZM82.0762 59.9736C82.5408 59.3649 83.2116 58.9494 84.0152 59.1842C86.5261 59.9182 85.7861 63.4844 84.9042 65.2202C84.4251 66.1628 82.8763 66.4018 82.1763 65.5719C81.0355 64.2184 80.4892 61.5154 81.9395 60.1822C81.9788 60.1133 82.0225 60.0438 82.0762 59.9736ZM59.5891 51.3651L59.9857 51.2957C61.2127 51.0834 62.7383 50.8794 63.6063 51.8662C64.0667 52.3895 64.2251 53.3622 63.6063 53.8631C62.5179 54.7444 61.3145 54.4028 60.0101 54.4775C58.9352 54.5392 57.9021 54.7171 56.8667 55.0132C54.5951 55.6627 52.7442 56.8484 50.8041 58.1503C50.5496 58.3211 50.2897 57.9954 50.4112 57.7572C51.5311 55.5627 53.7015 53.7601 55.8754 52.6613C57.0357 52.0748 58.3054 51.5883 59.5891 51.3651ZM79.7873 50.3821L80.0909 50.4442C83.3945 51.1351 87.6867 52.515 89.2512 55.7613C89.3108 56.2203 89.2478 56.3187 89.1966 56.3829L89.1795 56.4043C89.1373 56.4592 89.1036 56.5349 88.9048 56.5974C88.8496 56.5842 88.7938 56.5703 88.7375 56.5555C88.0204 56.3675 87.453 56.1085 86.9037 55.8398L86.3082 55.5462C85.6172 55.2073 84.9202 54.8807 84.1814 54.6396C82.6049 54.1252 80.9833 53.7628 79.3367 53.5693C78.9797 53.5274 78.6361 53.4069 78.3649 53.2004C78.1076 53.0044 77.9109 52.733 77.8213 52.3722C77.7051 51.9053 77.7385 51.5518 77.9889 51.1306C78.1772 50.8143 78.4466 50.5951 78.756 50.4692C79.0714 50.3408 79.4304 50.3106 79.7873 50.3821Z" fill="black"/>
<path fill-rule="evenodd" clip-rule="evenodd" d="M86.8893 54.1489C91.8482 54.1489 94.678 55.2157 95.715 55.2988L95.7462 55.3011C96.1775 55.3287 96.5645 55.3647 96.9704 55.5218C98.4631 56.0969 98.7063 57.6631 97.8352 58.6502C97.7741 60.6926 98.0426 63.079 97.5819 65.128C97.0136 73.7661 92.9528 75.2239 90.6446 75.7559C89.4857 76.0231 88.1122 76.1294 86.8813 75.8474C84.7813 75.7691 82.7052 75.1114 80.929 73.9662C78.4552 72.3701 76.6179 69.9168 76.0216 67.0054C75.739 65.6175 75.607 64.173 75.7608 62.7624L75.7835 62.568C74.9795 62.1832 74.0477 62.1104 73.0871 62.0765C72.6283 62.0601 72.1761 62.0455 71.7367 62.065C71.3073 62.113 70.883 62.1769 70.4573 62.2639C69.9926 62.4042 69.5537 62.6357 69.1484 63.0024L69.1204 63.5376C69.0443 64.8746 68.8688 66.2157 68.5982 67.5274C68.1986 69.4629 67.5558 71.3113 66.1879 72.6842C65.7248 73.3761 65.1518 73.9936 64.4562 74.5284C61.9294 76.4747 58.4963 77.1893 55.3456 76.9202C48.9491 76.3741 45.2517 71.2944 44.3997 69.1231L44.3488 68.9916C43.7332 67.3774 43.2427 65.283 41.2977 64.9362L40.8841 64.8618C39.9965 64.6952 39.1776 64.4631 38.6571 63.5968C38.429 63.2187 38.3117 62.7957 38.2829 62.3645C37.9793 62.3878 37.6761 62.4101 37.374 62.4317C34.9637 62.9417 20.5072 63.374 19.3533 63.374C19.3533 63.374 17.1352 64.308 16.1987 63.5843C15.5496 63.0811 15.3361 62.4105 15.6934 61.6508C16.2325 60.5077 18.7199 59.8201 19.8244 59.6023C19.8244 59.6023 37.6479 59.7504 38.9307 59.5071C39.7245 58.6884 41.1442 58.8004 42.3306 58.671C43.3127 57.9704 44.6866 57.5012 45.7719 57.1871C45.993 57.1033 46.2121 57.0222 46.425 56.9458C48.4146 56.237 50.4826 55.8616 52.5821 55.6599C54.7472 55.4541 56.9186 55.5473 59.071 55.8422C59.9781 55.9653 60.8767 56.1245 61.7689 56.3327C63.3665 56.5434 64.9549 56.8904 66.5531 57.3021L66.8729 57.3853C68.5559 57.8267 70.2854 58.2085 72.0276 57.9093C73.446 57.6673 74.81 57.1212 76.1178 56.5307L76.288 56.4534C79.1635 55.14 83.6542 54.1489 86.8893 54.1489ZM61.596 58.9513C60.535 58.7179 60.0819 60.3543 61.1462 60.5884C61.8999 60.7542 62.5387 61.1344 62.9703 61.7785L63.0157 61.8486C63.5948 62.7705 65.0592 61.9194 64.4761 60.9916C63.82 59.9475 62.8005 59.2162 61.596 58.9513ZM92.6705 57.9367C92.2965 57.6731 91.7305 57.8688 91.5133 58.2412C91.2743 58.6513 91.431 59.108 91.7813 59.3763L91.8169 59.4025C92.1383 59.629 92.4512 60.0351 92.4905 60.4512L92.494 60.5033C92.536 61.5922 94.2277 61.5977 94.1854 60.5033C94.1442 59.4326 93.5245 58.5381 92.6705 57.9367Z" fill="black"/>
</svg>
