<svg width="102" height="124" viewBox="0 0 102 124" fill="none" xmlns="http://www.w3.org/2000/svg">
<path fill-rule="evenodd" clip-rule="evenodd" d="M87.8042 53.3169C87.02 47.0565 84.5566 40.4097 81.9658 34.5733C76.1403 22.2334 62.8036 20.5344 50.8478 17.9902C39.0498 16.2719 26.5565 14.7204 14.9363 18.1487C8.40371 19.7497 5.85223 27.5328 6.88322 33.6749C7.4716 37.5022 9.21308 41.1246 10.6981 44.6717C13.6497 51.9561 15.5224 59.7547 15.5255 67.6414C15.3229 72.7954 14.5958 78.6781 20.5163 80.8612C26.1502 83.6639 26.6262 91.2615 33.6806 95.5722C36.5331 101.352 44.3034 101.861 49.8958 103.202C53.4305 103.879 57.0052 104.377 60.5896 104.699C70.9683 106.029 79.2711 103.02 84.7041 93.7713C88.3398 88.1424 91.0472 81.643 90.3783 74.821C89.7122 67.6372 88.6024 60.491 87.8042 53.3169Z" fill="white"/>
<path fill-rule="evenodd" clip-rule="evenodd" d="M50.9375 2.99306C51.5299 2.32139 52.4426 2.55176 52.9965 3.08288C53.3571 3.18919 53.7066 3.34728 54.0366 3.55652C54.7824 3.46078 55.5643 3.46078 56.2957 3.48762C56.4731 3.38807 56.6633 3.29952 56.8703 3.22343C58.3492 2.68259 59.6588 2.95734 60.739 3.68143C61.2594 3.18898 61.9158 2.87999 62.755 2.9267C63.5039 2.96854 64.0376 3.32108 64.495 3.78541C64.9511 3.12748 65.6884 2.65807 66.607 2.59276C67.8909 2.50146 69.1251 3.01652 70.1481 3.81394C70.744 3.13001 71.5566 2.7369 72.4621 2.7331C73.0578 2.62489 73.6866 2.66758 74.2547 2.8392C75.0795 3.08838 75.8037 3.55525 76.3805 4.16119C77.2929 3.28705 78.4099 2.65807 79.6978 2.7498C81.3647 2.87027 82.7464 4.09631 83.3886 5.60535C84.5168 6.05743 85.5583 6.70226 86.4288 7.62163C86.4752 7.67003 86.5196 7.72075 86.5661 7.77169C87.0351 7.94479 87.4767 8.19016 87.8654 8.51332C89.0971 9.53858 89.3717 11.0223 88.964 12.4761C89.021 12.7088 89.0696 12.9455 89.114 13.182C90.2675 13.3575 91.3154 14.0234 91.9112 15.1077C92.7267 16.5956 92.5661 18.5567 91.683 19.9772C91.3033 20.5882 90.8214 21.103 90.2802 21.5532C90.8922 22.9439 90.5986 24.6034 89.6117 25.7282C89.3713 26.116 89.0762 26.466 88.744 26.7829C89.1106 28.2207 88.4586 29.7041 87.1572 30.4724L87.0459 30.7511C87.0272 30.7974 87.0082 30.8435 86.9886 30.8892C86.9743 30.9484 86.9565 31.0056 86.939 31.0633C86.9079 31.5735 86.74 32.0742 86.4066 32.546C85.7241 33.5127 84.8781 34.1432 84.4295 35.2717L84.3845 35.3903C84.1916 35.9244 83.5688 36.3012 83.0381 36.1364C85.9847 42.1897 87.5295 48.9252 88.59 55.5261C89.1189 58.8192 89.527 62.1236 89.858 65.4408L90.1826 68.744C90.4681 71.6802 90.7222 74.6261 90.7238 77.572C90.7281 84.2361 88.8224 90.6461 84.7323 95.9491C80.864 100.962 75.39 104.595 69.2062 106.026C62.8217 107.501 55.3323 106.92 49.6069 103.543C47.9189 102.55 49.3978 100.161 51.1154 100.96C54.3668 102.474 57.671 103.598 61.2752 103.849C64.7886 104.096 68.3105 103.657 71.6421 102.507C77.1541 100.603 81.8443 96.6149 84.859 91.6482C86.3443 89.2005 87.4196 86.544 87.9921 83.7371C88.7048 80.2387 88.5975 76.6226 88.3356 73.0794L88.3175 72.838C87.7999 66.0112 87.1175 59.1423 86.0147 52.3835C85.0399 46.4067 83.5409 40.5511 81.595 34.8249C80.8327 34.1537 79.98 33.5983 79.0676 33.1764C72.3858 32.8972 65.692 32.9788 59.0189 33.44C53.3278 33.8358 47.6643 34.5056 42.0435 35.4817L41.4414 35.5875C40.1971 35.8092 38.8154 35.936 37.6428 36.4371C36.6372 36.8683 36.2295 37.6968 35.9759 38.7153C35.3379 41.2916 35.2407 44.1113 35.133 46.7531C35.0274 49.3356 35.2661 51.9397 35.059 54.5137C34.8837 56.6674 34.3323 58.8717 32.7372 60.4296C31.9027 61.2452 30.8759 61.6912 29.9126 62.3104C29.2893 62.7101 29.0252 63.122 29.1055 63.8617C29.2788 65.4807 30.5823 67.5202 29.1182 68.9067C28.8605 69.1497 28.4147 69.1814 28.1612 68.9067C27.5569 68.2496 26.7224 67.7485 26.0062 67.218C25.7062 66.9984 25.9555 66.5714 26.2957 66.7234C26.7436 66.9244 27.1999 67.1611 27.6668 67.3682C26.6358 66.5186 25.1696 66.102 23.9485 65.8548C23.3337 65.7322 22.6872 65.6962 22.0471 65.7535C21.5738 65.9795 21.09 66.1889 20.6062 66.3937C19.9914 66.6518 19.3703 66.8861 18.745 67.1083C16.5752 68.8771 15.54 71.7538 15.9921 74.5668C16.2393 76.12 16.9555 77.8089 18.3055 78.7156C19.9048 79.7893 22.0471 79.3283 23.7752 80.1253C25.3936 80.8712 26.3781 82.3783 27.1154 83.9381L27.4228 84.5875C28.1071 86.0253 28.8106 87.4249 29.7457 88.7334C30.8274 90.2488 32.152 91.6099 33.5971 92.7789C34.2981 93.3446 35.0453 93.8535 35.8176 94.3169L36.0288 94.4422C36.8105 94.9008 37.3703 95.3381 37.4231 96.3082C37.44 96.6464 37.2267 96.9549 36.952 97.1304C35.7689 97.8807 34.5921 96.9423 33.6076 96.2871C32.545 95.5812 31.5288 94.7867 30.5886 93.9202C28.8013 92.2759 27.2548 90.323 26.0654 88.2029C25.159 86.5884 24.6436 84.3164 23.2112 83.0652C22.3365 82.302 21.1006 82.2959 20.0083 82.1562C18.9921 82.0254 18.0309 81.814 17.1267 81.3131C13.4485 79.2694 12.409 74.3217 13.2816 70.4983C13.4295 69.8535 13.6365 69.2258 13.8921 68.6213C12.5231 68.8496 10.9851 67.4338 11.5407 66.0048C11.583 65.897 11.6316 65.7958 11.6781 65.692C10.7759 65.0981 10.064 64.198 9.72595 63.0205C9.55271 62.4119 9.52736 61.7968 9.6182 61.2029C9.18088 60.9094 8.81961 60.5055 8.58721 60.0088C7.86045 59.6728 7.21609 59.17 6.83158 58.4514C6.29919 57.4599 6.36679 56.5469 6.77243 55.7247C6.71538 55.6214 6.66045 55.5157 6.60764 55.4077C5.1182 54.4632 4.07876 52.8356 4.19707 51.0306C4.2351 50.4325 4.38299 49.8936 4.61116 49.4077C4.59214 49.3464 4.57313 49.2828 4.55623 49.2215C3.30975 48.5874 2.27876 47.5457 1.91116 46.155C1.54355 44.7557 1.97665 43.3607 2.84285 42.2871C1.57524 41.3595 0.812566 40.0639 1.27524 38.1045C1.46327 37.3079 1.84144 36.5827 2.35271 35.9719C2.35059 35.9531 2.34637 35.9341 2.34214 35.9149L2.22355 35.8229C0.658679 34.5875 -0.240886 33.0132 0.719609 31.0771C1.15059 30.2065 1.76538 29.5997 2.48792 29.2003L2.52383 29.0862V29.0862C2.00623 27.9766 1.83088 26.7444 2.18792 25.4488C2.47947 24.3817 3.17031 23.5319 4.05341 22.9678C3.99426 22.4899 4.00271 21.9808 4.09778 21.4289C4.25623 20.4971 4.7189 19.6834 5.39496 19.1064C5.42031 18.9836 5.452 18.8634 5.48792 18.7427C5.71609 18.0053 6.14285 17.2043 6.63721 16.6101C7.04496 16.1177 7.5013 15.9381 8.05905 15.919C8.02524 15.4648 8.04848 15.0039 8.14144 14.5368C8.42665 13.0956 9.34355 11.7406 10.702 11.1256C11.2597 10.8741 11.8471 10.8003 12.4133 10.8614C12.895 9.84694 13.8351 9.11165 14.9907 8.95314C15.4407 8.88973 15.859 8.89375 16.2436 8.95102C16.4612 8.84936 16.6872 8.75869 16.9238 8.67606C17.0802 8.62111 17.2386 8.57038 17.3971 8.51987C17.9316 7.85623 18.6351 7.32553 19.4569 7.0066C20.4055 6.63674 21.371 6.67457 22.2267 6.98525L22.4992 6.92819V6.92819C22.9259 6.18846 23.6062 5.61571 24.652 5.35574C25.8393 5.06197 27.0583 5.47199 27.9921 6.21826C27.9964 6.21826 28.0006 6.21826 28.0069 6.21594C28.495 5.12326 29.3295 4.3624 30.7302 4.41524C31.6027 4.44905 32.3907 4.88253 32.9992 5.49967C33.3372 5.45719 33.6752 5.41915 34.0154 5.38132C34.3745 4.96052 34.7738 4.56762 35.2154 4.21466C35.9379 3.63535 36.8781 3.68206 37.4105 4.49766C37.5266 4.6752 37.6344 4.85484 37.7421 5.03449L38.2302 5.00068V5.00068C38.8048 4.22502 39.5886 3.70087 40.6619 3.65881C41.6464 3.61845 42.3478 4.10054 42.8823 4.77453C43.3175 4.76396 43.7548 4.75572 44.1921 4.74917C44.7013 4.1595 45.3013 3.63958 45.9858 3.20843C46.5097 2.87872 47.283 2.99095 47.7076 3.43055C47.9945 3.7294 48.2616 4.04136 48.5098 4.3643C49.1497 3.64655 50.014 3.17376 50.9375 2.99306ZM19.8436 70.1073C20.8302 69.5451 22.1569 70.1537 23.1119 70.6314C24.2759 71.2126 25.4316 72.0897 26.1436 73.1887C27.1133 74.6851 24.8337 75.894 23.8133 74.5519C23.1858 73.7256 22.6851 72.8928 21.9245 72.17C21.2295 71.5064 20.2217 71.0626 19.8224 70.1876C19.8076 70.158 19.8119 70.1242 19.8436 70.1073ZM20.5366 33.7865L20.5551 33.7337C20.8357 32.9659 19.6112 32.6349 19.3329 33.3964C18.9112 34.5506 19.3974 35.8054 20.5369 36.3038C20.8528 36.442 21.2136 36.394 21.404 36.0764C21.5639 35.809 21.4898 35.3457 21.1767 35.209C20.5355 34.9285 20.3207 34.4334 20.5366 33.7865V33.7865ZM9.98771 31.6395C10.6006 31.0984 9.70123 30.2042 9.0913 30.7429C8.52214 31.2455 8.10003 31.9282 8.20968 32.7133C8.32144 33.5135 8.92461 34.0785 9.58482 34.4777C10.2845 34.901 10.9224 33.805 10.2245 33.3827L10.1461 33.3347C9.85323 33.1527 9.51038 32.9025 9.46081 32.5445C9.4082 32.164 9.72996 31.8671 9.98771 31.6395ZM13.4667 22.0924L13.5102 22.0604C14.1685 21.5904 13.5362 20.4901 12.8702 20.9654C12.2597 21.4015 11.77 21.9679 11.7184 22.749C11.6683 23.5082 12.0545 24.1663 12.5595 24.7004C13.1212 25.2945 14.0166 24.3967 13.4559 23.8039C12.9095 23.2261 12.8028 22.5956 13.4667 22.0924V22.0924Z" fill="black"/>
<path fill-rule="evenodd" clip-rule="evenodd" d="M73.5778 84.3314C73.7244 84.2917 73.8535 84.4886 73.732 84.5964C73.2347 85.0379 72.9188 85.8605 72.5559 86.4212C72.2107 86.9547 71.8779 87.4826 71.5743 88.041C71.234 88.6668 70.9052 89.2903 70.6403 89.9525L70.5879 90.086V90.086C70.6672 90.2749 70.7293 90.4613 70.775 90.5836L70.7882 90.6182C71.2407 91.7743 70.2909 93.0591 69.2195 93.3823C67.387 93.9349 65.8148 92.4295 65.771 90.6392C65.7366 89.2307 66.6909 87.9757 67.6606 87.0447C68.5088 86.2304 69.4587 85.5372 70.5212 85.0293C70.99 84.8055 71.4769 84.6182 71.9859 84.5096C72.5064 84.3986 73.068 84.4692 73.5778 84.3314ZM70.124 89.4355C70.2583 89.4989 70.3731 89.6538 70.4696 89.8348C70.4214 89.6813 70.3219 89.5287 70.124 89.4355ZM71.2706 69.8659C72.8659 70.836 75.2968 73.0981 73.5805 75.5031C71.5603 77.6237 68.6517 75.1923 67.2184 74.0927C65.8894 73.2405 64.3961 75.4323 65.6292 76.4274C75.9863 84.0984 80.1895 70.1196 72.0775 68.7253C71.1843 68.5717 70.8526 69.5658 71.2706 69.8659ZM58.1565 60.5507L58.4384 60.527C59.661 60.4192 60.899 60.2549 62.1047 60.5317C63.7245 60.9036 63.6057 63.261 62.1047 63.6945C60.7817 64.0764 59.3157 63.9111 57.9501 63.9242C57.7352 63.9264 57.5208 63.9319 57.3061 63.9354C57.2639 64.4463 57.0964 64.8867 56.8399 65.3268C56.6561 65.6425 56.4216 65.9424 56.1909 66.2229C55.6424 66.8895 54.3488 66.8745 53.7953 66.2229C53.3859 65.7406 53.0599 65.1858 53.0546 64.5329C53.0533 64.3658 53.0736 64.1882 53.1135 64.0136L52.3682 64.0267C50.5439 64.0545 48.7056 64.0422 46.9143 63.7522C46.2771 63.8841 45.7557 62.7339 46.6352 62.3896C49.0261 61.4542 51.6972 61.1788 54.2343 60.8979C55.538 60.7534 56.849 60.6538 58.1565 60.5507ZM78.5251 59.584L78.5902 59.5775C80.1724 59.4154 81.9164 59.1348 83.5017 59.2962C85.8688 59.537 85.8647 62.7381 83.5017 62.9775C82.6343 63.0654 81.7203 63.0228 80.8089 62.9386C81.2747 63.9273 80.7221 65.1081 79.5996 65.259C78.5565 65.3992 77.4754 64.3852 77.8176 63.2976L77.8336 63.2495C77.9004 63.0608 77.9604 62.8499 78.0316 62.6417L77.6541 62.6098C76.5258 62.51 74.9597 62.3063 74.5444 61.415C74.4191 61.1464 74.4481 60.897 74.6409 60.6675C75.4319 59.7256 77.3817 59.6946 78.5251 59.584V59.584ZM61.7007 52.2548C62.8457 51.8386 64.0358 52.8125 64.1843 53.9101C64.3554 55.1749 63.4435 56.0076 62.2877 56.1586L62.2297 56.1656C59.6784 56.4467 57.1464 56.9607 54.5917 57.2513C53.4315 57.3831 52.2625 57.4699 51.0945 57.5011L50.2598 57.5198C49.2369 57.5457 48.1398 57.569 47.1955 57.2167L47.1991 57.2103V57.2103C46.9483 57.1376 46.8329 56.7758 47.112 56.578C48.1174 55.8668 49.4727 55.5979 50.6431 55.26C51.8199 54.9199 53.0053 54.6065 54.1939 54.3121C56.6898 53.6945 59.2825 53.1336 61.7007 52.2548ZM72.2612 52.5505C72.5646 50.9503 74.8304 50.7787 75.6626 51.943C76.2005 52.1278 76.9892 52.3205 77.4778 52.4655C78.3292 52.7181 79.1813 52.9691 80.0352 53.2124C81.8035 53.7163 83.5292 54.355 85.2677 54.9503C85.4468 55.0118 85.3976 55.2392 85.2254 55.2619C82.7989 55.5778 80.4131 55.7248 77.9719 55.6235L77.4714 55.601C75.3203 55.5171 71.6685 55.6771 72.2612 52.5505Z" fill="black"/>
<path fill-rule="evenodd" clip-rule="evenodd" d="M75.7451 93.5255C73.7776 91.7719 71.5722 88.2466 68.7456 91.036C68.0465 91.8241 67.7634 93.591 66.6944 93.9376C65.2747 94.3984 63.8677 92.8957 63.3839 91.7417C61.4043 85.33 69.5875 83.5713 74.2494 84.6072C76.5268 85.5428 78.2043 89.3091 78.3057 91.2746C78.3712 92.5956 77.2536 94.5379 75.7451 93.5255M90.5888 83.6428C90.5696 83.5576 90.5427 83.4807 90.5104 83.4107C89.6402 83.0816 88.9517 83.4173 88.5262 84.0441C88.5401 84.1999 88.5866 84.3578 88.616 84.5123C88.2877 85.2042 87.9915 86.0604 87.5465 86.6583C87.4587 86.6651 87.3676 86.6558 87.2801 86.6304C79.9041 87.401 83.5052 79.6806 76.024 77.763C70.241 76.8085 59.7887 77.9019 57.0606 83.9234C54.9091 93.5416 43.969 86.8397 40.377 81.8376C36.5444 77.2854 34.0663 71.7226 31.6768 66.3247C31.1719 65.1824 29.5961 65.9993 29.7674 67.0953C27.5588 71.5275 27.6323 76.8515 27.0854 81.707C26.1549 91.3943 25.2484 104.979 34.2456 110.894C45.9682 124.15 75.2411 128.827 88.7618 116.648C93.4422 106.581 92.8652 94.3005 90.5888 83.6428" fill="black"/>
</svg>
