<svg width="104" height="121" viewBox="0 0 104 121" fill="none" xmlns="http://www.w3.org/2000/svg">
<path fill-rule="evenodd" clip-rule="evenodd" d="M55.31 12.4507C64.7688 12.4507 76.1176 17.038 77.0825 17.1297L77.1086 17.1311C77.6162 17.1311 79.5999 18.6429 83.0595 21.6666L79.3124 28.978L79.6156 29.2677C81.0667 30.6595 82.3055 31.9281 83.2834 32.9282C91.2675 41.0935 92.7025 73.1532 90.8209 84.3334C88.9393 95.5137 85.4543 106.454 69.2292 106.454C53.0042 106.454 34.9535 96.6942 32.1729 93.6549C30.3191 91.6287 28.2369 90.658 25.9262 90.7428C25.8312 90.6229 25.737 90.5034 25.6436 90.3842L25.3036 90.336C22.1056 89.8727 19.8142 89.249 18.4294 88.4653C15.7245 86.9344 12.7515 78.8863 12.7515 77.1134C12.7515 75.3583 8.31216 62.5901 8.22338 61.2389L8.22203 61.2015C8.22203 60.072 2.4225 54.8796 2.4225 53.2306C2.4225 51.5816 1.25352 51.6817 2.4225 45.8709L2.76213 44.1639C4.00612 37.9771 6.44094 27.7327 15.7245 23.2812C25.9262 18.3894 45.7557 12.4507 55.31 12.4507Z" fill="white"/>
<path fill-rule="evenodd" clip-rule="evenodd" d="M14.1499 23.0512C19.2378 17.6487 48.1227 9.29237 62.7363 11.0637L63.1748 11.1205C64.341 11.2685 65.4903 11.4925 66.6246 11.7968C70.2909 12.6534 74.0781 13.9505 77.1074 16.117C79.6365 17.8894 87.6146 20.7839 85.2632 25.4205C86.1351 27.073 86.4605 29.1147 85.8712 30.7423C85.7971 31.3045 85.6238 31.8223 85.4022 32.3591C87.265 35.109 88.7398 38.2188 89.9337 41.1766C92.02 48.6206 93.3182 56.3674 93.5084 63.9623C94.1409 78.3916 92.5593 95.6274 79.9969 104.958C72.408 110.871 60.5204 111.069 51.9922 103.738C51.5081 103.165 49.2322 101.619 49.9917 101.348C50.2177 101.587 50.4501 101.819 50.6867 102.048C50.676 102.022 50.6738 101.997 50.6783 101.969L50.4557 101.768C50.0366 101.38 49.4937 100.817 50.1121 100.927C50.1393 100.959 50.1691 100.987 50.1985 101.018C50.3295 101.097 50.4284 101.165 50.5054 101.225L50.545 101.257L50.5328 101.244C50.1766 100.864 49.963 100.477 50.4956 100.724L50.5661 100.758C50.8029 101.008 51.0436 101.247 51.2886 101.479C51.2846 101.452 51.2886 101.424 51.3036 101.395L51.0751 101.174C50.8521 100.955 50.8861 100.954 50.9952 100.777C50.5211 100.113 51.4061 100.508 51.4682 100.767C52.0219 100.636 52.5081 101.676 52.8647 101.802C68.4983 113.826 91.1857 103.157 90.8183 69.6531L90.8127 68.9976C90.7052 58.2844 89.804 47.2732 85.3746 37.5752C84.9438 36.6411 84.4619 35.7323 83.9318 34.853C83.5663 34.1936 83.1755 33.5511 82.755 32.9255C81.5781 32.8304 80.4161 32.6148 79.2712 32.2809C78.8781 32.1816 78.4893 32.0717 78.1008 31.9427C72.4219 32.2526 66.8696 32.5897 61.1749 32.9092L59.3961 33.0201C54.572 33.3303 49.583 33.8273 45.69 36.8123C41.8703 39.5298 41.853 44.8886 38.5832 47.8722C33.9205 51.038 33.8865 53.8927 32.9886 58.5581C33.0552 62.075 35.4928 67.1848 31.0196 68.6649C31.7743 69.7413 30.7224 69.2241 30.6396 68.8466C30.6311 68.8487 30.6226 68.8508 30.6163 68.8508C31.2888 70.1014 30.3003 69.3139 30.2128 68.9121C30.16 68.8973 30.1072 68.8593 30.0543 68.8065C30.7319 69.9021 29.6367 69.1349 29.7015 68.9354C28.3923 66.9223 25.6978 66.6097 23.7985 67.1431C23.7753 67.215 23.691 67.2213 23.6381 67.1833C15.562 68.9341 17.6457 85.6595 25.9219 84.0427C26.2762 83.9704 26.2678 84.1406 26.3381 84.1568C26.1469 83.6547 26.6859 83.859 26.6802 83.9645L26.713 83.9629C26.739 83.9606 26.7284 83.9578 26.7478 83.9645C26.5629 82.9375 27.6032 84.4255 27.521 84.4865C27.5529 84.4675 27.5888 84.4569 27.6205 84.4527L27.5847 84.3552C27.4121 83.8951 27.4269 84.0864 27.4281 83.8229C27.2984 83.4972 27.2888 83.6397 27.3193 83.4275C27.7752 83.0741 27.9098 84.1461 28.0619 84.2245C27.8012 83.8609 28.0084 83.564 28.2543 83.7614C30.1184 87.6836 32.5262 91.3689 35.6379 94.2721C35.9783 94.5405 36.3227 94.8047 36.6795 95.054C38.0031 96.2074 40.0334 96.949 41.2724 97.9707C41.2724 97.9876 41.2642 98.0087 41.2515 98.0299L41.2799 98.0555V98.0555L41.3086 98.0827L41.7396 98.2898C41.8663 98.3976 41.9804 98.5181 42.0816 98.6512C42.1896 98.7759 42.2844 98.9133 42.3649 99.0591C42.405 99.2367 42.3163 99.3106 42.1473 99.2346C42.0731 99.2092 41.9994 99.1796 41.9255 99.1521C41.9297 99.1585 41.9316 99.1627 41.936 99.1669C41.9603 99.2036 42.1244 99.5842 41.9353 99.5223L41.9128 99.5135C41.8091 99.4755 41.7058 99.4332 41.6043 99.3931C41.7248 99.5431 41.8344 99.7059 41.9316 99.8432C42.0353 99.951 42.0985 100.078 42.1241 100.222C42.1196 100.302 42.0755 100.336 41.9952 100.325C41.8727 100.285 41.7522 100.243 41.6316 100.198L41.6659 100.264C41.7511 100.431 41.8723 100.713 41.6572 100.619C41.4731 100.562 41.2959 100.496 41.1184 100.424C41.1034 100.454 41.0741 100.465 41.0149 100.437C40.4508 100.236 39.9057 99.9912 39.3839 99.7016C38.9255 99.3677 38.4626 99.0401 38.0022 98.7083C37.5689 98.4483 37.1506 98.1588 36.7515 97.8333C34.0798 96.107 31.7409 93.914 29.8853 91.4717C26.782 94.1603 20.5773 91.5917 16.7392 89.4871C13.3443 87.6061 12.01 84.1281 11.665 80.3783C10.9477 75.33 6.82378 73.602 7.11068 62.5251C7.10434 62.5272 7.09779 62.5272 7.08934 62.5272C6.93934 62.4829 6.79378 62.4237 6.65645 62.3476C6.5149 62.28 6.3818 62.1996 6.25694 62.1024L6.10272 61.889V61.889C6.02265 61.8446 5.95082 61.7981 5.89589 61.7516L5.8674 61.7883C5.77723 61.8972 5.83784 61.7334 5.84307 61.7009L5.57515 61.3364C4.9399 60.4687 4.24296 59.4952 3.67525 58.7166L3.65737 58.7482C3.64453 58.7721 3.63774 58.7894 3.64378 58.7969C2.29272 56.855 1.02216 54.5095 0.669127 52.2387C0.252296 50.4896 0.415183 48.6872 0.778775 47.067C2.33772 41.3933 7.44448 28.5542 14.1499 23.0512ZM50.8149 101.516L50.7303 101.44L50.8047 101.534C50.8437 101.582 50.8837 101.625 50.9487 101.669C50.9445 101.655 50.9445 101.64 50.9464 101.623C50.9032 101.59 50.8591 101.554 50.8149 101.516ZM62.6717 13.9146C52.7616 13.0622 43.0143 15.2463 33.5576 17.8901L32.9052 18.0776C27.528 19.6126 21.8422 20.9938 17.298 24.2792C10.9492 29.1438 7.67075 36.8826 4.80976 44.0278C2.31152 49.3364 3.58863 55.3225 7.35342 59.0294C7.74511 55.3458 8.41293 51.7699 9.45659 48.2228C9.67441 47.6687 9.50962 47.4871 9.97906 47.4149C10.6881 56.9738 7.19603 64.0363 14.1066 75.3651C17.1051 80.7105 13.634 84.6218 22.1016 87.4347L22.3307 87.5223C24.0948 88.1882 26.0214 88.7138 27.7492 88.3416L27.5944 88.0897C27.4365 87.8303 27.3886 87.7043 27.6182 87.5934C27.6121 87.5807 27.6036 87.568 27.595 87.5532C27.4093 87.2024 27.2297 86.8473 27.0584 86.488C26.9888 86.5113 26.9191 86.5282 26.8471 86.5472C26.8938 86.6339 26.8999 86.7205 26.7691 86.7501C26.3036 86.9099 25.8255 86.9739 25.3361 86.9439L25.2311 86.9361C24.6782 86.9023 24.3298 86.8015 24.0182 86.7078C23.9149 86.6909 23.8114 86.674 23.7098 86.6529C22.7073 86.4305 21.6461 85.865 20.9593 85.3045C13.1301 80.856 13.9393 65.7129 23.5895 64.2814C23.7875 54.747 28.3207 38.6616 35.8439 29.5763C42.6442 21.2193 61.2091 17.5971 74.1252 18.8743C74.3134 18.9367 74.5017 18.9997 74.6899 19.0633C76.6826 19.2404 78.5817 20.1285 80.5758 20.541C79.1441 19.4676 77.5198 18.7526 75.8468 18.145C72.5134 16.1052 68.692 15.0015 65.0001 14.2231C64.2353 14.035 63.46 13.9315 62.6717 13.9146ZM23.1479 71.9408C23.6667 71.6588 23.6074 71.931 23.7267 71.852C27.459 71.5474 31.4834 74.8164 33.5697 77.5415C33.4049 77.7127 32.9591 77.2055 32.881 77.1252C32.8704 77.1358 32.8577 77.1442 32.845 77.1484L32.9031 77.2305C33.7487 78.4444 32.0724 77.0159 31.9155 76.7215C31.888 76.7363 31.8605 76.7448 31.8288 76.7384C31.9617 76.8688 32.3676 77.2089 32.4373 77.4507L32.5449 77.5402C33.5595 78.4094 33.4753 79.0632 32.3234 77.829C32.3507 77.886 32.3612 77.9389 32.3422 77.9812L32.3819 78.0076C32.9483 78.4036 33.4141 79.5074 32.2302 78.3743C32.3534 79.2019 31.0571 77.6022 31.0155 77.6134C28.7722 75.8518 25.4695 74.1386 22.6556 73.9084L22.5588 73.8973C22.0424 73.8309 21.7983 73.6777 21.9795 73.3399C21.3436 73.1886 21.4926 72.8753 21.7936 72.8855C21.3451 72.5904 21.7488 72.3083 22.0091 72.4184C21.8302 71.9228 22.5479 72.2529 22.6133 72.1838C22.9858 71.6091 23.0862 72.0885 23.1479 71.9408ZM15.3246 41.221C17.1172 40.5641 22.4122 42.5305 21.9886 45.1348C21.7364 45.7327 20.9053 46.0753 20.3211 45.7378L19.5587 45.2255C18.2319 44.3366 17.0352 43.5571 15.6107 42.7818C14.8353 42.397 14.5015 41.5799 15.3246 41.221ZM25.5236 37.3509L24.8312 36.9002C21.0952 34.4541 15.8137 30.7477 25.1802 34.5824C26.2478 35.0404 27.6662 35.3114 28.2487 36.3284C29.1637 38.2029 26.7557 38.3288 25.5236 37.3509ZM25.9434 26.3757C25.6436 25.2376 29.374 26.5731 30.4599 26.9252L30.6253 26.9877C31.6816 27.3815 32.8925 27.7468 33.5243 28.6587C34.2646 29.9188 32.7663 30.1798 31.8382 29.6106C29.9353 28.3666 27.849 27.428 25.9434 26.3757ZM35.4294 21.074C33.3297 18.7802 38.9491 20.9776 39.7908 21.5876L39.8149 21.6056C40.443 22.0479 40.3156 23.0007 39.7255 23.2805C38.0465 23.3124 36.8111 21.9124 35.4294 21.074ZM44.9842 18.5608C41.6461 16.1609 46.0432 17.3024 47.5705 18.2429C48.6114 19.1613 47.5392 20.7115 44.9842 18.5608Z" fill="black"/>
<path fill-rule="evenodd" clip-rule="evenodd" d="M77.1252 87.7769C78.4604 87.4656 79.5092 88.5968 79.2468 89.8993C78.969 91.2782 77.4869 91.7507 76.2443 91.7074C74.8353 91.6586 73.4274 91.3676 72.0115 91.309C70.5569 91.249 69.0969 91.238 67.6414 91.2773C66.2952 91.3137 64.9135 91.551 63.5779 91.338C63.0578 91.2549 63.107 90.568 63.4454 90.3239C64.4502 89.599 65.7525 89.3035 66.9369 88.9994C68.1445 88.6891 69.3789 88.4516 70.6173 88.3066C71.8729 88.1597 73.1388 88.0863 74.4026 88.072C74.9779 88.0654 75.6833 88.1933 76.2443 88.0897C76.5301 88.0367 76.8212 87.8479 77.1252 87.7769ZM73.2706 69.8663C74.866 70.8364 77.2968 73.0985 75.5806 75.5035C73.5604 77.6241 70.6518 75.1927 69.2185 74.0931C67.8895 73.2408 66.3962 75.4327 67.6293 76.4278C77.9864 84.0988 82.1896 70.1199 74.0776 68.7257C73.1844 68.572 72.8527 69.5662 73.2706 69.8663ZM61.7027 62.6221C63.8367 62.267 64.21 65.3105 62.095 65.5231C61.6511 65.5677 61.2098 65.6066 60.7693 65.6452C60.8122 65.7831 60.8407 65.9249 60.8563 66.0707C60.8764 66.1945 60.8914 66.326 60.9047 66.4763C60.9717 67.2251 60.441 68.0037 59.8209 68.3668C59.1766 68.7441 58.2516 68.7944 57.6117 68.3668C57.2817 68.1462 56.9521 67.8974 56.7702 67.5326C56.5262 67.1579 56.3931 66.7242 56.3796 66.2791C55.4067 66.5319 54.4161 66.8736 53.4335 67.0547C53.4696 67.0903 53.5051 67.1281 53.5395 67.1697C53.5657 67.2016 53.5298 67.2614 53.4916 67.2321L52.9987 67.1228V67.1228C52.847 67.1427 52.6953 67.1589 52.544 67.1685L52.5476 67.1551V67.1551C52.2947 67.1507 52.0877 66.8516 52.3139 66.6124C53.1821 65.6944 54.5367 65.0844 55.7717 64.5743L56.9616 64.0863C58.4831 63.4677 60.0893 62.8905 61.7027 62.6221ZM78.8703 63.5636C80.2681 63.404 81.6521 63.4675 83.0522 63.5528C85.4084 63.6963 84.4201 67.1337 82.5289 66.3401C82.5483 66.4659 82.5534 66.5918 82.5388 66.7091C82.4649 67.3134 82.268 67.824 81.7136 68.1487C81.1987 68.45 80.5461 68.4492 80.0313 68.1487C79.4799 67.827 79.2312 67.3736 79.0905 66.7846C78.9815 66.3279 79.0252 65.9457 79.0882 65.4935C79.1091 65.3436 79.1744 65.2039 79.2648 65.0784C79.133 65.0454 79.0009 65.0135 78.8687 64.9837C77.6927 64.7161 76.5327 64.7698 75.3601 64.6003C75.2351 64.5821 75.2152 64.3801 75.3246 64.3287C76.3782 63.8335 77.7177 63.6951 78.8703 63.5636ZM61.4872 52.9473C62.2938 52.6394 63.3071 53.1515 63.7188 53.8559C64.1862 54.6552 63.9865 55.578 63.4098 56.2516C62.525 57.2848 60.8401 57.9213 59.5983 58.5109L59.4986 58.5587C58.2234 59.1741 56.9133 59.7393 55.5855 60.2317C54.2796 60.7163 52.9212 61.0959 51.5674 61.4218C50.8535 61.5936 50.1244 61.7357 49.3949 61.8253C48.819 61.8959 48.3749 61.7378 47.8239 61.7378C47.7434 61.738 47.7183 61.6313 47.784 61.5903C48.2988 61.2665 48.681 60.8402 49.2426 60.5403C49.8274 60.2281 50.4143 59.9212 51.0033 59.6173C52.1942 59.0031 53.341 58.3196 54.4898 57.6317C55.7008 56.9065 56.8843 56.1429 58.0353 55.3254C59.1616 54.5255 60.1996 53.4387 61.4872 52.9473ZM75.8612 52.2896C76.8685 52.0941 77.8661 52.5709 78.1642 53.5979C78.4501 54.5817 78.1511 54.7926 78.9136 55.4966C79.5214 56.0577 80.1767 56.5585 80.8381 57.0516L81.8115 57.7755C83.5746 59.0811 85.3523 60.3156 87.3795 61.1965C87.5508 61.2709 87.4518 61.5256 87.2893 61.529C84.0666 61.5911 80.9764 61.1547 78.0675 59.7114C76.7086 59.0372 75.3434 58.1844 74.556 56.8385C73.6439 55.28 73.6706 52.7144 75.8612 52.2896Z" fill="black"/>
</svg>
