<svg width="101" height="121" viewBox="0 0 101 121" fill="none" xmlns="http://www.w3.org/2000/svg">
<path fill-rule="evenodd" clip-rule="evenodd" d="M88.991 71.3956C87.6662 61.8335 84.636 52.5493 84.201 42.8437C83.9422 38.6905 83.6834 34.537 83.4248 30.3833C83.3265 27.7892 79.9581 26.914 78.6715 29.2122C75.7469 25.9676 70.51 26.4455 66.5147 26.5439C42.9947 27.3777 20.6438 43.2861 12.57 65.4671C12.3759 65.9959 12.4346 66.5587 12.6541 67.0623C8.89082 79.6165 22.1996 87.7005 31.2765 93.2979C34.9587 97.1905 39.2869 100.425 44.1742 102.64C49.7962 105.285 56.0544 106.761 62.2659 106.902C63.6294 106.933 64.4485 105.83 64.5469 104.689C66.5286 104.227 69.9197 104.76 70.9676 102.729C82.9184 97.5359 90.705 84.3747 88.991 71.3956V71.3956Z" fill="white"/>
<path fill-rule="evenodd" clip-rule="evenodd" d="M83.3992 37.4847C83.3654 37.1746 83.8129 37.1651 83.905 37.4162C84.6624 39.4805 85.4477 41.5306 86.0477 43.647C86.6261 45.6868 87.0428 47.7728 87.4647 49.8499C88.1644 53.2971 88.7661 56.7696 89.2638 60.2532C90.3275 59.4222 91.7187 59.3465 93.0288 59.9933C93.6436 60.2966 93.879 61.0986 93.7315 61.7209C93.6132 62.2201 93.4685 62.7167 93.2948 63.2033C93.666 63.5319 93.9814 63.9373 94.2104 64.4027C94.8136 65.6285 94.6192 66.9152 94.0782 68.0846C94.1194 68.1544 94.1602 68.2245 94.1986 68.2989C94.9818 69.8204 94.5628 71.183 93.9905 72.6675C93.5621 73.7784 93.8012 75.0292 92.8769 75.8678C92.5556 76.9005 92.0735 77.8608 91.3716 78.7284C91.2123 79.0203 90.9736 79.2549 90.6903 79.4276C90.6191 81.0573 90.4471 82.6815 90.1237 84.2916C88.8677 90.5431 84.8815 96.1133 79.9469 100.042C75.1182 103.886 69.4471 106.183 63.328 106.926C60.3567 107.287 57.381 107.173 54.434 106.658L54.0669 106.593C51.3477 106.099 48.057 105.282 46.1766 103.23C45.1879 102.151 45.7659 99.776 47.5142 100C48.4404 100.119 49.2466 100.267 50.1187 100.609C50.7987 100.876 51.4801 101.133 52.1783 101.351C53.5156 101.767 54.8988 102.092 56.2873 102.272C59.1804 102.646 62.1867 102.547 65.0464 101.982C70.2466 100.956 75.2986 98.5888 79.2449 95.0246C83.8321 90.8815 86.5211 85.5193 86.9168 79.3348C87.3575 72.4469 86.5625 65.3937 85.9025 58.5415C85.5592 54.9771 85.1234 51.4199 84.5986 47.8776C84.0859 44.4166 83.7785 40.9603 83.3992 37.4847ZM42.8026 15.2433L43.0249 15.2091C51.8559 13.8647 61.1474 13.9601 69.4481 17.6059C71.039 18.3052 72.596 19.1485 74.0622 20.1271C75.1124 20.0174 76.1688 19.9284 77.2061 19.9138C78.5115 19.8967 79.7854 20.5751 79.946 21.8961C81.1692 22.0482 82.2955 22.4984 83.0159 23.399C83.2967 23.7496 83.4847 24.1554 83.58 24.5781C84.3319 24.7558 85.0692 25.0283 85.7685 25.3876C86.6178 25.8251 87.108 27.0424 86.808 27.943C86.7387 28.1474 86.6599 28.3466 86.5717 28.5414L86.5038 28.6867L86.5439 28.7417C87.2221 29.8323 86.7509 31.2631 85.7115 31.9141C84.9319 32.4023 84.0615 32.7912 83.1657 32.9793C83.2397 33.3386 83.3073 33.7 83.3622 34.0656C83.3833 34.2138 83.1934 34.3194 83.1087 34.1734C83.1087 34.1734 83.4298 35.1731 83.9138 36.2744C84.1038 36.7075 83.4953 37.0921 83.2631 36.6546C82.6462 35.488 82.2636 34.2918 81.7038 33.0892C81.1864 33.0554 80.6707 32.937 80.1742 32.7109C79.8488 32.5629 79.6019 32.3135 79.4244 32.0155C79.4136 32.0282 79.4075 32.043 79.3967 32.0578C77.7298 34.203 74.4721 34.9554 71.9538 35.6338C69.2497 36.3632 66.4819 36.8132 63.704 37.145C58.8531 37.722 53.9643 37.8298 49.0906 38.054C48.7678 38.0686 48.4456 38.0849 48.1232 38.1005C46.1436 39.8378 43.5938 40.9174 40.9783 41.2456C39.653 41.4117 38.0854 41.3695 36.5994 41.0309C36.0615 41.5804 35.3818 41.9874 34.6399 42.1965C34.5064 44.9649 32.9633 47.5861 30.6304 49.114L30.6718 49.2785C31.2515 51.6426 31.244 54.2267 29.1659 55.8698C28.8843 56.0921 28.5769 56.2828 28.2537 56.4408L28.3247 56.6041C29.3981 59.1137 29.7409 61.8859 27.7232 63.9683C26.9051 64.8123 25.4686 64.6125 24.8552 63.6437L24.8252 63.5946C24.7912 63.5369 24.7545 63.4816 24.7192 63.4249C24.6645 63.5369 24.5808 63.6314 24.4566 63.6842C23.6897 64.0142 23.3833 63.7709 22.684 63.4306C22.0376 63.1136 21.3552 62.8769 20.6582 62.6932C20.0897 62.5451 19.5235 62.4394 18.953 62.3781C15.3488 63.7561 13.0207 67.9831 13.5742 71.9501C13.8742 74.1101 15.0596 76.249 17.1256 77.1451C18.0298 77.5382 19.0925 77.7031 20.0707 77.57C21.3953 77.3903 22.4136 76.5557 23.7847 77.0331C24.3256 77.2212 24.6638 77.6462 24.6932 78.2275C24.742 79.1403 24.4185 79.8251 23.8735 80.3323C24.8347 81.1354 25.6101 82.2514 26.4446 83.1414C27.4885 84.255 28.5467 85.3688 29.6749 86.3959C30.7397 87.3703 31.8723 88.2748 33.0721 89.0782L33.1981 89.1612C34.7016 90.1405 36.5959 91.0103 36.6678 93.0579C36.6911 93.6751 36.3171 94.2413 35.8101 94.5562C33.9152 95.7313 31.853 94.1884 30.3678 93.0579C29.7699 92.6033 29.189 92.132 28.6291 91.6438C28.2552 91.6734 27.8474 91.6123 27.4228 91.424C27.1502 91.3056 26.884 91.1661 26.6221 91.0182C25.7707 91.2316 24.9678 91.0435 24.3066 90.5976C23.3537 90.8322 22.3439 90.8597 21.4861 90.6716C20.7026 90.4982 20.003 90.1284 19.4263 89.6317C18.2221 90.0164 16.8847 89.9445 15.6974 89.2154C14.9854 88.7781 14.4298 88.1544 14.1277 87.4252C13.9739 87.1844 13.8755 86.9034 13.868 86.5938L13.8678 86.4762C12.8326 86.4995 11.7953 86.1444 10.9946 85.3246C10.2594 84.572 9.90044 83.6338 9.86009 82.6804C8.81854 82.3847 7.86572 81.7777 7.14107 80.8416C5.94107 79.2903 5.78072 77.3734 6.39762 75.6615C6.35727 75.5706 6.32135 75.4776 6.28966 75.3846C5.33262 74.0341 4.70093 72.4045 4.75164 70.7708C4.75797 70.5172 4.79178 70.268 4.84248 70.0207C3.90023 69.5196 3.20727 68.6404 3.13333 67.5224C3.07628 66.6453 3.39107 65.7872 3.95938 65.1383C3.68262 64.4768 3.56009 63.7582 3.64459 63.0396C3.73121 62.302 3.99107 61.6616 4.37157 61.1271C4.3629 60.9327 4.37347 60.7359 4.40516 60.5351C4.36713 60.3386 4.33544 60.1357 4.31875 59.9288C4.13896 57.6629 5.70234 55.6804 7.60586 54.6342C8.10657 54.3595 8.64741 54.1354 9.18826 53.9452C9.58121 53.8057 10.1728 53.7592 10.5192 53.5035C10.5045 53.4929 10.6481 53.3071 10.6735 53.2076C10.7009 53.085 10.7305 52.9645 10.7455 52.8399C10.8023 52.3157 10.7601 51.7768 10.7495 51.2505C10.703 48.8622 10.777 46.4634 11.0284 44.0878C11.4953 39.6833 12.6469 35.3739 14.8904 31.5252C16.7728 28.3 19.3502 25.5757 22.3059 23.3163C28.193 18.8182 35.5396 16.3725 42.8026 15.2433ZM15.5197 70.0185C14.7533 68.176 18.3612 68.1577 19.3151 68.2453L19.3432 68.248C21.4903 68.4617 24.8471 69.4948 25.7256 71.6622C26.0892 72.5593 25.0128 73.5318 24.1514 73.2367C23.3083 72.948 22.8354 72.3279 22.1588 71.7854C21.9813 71.6429 21.7962 71.51 21.6078 71.3817C21.707 71.6979 21.8659 71.99 22.0863 72.2081L22.1383 72.2571C23.1773 73.1909 21.3192 74.6583 20.6296 73.4217C20.2624 72.7637 20.1154 72.0417 20.2299 71.2946C20.2639 71.0742 20.3231 70.8726 20.409 70.6802C20.3406 70.646 20.2732 70.6088 20.2039 70.5758L20.0802 70.5184C19.2532 70.143 15.7245 68.6692 15.7531 69.987C15.7563 70.1328 15.5672 70.133 15.5197 70.0185Z" fill="black"/>
<path fill-rule="evenodd" clip-rule="evenodd" d="M65.1522 90.2739C63.732 89.6943 62.4648 88.7275 61.5384 87.4924C61.2163 87.0631 61.1328 86.6097 61.2003 86.195C61.2763 85.7287 61.5521 85.3061 61.9281 85.0227C62.3053 84.7383 62.7772 84.5981 63.2334 84.6696C63.6298 84.7317 64.0244 84.9488 64.3367 85.3991L64.4019 85.4892C64.9527 86.2346 65.6704 86.8462 66.4882 87.2404C67.2764 87.6204 68.158 87.7978 69.0702 87.6946C70.8076 87.4983 72.0052 86.5583 73.278 85.2818C73.4358 85.1206 73.5936 84.9544 73.7523 84.7855C73.8525 84.6325 73.9915 84.5341 74.1458 84.4824C74.3172 84.4251 74.5111 84.4284 74.6887 84.4903C74.86 84.5501 75.0131 84.6635 75.1158 84.8143C75.2133 84.9576 75.2687 85.1347 75.2507 85.3383C75.1342 86.6612 74.4429 87.8418 73.4608 88.7688C72.3702 89.7984 70.9244 90.5107 69.5633 90.7605C68.0638 91.0357 66.5358 90.8385 65.1522 90.2739V90.2739ZM70.2707 69.866C71.8661 70.8361 74.2969 73.0982 72.5807 75.5032C70.5605 77.6238 67.6519 75.1924 66.2186 74.0928C64.8895 73.2406 63.3963 75.4324 64.6294 76.4275C74.9865 84.0985 79.1896 70.1197 71.0776 68.7254C70.1845 68.5718 69.8527 69.5659 70.2707 69.866ZM51.7106 60.9426C51.8869 58.7538 55.2192 58.2568 55.5506 60.4227C55.8475 62.3629 55.498 64.1452 54.6244 65.892C53.7897 67.5609 51.6917 66.7823 51.5331 65.2627C51.3204 63.2257 51.601 62.3042 51.7106 60.9426ZM77.0762 59.9736C77.5408 59.3649 78.2116 58.9494 79.0152 59.1842C81.5261 59.9182 80.7861 63.4844 79.9042 65.2202C79.4251 66.1628 77.8763 66.4018 77.1763 65.5719C76.0355 64.2184 75.4892 61.5154 76.9395 60.1822C76.9788 60.1133 77.0225 60.0438 77.0762 59.9736ZM54.5891 51.3651L54.9857 51.2957C56.2127 51.0834 57.7383 50.8794 58.6063 51.8662C59.0667 52.3895 59.2251 53.3622 58.6063 53.8631C57.5179 54.7444 56.3145 54.4028 55.0101 54.4775C53.9352 54.5392 52.9021 54.7171 51.8667 55.0132C49.5951 55.6627 47.7442 56.8484 45.8041 58.1503C45.5496 58.3211 45.2897 57.9954 45.4112 57.7572C46.5311 55.5627 48.7015 53.7601 50.8754 52.6613C52.0357 52.0748 53.3054 51.5883 54.5891 51.3651ZM74.7873 50.3821L75.0909 50.4442C78.3945 51.1351 82.6867 52.515 84.2512 55.7613C84.3108 56.2203 84.2478 56.3187 84.1966 56.3829L84.1795 56.4043C84.1373 56.4592 84.1036 56.5349 83.9048 56.5974C83.8496 56.5842 83.7938 56.5703 83.7375 56.5555C83.0204 56.3675 82.453 56.1085 81.9037 55.8398L81.3082 55.5462C80.6172 55.2073 79.9202 54.8807 79.1814 54.6396C77.6049 54.1252 75.9833 53.7628 74.3367 53.5693C73.9797 53.5274 73.6361 53.4069 73.3649 53.2004C73.1076 53.0044 72.9109 52.733 72.8213 52.3722C72.7051 51.9053 72.7385 51.5518 72.9889 51.1306C73.1772 50.8143 73.4466 50.5951 73.756 50.4692C74.0714 50.3408 74.4304 50.3106 74.7873 50.3821Z" fill="black"/>
<path fill-rule="evenodd" clip-rule="evenodd" d="M70.8507 100.659C70.8507 100.659 61.4726 102.038 57.2747 100.09C53.0895 98.1474 49.0183 96.2682 45.2219 93.6954C41.3324 91.0596 38.0324 87.9296 35.6768 83.9231C33.486 80.1951 31.6648 76.2394 29.831 72.3142C29.7239 72.0848 28.6712 69.8045 28.2993 69.0398C27.7268 67.854 26.0536 68.2262 26.0536 70.0668C26.0536 71.9074 25.9712 85.8463 29.1867 91.3294C32.0874 96.2817 37.0036 99.7419 41.8881 102.762C47.2923 106.102 54.4712 109.712 60.919 110.665C66.7543 111.528 73.4134 109.106 77.6388 105.113C82.0564 100.938 83.3071 95.2654 85.5867 89.8331C86.0958 88.6189 84.2908 87.8867 83.7613 89.0808C82.7642 91.3294 70.8507 100.659 70.8507 100.659Z" fill="black"/>
<path fill-rule="evenodd" clip-rule="evenodd" d="M88.0754 66.7096C87.4779 68.3361 86.5686 70.0295 85.4567 71.3984C80.958 75.2094 76.5866 73.0993 74.3671 67.9341C73.5237 64.2839 75.7629 60.3519 78.1356 57.6667C81.5624 54.2308 87.1549 56.0341 88.7305 60.1186C88.8262 60.6478 88.8841 61.1758 88.9118 61.702C88.879 63.4121 88.673 64.8736 88.0754 66.4982M44.8331 63.4292C50.7596 56.3771 61.8469 56 61.564 66.8539C60.2909 80.5925 38.8534 77.2204 44.8331 63.4292ZM89.9394 57.5463C89.7317 57.1944 89.5012 56.8539 89.2496 56.5282C89.1566 56.4728 89.1032 55.9816 88.7613 55.9453C84.1923 50.9027 76.1656 53.7637 73.2653 58.7884C72.7356 59.4237 72.3036 60.1674 71.985 60.9532C69.1274 60.4289 65.7959 60.5307 63.1382 61.6105C60.5028 54.7264 52.5243 54.1118 47.2665 57.0532C43.9963 58.6622 41.8758 62.0318 38.6954 63.8828C31.2188 64.4211 23.1947 62.7453 15.8531 64.6214C10.0631 65.8257 14.9033 68.7586 15.8742 66.8013C22.796 64.7554 30.9963 66.4843 38.183 66.0233C38.9303 67.2878 40.3633 68.3226 41.7915 68.2784C43.334 81.9572 63.2742 79.689 63.9621 67.5294C64.7423 66.2953 65.7127 65.1143 67.1016 64.3454C67.6333 64.2353 68.1469 64.0922 68.6163 63.8707C69.4187 63.7574 70.6551 64.0977 71.3932 64.766C73.9219 79.9443 88.4899 78.1766 91.0933 64.8797C91.1451 64.8269 91.2898 64.6286 91.4009 64.3105C92.292 63.1318 94.4736 62.6937 94.125 60.7038C93.8147 58.7136 91.3023 58.7372 89.9394 57.5463Z" fill="black"/>
</svg>
