<svg width="101" height="121" viewBox="0 0 101 121" fill="none" xmlns="http://www.w3.org/2000/svg">
<path fill-rule="evenodd" clip-rule="evenodd" d="M85.8026 43.4507C89.6322 40.9935 94.8577 34.7238 91.8879 29.9695C90.6818 28.1102 89.0371 27.4113 87.2316 27.3553C86.8012 26.8151 86.0861 26.6568 85.4187 26.653L85.4225 26.6244C82.9828 26.6693 80.5851 27.5242 78.6229 28.9516C77.3578 27.8397 75.7866 27.2073 74.2646 26.5236C74.9029 23.3122 75.8768 20.1795 76.9828 17.101C77.5796 15.3284 75.689 13.4611 73.9063 13.9967C74.3449 12.0751 73.3371 9.84323 71.1421 9.86796C69.9685 9.86796 68.6405 10.4974 67.5055 10.781C66.6649 10.9911 65.8369 11.2067 65.0257 11.4808C65.0219 11.4588 65.0198 11.4366 65.0174 11.4142C67.1436 9.92503 67.0695 6.4965 63.945 6.82896C62.6121 6.94668 61.2571 7.85422 60.0245 8.40838C57.9928 8.53075 56.0415 9.17663 54.0666 9.64013C48.6626 10.9811 42.881 12.3287 38.429 15.7315C30.7179 18.7043 21.1272 23.3001 20.1719 32.3846C6.59052 27.1279 -3.66926 43.9137 8.64722 50.5191C11.0641 51.6462 13.8579 52.2297 16.5019 51.6876C15.8772 53.999 15.2802 56.3181 14.7214 58.6466C10.0179 69.4573 6.2151 80.8823 7.58306 92.7479C7.60313 94.9005 10.3665 96.1422 11.894 94.5342C13.1576 93.0091 14.6907 94.7919 14.2788 96.2644C13.8883 97.9 15.0395 99.4016 16.714 99.4623C18.7179 99.5673 20.3096 98.2229 21.7276 96.9813C21.7004 97.0081 21.765 96.9673 21.8593 96.9037C25.3583 105.16 28.6367 98.7403 32.9493 102.455C33.9571 103.386 34.6642 104.489 35.9552 105.095C38.9831 106.63 41.3738 103.894 44.2661 103.579C46.9397 103.382 49.5833 104.308 52.147 104.931C55.1409 105.658 58.1595 106.039 61.2349 105.698C65.1672 105.261 73.0128 103.483 75.3348 102.02C78.1797 103.93 81.1072 101.664 82.671 99.0557C83.7647 100.109 85.8341 100.271 86.7129 98.6461C87.5871 96.8346 89.2211 94.0659 91.1001 94.4761C91.2679 94.5275 91.3661 94.5596 91.4686 94.634C93.2248 96.1276 95.4921 94.9937 95.7491 92.8229C97.4138 78.7582 94.0179 64.6489 89.5025 51.4129C88.5167 48.645 87.6989 45.7679 85.8026 43.4507Z" fill="white"/>
<path fill-rule="evenodd" clip-rule="evenodd" d="M84.2502 43.0617C84.1792 42.8668 84.4775 42.7548 84.576 42.9243C87.8031 48.474 90.3827 54.3689 92.5889 60.3907C94.5417 65.721 96.2734 71.1542 97.5075 76.6987L97.5913 77.0804C98.752 82.431 99.3242 88.0912 97.802 93.4292L97.7284 93.6832C97.3779 94.8705 96.9148 96.0764 95.8321 96.7815C94.9228 97.3739 93.8939 97.4478 92.8469 97.2832C91.9646 97.1443 91.1242 96.7597 90.2401 96.6532C89.5735 96.573 89.3995 96.8932 89.2052 97.432L89.0438 97.8882C88.351 99.8214 87.505 101.621 85.2448 102.028C84.0277 102.247 82.7054 102.02 81.651 101.38C81.6387 101.421 81.6265 101.461 81.6163 101.501L81.5664 101.691C81.3458 102.518 81.062 103.358 80.4776 104.001C79.6613 104.897 78.4904 105.215 77.3105 104.977C76.7743 104.869 76.2706 104.625 75.7617 104.422C75.6372 105.172 74.7763 105.783 73.9887 105.598C73.5626 105.499 73.2341 105.305 72.9894 105.055C71.7727 105.994 70.1316 106.474 68.7102 106.838C66.6518 107.365 64.4614 107.581 62.3388 107.518C60.1843 107.454 57.9924 107.039 55.9659 106.308L55.6492 106.193C53.9009 105.548 52.0606 104.731 50.6443 103.525C50.3629 103.387 50.5274 102.875 50.8629 102.984C52.7867 103.606 54.5813 104.337 56.6003 104.636C58.5055 104.919 60.419 104.965 62.3388 104.849C64.2854 104.731 66.1741 104.334 68.0318 103.746C69.6484 103.235 71.2408 102.312 72.9575 102.191C73.0471 102.067 73.1443 101.947 73.2565 101.838C74.7415 100.395 76.2459 101.117 77.917 101.643C77.972 101.66 77.9874 101.689 77.9876 101.718L78.008 101.689V101.689L78.0212 101.671L78.0113 101.683C77.9418 101.762 78.0809 101.47 78.1057 101.411L78.1082 101.404C78.3003 100.88 78.3746 100.316 78.5371 99.783C78.9246 98.5095 79.649 97.3443 81.0366 97.0395C81.7215 96.8888 82.6549 97.1183 82.972 97.8274C83.2332 98.4105 83.6608 98.706 84.3189 98.6906C85.0061 98.6747 85.259 98.2738 85.4984 97.6698C85.8877 96.687 86.0979 95.6645 86.7377 94.7975C87.457 93.8223 88.5322 93.253 89.747 93.2063C90.6831 93.1705 91.6 93.4436 92.4903 93.6964L92.5722 93.721C92.9787 93.8486 93.7051 94.1361 94.0226 93.9242C94.4986 93.6065 94.7445 91.7538 94.8823 91.0608L94.8911 91.0173C95.1364 89.8365 95.2788 88.6466 95.3367 87.4421C95.5782 82.4043 94.54 77.3926 93.3917 72.5165C91.0234 62.4609 87.7817 52.7604 84.2502 43.0617ZM16.7694 55.3566C16.8335 55.2606 16.9733 55.3437 16.9232 55.4466C16.6911 55.9245 16.6063 56.4264 16.4496 56.9242C16.2761 57.4752 15.9814 58.0095 15.7628 58.5442C15.4087 59.4101 15.0658 60.281 14.7199 61.1503C14.0247 62.8982 13.3782 64.6725 12.7655 66.4512C11.5353 70.0245 10.5299 73.698 9.79444 77.4051C9.0717 81.0473 8.46662 84.8556 8.48965 88.5785C8.50001 90.2717 8.68486 92.0151 9.35648 93.5873C9.46177 93.8341 9.58539 94.0757 9.71647 94.3106L9.79592 94.4507C9.80712 94.4705 9.81885 94.4901 9.83084 94.5096L9.90346 94.6259C10.1155 94.3147 10.7268 93.9029 10.979 93.6847L11.0141 93.6535L12.1976 92.5583C12.7129 92.081 13.4563 91.9663 14.0794 92.3152C15.9732 93.3754 15.9118 95.3443 16.3171 97.2027L16.3351 97.2834C16.5115 98.0643 16.8166 98.7134 17.7516 98.5602C18.7272 98.4001 19.2909 97.4081 19.6095 96.5549L19.6505 96.442C20.2135 94.8537 22.2381 94.9171 22.821 96.442L23.0395 97.0194C23.4915 98.2032 24.1074 99.6314 25.274 100.1C26.2549 100.494 27.3789 99.9046 28.2711 99.5389C28.7616 99.3379 29.3342 99.7573 29.4649 100.217C29.5004 100.342 29.5243 100.462 29.5429 100.58C30.4756 100.489 31.3685 100.712 32.2858 101.136C33.4866 101.69 34.9963 102.886 35.222 104.273C35.4892 105.912 33.5912 106.686 32.6118 105.374C31.9951 104.547 31.7718 103.544 31.0344 102.758C30.6013 102.297 30.0628 101.896 29.4977 101.556C28.9925 103.342 26.1573 103.857 24.4674 103.328C22.8449 102.821 21.7693 101.625 20.9661 100.225C19.4644 101.694 17.3806 102.405 15.2925 101.124C14.0834 100.382 13.5197 99.0843 13.3013 97.7365C13.2356 97.3314 13.2318 96.6654 13.1156 96.0804L13.0029 96.1952C11.983 97.2269 10.7973 98.1973 9.46064 97.9743C7.7086 97.6822 6.87684 95.7315 6.3305 94.2457C5.1943 91.1576 5.40367 87.7236 5.7886 84.5174C6.21029 81.0071 6.91592 77.53 7.84972 74.1207C8.7605 70.7951 9.93958 67.5678 11.3268 64.4121C12.0339 62.8039 12.8494 61.2353 13.7259 59.7127C14.1662 58.9485 14.6456 58.2052 15.1273 57.4665C15.6244 56.7039 16.2706 56.1033 16.7694 55.3566ZM6.2732 33.6263C8.84602 31.2378 12.2859 30.1489 15.7549 30.6401C17.3922 30.8716 18.9514 31.4638 20.3337 32.3774C21.7359 33.3042 22.6443 34.4514 23.4835 35.8863C23.542 35.9862 23.4091 36.0811 23.328 36.0061C21.0911 33.9442 17.7038 32.8437 14.6935 32.9599C9.32877 33.1668 4.88116 37.915 5.21454 43.3266C5.3787 45.9918 6.87616 48.6835 9.19165 50.055C11.6455 51.5084 14.4387 51.0259 17.0683 50.3859C18.018 50.1549 18.4963 51.2225 17.9548 51.9094C15.2878 55.2943 9.8037 54.4092 6.72468 52.081C0.774962 47.5824 0.978413 38.5417 6.2732 33.6263ZM14.9123 38.9562L15.1405 38.917C17.0599 38.6 21.1462 38.2342 21.7474 40.5772C22.0537 41.7705 20.8689 42.413 19.832 42.3602C18.977 42.3167 18.1484 42.0489 17.3044 41.8671C17.0621 42.7051 16.9797 43.5803 16.8616 44.443C16.7585 45.1984 15.5439 44.9934 15.5583 44.2668C15.5786 43.2563 16.0478 42.3972 16.7864 41.7701C16.614 41.7435 16.4408 41.7211 16.2658 41.7092C14.1675 41.5683 12.0944 41.958 10.1342 42.6779L10.3415 42.7943V42.7943C10.4404 42.8285 10.3981 42.9606 10.2992 42.9471L9.32422 42.9961V42.9961C8.91627 43.0917 8.67542 42.6254 8.93253 42.3228C10.4431 40.543 12.6223 39.3647 14.9123 38.9562ZM84.8971 26.4129C87.8278 26.0616 90.739 27.142 92.3121 29.7213C93.7718 32.114 93.8983 35.1433 92.8631 37.7146C92.2747 39.1755 91.3861 40.4856 90.2863 41.6121C89.7425 42.169 89.1192 42.7437 88.4301 43.1121C87.6275 43.5411 87.03 43.5037 86.1833 43.3462C85.638 43.2448 85.2617 42.5446 85.436 42.03L85.5658 41.6397C85.7075 41.2207 85.84 40.9102 86.2278 40.515C86.5663 40.1703 86.9713 39.8911 87.3433 39.5838C88.1434 38.9225 88.8868 38.1844 89.4429 37.3025C90.4593 35.6897 90.8117 33.8359 90.2379 31.9965C89.6221 30.0212 87.9915 28.7419 85.9483 28.5035C84.7882 28.3685 83.611 28.4906 82.4668 28.6931L81.7692 28.8192C80.796 28.9995 80.0021 29.2089 79.3308 30.1018C79.2742 30.1768 79.1645 30.17 79.1318 30.0758C78.7952 29.1059 79.823 28.2404 80.5509 27.7818C81.8153 26.986 83.4281 26.5889 84.8971 26.4129ZM72.1246 25.232C71.9812 25.0492 72.1044 24.6785 72.3845 24.785C75.649 26.025 78.3984 29.0441 80.2804 31.8965C80.85 32.7594 81.3606 33.6556 81.8218 34.5768C82.48 33.7767 83.4634 33.1979 84.3832 32.8043L84.4851 32.7613C85.546 32.3205 87.8406 31.5659 88.4905 32.9786C88.6994 33.4332 88.6158 33.8997 88.2494 34.252C87.683 34.7964 86.7784 34.5902 86.0717 34.5838C84.6435 34.5716 83.5094 35.023 82.2456 35.4613C82.4757 35.9631 82.6933 36.471 82.8959 36.9858C83.172 37.686 83.3757 38.4238 83.7106 39.0991C84.0285 39.741 84.528 40.3144 84.9543 40.8835C85.53 41.6516 84.7603 42.9497 83.8221 42.8575C81.8801 42.6665 81.1063 41.0611 80.5715 39.3595L80.28 38.4288C79.8431 37.0387 79.3933 35.6762 78.7373 34.3539C77.8935 32.6538 76.8868 30.993 75.7289 29.4879C74.5933 28.0123 73.2689 26.695 72.1246 25.232ZM67.0699 5.19545C68.2763 4.7457 69.2906 6.29468 68.6899 7.30346C68.162 8.18944 67.848 9.10437 67.7251 10.0643L73.0435 8.79665V8.79665C74.1009 8.54472 75.1013 9.47952 74.8091 10.5631L73.9883 13.6076V13.6076C75.0489 13.2528 76.1583 13.0425 77.2985 12.9683C78.2756 12.9049 78.8152 13.9139 78.6546 14.7491C78.3193 16.4893 77.8533 18.1976 77.2323 19.857L76.7785 21.0514C76.2449 22.442 75.6222 23.8454 74.3356 24.6289C73.7141 25.0074 72.9081 24.5179 72.9052 23.808C72.8978 22.0891 73.9583 20.6204 74.5478 19.0355C74.9056 18.0734 75.2092 17.0947 75.467 16.1034C74.4686 16.3859 73.5292 16.8337 72.6421 17.4243L72.5094 17.514C71.4605 18.2333 70.143 17.0644 70.4039 15.9425L70.4139 15.9025L71.4161 12.143L66.6489 13.2938V13.2938C65.6663 13.5311 64.9118 12.8442 64.8187 11.8991C64.7198 10.8943 64.7834 9.8944 64.9923 8.92599C61.8414 9.91854 58.6259 10.6908 55.4006 11.4123L54.9168 11.5201C47.8383 13.0926 40.6055 14.4809 34.1113 17.8465C31.2434 19.3325 28.6137 21.0917 26.222 23.2676C25.0401 24.3427 23.9591 25.5259 23.0126 26.8136C22.5687 27.4178 22.1534 28.043 21.773 28.689L21.4684 29.2149C21.3221 29.4687 21.1797 29.7301 21.0926 30.0035L21.0496 30.1404C20.9791 30.3716 20.9029 30.6755 20.9671 30.8783C21.0594 31.1704 21.588 31.6506 21.9616 31.5191C22.0125 31.5012 22.0382 31.5675 22.0095 31.602C21.6804 31.9985 21.2168 32.0699 20.7453 31.8706C19.9995 31.5551 19.8136 30.8348 19.896 30.0832C20.1003 28.2231 21.3941 26.172 22.417 24.6536C26.6295 18.4004 33.5612 14.6587 40.5533 12.3144C49.247 9.39942 58.4623 8.40417 67.0699 5.19545Z" fill="black"/>
<path fill-rule="evenodd" clip-rule="evenodd" d="M65.1522 90.2741C63.732 89.6945 62.4648 88.7277 61.5384 87.4927C61.2163 87.0633 61.1328 86.6099 61.2003 86.1953C61.2763 85.729 61.5521 85.3064 61.9281 85.0229C62.3053 84.7386 62.7772 84.5984 63.2334 84.6698C63.6298 84.732 64.0244 84.9491 64.3367 85.3994L64.4019 85.4894C64.9527 86.2349 65.6704 86.8465 66.4882 87.2407C67.2764 87.6207 68.158 87.798 69.0702 87.6949C70.8076 87.4985 72.0052 86.5585 73.278 85.2821C73.4358 85.1209 73.5936 84.9547 73.7523 84.7858C73.8525 84.6327 73.9915 84.5343 74.1458 84.4827C74.3172 84.4254 74.5111 84.4286 74.6887 84.4906C74.86 84.5504 75.0131 84.6637 75.1158 84.8145C75.2133 84.9578 75.2687 85.1349 75.2507 85.3386C75.1342 86.6614 74.4429 87.842 73.4608 88.7691C72.3702 89.7987 70.9244 90.5109 69.5633 90.7607C68.0638 91.0359 66.5358 90.8388 65.1522 90.2741V90.2741ZM70.2707 69.8662C71.8661 70.8364 74.2969 73.0985 72.5807 75.5035C70.5605 77.6241 67.6519 75.1927 66.2186 74.093C64.8895 73.2408 63.3963 75.4327 64.6294 76.4278C74.9865 84.0988 79.1896 70.1199 71.0776 68.7256C70.1845 68.572 69.8527 69.5661 70.2707 69.8662ZM51.7106 60.9429C51.8869 58.7541 55.2192 58.257 55.5506 60.423C55.8475 62.3632 55.498 64.1455 54.6244 65.8923C53.7897 67.5611 51.6917 66.7825 51.5331 65.2629C51.3204 63.2259 51.601 62.3044 51.7106 60.9429ZM77.0762 59.9739C77.5408 59.3652 78.2116 58.9497 79.0152 59.1845C81.5261 59.9185 80.7861 63.4846 79.9042 65.2204C79.4251 66.163 77.8763 66.4021 77.1763 65.5721C76.0355 64.2186 75.4892 61.5157 76.9395 60.1825C76.9788 60.1136 77.0225 60.044 77.0762 59.9739ZM54.5891 51.3654L54.9857 51.2959C56.2127 51.0836 57.7383 50.8796 58.6063 51.8665C59.0667 52.3898 59.2251 53.3624 58.6063 53.8633C57.5179 54.7446 56.3145 54.4031 55.0101 54.4777C53.9352 54.5394 52.9021 54.7174 51.8667 55.0135C49.5951 55.6629 47.7442 56.8486 45.8041 58.1505C45.5496 58.3213 45.2897 57.9956 45.4112 57.7574C46.5311 55.563 48.7015 53.7604 50.8754 52.6616C52.0357 52.0751 53.3054 51.5885 54.5891 51.3654ZM74.7873 50.3823L75.0909 50.4445C78.3945 51.1353 82.6867 52.5153 84.2512 55.7615C84.3108 56.2205 84.2478 56.3189 84.1966 56.3832L84.1795 56.4046C84.1373 56.4595 84.1036 56.5351 83.9048 56.5976C83.8496 56.5844 83.7938 56.5705 83.7375 56.5557C83.0204 56.3677 82.453 56.1087 81.9037 55.84L81.3082 55.5465C80.6172 55.2076 79.9202 54.881 79.1814 54.6399C77.6049 54.1255 75.9833 53.7631 74.3367 53.5696C73.9797 53.5277 73.6361 53.4072 73.3649 53.2006C73.1076 53.0046 72.9109 52.7332 72.8213 52.3724C72.7051 51.9056 72.7385 51.5521 72.9889 51.1309C73.1772 50.8146 73.4466 50.5953 73.756 50.4694C74.0714 50.3411 74.4304 50.3108 74.7873 50.3823Z" fill="black"/>
<path fill-rule="evenodd" clip-rule="evenodd" d="M81.2185 79.6511C79.8254 79.3893 78.3852 79.4628 77.0014 79.1581C75.6514 78.8605 74.5792 77.9756 73.2748 77.5636C72.127 77.201 70.7816 77.4466 69.8878 78.1495C69.0573 77.7655 68.1135 77.6824 67.1688 77.8092C65.7359 78.0016 64.399 78.6081 63.1228 79.2642C62.9749 79.3402 62.8268 79.4127 62.6789 79.4861C60.3207 79.4271 57.9032 79.4318 55.5892 79.9373C53.5401 80.3852 51.603 81.4275 50.381 83.1686C49.0135 85.1175 48.7665 87.5992 48.5557 89.9021C48.4215 91.3638 50.4509 91.6603 51.1386 90.6018C51.8516 89.5045 52.5938 88.4046 53.5439 87.4954C54.6231 86.4625 55.9357 86.0559 57.4067 85.9616C60.6535 85.7537 63.9218 85.928 67.1717 85.7841C69.0556 85.7006 71.1531 84.9759 71.9124 83.3375C72.7228 84.6079 74.5591 85.3633 76.0695 85.4779C77.6656 85.5992 79.2862 85.309 80.8665 85.6417C82.3762 85.9595 84.1707 87.0843 83.835 88.8833C83.6377 89.9401 84.9731 90.5632 85.5877 89.6227C88.0974 85.7797 85.6245 80.4798 81.2185 79.6511" fill="black"/>
</svg>
