<svg width="115" height="129" viewBox="0 0 115 129" fill="none" xmlns="http://www.w3.org/2000/svg">
<path fill-rule="evenodd" clip-rule="evenodd" d="M46.1732 21.5412C78.195 19.9658 99.9219 45.229 100.857 55.3032C101.505 62.2963 101.065 71.6226 101.065 77.8715C101.065 81.0612 102.674 90.7566 100.857 95.4055C96.8116 105.753 92.2415 113.858 79.5788 113.858C66.916 113.858 47.6121 107.292 40.9835 98.8242C39.7732 97.2781 24.7342 85.9602 24.7342 77.0639C24.7342 58.0835 23.3243 22.6652 46.1732 21.5412Z" fill="white"/>
<path fill-rule="evenodd" clip-rule="evenodd" d="M24.328 1.04144C26.1529 0.470799 27.3176 1.29232 28.1485 2.56507C28.3317 2.52935 28.509 2.53168 28.7063 2.57923C28.7551 2.59107 28.8732 2.63566 28.9626 2.67074C29.0316 2.6997 29.094 2.73478 29.154 2.77198L29.1897 2.75317V2.75317C29.3266 2.60375 29.4704 2.46743 29.6257 2.35752C29.9747 2.11067 30.3343 2.03881 30.6755 2.08953L30.8335 2.03141V2.03141C32.1844 1.56052 33.6489 1.77906 34.5647 2.94317C34.742 3.16805 34.8852 3.4185 35.0076 3.68269C35.2822 3.77272 35.54 3.90292 35.762 4.06312C35.9179 3.98978 36.0827 3.92807 36.2591 3.88263C37.2557 3.62689 38.3027 3.86826 39.1148 4.47948C39.5103 4.77685 39.8012 5.14925 40.0218 5.57449C40.273 5.63345 40.5212 5.73955 40.7538 5.882C40.9537 5.78245 41.1567 5.68904 41.3648 5.625C42.1256 5.39125 42.9417 5.30523 43.7335 5.36419C45.4398 5.49078 47.09 7.44045 45.9497 9.11468L45.9142 9.16533C45.7695 9.36717 45.6436 9.57577 45.527 9.78775C45.9354 9.9655 46.3288 10.2033 46.6921 10.5013C48.4696 11.9586 48.6296 14.2052 48.2971 16.3245L48.283 16.4127H48.2872C49.2316 16.5024 50.047 17.4892 49.489 18.4173L49.4619 18.4607C48.7066 19.628 48.0592 20.9175 47.3378 22.1458C45.3411 22.8659 43.4158 23.7527 41.6029 24.8272C40.4737 25.8168 39.3985 26.863 38.4527 28.0269C37.9805 28.6081 37.5468 29.2233 37.1481 29.8612C37.4669 30.0144 37.8611 30.0066 38.1941 29.698C41.1559 26.9524 44.7341 25.0255 48.5441 23.7341C48.8185 23.6409 48.9985 23.4655 49.0995 23.258C50.7909 22.7759 52.5121 22.402 54.2504 22.1374C54.7296 21.6806 55.2316 21.244 55.7086 20.7892C56.3177 20.2088 57.0806 20.2173 57.6506 20.5818C57.9337 20.4527 58.2232 20.3388 58.5172 20.2363L58.6995 20.1741C58.7756 20.1492 58.8483 20.1202 58.9231 20.0974C60.9629 19.4736 62.8281 19.7052 64.8345 20.2178L65.0914 20.2847C66.0267 20.5329 66.6153 20.4932 67.5211 20.2648L67.623 20.2386C68.5854 19.9875 69.6147 19.8015 70.5983 20.0659C71.6275 20.3427 72.3103 20.9581 73.0114 21.7016L73.0816 21.7764C73.4087 22.1265 73.5977 22.1647 74.026 22.1561L74.4846 22.1425C76.2158 22.0951 77.911 22.1681 79.2077 23.5076C79.687 24.0029 80.2013 24.704 80.51 25.3438L80.5547 25.4393C80.5691 25.4704 80.5818 25.4964 80.5936 25.5196C80.7795 25.4896 81.069 25.3719 81.2067 25.345C83.0933 24.979 84.6675 25.5431 85.8791 27.0303C86.144 27.3558 86.5444 27.9949 86.8218 28.3462C86.919 28.4286 87.0107 28.517 87.0975 28.6098C87.5523 28.9004 88.1969 28.882 88.7069 28.9839C90.0969 29.2607 91.5825 29.7895 92.2892 31.1128C92.5845 31.665 92.6938 32.2693 92.8184 32.8729C93.2857 33.18 93.6519 33.6226 93.9362 34.1017C94.2819 34.6833 94.4289 35.3958 94.8269 35.9451C95.1159 36.3441 95.5577 36.5572 95.9779 36.8011L96.1383 36.8954C97.3837 37.6372 98.3587 38.4604 98.7687 39.9138L98.8042 40.0431C98.8707 40.2658 99.1042 40.9012 98.9008 40.8057C99.0759 40.9023 99.3734 40.9363 99.5331 40.9892C100.397 41.2751 101.148 41.7372 101.608 42.5485C101.958 43.1661 102.022 43.8098 102.122 44.4906L102.165 44.7654C102.176 44.8319 102.189 44.9091 102.202 44.984L102.216 45.0577L102.218 45.0594C102.375 45.127 102.528 45.2003 102.68 45.2794C103.396 45.701 103.885 46.4329 103.885 47.2802C103.885 47.6915 103.757 48.0119 103.57 48.2979C103.721 48.527 103.838 48.7711 103.926 49.0431C104.1 49.5742 104.112 50.155 104.054 50.7045C103.984 51.3639 103.814 51.9644 103.615 52.5942C103.539 52.8373 103.507 53.1769 103.392 53.409C103.605 53.681 103.732 54.0134 103.693 54.3414C103.636 54.8106 103.422 55.3591 102.997 55.6222C102.79 56.6473 102.343 57.6947 101.903 58.5327C101.852 58.63 101.791 58.7166 101.723 58.7885C101.784 62.1341 101.539 65.5033 101.522 68.8445C101.503 72.4819 101.579 76.1215 101.706 79.7544C101.92 85.7758 102.682 92.0022 100.906 97.8737C99.452 102.68 96.5405 106.805 92.6365 109.933C88.6393 113.133 83.8205 114.985 78.7034 115.274C76.1006 115.42 73.4534 115.124 70.9351 114.45L70.666 114.377C68.2296 113.707 65.4074 112.684 63.6147 110.893C62.6682 109.946 63.6252 107.94 65.0133 108.492C66.3886 109.039 67.6226 109.849 68.9872 110.419C70.2062 110.929 71.4783 111.32 72.7668 111.607C75.3506 112.188 78.0907 112.315 80.7168 111.954C90.1985 110.656 97.5865 102.779 99.0443 93.4393C99.4477 90.8529 99.4402 88.2239 99.413 85.6103L99.383 82.7467C99.3599 80.351 99.3513 77.9539 99.4393 75.5593C99.5513 72.4778 99.7689 69.3983 100.06 66.3297L100.212 64.7329C100.393 62.8646 100.596 60.9821 100.946 59.1393C100.659 59.1543 98.3969 55.2832 97.1416 53.1201C96.6833 52.7565 96.2965 52.3049 96.1471 51.7205C96.1161 51.5985 96.1 51.4755 96.0903 51.3523C95.8178 50.9239 95.5302 50.5065 95.2269 50.1016L95.1606 50.0719C95.1097 50.0487 95.0701 50.0293 95.0469 50.0162C94.3847 49.6406 93.8319 49.0716 93.4535 48.4122C93.3259 48.1899 93.2213 47.9578 93.1364 47.7205C92.5966 47.1906 92.0319 46.6851 91.4386 46.211C91.3803 46.1645 91.3201 46.121 91.2614 46.0751C90.5061 45.7932 89.8431 45.3684 89.3597 44.7565C89.1578 44.6314 88.9543 44.5088 88.7492 44.3888C88.1335 44.383 87.5116 44.2395 86.9065 43.9908C85.7995 43.536 84.9153 42.6371 83.8032 42.2205C82.6271 41.7803 81.388 42.7808 80.1383 42.6003C79.8193 42.5542 79.503 42.4572 79.209 42.3165C78.5052 43.0621 77.7584 43.7651 76.9351 44.3803C75.7399 45.2735 74.518 45.6816 73.1327 46.0851C72.4463 46.7366 71.6777 47.3684 70.7509 47.4612C68.6059 49.1765 66.3117 50.6234 63.8978 51.9667C63.5095 52.1827 63.1235 52.2801 62.7571 52.2827C62 52.7582 61.1735 53.1241 60.3003 53.3773C60.0267 53.4565 59.7447 53.4732 59.4673 53.4392L58.7097 54.0565V54.0565C58.1823 54.486 57.62 54.6912 57.0819 54.7045C56.7544 54.9554 56.4151 55.1928 56.0659 55.421C55.6917 55.666 55.2064 55.7674 54.7188 55.7378C53.9741 56.4666 53.0084 56.5431 52.1997 56.2075C52.0885 56.2726 51.9742 56.3343 51.8458 56.3949C51.6713 56.4776 51.4892 56.5473 51.3035 56.6037C50.4601 57.513 49.2257 57.9898 47.9887 57.8651C47.065 58.4311 45.9899 58.7255 44.9388 58.6593C44.7785 59.465 44.6458 60.2736 44.5336 61.085L44.5221 61.6794C44.5209 61.7757 44.5207 61.8508 44.522 61.9002L44.5226 61.9198C44.6255 64.5256 44.6817 67.1326 44.7833 69.7387L44.7927 69.9444C44.9083 72.2213 45.4683 76.3726 42.1228 76.2821C40.8761 76.2485 39.6393 75.3301 38.6685 74.575L38.5317 74.4683C38.4573 74.4104 38.3811 74.351 38.3044 74.2906C37.5789 74.1963 36.8635 74.0199 36.1309 73.993C35.2266 73.9613 34.2759 74.0543 33.395 74.2593C31.84 74.6207 30.3358 75.329 29.3217 76.6116C29.233 76.7237 29.1506 76.842 29.0724 76.9604C29.0006 77.2034 28.8781 77.4274 28.7154 77.6219C27.7562 79.7798 28.31 82.6311 29.3703 84.6049C30.6338 86.9561 32.633 88.5816 35.147 89.4003L35.2731 89.4406C36.9907 89.9774 37.6478 91.0173 38.5816 92.4629C39.4562 93.8198 40.4597 95.0837 41.5372 96.2841C43.6224 98.6069 46.5487 100.524 47.7612 103.464C48.0062 104.056 47.3048 104.613 46.7619 104.461C44.6344 103.863 43.1428 102.348 41.5964 100.841C40.5261 99.7974 39.4968 98.7119 38.5311 97.5717C38.3285 97.6653 38.1056 97.7283 37.8734 97.7566C36.8488 97.8817 35.792 97.8297 34.895 97.2773C34.4815 97.3149 34.0507 97.1714 33.7309 96.8782C33.4374 96.6085 33.1843 96.3169 32.9705 96.0064C32.6456 96.0349 32.3266 96.0436 32.0221 95.9931C31.8753 95.9794 31.7331 95.9407 31.6028 95.8773C31.3607 95.7815 31.131 95.634 30.9202 95.4077C30.493 94.949 30.3292 94.301 30.4081 93.6852C30.3235 93.6674 30.2397 93.6456 30.1569 93.6175C29.5881 93.425 29.1504 93.0426 28.8707 92.5223C28.3702 92.2414 27.9195 91.8606 27.5783 91.456C27.1628 90.9638 26.8492 90.409 26.665 89.7963C26.4747 89.7077 26.2898 89.6052 26.1128 89.4852C24.8441 88.6265 24.1178 87.0143 24.6159 85.5236L24.6329 85.4768C24.6581 85.4097 24.704 85.2953 24.76 85.1663C24.752 85.0612 24.7435 84.9562 24.7378 84.8509L24.7203 84.5335V84.5335L24.4661 84.4255V84.4255C23.1985 83.9212 22.3416 83.2404 22.1893 81.8136C22.1576 81.5186 22.2721 81.2176 22.4528 80.9661L22.4519 80.887V80.887C22.3695 80.8444 22.2911 80.8006 22.2221 80.7566C21.531 80.3151 21.1064 79.5238 21.1539 78.7055C21.1976 77.9595 21.6106 77.3649 22.075 76.8149L22.2077 76.6607C22.2187 76.6482 22.231 76.6343 22.2442 76.6192L21.9372 76.5226C21.738 76.4592 21.5556 76.3961 21.4243 76.3225C20.9164 76.0378 20.4859 75.653 20.2203 75.1639C20.1816 75.1032 20.1423 75.0436 20.1069 74.979C19.764 74.3531 19.7192 73.5513 19.9404 72.8794C19.9666 72.8001 20.0004 72.7255 20.035 72.6514C19.1012 72.3221 18.3823 71.6415 18.2957 70.3874C18.2616 69.8941 18.3696 69.4027 18.6043 68.9819C18.5523 68.6985 18.5416 68.4047 18.5752 68.1141C18.2466 67.8036 17.9914 67.4295 17.8773 66.9732C17.6616 66.1111 18.0565 65.2909 18.6434 64.5387C18.4262 63.9439 18.415 63.2729 18.663 62.6741C18.5676 62.3753 18.5133 62.0593 18.5103 61.7349C18.5038 61.0165 18.725 60.4165 19.0822 59.9061C18.58 59.2919 18.3415 58.4757 18.6381 57.7108C18.8492 57.1672 19.0904 56.6699 19.3685 56.2092C19.2225 55.8587 19.1376 55.4663 19.1376 55.0269C19.1376 54.2364 19.4338 53.6102 19.8869 53.0977C19.6902 52.1616 20.0902 51.0216 20.9619 50.6094C21.2904 50.4539 21.7302 50.2916 22.2149 50.1652C22.3968 49.5966 22.5867 49.0304 22.7872 48.4682C23.1031 47.5833 23.4428 46.7106 23.8028 45.8481C23.5955 46.0297 23.3781 46.199 23.1533 46.3524C22.4424 47.2566 21.5 48.0398 20.7079 48.5084C19.1378 49.4375 17.342 48.8863 16.5669 47.3318C15.8384 47.8758 14.9642 48.1979 14.0314 48.0878C12.9738 47.9629 12.0069 47.2777 11.7428 46.2089C11.7045 46.0542 11.6815 45.887 11.6792 45.7188C11.0726 46.1508 10.438 46.5483 9.74185 46.776C8.85516 47.0659 7.95009 46.3704 7.83305 45.5038C7.78678 45.1604 7.85101 44.8569 7.9877 44.6005L7.90111 44.5664C7.88674 44.5604 7.87242 44.5542 7.85819 44.5475C7.39319 44.3296 7.03214 43.9301 6.86059 43.4694C5.85368 43.8591 4.70101 43.4024 4.38157 42.2947C4.00129 40.978 3.97826 39.6444 4.27594 38.3617C3.20904 37.586 2.51397 36.282 2.39566 34.9188C2.30925 33.9402 2.5427 33.0369 2.95404 32.2017C1.94502 31.8242 1.59812 30.5011 2.0777 29.5479C1.44073 29.1832 1.02537 28.4098 1.01608 27.657C0.731501 27.2258 0.640445 26.6706 0.876431 26.0484C1.18763 25.2286 1.82143 24.5427 2.54714 24.0049C2.23066 23.4537 1.99552 22.8526 1.84953 22.2314C1.24826 22.0554 0.76298 21.5688 0.664107 20.8382C0.540304 19.9222 1.14305 19.1457 1.95432 18.9407C2.04432 18.6617 2.15418 18.3889 2.29002 18.1268C1.88861 17.1757 1.94777 15.9731 2.46537 14.9333C2.92383 14.0139 3.6696 13.4517 4.56749 13.0628C4.33932 12.2808 4.64143 11.501 5.40199 10.9197C6.33052 10.2094 7.34882 9.66644 8.4189 9.28284C8.32382 8.00987 8.8558 6.70627 10.1131 6.26243C10.4492 6.14386 10.799 6.10011 11.1546 6.10159C11.4128 5.54004 11.8435 5.08352 12.4057 4.67942C13.2564 4.0682 14.8463 4.4416 15.3181 5.40013L15.3411 5.44937C15.3652 5.50368 15.3911 5.55335 15.4159 5.60598C15.5109 5.14058 15.7332 4.70097 16.0904 4.34062C16.9835 3.43964 17.9264 3.42273 18.8338 3.80802C19.0002 3.39504 19.2018 3.00235 19.4469 2.64327C20.3365 1.34051 21.8063 1.1746 22.8825 1.88008C23.3139 1.50071 23.7954 1.2082 24.328 1.04144ZM30.6888 79.3825C32.4801 78.6808 34.654 78.8881 36.4245 79.5621L36.5542 79.6126C38.118 80.2311 40.6584 81.6068 40.9646 83.3664C41.1231 84.2776 40.2571 85.0657 39.378 84.5861C38.6132 84.1696 38.1843 83.3305 37.5759 82.7218C36.974 82.1197 36.2998 81.6357 35.5648 81.2106C34.031 80.3251 32.4188 79.9806 30.6888 79.7251C30.4944 79.6976 30.5472 79.4374 30.6888 79.3825Z" fill="black"/>
<path fill-rule="evenodd" clip-rule="evenodd" d="M79.152 98.2739C77.7319 97.6943 76.4647 96.7275 75.5382 95.4924C75.2162 95.0631 75.1326 94.6097 75.2002 94.195C75.2762 93.7287 75.5519 93.3061 75.928 93.0227C76.3052 92.7383 76.7771 92.5981 77.2333 92.6696C77.6297 92.7317 78.0243 92.9488 78.3366 93.3991L78.4018 93.4892C78.9526 94.2346 79.6703 94.8462 80.4881 95.2404C81.2763 95.6204 82.1578 95.7978 83.0701 95.6946C84.8075 95.4983 86.005 94.5583 87.2779 93.2818C87.4356 93.1206 87.5935 92.9544 87.7522 92.7855C87.8523 92.6325 87.9914 92.5341 88.1457 92.4824C88.3171 92.4251 88.511 92.4284 88.6886 92.4903C88.8599 92.5501 89.013 92.6635 89.1156 92.8143C89.2132 92.9576 89.2685 93.1347 89.2506 93.3383C89.1341 94.6612 88.4427 95.8418 87.4607 96.7688C86.3701 97.7984 84.9243 98.5107 83.5632 98.7605C82.0636 99.0357 80.5356 98.8385 79.152 98.2739V98.2739ZM84.2706 77.866C85.866 78.8361 88.2968 81.0982 86.5805 83.5032C84.5604 85.6238 81.6518 83.1924 80.2185 82.0928C78.8894 81.2406 77.3962 83.4324 78.6293 84.4275C88.9864 92.0985 93.1895 78.1197 85.0775 76.7254C84.1843 76.5718 83.8526 77.5659 84.2706 77.866ZM65.7105 68.9426C65.8868 66.7538 69.219 66.2568 69.5505 68.4227C69.8473 70.3629 69.4979 72.1452 68.6243 73.892C67.7896 75.5609 65.6916 74.7823 65.5329 73.2627C65.3203 71.2257 65.6009 70.3042 65.7105 68.9426ZM91.0761 67.9736C91.5407 67.3649 92.2114 66.9494 93.0151 67.1842C95.526 67.9182 94.7859 71.4844 93.9041 73.2202C93.425 74.1628 91.8762 74.4018 91.1762 73.5719C90.0354 72.2184 89.489 69.5154 90.9394 68.1822C90.9787 68.1133 91.0224 68.0438 91.0761 67.9736ZM68.589 59.3651L68.9856 59.2957C70.2126 59.0834 71.7382 58.8794 72.6062 59.8662C73.0666 60.3895 73.225 61.3622 72.6062 61.8631C71.5178 62.7444 70.3144 62.4028 69.01 62.4775C67.9351 62.5392 66.902 62.7171 65.8666 63.0132C63.595 63.6627 61.7441 64.8484 59.804 66.1503C59.5494 66.3211 59.2896 65.9954 59.4111 65.7572C60.531 63.5627 62.7013 61.7601 64.8753 60.6613C66.0356 60.0748 67.3053 59.5883 68.589 59.3651ZM88.7872 58.3821L89.0908 58.4442C92.3944 59.1351 96.6866 60.515 98.251 63.7613C98.3107 64.2203 98.2477 64.3187 98.1964 64.3829L98.1794 64.4043C98.1372 64.4592 98.1035 64.5349 97.9046 64.5974C97.8494 64.5842 97.7937 64.5703 97.7374 64.5555C97.0203 64.3675 96.4529 64.1085 95.9036 63.8398L95.3081 63.5462C94.6171 63.2073 93.92 62.8807 93.1813 62.6396C91.6048 62.1252 89.9832 61.7628 88.3365 61.5693C87.9796 61.5274 87.6359 61.4069 87.3648 61.2004C87.1074 61.0044 86.9108 60.733 86.8212 60.3722C86.705 59.9053 86.7384 59.5518 86.9888 59.1306C87.1771 58.8143 87.4465 58.5951 87.7559 58.4692C88.0712 58.3408 88.4303 58.3106 88.7872 58.3821Z" fill="black"/>
</svg>
