<svg width="122" height="145" viewBox="0 0 122 145" fill="none" xmlns="http://www.w3.org/2000/svg">
<path fill-rule="evenodd" clip-rule="evenodd" d="M105.571 72.5609C105.069 66.0632 105.847 59.2526 103.342 53.0765C98.9759 42.8292 86.7316 39.4125 77.2392 35.5112C73.4363 34.3871 60.6402 34.23 56.1875 32.7422C46.1099 29.375 43.7022 25.363 35.6947 31.7743C34.343 32.8695 33.4973 34.0599 32.8804 35.6862L32.9057 35.6932C32.7295 36.3712 32.9184 37.0477 33.3154 37.5645C29.8434 41.1147 28.3905 46.4374 30.1719 51.1634C35.9854 63.4616 35.712 70.1114 33.8389 83.3326C31.3928 95.6754 36.9823 100.184 46.2392 106.9C45.8623 107.631 45.7842 108.603 46.2756 109.248C56.9799 124.296 77.1629 131.48 94.4558 123.843C101.475 120.717 104.609 113.239 106.397 106.491C108.481 98.9355 109.121 90.9739 107.425 83.2774C106.741 79.7179 105.849 76.1841 105.571 72.5609Z" fill="white"/>
<path fill-rule="evenodd" clip-rule="evenodd" d="M43.8263 0.571172C45.1256 0.375988 46.1068 1.18244 46.5736 2.31912L46.5981 2.38033C46.7481 2.7671 46.915 3.1433 47.0946 3.51317C50.346 1.91747 54.9854 2.32749 57.0432 5.55904C58.5115 7.86698 57.6157 10.6061 57.0622 13.0535L56.6988 14.6661C57.4012 15.1133 57.9309 15.9141 57.9061 16.7433L57.903 16.8071L57.7552 19.0559C58.2242 18.5803 58.6531 18.0625 59.0354 17.5109C59.2995 17.0269 59.5847 16.5514 59.8911 16.0906C61.6932 13.379 65.739 15.7356 64.2516 18.6395C63.9664 19.1996 63.6453 19.7301 63.3009 20.2415C62.9122 20.9961 62.5932 21.7717 62.3481 22.5685C63.0516 22.875 63.5925 23.5555 63.6495 24.5827C63.7826 26.9815 62.5235 28.983 60.5207 30.2405C59.9312 30.6104 59.3228 30.6822 58.7714 30.5449C58.6742 30.6759 58.577 30.8069 58.484 30.9401C59.2826 31.5889 60.003 32.3287 60.6221 33.1487C62.4854 32.8697 64.3594 32.7387 66.2333 32.7345C68.5235 31.6122 71.2657 31.6354 73.727 32.056C75.3115 32.3266 76.8326 32.8528 78.3918 33.2311C80.0354 33.6285 81.7045 33.6433 83.3671 33.9138C85.4629 34.2541 87.3009 35.2221 88.4566 36.767C89.7263 36.8051 91.0615 37.325 92.1685 38.0309C94.746 39.6752 97.3087 41.3428 99.8798 42.9976C100.867 43.633 101.236 44.6472 101.054 45.7785L101.042 45.8509L100.955 46.3201L101.159 46.6088C101.945 47.7204 102.802 48.8847 103.311 50.1117C104.253 51.4707 105.104 52.8952 105.859 54.364C106.875 56.3381 107.714 58.4304 108.282 60.5777C108.423 61.1209 108.565 61.6683 108.658 62.2221C108.791 63.0041 108.586 63.6106 108.474 64.3609C108.335 65.312 108.284 66.2758 108.136 67.2289C108.037 67.8609 107.5 68.1716 106.938 68.1885C107.15 69.7968 107.302 71.4158 107.447 73.022C107.652 75.3173 107.792 77.6189 107.912 79.9205C108.533 80.823 109.803 81.5374 110.72 81.7846C111.99 82.1249 113.321 81.755 114.521 81.3218C115.275 81.0491 115.894 81.9981 115.526 82.6321C114.371 84.6231 111.899 84.6146 110.027 83.7333C109.235 83.3613 108.54 82.8224 108.024 82.1207C108.056 82.7885 108.09 83.4564 108.123 84.1264L108.155 84.7332C108.536 91.8202 109.357 99.151 108.026 106.168C105.721 118.323 95.6666 127.578 83.384 128.296C76.9387 128.674 71.5713 126.769 68.9023 125.707C66.2333 124.644 67.2707 122.478 69.1235 123.097C72.3153 124.164 78.1789 125.753 83.4263 125.067C95.7939 123.45 106.281 117.266 105.204 90.6318C105.051 86.8548 104.581 83.076 104.479 79.2992C104.382 75.6069 104.418 71.9125 104.255 68.2223L104.201 66.9632C104.137 65.4921 104.069 64.0141 103.959 62.5412C103.826 61.9705 103.716 61.3914 103.554 60.8314C103.112 59.3075 102.535 57.826 101.819 56.412C101.661 56.5325 101.483 56.6192 101.291 56.653C99.8312 56.915 98.4622 56.8411 97.0953 56.2324C96.4573 55.9513 95.8953 55.5772 95.3714 55.1143C95.1221 54.8967 94.9552 54.6853 94.8242 54.4655C94.1629 54.4761 93.5016 54.2774 93.0876 53.8019C92.6153 53.2598 92.5367 52.7 92.7217 52.1818L92.7411 52.1301L92.6946 52.1132C92.1369 53.5567 91.0256 54.8269 89.8066 55.685C87.8798 57.0461 85.4692 57.4392 83.158 57.4751C80.6059 57.5132 77.9143 57.1201 75.396 56.7185C74.7305 56.6128 74.0692 56.4923 73.4207 56.3296C73.3953 56.355 73.37 56.3846 73.3425 56.4099C71.1812 58.479 68.1411 59.0116 65.3988 57.8302C63.8143 57.1475 62.4854 56.0485 61.3108 54.7889C61.2939 55.4483 61.2601 56.1077 61.203 56.7608L61.1794 57.0201C61.0625 58.2364 60.8374 59.5266 59.9185 60.4044C58.4333 61.8268 56.2784 61.2562 54.565 60.3305C54.5671 60.3749 54.5671 60.4213 54.5671 60.4678C55.0298 62.0403 55.4946 63.6148 55.9594 65.1894L56.0595 65.5248C56.3975 66.6429 56.7682 67.7623 56.87 68.9324C57.0643 71.1685 55.577 73.3771 53.0925 72.6268C51.7893 72.2347 50.7452 71.1385 49.7434 70.2605L49.1122 69.7144C50.7453 75.0552 51.8777 80.5863 51.9833 86.1596C51.9897 86.4618 51.7298 86.6901 51.4425 86.7006C50.7707 86.7281 50.0481 86.595 49.3721 86.3266C49.334 86.3244 49.296 86.3223 49.2559 86.316C48.1023 86.149 47.0312 85.7327 46.0869 85.1176C46.3045 85.8087 46.4016 86.5506 46.3446 87.3262C46.3298 87.5143 46.0361 87.5799 45.9939 87.3727C45.4488 84.6907 42.3115 82.6639 39.6073 83.1774C36.7045 83.7291 34.5664 86.2272 34.0425 89.0699C33.4805 92.1239 34.5559 95.6556 36.5481 98.0121C37.465 99.0985 38.6714 100.005 40.1038 100.233C40.7587 100.337 41.439 100.301 42.0749 100.115C42.3453 100.035 42.5988 99.9227 42.8566 99.817C43.2326 99.6649 43.6721 99.6416 44.027 99.481C44.8319 99.1196 45.6411 99.8614 45.2333 100.688C44.8784 101.409 44.5594 101.895 43.9699 102.267C44.4474 102.85 44.8805 103.662 45.0411 103.879C45.8608 104.987 46.6932 106.033 47.627 107.045C48.5777 108.072 49.615 109.011 50.7115 109.879L51.1724 110.244C52.2285 111.082 53.1482 111.858 53.8932 113.06C54.4805 114.009 53.7199 115.296 52.6192 115.282C49.1756 115.233 46.6721 112.206 44.889 109.562C44.6354 109.184 44.3967 108.785 44.1749 108.375C44.0946 108.504 44.0059 108.624 43.9066 108.734L44.103 109.262C44.6861 110.818 42.1742 111.834 41.4453 110.382C40.915 109.33 40.3002 108.328 39.6157 107.381C39.2122 107.324 38.8171 107.079 38.5974 106.762C38.0418 105.957 37.4185 105.143 36.8925 104.285C36.6009 104.008 36.3009 103.742 35.9946 103.482C35.9059 103.56 35.815 103.638 35.7284 103.721C35.3439 104.598 34.8685 105.399 34.2791 106.153L34.1527 106.314C33.0235 107.738 31.5527 109.195 29.7326 109.543C29.177 109.649 28.6425 108.958 29.1347 108.516C30.4087 107.371 31.915 106.591 33.0897 105.312C33.6684 104.682 34.1997 103.988 34.6567 103.261L34.7608 103.093C34.8369 102.968 34.915 102.844 34.9953 102.717C34.465 102.355 33.9347 101.992 33.4045 101.628C31.9447 102.876 30.0436 103.447 28.429 104.48L28.2685 104.585C26.8087 105.562 25.2707 103.402 26.4411 102.216C27.7313 100.914 28.8083 99.3609 29.9513 97.9136C29.4138 96.9232 29.1595 95.7521 29.0642 94.5686C29.0266 94.2336 28.9972 93.8984 28.9678 93.5632C28.1481 93.5759 27.3242 93.2948 26.627 92.8108L26.3629 92.6227C25.5157 92.8932 24.6263 93.0242 23.7749 93.001C21.7721 92.9418 20.9523 90.6529 22.2052 89.2051C23.4833 87.7257 25.7207 87.4023 27.4932 88.1209C27.5502 88.0913 27.6094 88.0596 27.6664 88.0279C27.5819 87.639 27.6007 87.2863 27.6968 86.9765L27.669 86.7875C27.2792 86.1892 27.0229 85.5061 26.9257 84.7843C26.8488 84.2126 26.8645 83.646 26.9967 83.0815C27.0407 82.8936 27.1321 82.6989 27.2021 82.503C27.058 82.1391 26.9733 81.7629 26.9471 81.3845C26.9067 81.3366 26.8666 81.2873 26.8285 81.2341C25.949 79.9987 26.1267 78.5102 26.9637 77.5105C26.9676 77.4469 26.9735 77.3833 26.9821 77.3201C26.9331 77.2097 26.8881 77.0984 26.8471 76.9857C26.0293 76.1604 25.4289 75.1673 25.5409 73.9366C25.6066 73.2125 25.904 72.5607 26.3542 72.0735C26.2744 71.8372 26.2668 71.5635 26.3635 71.3351C25.645 69.4232 25.7359 67.1205 26.253 64.9823C26.139 64.6568 26.0798 64.3039 26.0925 63.9298C26.1516 62.3425 27.5249 60.8842 29.1516 60.9032C29.3475 60.9049 29.5309 60.9305 29.7071 60.9679L29.7094 60.9301C29.7717 60.4537 29.9027 60.0134 30.0939 59.6184C29.9999 59.5844 29.9128 59.5356 29.8366 59.4707C28.7942 60.027 27.6911 60.4522 26.5347 60.742C25.6843 60.955 24.8133 59.9881 25.3418 59.1896C25.5871 58.8191 25.8578 58.4864 26.1493 58.1825C25.7348 58.1848 25.314 58.2129 24.8883 58.2677C24.1235 58.367 23.2699 57.845 22.7735 57.1391C22.1566 57.7393 21.5376 58.3374 20.9185 58.9356C19.3509 60.4552 16.9826 59.3371 16.7354 57.3335C16.2685 57.2088 15.8333 56.9975 15.4509 56.6952C12.9791 57.7689 10.3192 58.3586 7.60023 58.4706C5.64811 58.5509 4.50727 56.2768 5.41995 54.6705C6.03262 53.5926 6.79319 52.6246 7.66995 51.7835C6.30938 52.1998 4.90445 52.4999 3.46995 52.6923C2.69459 52.7958 1.59811 52.1533 1.28755 51.4411C0.100227 48.702 0.201636 45.8466 1.56854 43.1815C1.62135 43.0758 1.68051 42.9744 1.73755 42.8729C1.8791 42.52 2.03333 42.1713 2.20023 41.8289C0.518537 40.0747 0.372762 37.4666 1.2791 35.2833C0.91572 34.6937 0.776284 33.9835 1.02347 33.341C1.72699 31.4917 2.74107 29.784 4.02135 28.3172C3.89882 28.0805 3.79107 27.829 3.70023 27.5585C2.9798 25.371 3.81431 22.7312 5.49811 21.2074C6.55657 20.2479 7.77347 19.673 9.07276 19.3053C9.61995 18.3373 10.3235 17.4644 11.1432 16.7289C11.1749 16.6592 11.2066 16.5894 11.2425 16.5197C12.5185 14.1145 14.8425 12.8253 17.3333 12.5273C17.4305 11.5867 18.0643 10.6885 18.9854 10.3968C19.239 9.58315 19.6171 8.80538 20.1368 8.09947C20.9545 6.98777 22.3129 6.46362 23.5932 7.19278C24.2946 7.59223 24.9664 8.05086 25.596 8.5581C25.8788 8.42544 26.1994 8.3396 26.5611 8.31221L26.6523 8.30659L28.7354 8.20092C29.608 7.81415 30.4784 7.40835 31.3509 7.01313C31.8749 6.57986 32.4601 6.21845 33.0981 5.95004C33.8207 5.64781 34.5601 5.47661 35.3016 5.41955C35.9038 5.22299 36.5101 5.04968 37.127 4.91442C38.5763 4.59739 40.0932 4.41986 41.5974 4.43466C41.6282 4.04517 41.6435 3.65102 41.6405 3.25221L41.6376 3.05242C41.6038 1.77375 42.6242 0.752933 43.8263 0.571172ZM42.3664 102.875C42.1594 102.92 41.9502 102.956 41.7411 102.981C41.8045 103.137 41.8678 103.294 41.9291 103.45C42.0981 103.545 42.2692 103.636 42.4404 103.721C42.3897 103.433 42.3601 103.144 42.3664 102.875ZM31.5121 99.6486L31.3717 99.9073C31.3489 99.9496 31.3265 99.9915 31.3045 100.033C31.6023 100.009 31.9023 100.016 32.1981 100.05L32.1973 100.018C32.1592 100.005 32.1212 99.9933 32.0849 99.9755C31.8808 99.8775 31.6911 99.7676 31.5121 99.6486ZM37.3784 87.8441C39.2475 87.953 40.8311 88.2397 42.531 89.0577L42.677 89.1291C44.1791 89.8751 46.6636 91.2531 46.4545 93.2293C46.3953 93.7915 45.9876 94.3832 45.3453 94.3389C43.5854 94.2184 42.5798 92.443 41.3883 91.3356C40.1861 90.2196 38.7094 89.072 37.2537 88.3048C37.048 88.1968 37.129 87.8549 37.3529 87.8439L37.3784 87.8441ZM28.9023 61.8078C28.4545 61.8226 28.6045 62.258 28.8347 61.8945C28.8537 61.8649 28.877 61.8353 28.9023 61.8078ZM53.079 32.7425C48.8371 32.8541 44.568 35.3596 41.3904 37.8922C38.6259 40.0956 36.2388 42.7163 34.1251 45.541C33.5813 46.9478 33.1144 48.3839 32.7199 49.8306C32.4601 50.7859 32.2974 51.7518 32.0798 52.7155L32.0122 53.011C31.8413 53.3305 31.7143 53.6744 31.6218 54.0297C32.0069 54.416 32.5066 54.6927 33.0567 54.8239C33.234 54.8662 33.3812 54.9577 33.4976 55.079C33.9404 54.3397 34.3275 53.5594 34.5527 52.7322L34.5609 52.694C35.4121 51.2993 36.3366 49.9479 37.3277 48.6428C40.0615 45.0393 43.0721 41.7549 46.6911 39.0221C49.4354 36.9509 52.503 35.3277 55.765 34.2731C54.9666 33.6287 54.0599 33.1189 53.079 32.7425Z" fill="black"/>
<path fill-rule="evenodd" clip-rule="evenodd" d="M86.152 111.274C84.7319 110.694 83.4647 109.727 82.5382 108.492C82.2162 108.063 82.1326 107.61 82.2002 107.195C82.2762 106.729 82.5519 106.306 82.928 106.023C83.3052 105.738 83.7771 105.598 84.2333 105.67C84.6297 105.732 85.0243 105.949 85.3366 106.399L85.4018 106.489C85.9526 107.235 86.6703 107.846 87.4881 108.24C88.2763 108.62 89.1578 108.798 90.0701 108.695C91.8075 108.498 93.005 107.558 94.2779 106.282C94.4356 106.121 94.5935 105.954 94.7522 105.786C94.8523 105.632 94.9914 105.534 95.1457 105.482C95.3171 105.425 95.511 105.428 95.6886 105.49C95.8599 105.55 96.013 105.663 96.1156 105.814C96.2132 105.958 96.2685 106.135 96.2506 106.338C96.1341 107.661 95.4427 108.842 94.4607 109.769C93.3701 110.798 91.9243 111.511 90.5632 111.76C89.0636 112.036 87.5356 111.839 86.152 111.274V111.274ZM91.2706 90.866C92.866 91.8361 95.2968 94.0982 93.5805 96.5032C91.5604 98.6238 88.6518 96.1924 87.2185 95.0928C85.8894 94.2406 84.3962 96.4324 85.6293 97.4275C95.9864 105.099 100.19 91.1197 92.0775 89.7254C91.1843 89.5718 90.8526 90.5659 91.2706 90.866ZM72.7105 81.9426C72.8868 79.7538 76.219 79.2568 76.5505 81.4227C76.8473 83.3629 76.4979 85.1452 75.6243 86.892C74.7896 88.5609 72.6916 87.7823 72.5329 86.2627C72.3203 84.2257 72.6009 83.3042 72.7105 81.9426ZM98.0761 80.9736C98.5407 80.3649 99.2114 79.9494 100.015 80.1842C102.526 80.9182 101.786 84.4844 100.904 86.2202C100.425 87.1628 98.8762 87.4018 98.1762 86.5719C97.0354 85.2184 96.489 82.5154 97.9394 81.1822C97.9787 81.1133 98.0224 81.0438 98.0761 80.9736ZM75.589 72.3651L75.9856 72.2957C77.2126 72.0834 78.7382 71.8794 79.6062 72.8662C80.0666 73.3895 80.225 74.3622 79.6062 74.8631C78.5178 75.7444 77.3144 75.4028 76.01 75.4775C74.9351 75.5392 73.902 75.7171 72.8666 76.0132C70.595 76.6627 68.7441 77.8484 66.804 79.1503C66.5494 79.3211 66.2896 78.9954 66.4111 78.7572C67.531 76.5627 69.7013 74.7601 71.8753 73.6613C73.0356 73.0748 74.3053 72.5883 75.589 72.3651ZM95.7872 71.3821L96.0908 71.4442C99.3944 72.1351 103.687 73.515 105.251 76.7613C105.311 77.2203 105.248 77.3187 105.196 77.3829L105.179 77.4043C105.137 77.4592 105.104 77.5349 104.905 77.5974C104.849 77.5842 104.794 77.5703 104.737 77.5555C104.02 77.3675 103.453 77.1085 102.904 76.8398L102.308 76.5462C101.617 76.2073 100.92 75.8807 100.181 75.6396C98.6048 75.1252 96.9832 74.7628 95.3365 74.5693C94.9796 74.5274 94.6359 74.4069 94.3648 74.2004C94.1074 74.0044 93.9108 73.733 93.8212 73.3722C93.705 72.9053 93.7384 72.5518 93.9888 72.1306C94.1771 71.8143 94.4465 71.5951 94.7559 71.4692C95.0712 71.3408 95.4303 71.3106 95.7872 71.3821Z" fill="black"/>
<path fill-rule="evenodd" clip-rule="evenodd" d="M95.7451 114.526C93.7776 112.772 91.5722 109.247 88.7456 112.036C88.0465 112.824 87.7634 114.591 86.6944 114.938C85.2747 115.398 83.8677 113.896 83.3839 112.742C81.4043 106.33 89.5875 104.571 94.2494 105.607C96.5268 106.543 98.2043 110.309 98.3057 112.275C98.3712 113.596 97.2536 115.538 95.7451 114.526M110.589 104.643C110.57 104.558 110.543 104.481 110.51 104.411C109.64 104.082 108.952 104.417 108.526 105.044C108.54 105.2 108.587 105.358 108.616 105.512C108.288 106.204 107.991 107.06 107.547 107.658C107.459 107.665 107.368 107.656 107.28 107.63C99.9041 108.401 103.505 100.681 96.024 98.763C90.241 97.8085 79.7887 98.9019 77.0606 104.923C74.9091 114.542 63.969 107.84 60.377 102.838C56.5444 98.2854 54.0663 92.7226 51.6768 87.3247C51.1719 86.1824 49.5961 86.9993 49.7674 88.0953C47.5588 92.5275 47.6323 97.8515 47.0854 102.707C46.1549 112.394 45.2484 125.979 54.2456 131.894C65.9682 145.15 95.2411 149.827 108.762 137.648C113.442 127.581 112.865 115.301 110.589 104.643" fill="black"/>
<path fill-rule="evenodd" clip-rule="evenodd" d="M109.085 92.7579C107.662 94.6696 105.025 95.2785 102.593 95.0682C97.3467 94.5631 95.6956 88.6028 95.5237 83.9702C99.0415 84.9602 95.2262 77.9488 107.251 77.1778C111.49 76.8244 110.322 79.3856 112.195 81.2569C112.156 85.1842 111.503 89.4516 109.085 92.7579M84.0977 88.2452C81.0005 102.755 64.0404 99.3037 62.2587 86.224C63.9039 85.0625 63.4706 82.1942 65.5144 81.155C68.7535 79.0846 72.8027 79.1732 76.4811 79.2218C81.1828 79.5449 82.5227 81.4934 84.9379 83.6191C84.8217 85.039 84.4866 86.7218 84.0977 88.2452M115.803 74.7748C115.629 74.7458 115.455 74.7185 115.281 74.693C115.145 74.6158 114.986 74.5564 114.8 74.5207C114.377 74.4131 113.956 74.3407 113.536 74.3016C107.508 72.9445 93.5629 74.8714 92.9874 80.0173C91.0678 80.6583 89.4068 80.0843 87.182 80.1414C85.4885 73.0601 56.2104 74.0596 54.8023 78.3288C54.797 78.3274 54.7917 78.3261 54.7862 78.3244C53.4332 77.9055 51.4387 78.0065 49.8901 77.9402C46.5835 77.8708 43.2732 78.1657 40.038 78.8633C33.9799 79.8265 25.712 80.954 29.9253 88.522C29.9261 88.5233 29.9268 88.5248 29.9278 88.5261L29.9285 88.5254C30.6546 89.27 31.8869 88.6704 31.9328 87.6625C30.5162 84.0771 33.7156 83.6466 36.1773 82.6163C42.3026 80.4149 48.5388 80.1097 54.8739 80.7906C55.3505 81.352 56.0737 81.8415 56.838 82.0976C61.0737 82.801 58.8415 85.9442 61.5189 86.4014C61.027 97.3582 74.3244 103.339 82.0292 96.1364C85.1054 93.1276 85.8387 88.6704 86.552 84.6529C86.9291 84.5681 87.1689 84.3618 87.309 84.0888C88.2159 83.1829 88.7857 82.3464 90.5792 82.0976C92.3726 81.8491 93.7532 82.3481 93.94 82.5009C93.9871 82.5958 94.0376 82.6909 94.0963 82.786C94.1783 82.9278 94.2899 83.0409 94.4166 83.1299C92.6456 94.0406 101.113 100.941 109.66 95.2819C113.374 91.7868 114.159 86.4358 114.314 81.6597C114.818 81.3558 115.136 80.7668 114.962 80.0262C114.722 79.0054 115.285 78.1215 116.182 77.6777C117.348 77.1013 117.142 74.9965 115.803 74.7748" fill="black"/>
</svg>
