<svg width="101" height="121" viewBox="0 0 101 121" fill="none" xmlns="http://www.w3.org/2000/svg">
<path fill-rule="evenodd" clip-rule="evenodd" d="M51.727 15.9492C63.7229 15.9492 79.2074 23.4771 80.5279 31.187C82.084 40.2729 90.4165 75.1368 88.5349 86.317C86.6533 97.4973 76.5138 105.546 60.2887 105.546C44.0637 105.546 31.9535 96.6941 29.1729 93.6549C26.3923 90.6156 21.2393 79.7647 21.2393 79.7647C21.2393 79.7647 12.552 78.6089 12.5108 71.5247C12.4697 64.4405 18.1589 61.863 18.1589 61.863C18.1589 61.863 16.1304 33.9058 21.2393 26.6271C26.3481 19.3483 39.7311 15.9492 51.727 15.9492Z" fill="white"/>
<path fill-rule="evenodd" clip-rule="evenodd" d="M79.7937 29.9429C79.785 29.7803 80.0217 29.7613 80.066 29.905C82.6541 38.4584 84.2493 45.1242 85.9287 53.8933L86.4247 56.4729C87.75 63.353 89.0891 70.2431 90.2198 77.1566L90.2861 77.5694C90.8525 81.148 91.1791 84.7616 90.4691 88.3476C89.8057 91.6996 87.993 94.7727 85.6395 97.2201C81.0909 101.95 74.7696 104.905 68.4106 106.226C65.1951 106.894 61.8782 107.151 58.6015 106.919C56.9681 106.805 55.3374 106.574 53.7381 106.234L53.5615 106.196C51.9495 105.848 50.5187 105.433 49.6625 103.915C49.4472 103.533 49.5338 102.878 49.986 102.681C50.8395 102.313 51.4669 102.159 52.3984 102.265C53.2879 102.366 54.1564 102.635 55.0353 102.802C56.7148 103.121 58.4219 103.281 60.131 103.32C63.4881 103.394 66.8536 102.973 70.0627 101.971C75.5766 100.249 81.1796 96.9538 84.4015 92.0251C88.1913 86.2272 86.6823 79.1905 85.678 72.7874L85.6477 72.5936C84.631 66.0488 83.6258 59.5041 82.65 52.9551L82.2336 50.1482C81.1395 42.7319 80.1064 37.4376 79.7937 29.9429ZM23.8099 11.7902C26.5619 9.97556 29.9817 9.52965 33.2141 9.55469L33.6189 9.5598C37.7579 9.62291 58.5924 10.1189 65.568 10.2715L67.2275 10.3065C69.4238 10.348 73.8536 10.3912 76.1359 10.433L76.2676 10.4354C77.3873 10.4566 78.507 10.465 79.6268 10.5009L79.7909 10.5069C80.6297 10.5427 81.3276 10.6682 81.9845 11.2597C82.3186 11.5595 82.4489 12.0166 82.4183 12.4521L82.4134 12.5088L84.0761 12.6546C85.205 12.7544 85.802 13.7674 85.3535 14.7925L85.331 14.8421C84.5345 16.5413 83.9261 21.4869 83.4993 23.3151C83.2754 24.2768 83.0956 25.2532 82.9899 26.236C82.9056 27.0097 82.8972 27.7852 82.4662 28.4657C81.547 29.9177 78.9613 29.905 78.9148 27.8486C78.9127 27.7831 78.9148 27.7197 78.9211 27.6584C72.4141 27.373 63.5303 27.4005 57.0317 27.7894C50.962 28.1529 44.9197 28.9772 38.9725 30.2389C37.4662 30.5581 35.9641 30.9068 34.4725 31.2851C33.2493 31.5937 31.7472 31.7776 30.6528 32.4391C29.4275 33.1831 29.4507 34.5167 29.5838 35.7869C29.7267 37.1332 29.9649 36.4395 30.3024 37.6664L30.3232 37.744C30.6718 39.0755 31.1028 40.3922 31.6732 41.6434C31.9986 42.3578 32.5227 43.0447 32.3239 43.8668C32.212 44.3297 31.8463 44.8242 31.5106 45.1476C29.9808 46.6165 27.3951 45.6802 26.3556 47.6923C25.2678 49.7962 25.2408 52.6463 25.1485 54.9743L25.143 55.1106C25.0756 56.7148 25.0944 58.3232 25.2 59.9231C25.2951 61.3812 25.6836 62.8249 25.1852 64.2262C24.8216 65.2449 23.6345 65.34 23.0134 64.5115C22.9421 64.4164 22.8767 64.3189 22.8155 64.2208L22.7556 64.1226L22.7516 64.1247C22.8106 64.2177 22.8655 64.313 22.9183 64.4101C22.9754 64.5178 22.8338 64.6362 22.7472 64.5432C21.2852 62.9517 19.1493 63.2688 17.4951 64.3826C15.8197 65.5154 15.1584 67.667 15.0718 69.5968C14.9746 71.7374 15.1648 74.2465 16.0563 76.2245C16.4324 77.0615 16.9688 77.8308 17.8584 78.1499C18.2622 78.2937 18.6465 78.2746 19.0669 78.3085C19.504 78.3421 20.0303 78.5621 20.4547 78.5325C21.0065 78.4932 21.502 79.1234 21.3452 79.6514L21.3338 79.6865C21.3256 79.7118 21.3169 79.7372 21.3087 79.7604C21.3296 79.7795 21.3507 79.8027 21.3655 79.8365C22.9711 83.1188 25.1725 86.0396 27.6063 88.7492C28.8256 90.1039 30.1775 91.3488 31.5908 92.5006C32.288 93.0692 33.0232 93.6379 33.7986 94.0963C34.0563 94.2462 34.2927 94.3478 34.5826 94.4305C34.7176 94.4683 34.8718 94.4873 35.0028 94.5317L35.1388 94.5783C35.1482 94.5813 35.157 94.5841 35.1655 94.5867C35.5542 94.631 35.8817 94.8889 36.0106 95.2926C36.3465 96.3451 35.7359 97.275 34.6923 97.5646C33.5615 97.8809 32.4959 97.3255 31.5996 96.6878L31.5401 96.6452C29.7127 95.3287 28.0289 93.8511 26.5711 92.1265C23.6873 88.7217 21.8808 84.78 21.0446 80.4198C20.8373 80.8658 20.5585 81.2547 20.0746 81.5252C19.3225 81.9479 18.4246 81.9479 17.6007 81.8063C15.9423 81.5252 14.5289 80.5128 13.5845 79.1433C12.604 77.723 12.2387 75.9984 12.0169 74.3182C11.7972 72.6356 11.6894 70.9471 11.9092 69.2606C12.2242 66.8385 13.2401 64.4439 15.2155 63.1166C13.7366 59.8935 13.4768 56.2794 13.5824 52.7499C13.7113 48.4045 14.4613 44.0105 15.038 39.7053L16.6777 27.466V27.466L16.7448 26.9726C17.1404 24.0933 17.6221 21.1988 18.6993 18.4858C19.762 15.8122 21.3761 13.3943 23.8099 11.7902ZM16.9099 69.6917C19.6184 68.3771 22.5444 69.5881 24.0022 72.1391C25.2696 74.357 21.5011 75.823 20.8724 73.5368L20.8543 73.4664C20.4402 71.7354 18.7541 70.2391 16.9944 70.0066C16.8486 69.9857 16.7407 69.7743 16.9099 69.6917Z" fill="black"/>
<path fill-rule="evenodd" clip-rule="evenodd" d="M65.152 90.2739C63.7319 89.6943 62.4647 88.7275 61.5382 87.4924C61.2162 87.0631 61.1326 86.6097 61.2002 86.195C61.2762 85.7287 61.5519 85.3061 61.928 85.0227C62.3052 84.7383 62.7771 84.5981 63.2333 84.6696C63.6297 84.7317 64.0243 84.9488 64.3366 85.3991L64.4018 85.4892C64.9526 86.2346 65.6703 86.8462 66.4881 87.2404C67.2763 87.6204 68.1578 87.7978 69.0701 87.6946C70.8075 87.4983 72.005 86.5583 73.2779 85.2818C73.4356 85.1206 73.5935 84.9544 73.7522 84.7855C73.8523 84.6325 73.9914 84.5341 74.1457 84.4824C74.3171 84.4251 74.511 84.4284 74.6886 84.4903C74.8599 84.5501 75.013 84.6635 75.1156 84.8143C75.2132 84.9576 75.2685 85.1347 75.2506 85.3383C75.1341 86.6612 74.4427 87.8418 73.4607 88.7688C72.3701 89.7984 70.9243 90.5107 69.5632 90.7605C68.0636 91.0357 66.5356 90.8385 65.152 90.2739V90.2739ZM70.2706 69.866C71.866 70.8361 74.2968 73.0982 72.5805 75.5032C70.5604 77.6238 67.6518 75.1924 66.2185 74.0928C64.8894 73.2406 63.3962 75.4324 64.6293 76.4275C74.9864 84.0985 79.1895 70.1197 71.0775 68.7254C70.1843 68.5718 69.8526 69.5659 70.2706 69.866ZM51.7105 60.9426C51.8868 58.7538 55.219 58.2568 55.5505 60.4227C55.8473 62.3629 55.4979 64.1452 54.6243 65.892C53.7896 67.5609 51.6916 66.7823 51.5329 65.2627C51.3203 63.2257 51.6009 62.3042 51.7105 60.9426ZM77.0761 59.9736C77.5407 59.3649 78.2114 58.9494 79.0151 59.1842C81.526 59.9182 80.7859 63.4844 79.9041 65.2202C79.425 66.1628 77.8762 66.4018 77.1762 65.5719C76.0354 64.2184 75.489 61.5154 76.9394 60.1822C76.9787 60.1133 77.0224 60.0438 77.0761 59.9736ZM54.589 51.3651L54.9856 51.2957C56.2126 51.0834 57.7382 50.8794 58.6062 51.8662C59.0666 52.3895 59.225 53.3622 58.6062 53.8631C57.5178 54.7444 56.3144 54.4028 55.01 54.4775C53.9351 54.5392 52.902 54.7171 51.8666 55.0132C49.595 55.6627 47.7441 56.8484 45.804 58.1503C45.5494 58.3211 45.2896 57.9954 45.4111 57.7572C46.531 55.5627 48.7013 53.7601 50.8753 52.6613C52.0356 52.0748 53.3053 51.5883 54.589 51.3651ZM74.7872 50.3821L75.0908 50.4442C78.3944 51.1351 82.6866 52.515 84.251 55.7613C84.3107 56.2203 84.2477 56.3187 84.1964 56.3829L84.1794 56.4043C84.1372 56.4592 84.1035 56.5349 83.9046 56.5974C83.8494 56.5842 83.7937 56.5703 83.7374 56.5555C83.0203 56.3675 82.4529 56.1085 81.9036 55.8398L81.3081 55.5462C80.6171 55.2073 79.92 54.8807 79.1813 54.6396C77.6048 54.1252 75.9832 53.7628 74.3365 53.5693C73.9796 53.5274 73.6359 53.4069 73.3648 53.2004C73.1074 53.0044 72.9108 52.733 72.8212 52.3722C72.705 51.9053 72.7384 51.5518 72.9888 51.1306C73.1771 50.8143 73.4465 50.5951 73.7559 50.4692C74.0712 50.3408 74.4303 50.3106 74.7872 50.3821Z" fill="black"/>
</svg>
