<svg width="129" height="122" viewBox="0 0 129 122" fill="none" xmlns="http://www.w3.org/2000/svg">
<path fill-rule="evenodd" clip-rule="evenodd" d="M92.8609 44.2444C93.0912 42.1045 90.5872 36.3956 90.6476 37.5536C86.6331 31.3612 78.7986 28.9261 72.0391 26.8819C57.6896 22.143 46.4844 27.8661 36.4023 38.0095C30.45 43.5716 24.7864 49.7846 21.7984 57.4843C15.9203 72.1728 24.7312 88.9214 38.1305 95.9383C39.2117 96.5237 40.39 97.0796 41.4197 97.7867C46.9587 100.988 53.463 102.096 59.6352 103.489C71.1822 106.129 85.6843 104.871 92.4892 93.8732C97.1048 86.068 95.8786 76.6061 95.5173 67.9441C94.9745 60.3547 94.0218 51.7782 92.8609 44.2444Z" fill="white"/>
<path fill-rule="evenodd" clip-rule="evenodd" d="M31.1396 22.5845C38.6206 15.5883 49.6777 12.1974 59.7873 12.7905C65.2627 13.1117 70.5397 14.4843 75.4881 16.8423C77.0356 17.5797 78.5436 18.4428 79.9342 19.4592C80.8722 19.8971 81.7893 20.371 82.6777 20.8863C87.127 23.4647 90.5664 27.3703 92.7678 32.0031C93.8187 34.2143 94.648 36.546 95.1176 38.9485L95.1932 39.344C95.4329 40.5496 95.9066 42.138 95.3073 43.2661C94.9101 44.0141 94.0777 44.4856 93.2897 44.4222C93.4608 45.1155 93.6657 45.8085 93.7967 46.5061L94.1535 48.4083C94.2127 48.7253 94.2714 49.0423 94.3291 49.3594C94.6735 51.2488 94.9904 53.136 95.2439 55.0403C95.7742 59.0054 96.2538 62.9788 96.6763 66.9585C96.9791 69.8047 97.2629 72.6538 97.5385 75.5022L97.7031 77.2111C97.9862 80.1529 98.208 83.1205 98.0155 86.0751C97.7259 90.5074 96.3632 94.5511 93.7183 97.8408C93.9704 98.4472 94.0553 99.1298 94.245 99.8837C94.5076 100.927 94.8497 101.948 95.2137 102.961C95.384 103.359 95.5547 103.757 95.7235 104.156L96.1674 105.213V105.213L96.5137 105.906C96.889 106.66 97.252 107.425 97.4825 108.205C98.977 109.003 100.197 110.306 100.257 112.09C100.31 113.703 99.4735 115.411 98.0601 116.233C96.6655 117.045 95.2297 116.725 93.8943 116.105C92.73 116.444 91.4838 116.487 90.3305 116.125C89.4425 116.929 88.2972 117.484 87.0277 117.634C85.1138 117.861 83.2967 117.325 81.5409 116.62L81.4186 116.571C81.3636 116.55 81.3087 116.526 81.2559 116.503C79.2362 116.406 77.2249 115.607 75.7923 114.191C75.3256 113.732 74.9221 113.208 74.5967 112.621C73.4155 110.484 73.2319 107.861 74.3939 105.741C74.1446 105.752 73.8932 105.762 73.6439 105.769C70.3197 105.864 66.9896 105.694 63.6739 105.475L62.8922 105.422C60.7466 105.268 57.5823 104.904 57.5221 102.243C57.5134 101.903 57.8643 101.647 58.1855 101.738C59.4045 102.083 60.6024 102.624 61.8657 102.818C63.5178 103.074 65.2289 103.102 66.8981 103.195L67.3781 103.221C70.744 103.405 74.2305 103.518 77.5418 102.85C80.0134 102.353 82.589 101.449 84.8538 100.328C87.0277 99.2507 89.0031 97.841 90.596 96.0002C94.1052 91.9507 94.57 86.2379 94.3988 81.1148C94.1918 74.996 93.4733 68.886 93.0678 62.7759L92.8844 60.0309C92.7331 57.7419 92.5949 55.4496 92.5376 53.1595C92.4953 51.4877 92.5226 49.8117 92.531 48.1399C92.5352 47.305 92.5249 46.466 92.5439 45.6312C92.5545 45.162 92.6094 44.7033 92.6495 44.2445C92.4636 44.1475 92.2904 44.012 92.134 43.8326C92.0115 43.691 91.9164 43.5409 91.8509 43.3887C91.0629 43.1581 90.6974 42.8517 90.1862 42.1566C89.7552 41.5711 89.2671 41.0301 88.7453 40.5228C87.634 39.4449 86.3643 38.5636 85.0226 37.7962C82.2488 36.2092 79.2108 35.1482 76.1474 34.2774C71.4571 32.9459 66.5855 32.2611 61.8256 31.1915C60.5136 33.0218 59.1235 34.7973 57.67 36.5156C53.1338 41.8755 47.9326 46.6539 42.3592 50.9149C41.2249 51.7836 40.0754 52.6395 38.9094 53.4699C37.3732 55.813 35.8209 58.1449 34.2453 60.4611L33.5685 61.4528L33.558 61.4719C33.465 61.6135 33.3761 61.7551 33.2876 61.8967C33.0995 62.1968 32.8883 62.4863 32.6643 62.7674C32.5186 62.9807 32.3707 63.1942 32.2207 63.4078C32.508 63.5619 32.77 63.7354 32.9749 63.9277C33.3932 64.3228 33.3233 64.9507 32.9749 65.3522C31.8509 66.6499 30.0721 64.9591 28.7791 64.509C27.3784 64.9357 26.2101 66.6034 25.6291 67.8777C24.7925 69.7145 24.4566 71.9293 24.8347 73.9181C25.181 75.7357 26.115 77.3062 27.6678 78.2911C27.7228 78.3247 27.7817 78.3609 27.839 78.3923C27.8411 78.3968 27.8411 78.3968 27.8432 78.3945C27.896 78.4283 27.9509 78.4602 28.0059 78.4898C28.7347 78.8913 29.5355 79.1281 30.3655 79.1849C30.8409 79.2189 31.3376 79.1934 31.8129 79.2506C32.3009 79.3075 32.7024 79.5317 33.1714 79.6501C33.689 79.783 34.0228 80.4786 33.6972 80.9455C33.5369 81.1758 33.3847 81.3959 33.2219 81.5924C33.7566 82.2222 34.2212 82.9176 34.6418 83.5789C35.2162 84.4856 35.7256 85.4474 36.1904 86.4281C36.6193 86.9924 37.0291 87.5673 37.4263 88.1548C39.6763 91.4899 41.3981 95.2055 42.4566 99.0878C43.5045 102.928 44.1594 107.242 43.1897 111.162C42.296 114.768 39.6869 117.754 35.8249 117.947C35.0189 117.987 34.2262 117.896 33.4809 117.692C31.8436 118.703 29.8145 119.212 27.9987 119.272C26.5295 119.32 24.9214 119.01 23.7216 118.122C22.2983 118.741 20.7543 119.093 19.4117 119.173C17.9094 119.263 16.3371 118.853 15.1124 118.042C13.9471 119.041 12.6896 119.884 11.2608 120.462C8.80376 121.455 5.87982 121.332 3.62982 119.847C1.37559 118.359 0.22841 115.687 0.917143 113.037C1.55095 110.594 3.5432 108.802 5.41503 107.259L5.78488 106.955C7.63639 105.443 9.50623 103.98 10.6946 101.85C11.9559 99.591 12.4164 96.966 12.5411 94.4087C12.8115 88.7783 11.6664 83.1987 11.3178 77.5979C10.9587 71.8132 11.1594 66.0115 11.9474 60.2691C13.4791 49.1142 17.5101 38.1789 24.8031 29.4838C25.8581 28.2256 26.9876 27.0264 28.1778 25.8898C29.0876 24.6994 30.0708 23.5837 31.1396 22.5845ZM128.149 86.2759C128.189 86.278 128.227 86.2801 128.263 86.2949C128.287 86.305 128.307 86.3213 128.326 86.339L128.504 86.5168C128.567 86.5802 128.563 86.6774 128.504 86.7409C128.452 86.7985 128.358 86.8002 128.297 86.7556L128.28 86.7409L128.096 86.5566C128.076 86.5348 128.058 86.5112 128.049 86.4809C128.041 86.4513 128.041 86.4175 128.039 86.3858C128.037 86.3287 128.092 86.2759 128.149 86.2759ZM29.0262 69.0086C30.7206 68.4948 32.753 69.7166 33.7628 71.0059C34.2699 71.6526 34.4135 72.5382 33.7628 73.1743C33.2093 73.7154 32.1276 73.8145 31.5931 73.1743C30.9868 72.4452 30.4924 71.4347 29.6262 70.9678C28.6861 70.4606 27.4269 70.5874 27.2051 71.8236C27.1671 72.033 26.8671 71.9631 26.8544 71.7752C26.772 70.524 27.8685 69.3571 29.0262 69.0086Z" fill="black"/>
<path fill-rule="evenodd" clip-rule="evenodd" d="M74.1522 90.2739C72.732 89.6943 71.4648 88.7275 70.5384 87.4924C70.2163 87.0631 70.1328 86.6097 70.2003 86.195C70.2763 85.7287 70.5521 85.3061 70.9281 85.0227C71.3053 84.7383 71.7772 84.5981 72.2334 84.6696C72.6298 84.7317 73.0244 84.9488 73.3367 85.3991L73.4019 85.4892C73.9527 86.2346 74.6704 86.8462 75.4882 87.2404C76.2764 87.6204 77.158 87.7978 78.0702 87.6946C79.8076 87.4983 81.0052 86.5583 82.278 85.2818C82.4358 85.1206 82.5936 84.9544 82.7523 84.7855C82.8525 84.6325 82.9915 84.5341 83.1458 84.4824C83.3172 84.4251 83.5111 84.4284 83.6887 84.4903C83.86 84.5501 84.0131 84.6635 84.1158 84.8143C84.2133 84.9576 84.2687 85.1347 84.2507 85.3383C84.1342 86.6612 83.4429 87.8418 82.4608 88.7688C81.3702 89.7984 79.9244 90.5107 78.5633 90.7605C77.0638 91.0357 75.5358 90.8385 74.1522 90.2739V90.2739ZM79.2707 69.866C80.8661 70.8361 83.2969 73.0982 81.5807 75.5032C79.5605 77.6238 76.6519 75.1924 75.2186 74.0928C73.8895 73.2406 72.3963 75.4324 73.6294 76.4275C83.9865 84.0985 88.1896 70.1197 80.0776 68.7254C79.1845 68.5718 78.8527 69.5659 79.2707 69.866ZM60.7106 60.9426C60.8869 58.7538 64.2192 58.2568 64.5506 60.4227C64.8475 62.3629 64.498 64.1452 63.6244 65.892C62.7897 67.5609 60.6917 66.7823 60.5331 65.2627C60.3204 63.2257 60.601 62.3042 60.7106 60.9426ZM86.0762 59.9736C86.5408 59.3649 87.2116 58.9494 88.0152 59.1842C90.5261 59.9182 89.7861 63.4844 88.9042 65.2202C88.4251 66.1628 86.8763 66.4018 86.1763 65.5719C85.0355 64.2184 84.4892 61.5154 85.9395 60.1822C85.9788 60.1133 86.0225 60.0438 86.0762 59.9736ZM63.5891 51.3651L63.9857 51.2957C65.2127 51.0834 66.7383 50.8794 67.6063 51.8662C68.0667 52.3895 68.2251 53.3622 67.6063 53.8631C66.5179 54.7444 65.3145 54.4028 64.0101 54.4775C62.9352 54.5392 61.9021 54.7171 60.8667 55.0132C58.5951 55.6627 56.7442 56.8484 54.8041 58.1503C54.5496 58.3211 54.2897 57.9954 54.4112 57.7572C55.5311 55.5627 57.7015 53.7601 59.8754 52.6613C61.0357 52.0748 62.3054 51.5883 63.5891 51.3651ZM83.7873 50.3821L84.0909 50.4442C87.3945 51.1351 91.6867 52.515 93.2512 55.7613C93.3108 56.2203 93.2478 56.3187 93.1966 56.3829L93.1795 56.4043C93.1373 56.4592 93.1036 56.5349 92.9048 56.5974C92.8496 56.5842 92.7938 56.5703 92.7375 56.5555C92.0204 56.3675 91.453 56.1085 90.9037 55.8398L90.3082 55.5462C89.6172 55.2073 88.9202 54.8807 88.1814 54.6396C86.6049 54.1252 84.9833 53.7628 83.3367 53.5693C82.9797 53.5274 82.6361 53.4069 82.3649 53.2004C82.1076 53.0044 81.9109 52.733 81.8213 52.3722C81.7051 51.9053 81.7385 51.5518 81.9889 51.1306C82.1772 50.8143 82.4466 50.5951 82.756 50.4692C83.0714 50.3408 83.4304 50.3106 83.7873 50.3821Z" fill="black"/>
<path fill-rule="evenodd" clip-rule="evenodd" d="M97.7728 78.3955C97.4912 77.5539 96.0421 77.6272 96.1312 78.6178C96.2333 79.7496 95.846 81.0118 94.7622 81.5613C93.6273 82.1366 92.3504 81.6194 91.6581 80.6324C91.0562 79.7745 90.641 78.8414 89.8836 78.0932C89.1795 77.3975 88.323 76.8609 87.386 76.5424C86.6563 76.2944 85.8993 76.2285 85.1652 76.3099C83.3356 75.8963 81.2157 76.837 80.0755 78.264C80.002 78.356 79.9338 78.4504 79.8679 78.5457C79.7548 78.3919 79.6365 78.2395 79.5112 78.0892C79.1882 77.702 78.7872 77.619 78.4251 77.7244C76.3629 76.1902 73.473 75.9869 71.1309 77.3715C69.2544 78.4809 67.7022 80.1159 65.3948 80.2431C63.5671 80.3439 61.5763 79.3007 61.4474 77.2914C61.3798 76.2422 59.9508 75.3677 59.1491 76.339C57.4636 78.3815 57.1264 81.0946 58.0589 83.5643C59.043 86.17 61.0479 88.0056 63.5865 89.0854C66.3279 90.2514 69.5405 90.6563 72.506 90.564C75.4625 90.4718 78.1507 89.3345 79.9327 86.9152C80.1455 86.6265 80.3324 86.3332 80.4964 86.0364C82.2267 88.2404 84.9389 89.1667 87.7014 89.2333C90.5916 89.3026 94.0082 88.7952 96.0516 86.5498C98.0208 84.3856 98.7005 81.1671 97.7728 78.3955" fill="black"/>
</svg>
