<svg width="106" height="120" viewBox="0 0 106 120" fill="none" xmlns="http://www.w3.org/2000/svg">
<path fill-rule="evenodd" clip-rule="evenodd" d="M96.1982 41.1768C92.0352 15.9887 60.2479 11.4474 39.5344 16.7489C39.1526 11.9039 36.1015 7.62282 32.294 4.80679C16.1202 -6.83629 -3.02782 12.9313 0.805632 29.9678C1.49331 35.1288 5.61725 41.0181 11.3872 40.1348C4.13458 53.8656 1.30042 81.5532 17.2801 90.112C18.8217 91.2095 19.0775 93.4386 20.264 94.868C22.1901 97.1732 30.4192 100.109 34.8711 97.7563C36.2699 99.0422 37.8837 100.293 39.7706 100.738C49.518 108.544 63.7632 110.305 75.6326 107.084C82.9454 105.843 90.5261 102.543 94.2884 95.8005C97.4762 90.6691 96.0072 84.6568 94.5455 79.2258C93.914 76.2381 93.5029 73.2266 93.2498 70.1897C93.7682 69.5842 93.7972 68.7434 93.9265 67.9777C94.4878 65.2638 95.7144 62.7451 96.328 60.039C97.7006 53.8959 97.4622 47.3326 96.1982 41.1768" fill="white"/>
<path fill-rule="evenodd" clip-rule="evenodd" d="M95.8649 54.0045C95.6244 57.0416 94.3376 59.7744 93.2604 62.6048C93.378 60.9301 93.3227 59.1873 93.4399 57.4483C92.1871 46.5589 77.3842 43.698 71.6378 35.4641C71.8554 34.9991 71.9337 30.8416 71.0768 32.0108C67.753 46.5612 47.9971 53.861 34.4713 53.8891C33.4484 53.0459 31.4196 53.9367 31.8028 55.6178C33.8255 64.4884 34.2683 73.7677 32.9694 82.7812C32.3574 85.9639 32.2541 89.7935 30.3453 92.536C28.3192 94.4638 30.7549 94.6185 32.0954 94.1833C32.4692 94.7089 32.8636 95.2193 33.2595 95.7278C31.334 97.0585 28.5246 96.3327 26.5317 95.4469C24.3149 94.2731 23.0477 91.9983 21.4414 90.175C20.5644 88.4092 19.2343 87.3943 17.5243 86.4379C8.01113 79.9698 8.25683 65.781 9.62246 55.5261C13.6019 25.01 47.4588 10.2859 74.6301 20.8872C89.3042 24.641 96.1792 39.8185 95.8649 54.0045M7.3638 36.7281C1.56091 30.9469 2.72901 20.8401 6.37676 14.1754C13.6862 0.250135 34.4473 0.702637 36.9332 17.5815C26.346 21.2097 17.4123 28.9898 12.0934 38.8135C10.3617 38.6284 8.6876 37.8567 7.3638 36.7281M96.1982 41.1813C92.0352 15.9932 60.2481 11.4519 39.5344 16.7536C39.1528 11.9084 36.1017 7.62732 32.294 4.81108C16.1202 -6.83179 -3.02782 12.9358 0.805632 29.9723C1.49331 35.1333 5.61725 41.0226 11.3872 40.1393C4.13458 53.8701 1.30063 81.5577 17.2801 90.1165C18.8217 91.2142 19.0775 93.4434 20.264 94.8723C22.1901 97.1777 30.4192 100.114 34.8711 97.7608C35.9295 99.06 41.9373 103.011 41.4994 99.138C41.0574 98.0945 39.6918 97.8223 38.7825 97.3066C36.8713 96.2511 35.211 94.7637 33.9064 93.0164C38.0039 81.4581 37.6917 68.5883 35.3963 56.6872C49.1139 55.9969 65.2551 49.9819 71.3056 36.7736C75.3958 46.3858 88.0799 47.6228 91.2839 58.3698C91.4773 64.0143 90.2673 69.5751 91.1447 75.2224C91.4023 80.7539 94.3251 86.2486 92.6352 91.7437C87.9142 103.727 70.9192 105.485 59.691 104.984C57.0239 104.764 54.8105 103.322 52.618 101.953C51.3039 101.329 49.7396 102.635 50.5448 104.028C53.6189 108.319 59.942 108.694 64.7973 108.539C77.398 107.792 95.6084 104.068 96.2625 88.5024C95.8469 82.332 93.4266 76.4269 93.25 70.1942C93.7682 69.5887 93.7972 68.7479 93.9265 67.9822C94.4878 65.268 95.7147 62.7496 96.328 60.0435C97.7006 53.9003 97.4625 47.3373 96.1982 41.1813" fill="black"/>
<path fill-rule="evenodd" clip-rule="evenodd" d="M59.5249 85.6123C59.547 83.2837 61.5642 82.8821 63.4804 83.1926C66.7244 83.7176 69.9805 84.087 73.2684 84.1536L73.8351 84.1635V84.1635C73.9263 84.0304 74.0789 83.9293 74.2859 83.9072C76.1085 83.7102 77.9704 83.7421 79.8029 83.688C81.4016 83.6411 83.0444 83.4811 84.6429 83.6066L84.7701 83.6178C86.7237 83.807 88.7854 84.8045 88.5494 87.0981C88.3325 89.222 86.303 91.1022 84.6824 92.2823C84.3547 92.5188 84.0196 92.7405 83.6748 92.9426C83.5667 93.0806 83.4089 93.1768 83.2265 93.1964C81.6306 94.0587 79.8697 94.5689 78.0469 94.7389C74.1824 95.0986 69.6898 94.7093 65.978 93.0339C64.7713 92.4892 63.6456 91.8091 62.6506 90.9739C61.1161 89.6853 59.5077 87.7313 59.5249 85.6123ZM74.7513 90.2297C73.2021 90.183 71.6554 90.3998 70.1799 90.8779C69.18 91.2006 68.2686 91.8214 67.3105 92.2527C70.5395 93.4847 74.2908 93.7533 77.6034 93.5291C79.0567 93.4306 80.4657 93.0954 81.7785 92.5188C81.574 92.3711 81.367 92.2208 81.1502 92.09C80.4953 91.6933 79.8103 91.3558 79.096 91.0871C77.7046 90.5649 76.2365 90.2766 74.7513 90.2297ZM75.2706 69.8661C74.8526 69.566 75.1843 68.5719 76.0775 68.7255C84.1895 70.1198 79.9864 84.0987 69.6292 76.4276C68.3962 75.4325 69.8894 73.2407 71.2184 74.0929L71.6903 74.4569C73.2246 75.6333 75.7624 77.4119 77.5805 75.5034C79.2968 73.0983 76.8659 70.8362 75.2706 69.8661ZM80.7623 59.2864C82.4867 57.8145 84.6496 58.8992 85.9191 60.39L86.1429 60.6565C86.3968 60.9607 86.678 61.3149 86.847 61.6937C88.2539 60.4953 90.1616 59.652 91.9872 60.1994C93.7576 60.7322 94.7672 62.423 94.4632 64.2383C94.1183 66.3026 92.5569 67.6901 90.8794 68.763L90.4036 69.0652C88.3877 70.3509 86.5013 71.646 84.8421 73.4133C84.5715 73.7005 83.9865 73.6624 83.809 73.2801L83.6661 72.9724V72.9724L83.5217 72.6649C82.3447 70.1542 81.0836 67.6601 80.0482 65.0903C79.2813 63.1858 79.0322 60.7616 80.7623 59.2864ZM61.1053 60.6197L61.368 60.3158C62.6314 58.8448 64.7716 57.8599 66.4598 59.2865C68.2575 60.8061 67.9046 63.3191 67.1039 65.2571C66.1397 67.5947 65.0135 69.8807 63.9315 72.1735L63.7004 72.665C63.6032 72.87 63.5082 73.075 63.4133 73.28C63.2356 73.6625 62.6485 73.7006 62.38 73.4131C60.7724 71.7012 58.9536 70.4345 57.011 69.1895L56.4246 68.8163C54.7194 67.7342 53.1075 66.3371 52.7568 64.2384C52.4568 62.4272 53.4603 60.7258 55.2328 60.1993C57.0624 59.6564 58.9659 60.4933 60.3751 61.6938C60.543 61.3054 60.8322 60.9397 61.1053 60.6197V60.6197ZM63.417 50.0665C64.0341 50.8679 63.3752 52.1777 62.4741 52.3848C61.3582 52.6416 60.2309 52.4854 59.1352 52.8039C58.1313 53.0958 57.1696 53.6806 56.3091 54.2635C55.3278 54.928 54.424 55.6698 53.5935 56.515C53.0995 57.0178 52.4771 58.209 51.7153 58.2312C50.9579 58.2534 51.9745 55.8839 52.0586 55.6789C52.6559 54.2195 53.4948 52.8766 54.5442 51.7002C56.6148 49.379 61.0001 46.9296 63.417 50.0665ZM86.5406 49.425L87.0575 49.5687C88.3365 49.9244 89.7019 50.3614 90.7993 51.1284L90.8854 51.1895L91.0183 51.2867C92.3959 52.3141 94.3443 54.3642 93.3687 56.1527C93.3013 56.2759 93.1585 56.2881 93.0436 56.2378C91.7455 55.6691 90.7832 54.5333 89.4026 54.0582L89.1479 53.9714C87.8108 53.5208 86.1565 53.0471 84.7173 53.0902C83.7054 53.4192 82.3386 53.1467 82.0752 51.9144L82.0633 51.854L82.0405 51.7263C81.8888 50.8843 82.1145 49.8109 82.9847 49.4051C84.177 48.8492 85.3402 49.0965 86.5406 49.425Z" fill="black"/>
</svg>
