<svg width="106" height="120" viewBox="0 0 106 120" fill="none" xmlns="http://www.w3.org/2000/svg">
<path fill-rule="evenodd" clip-rule="evenodd" d="M96.1982 41.1768C92.0352 15.9887 60.2479 11.4474 39.5344 16.7489C39.1526 11.9039 36.1015 7.62282 32.294 4.80679C16.1202 -6.83629 -3.02782 12.9313 0.805632 29.9678C1.49331 35.1288 5.61725 41.0181 11.3872 40.1348C4.13458 53.8656 1.30042 81.5532 17.2801 90.112C18.8217 91.2095 19.0775 93.4386 20.264 94.868C22.1901 97.1732 30.4192 100.109 34.8711 97.7563C36.2699 99.0422 37.8837 100.293 39.7706 100.738C49.518 108.544 63.7632 110.305 75.6326 107.084C82.9454 105.843 90.5261 102.543 94.2884 95.8005C97.4762 90.6691 96.0072 84.6568 94.5455 79.2258C93.914 76.2381 93.5029 73.2266 93.2498 70.1897C93.7682 69.5842 93.7972 68.7434 93.9265 67.9777C94.4878 65.2638 95.7144 62.7451 96.328 60.039C97.7006 53.8959 97.4622 47.3326 96.1982 41.1768" fill="white"/>
<path fill-rule="evenodd" clip-rule="evenodd" d="M95.8649 54.0045C95.6244 57.0416 94.3376 59.7744 93.2604 62.6048C93.378 60.9301 93.3227 59.1873 93.4399 57.4483C92.1871 46.5589 77.3842 43.698 71.6378 35.4641C71.8554 34.9991 71.9337 30.8416 71.0768 32.0108C67.753 46.5612 47.9971 53.861 34.4713 53.8891C33.4484 53.0459 31.4196 53.9367 31.8028 55.6178C33.8255 64.4884 34.2683 73.7677 32.9694 82.7812C32.3574 85.9639 32.2541 89.7935 30.3453 92.536C28.3192 94.4638 30.7549 94.6185 32.0954 94.1833C32.4692 94.7089 32.8636 95.2193 33.2595 95.7278C31.334 97.0585 28.5246 96.3327 26.5317 95.4469C24.3149 94.2731 23.0477 91.9983 21.4414 90.175C20.5644 88.4092 19.2343 87.3943 17.5243 86.4379C8.01113 79.9698 8.25683 65.781 9.62246 55.5261C13.6019 25.01 47.4588 10.2859 74.6301 20.8872C89.3042 24.641 96.1792 39.8185 95.8649 54.0045M7.3638 36.7281C1.56091 30.9469 2.72901 20.8401 6.37676 14.1754C13.6862 0.250135 34.4473 0.702637 36.9332 17.5815C26.346 21.2097 17.4123 28.9898 12.0934 38.8135C10.3617 38.6284 8.6876 37.8567 7.3638 36.7281M96.1982 41.1813C92.0352 15.9932 60.2481 11.4519 39.5344 16.7536C39.1528 11.9084 36.1017 7.62732 32.294 4.81108C16.1202 -6.83179 -3.02782 12.9358 0.805632 29.9723C1.49331 35.1333 5.61725 41.0226 11.3872 40.1393C4.13458 53.8701 1.30063 81.5577 17.2801 90.1165C18.8217 91.2142 19.0775 93.4434 20.264 94.8723C22.1901 97.1777 30.4192 100.114 34.8711 97.7608C35.9295 99.06 41.9373 103.011 41.4994 99.138C41.0574 98.0945 39.6918 97.8223 38.7825 97.3066C36.8713 96.2511 35.211 94.7637 33.9064 93.0164C38.0039 81.4581 37.6917 68.5883 35.3963 56.6872C49.1139 55.9969 65.2551 49.9819 71.3056 36.7736C75.3958 46.3858 88.0799 47.6228 91.2839 58.3698C91.4773 64.0143 90.2673 69.5751 91.1447 75.2224C91.4023 80.7539 94.3251 86.2486 92.6352 91.7437C87.9142 103.727 70.9192 105.485 59.691 104.984C57.0239 104.764 54.8105 103.322 52.618 101.953C51.3039 101.329 49.7396 102.635 50.5448 104.028C53.6189 108.319 59.942 108.694 64.7973 108.539C77.398 107.792 95.6084 104.068 96.2625 88.5024C95.8469 82.332 93.4266 76.4269 93.25 70.1942C93.7682 69.5887 93.7972 68.7479 93.9265 67.9822C94.4878 65.268 95.7147 62.7496 96.328 60.0435C97.7006 53.9003 97.4625 47.3373 96.1982 41.1813" fill="black"/>
<path fill-rule="evenodd" clip-rule="evenodd" d="M70.1522 90.2739C68.732 89.6943 67.4648 88.7275 66.5384 87.4924C66.2163 87.0631 66.1328 86.6097 66.2003 86.195C66.2763 85.7287 66.5521 85.3061 66.9281 85.0227C67.3053 84.7383 67.7772 84.5981 68.2334 84.6696C68.6298 84.7317 69.0244 84.9488 69.3367 85.3991L69.4019 85.4892C69.9527 86.2346 70.6704 86.8462 71.4882 87.2404C72.2764 87.6204 73.158 87.7978 74.0702 87.6946C75.8076 87.4983 77.0052 86.5583 78.278 85.2818C78.4358 85.1206 78.5936 84.9544 78.7523 84.7855C78.8525 84.6325 78.9915 84.5341 79.1458 84.4824C79.3172 84.4251 79.5111 84.4284 79.6887 84.4903C79.86 84.5501 80.0131 84.6635 80.1158 84.8143C80.2133 84.9576 80.2687 85.1347 80.2507 85.3383C80.1342 86.6612 79.4429 87.8418 78.4608 88.7688C77.3702 89.7984 75.9244 90.5107 74.5633 90.7605C73.0638 91.0357 71.5358 90.8385 70.1522 90.2739V90.2739ZM75.2707 69.866C76.8661 70.8361 79.2969 73.0982 77.5807 75.5032C75.5605 77.6238 72.6519 75.1924 71.2186 74.0928C69.8895 73.2406 68.3963 75.4324 69.6294 76.4275C79.9865 84.0985 84.1896 70.1197 76.0776 68.7254C75.1845 68.5718 74.8527 69.5659 75.2707 69.866ZM56.7106 60.9426C56.8869 58.7538 60.2192 58.2568 60.5506 60.4227C60.8475 62.3629 60.498 64.1452 59.6244 65.892C58.7897 67.5609 56.6917 66.7823 56.5331 65.2627C56.3204 63.2257 56.601 62.3042 56.7106 60.9426ZM82.0762 59.9736C82.5408 59.3649 83.2116 58.9494 84.0152 59.1842C86.5261 59.9182 85.7861 63.4844 84.9042 65.2202C84.4251 66.1628 82.8763 66.4018 82.1763 65.5719C81.0355 64.2184 80.4892 61.5154 81.9395 60.1822C81.9788 60.1133 82.0225 60.0438 82.0762 59.9736ZM59.5891 51.3651L59.9857 51.2957C61.2127 51.0834 62.7383 50.8794 63.6063 51.8662C64.0667 52.3895 64.2251 53.3622 63.6063 53.8631C62.5179 54.7444 61.3145 54.4028 60.0101 54.4775C58.9352 54.5392 57.9021 54.7171 56.8667 55.0132C54.5951 55.6627 52.7442 56.8484 50.8041 58.1503C50.5496 58.3211 50.2897 57.9954 50.4112 57.7572C51.5311 55.5627 53.7015 53.7601 55.8754 52.6613C57.0357 52.0748 58.3054 51.5883 59.5891 51.3651ZM79.7873 50.3821L80.0909 50.4442C83.3945 51.1351 87.6867 52.515 89.2512 55.7613C89.3108 56.2203 89.2478 56.3187 89.1966 56.3829L89.1795 56.4043C89.1373 56.4592 89.1036 56.5349 88.9048 56.5974C88.8496 56.5842 88.7938 56.5703 88.7375 56.5555C88.0204 56.3675 87.453 56.1085 86.9037 55.8398L86.3082 55.5462C85.6172 55.2073 84.9202 54.8807 84.1814 54.6396C82.6049 54.1252 80.9833 53.7628 79.3367 53.5693C78.9797 53.5274 78.6361 53.4069 78.3649 53.2004C78.1076 53.0044 77.9109 52.733 77.8213 52.3722C77.7051 51.9053 77.7385 51.5518 77.9889 51.1306C78.1772 50.8143 78.4466 50.5951 78.756 50.4692C79.0714 50.3408 79.4304 50.3106 79.7873 50.3821Z" fill="black"/>
<path fill-rule="evenodd" clip-rule="evenodd" d="M94.1786 71.1537C91.6136 73.8051 87.3316 74.5659 83.919 73.144C75.1565 69.4815 79.4454 58.058 86.2032 54.9903C87.0475 54.7797 88.175 54.2803 89.2032 54.167C89.2962 54.1214 89.4986 54.2535 89.7439 54.1286C97.1955 54.9609 98.8924 66.5327 94.1786 71.1537M65.9156 71.8323C63.0388 75.6495 57.6904 76.8272 53.3205 75.0527C44.6877 71.6516 47.7496 61.5218 53.656 57.5505C66.1328 52.8605 71.285 64.7942 65.9156 71.8323M47.2016 63.3745C47.1935 63.3707 47.1855 63.3688 47.1773 63.365C47.2229 63.3449 47.2685 63.3249 47.3139 63.3044C47.2992 63.343 47.2831 63.3813 47.2687 63.42C47.2463 63.4045 47.2267 63.3866 47.2016 63.3745M100.118 59.2483C99.4134 59.2498 98.3959 59.3656 97.8128 59.8545C96.3749 55.0034 91.0675 50.5136 86.4517 53.7875C82.8168 54.9569 80.1196 57.5503 78.5866 60.9983C75.8226 59.3536 71.4764 60.0559 69.0796 62.2309C67.5099 57.042 63.6466 55.2251 59.0484 54.9569C54.0295 54.1345 49.0271 59.0106 47.4663 62.9222C46.1685 62.7745 44.2292 62.3613 43.0083 63.1625C35.0843 61.0837 21.2304 59.9375 19.6195 61.0926C18.4715 61.5332 17.8415 64.244 19.445 64.3903C20.8423 64.1918 19.2819 62.404 20.6904 62.2089C28.1953 61.7435 35.4809 63.2555 42.9063 63.89C43.5692 64.7821 45.7113 65.0805 46.854 64.7221C45.0542 71.3576 48.9394 75.8721 54.7609 77.2243C63.7751 79.2957 71.6175 71.2289 69.2604 62.8383C71.9911 61.4793 75.132 61.5377 78.1066 62.2535C73.1359 80.5543 102.599 79.7332 97.997 60.4816C101.059 62.0054 101.724 59.5558 100.118 59.2483" fill="black"/>
</svg>
