<svg width="101" height="121" viewBox="0 0 101 121" fill="none" xmlns="http://www.w3.org/2000/svg">
<path fill-rule="evenodd" clip-rule="evenodd" d="M50.5463 18.3938C60.852 18.3938 80.7391 30.3415 80.7391 30.3415C80.7391 30.3415 90.0769 69.4881 88.1953 80.6683C86.3137 91.8486 76.5138 105.546 60.2887 105.546C44.0637 105.546 39.6557 99.8189 35.7529 97.2161C31.8502 94.6133 23.9841 82.7683 23.9841 82.7683C23.9841 82.7683 18.6465 84.4311 17.0799 83.469C14.8551 82.1026 15.1252 78.5092 14.4221 75.0342C13.9039 72.4735 12.1396 69.9607 12.1403 68.535C12.1403 63.3624 15.8141 63.7321 17.6649 62.4925C13.6095 58.4962 14.6768 44.6374 19.7856 37.3587C24.8944 30.0799 40.2405 18.3938 50.5463 18.3938Z" fill="white"/>
<path fill-rule="evenodd" clip-rule="evenodd" d="M69.0833 9.56509C69.9848 9.42074 70.7092 10.6884 69.7549 11.1585C65.6923 13.1606 61.4272 14.6669 57.291 16.4919C59.4039 16.7455 61.5586 17.1462 63.6406 17.7665C66.0364 16.7814 68.4966 15.9834 71.0299 15.4193L71.8328 15.2411C74.4122 14.6752 77.3157 14.1398 79.8212 15.0072C80.6821 15.3049 80.6293 16.3926 79.8212 16.7077C78.3668 17.2749 76.7595 17.4237 75.2202 17.6017C73.6701 17.7807 72.137 17.9992 70.6093 18.3218C69.4963 18.5566 68.3889 18.8294 67.2916 19.1395C67.9799 19.4609 68.6511 19.8133 69.2984 20.2036C72.7862 22.3074 75.9611 24.7094 78.6178 27.8268C81.1966 30.8523 83.2256 34.2787 84.6064 38.0082C84.9679 38.9846 85.1999 40.0224 85.3497 41.0527C85.4699 41.8778 85.3951 42.6862 85.4154 43.5001C85.4587 43.517 85.4959 43.5498 85.5081 43.5993C86.0021 45.5612 86.0648 47.6933 86.2207 49.7104C86.3825 51.8028 86.5486 53.8945 86.687 55.9888C86.8249 58.0723 86.8032 60.2465 87.193 62.3C87.5471 64.1651 88.5992 65.8213 89.1913 67.6266C92.7444 78.4587 89.2763 91.4386 80.6359 98.9198C76.2734 102.697 70.8343 105.091 65.1278 105.88C62.1607 106.291 59.2148 106.28 56.2513 105.843C54.8447 105.635 53.4548 105.323 52.0974 104.9L51.5941 104.744C51.0305 104.568 50.4585 104.377 49.9385 104.118C49.1967 103.748 48.8754 103.125 48.6151 102.368C48.4571 101.909 48.7121 101.203 49.1701 101.003L49.3191 100.939C50.1041 100.609 50.7369 100.468 51.5935 100.791C52.2837 101.051 52.9845 101.282 53.6942 101.483C55.1021 101.882 56.5459 102.179 58.0025 102.322C60.9381 102.61 63.9081 102.463 66.7877 101.818C71.9618 100.658 76.701 98.0558 80.2894 94.1304C83.7958 90.2948 85.9921 85.4022 86.834 80.2935C87.2515 77.7585 87.2857 75.0983 86.9502 72.5515C86.7759 71.2299 86.4799 69.9189 86.0965 68.643C85.8799 67.9227 85.6011 67.2248 85.3746 66.5088C85.1694 65.8604 85.1068 65.1669 85.013 64.4902L84.9907 64.3344C84.7361 62.6138 84.8238 60.8615 84.8255 59.1278C84.8272 57.3839 84.8175 55.6397 84.8348 53.8958L84.8518 51.9241C84.8578 51.2667 84.865 50.6092 84.8764 49.952C84.6362 49.9903 84.3375 49.8134 84.3144 49.527C84.2295 48.4673 83.9899 47.4382 83.8573 46.3844L83.822 46.1072C83.6968 45.1387 83.5445 44.1892 83.14 43.2932C82.3186 41.4741 81.7402 39.5546 80.9616 37.7176C79.4145 34.068 77.1087 30.7003 74.2539 27.9515C70.8267 24.6515 66.5804 22.308 62.0295 20.971C61.8848 21.0317 61.739 21.0896 61.5949 21.1515C58.713 22.3955 55.9771 23.9961 53.3794 25.7543C52.0404 26.6606 50.7518 27.6389 49.5221 28.6891C48.9233 29.2004 48.3231 29.7112 47.7379 30.2383C47.4875 30.4636 47.2397 30.6921 46.9947 30.9235C46.8311 31.0774 46.6693 31.2327 46.5083 31.3893C46.138 31.6497 46.1299 32.0162 46.4842 32.4879C46.6104 32.4359 46.6919 32.6437 46.5757 32.7054C45.8741 33.0782 45.3227 32.2814 45.4718 31.621C45.5899 31.098 46.0746 30.6179 46.4156 30.2072L46.4612 30.1517C46.9915 29.4963 47.5349 28.8455 48.1112 28.2296C51.1471 24.9854 54.7302 22.303 58.6148 20.1664C56.9817 19.8737 55.3266 19.7055 53.6718 19.664C52.7192 19.6406 51.7702 19.656 50.8258 19.7089C49.3535 20.5094 47.8997 21.343 46.4737 22.2275C45.2836 22.9658 44.1109 23.7323 42.9584 24.5281C42.358 24.9425 41.7645 25.3665 41.1734 25.7938C40.8755 26.0096 40.4202 26.2656 40.1811 26.5363L40.1629 26.5586C39.9956 26.7773 39.5119 27.7322 40.1409 27.7057C40.2081 27.703 40.221 27.8069 40.1566 27.8226C39.583 27.9621 39.5084 27.3705 39.6066 26.9244C39.8519 25.8117 41.3364 24.9126 42.1712 24.2186L42.2247 24.1736C43.914 22.7379 45.659 21.3673 47.4521 20.0629C41.864 20.9214 36.5466 23.1162 31.9245 26.4871C25.9847 30.8183 21.5204 36.9231 18.546 43.6007C17.1326 46.7739 15.9605 50.1556 15.5411 53.6141C15.1653 56.7138 15.5654 60.1137 17.9828 62.3048C18.1144 62.2919 18.246 62.2786 18.3776 62.2695L18.5827 62.2571C20.3043 62.165 23.8949 62.2819 23.7791 64.6527C23.7742 64.7514 23.6242 64.8127 23.5761 64.7077C23.0115 63.4808 21.3626 63.7012 20.1875 63.8952L19.5263 64.0042C18.1534 64.2323 16.7504 64.5257 15.5435 65.24C14.3857 65.9255 13.3714 67.0211 13.1479 68.393C12.9273 69.745 13.8242 70.7647 14.597 71.7591C15.4731 72.8867 16.1775 74.0531 16.2616 75.5172C16.3456 76.9909 15.6237 78.4746 15.8331 79.9316C16.3002 83.1873 21.0354 82.1383 23.0709 81.6381C23.6813 81.4882 24.5225 81.7214 24.804 82.3436C26.1508 85.3213 27.9821 88.0388 30.2885 90.3571C31.4289 91.5035 32.6629 92.552 33.9968 93.4657C35.3454 94.3893 36.6546 95.1474 37.5791 96.5436C37.9374 97.085 37.4511 97.6893 36.895 97.7362C35.073 97.8899 33.5872 96.9931 32.1495 95.9797C30.7017 94.9591 29.331 93.8214 28.0835 92.5632C25.8552 90.3163 23.9988 87.7146 22.6114 84.8736L22.4205 84.9096C19.2951 85.4849 15.8295 85.4819 13.8005 82.623C12.898 81.3513 12.7974 79.8613 13.0311 78.3628C13.2586 76.9032 13.7916 75.5358 12.9677 74.1728C12.2198 72.9355 11.1552 71.9166 10.7282 70.497C10.3156 69.1253 10.5493 67.6708 11.1651 66.4014C12.3436 63.9734 14.7751 62.7757 17.3204 62.3864C14.2554 60.5402 13.2275 56.7636 13.2223 53.3119C13.2155 48.9889 14.743 44.6203 16.4747 40.7202C19.7416 33.3631 25.2531 26.8806 31.9786 22.4657C38.2201 18.3689 45.7442 16.1611 53.2188 16.2275C55.1388 15.0763 57.1101 14.0104 59.1163 13.0186L59.5452 12.8083C62.6177 11.3143 65.6831 10.1102 69.0833 9.56509ZM16.6152 69.4185C16.9873 68.5103 18.6227 68.5133 19.3947 68.5439L19.5365 68.5504C21.8855 68.6737 25.7788 69.6327 26.26 72.2603C26.3405 72.6993 26.0591 73.2782 25.5248 73.226C24.7518 73.1505 24.1655 73.0093 23.5304 72.5541L23.2089 72.3243C22.6743 71.9441 22.142 71.58 21.5559 71.2674C20.8372 70.8844 20.0961 70.6078 19.3137 70.3865C18.993 70.296 18.67 70.2015 18.3478 70.1164C18.1347 70.0601 17.92 70.0107 17.7041 69.9678C17.4508 69.8116 17.286 69.9084 17.2101 70.2578C17.3097 70.292 17.3006 70.4649 17.1837 70.4524C16.72 70.4032 16.4346 69.8589 16.6152 69.4185ZM24.0792 65.606C24.0792 65.5952 24.0927 65.5931 24.0981 65.5996L24.1003 65.606V66.5799C24.1003 66.5909 24.0868 66.5931 24.0814 66.5865L24.0792 66.5799V65.606Z" fill="black"/>
<path fill-rule="evenodd" clip-rule="evenodd" d="M65.1521 90.2741C63.7319 89.6945 62.4647 88.7277 61.5383 87.4927C61.2162 87.0633 61.1327 86.6099 61.2003 86.1953C61.2763 85.729 61.552 85.3064 61.9281 85.0229C62.3053 84.7386 62.7771 84.5984 63.2333 84.6698C63.6297 84.732 64.0243 84.9491 64.3366 85.3994L64.4019 85.4894C64.9526 86.2349 65.6704 86.8465 66.4881 87.2407C67.2764 87.6207 68.1579 87.798 69.0701 87.6949C70.8076 87.4985 72.0051 86.5585 73.2779 85.2821C73.4357 85.1209 73.5936 84.9547 73.7522 84.7858C73.8524 84.6327 73.9914 84.5343 74.1458 84.4827C74.3172 84.4254 74.5111 84.4286 74.6886 84.4906C74.8599 84.5504 75.013 84.6637 75.1157 84.8145C75.2133 84.9578 75.2686 85.1349 75.2506 85.3386C75.1341 86.6614 74.4428 87.842 73.4608 88.7691C72.3701 89.7987 70.9244 90.5109 69.5632 90.7607C68.0637 91.0359 66.5357 90.8388 65.1521 90.2741V90.2741ZM70.2706 69.8662C71.866 70.8364 74.2969 73.0985 72.5806 75.5035C70.5604 77.6241 67.6518 75.1927 66.2185 74.093C64.8895 73.2408 63.3962 75.4327 64.6293 76.4278C74.9864 84.0988 79.1896 70.1199 71.0776 68.7256C70.1844 68.572 69.8527 69.5661 70.2706 69.8662ZM51.7106 60.9429C51.8868 58.7541 55.2191 58.257 55.5506 60.423C55.8474 62.3632 55.498 64.1455 54.6244 65.8923C53.7897 67.5611 51.6917 66.7825 51.533 65.2629C51.3203 63.2259 51.6009 62.3044 51.7106 60.9429ZM77.0761 59.9739C77.5407 59.3652 78.2115 58.9497 79.0152 59.1845C81.5261 59.9185 80.786 63.4846 79.9042 65.2204C79.425 66.163 77.8762 66.4021 77.1763 65.5721C76.0354 64.2186 75.4891 61.5157 76.9395 60.1825C76.9788 60.1136 77.0225 60.044 77.0761 59.9739ZM54.589 51.3654L54.9856 51.2959C56.2126 51.0836 57.7383 50.8796 58.6063 51.8665C59.0666 52.3898 59.2251 53.3624 58.6063 53.8633C57.5178 54.7446 56.3144 54.4031 55.0101 54.4777C53.9351 54.5394 52.902 54.7174 51.8666 55.0135C49.5951 55.6629 47.7442 56.8486 45.8041 58.1505C45.5495 58.3213 45.2896 57.9956 45.4111 57.7574C46.5311 55.563 48.7014 53.7604 50.8753 52.6616C52.0356 52.0751 53.3053 51.5885 54.589 51.3654ZM74.7872 50.3823L75.0908 50.4445C78.3945 51.1353 82.6867 52.5153 84.2511 55.7615C84.3107 56.2205 84.2477 56.3189 84.1965 56.3832L84.1795 56.4046C84.1373 56.4595 84.1036 56.5351 83.9047 56.5976C83.8495 56.5844 83.7938 56.5705 83.7374 56.5557C83.0203 56.3677 82.453 56.1087 81.9037 55.84L81.3081 55.5465C80.6172 55.2076 79.9201 54.881 79.1814 54.6399C77.6049 54.1255 75.9833 53.7631 74.3366 53.5696C73.9797 53.5277 73.636 53.4072 73.3649 53.2006C73.1075 53.0046 72.9109 52.7332 72.8212 52.3724C72.7051 51.9056 72.7385 51.5521 72.9889 51.1309C73.1772 50.8146 73.4466 50.5953 73.7559 50.4694C74.0713 50.3411 74.4303 50.3108 74.7872 50.3823Z" fill="black"/>
<path fill-rule="evenodd" clip-rule="evenodd" d="M70.503 78.1008C68.1535 77.0421 63.9345 77.9659 62.4028 78.3332C58.8419 79.1875 55.2596 81.0337 54.1526 83.926C52.9051 87.1856 55.3942 88.2117 55.7603 88.0441C58.2254 88.2179 61.161 86.6676 63.7442 86.2675C65.8412 85.9399 68.0534 85.654 70.0182 84.5393C71.4527 85.3287 74.6927 85.7554 77.3075 86.4457C79.5345 87.0333 80.4994 88.3075 82.5639 88.0365C85.0382 87.7119 84.0254 82.5057 81.2677 80.3967C78.2496 78.0885 73.1449 77.1524 70.503 78.1008ZM75.1551 100.361C73.0995 100.863 72.9615 96.3556 72.7312 94.7632C72.5513 93.5193 71.5367 90.3112 68.9643 90.4496C66.392 90.588 65.425 93.2758 65.5555 94.9475C65.6401 96.0316 66.6387 101.523 63.4513 102.218C61.4191 102.21 59.0681 102.073 56.9314 101.679C54.4164 101.109 51.1462 99.1143 50.2824 103.043C49.9715 104.457 61.0498 108.658 65.9658 109.038C70.9514 110.049 76.7845 108.495 80.3341 104.679C81.1416 103.811 83.416 100.208 83.578 99.3256C83.9185 97.471 83.1302 96.2776 80.8363 96.9313C79.2159 97.797 76.477 100.039 75.1551 100.361Z" fill="black"/>
</svg>
