<svg width="101" height="122" viewBox="0 0 101 122" fill="none" xmlns="http://www.w3.org/2000/svg">
<path fill-rule="evenodd" clip-rule="evenodd" d="M51.7271 16.9492C63.723 16.9492 81.2814 24.9629 82.6018 32.6728C84.1579 41.7587 87.6141 75.9243 85.7325 87.1045C83.8509 98.2848 76.5139 106.546 60.2889 106.546C44.0638 106.546 31.9536 97.6941 29.173 94.6549C26.3924 91.6156 23.0231 82.1578 23.0231 82.1578C23.0231 82.1578 14.1398 80.6514 14.0986 73.5672C14.0575 66.483 18.5612 64.2938 18.5612 64.2938C18.5612 64.2938 16.1306 34.9058 21.2394 27.6271C26.3482 20.3483 39.7312 16.9492 51.7271 16.9492Z" fill="white"/>
<path fill-rule="evenodd" clip-rule="evenodd" d="M87.9447 54.3745C88.6016 61.516 88.8487 68.7189 88.9757 75.8879C89.0982 82.6807 88.5004 89.7651 84.6318 95.573C81.2497 100.654 76.099 104.342 70.3628 106.333C67.0987 107.468 63.4842 107.888 60.0363 107.992C58.2553 108.045 56.4701 107.969 54.6997 107.785C54.4767 107.762 54.2528 107.742 54.0292 107.722C52.5297 107.588 51.0424 107.455 49.9501 106.322C49.6058 105.965 49.6102 105.232 50.1194 104.999C51.0891 104.558 51.7459 104.511 52.8088 104.657C53.6896 104.777 54.5729 104.872 55.46 104.934C57.3614 105.067 59.2757 105.071 61.1771 104.925C64.6715 104.657 68.2461 103.67 71.4192 102.173C76.3945 99.8233 80.6687 95.9723 82.9757 90.9191C85.6205 85.1333 85.4876 78.4425 85.3639 72.2123L85.3588 71.9567C85.2213 65.0456 84.9659 58.1556 84.3659 51.2677C84.1384 48.6619 83.8144 46.0704 83.4903 43.4779C83.399 42.748 83.3078 42.0181 83.2187 41.2877C83.0051 39.5208 82.7243 37.7622 82.3797 36.0166C82.2762 35.4894 82.1546 34.9665 82.0333 34.4442C81.942 34.0513 81.8507 33.6587 81.7673 33.2649C81.6257 33.2879 81.4818 33.3008 81.3342 33.3069C80.4509 33.3367 79.4856 33.1211 78.8304 32.4934C78.5792 32.6646 78.26 32.7724 77.8757 32.7914C75.5272 32.9075 73.1548 32.8557 70.7876 32.8041C69.4943 32.776 68.2026 32.7478 66.9173 32.747C63.2666 32.7449 59.6137 32.747 55.9607 32.7576C55.4039 32.7592 54.8469 32.7613 54.2897 32.7635C51.1958 32.7753 48.0967 32.7872 45.0067 32.7048C44.3518 32.6872 43.6927 32.6758 43.0313 32.6644C40.2637 32.6166 37.456 32.568 34.7518 32.0665C33.6257 36.0695 33.6656 40.4677 36.013 44.0437C36.6762 45.0519 36.1375 46.2396 35.2736 46.8695C34.3903 47.5122 32.8026 48.4977 31.4442 48.5989C31.3915 48.7173 31.3382 48.8354 31.2851 48.9533C31.2054 49.13 31.1259 49.3062 31.0489 49.4822C30.4005 50.9602 29.8163 52.4474 29.4075 54.0123C29.1969 54.8188 29.0156 55.6386 28.8631 56.4635C28.8756 56.6079 28.8885 56.752 28.9039 56.8959C28.9039 56.9089 28.9055 56.9218 28.9073 56.9361L28.9081 56.9422C28.9166 57.0016 28.9271 57.0692 28.9335 57.1073C28.9526 57.2088 28.9716 57.3103 28.9907 57.4118C29.0492 57.7245 29.1077 58.0368 29.1701 58.3479C29.3666 59.3518 29.5185 60.3642 29.6264 61.3806C29.8229 63.2407 29.8039 65.6585 27.9912 66.7596C27.0215 67.3493 25.8595 67.288 24.8347 66.8926C24.2633 66.6718 23.7631 66.3752 23.2472 66.0692C23.1414 66.0065 23.035 65.9434 22.9271 65.8804C22.7604 65.7829 22.5904 65.6933 22.4207 65.604C22.2075 65.4917 21.9949 65.3798 21.7903 65.2527C21.6891 65.1893 21.5919 65.1132 21.5011 65.0329C20.8144 65.1787 20.1445 65.4514 19.7687 65.6374C18.7607 66.1383 17.8757 66.8632 17.1234 67.6959C15.5243 69.4691 15.0447 71.9673 15.2687 74.2858C15.4776 76.4437 16.325 78.9226 18.0297 80.3579C18.7713 80.9833 19.6968 81.3492 20.675 81.3386C21.1565 81.3344 21.6004 81.2329 22.0652 81.1103C22.2634 81.0582 22.4818 81.0354 22.7001 81.0126C22.9865 80.9826 23.2725 80.9527 23.5123 80.8567C24.1396 80.6052 24.913 81.3724 24.6574 82.0022C24.6005 82.1421 24.5509 82.2773 24.5029 82.4078C24.3886 82.7188 24.284 83.0034 24.1142 83.264C25.8637 86.1214 27.7799 88.8901 29.8185 91.5468C31.1111 93.2294 32.5648 94.7238 34.025 96.2249C34.641 96.8582 35.2582 97.4927 35.8649 98.143C36.7673 99.111 37.1433 101.017 35.5102 101.431C34.0738 101.799 32.9578 100.481 32.0721 99.4358C31.9535 99.2957 31.8389 99.1606 31.7283 99.0349C27.8518 94.6241 24.9215 89.5599 23.5502 83.8431C22.9313 84.2827 22.2213 84.5215 21.4734 84.6251C19.984 84.8301 18.4778 84.5363 17.1722 83.7818C12.2283 80.9265 11.0325 73.2101 13.348 68.3744C13.9064 67.21 14.7312 66.1706 15.7366 65.3635C15.6574 65.2119 15.6261 65.0344 15.6771 64.8435C15.7664 64.5094 15.8647 64.1793 15.9678 63.8504C15.8552 63.8003 15.7728 63.6968 15.7884 63.5429C15.867 62.7383 15.944 61.9337 16.021 61.1291L16.063 60.6897C16.0534 60.2535 16.0402 59.8175 16.027 59.3814C15.9968 58.3805 15.9665 57.3787 15.9783 56.3718C15.9902 55.3004 16.0267 54.2294 16.0632 53.1585C16.1052 51.9268 16.1473 50.695 16.1518 49.4627C16.1654 45.4717 16.253 41.4827 16.3406 37.4937C16.4294 33.4514 16.5181 29.409 16.5299 25.3646C16.5424 21.4354 16.5509 17.5002 16.4473 13.5733C16.4462 13.5455 16.4457 13.5183 16.4452 13.491C16.4447 13.4665 16.4442 13.4419 16.4433 13.4169C16.4303 12.935 16.3998 12.4281 16.3684 11.9078C16.1952 9.03536 15.9975 5.75648 18.5982 4.03489C19.1032 3.70117 19.7328 3.69695 20.2821 3.91252C21.8623 2.81139 23.844 2.28069 25.7391 1.97423C28.5326 1.52307 31.3451 1.25258 34.1589 0.981958C34.9819 0.902806 35.805 0.823642 36.6278 0.739944C38.5248 0.547615 40.5213 0.473854 42.4311 0.516124C43.4248 0.537873 44.4251 0.501992 45.4269 0.466058C46.3721 0.432152 47.3187 0.398197 48.2623 0.412562C50.4678 0.448492 52.6905 0.530919 54.9044 0.71268C54.956 0.707418 55.0081 0.702681 55.0602 0.697946C55.1128 0.69317 55.1653 0.688397 55.2173 0.683091C58.5712 0.361346 61.9211 0.531474 65.2723 0.701674C66.0839 0.742892 66.8956 0.784114 67.7074 0.818355C71.6748 0.985322 75.8642 1.39534 79.4264 3.29517C79.8844 3.53907 80.2725 3.81636 80.6036 4.12535C81.0678 4.19066 81.5104 4.32233 81.9082 4.54361C83.0549 4.31176 84.3352 4.82577 84.6065 6.15706C85.0016 8.10783 85.1516 10.0753 84.9149 12.0537C84.9116 12.0787 84.9088 12.1043 84.906 12.1306C84.9035 12.1531 84.901 12.1762 84.898 12.1996C85.377 14.0349 85.3451 16.0394 84.9471 17.8496C85.1148 20.1368 85.2105 22.4306 85.2238 24.7206C85.2258 25.0671 85.2308 25.415 85.2358 25.7636C85.2536 27.0087 85.2715 28.263 85.1564 29.4969C85.0267 30.8855 84.4554 31.9843 83.5565 33.0389C83.387 33.2376 83.1008 33.2706 82.8627 33.2224C82.801 33.2099 82.7473 33.193 82.6987 33.1729C83.1423 34.1242 83.5098 35.1229 83.8694 36.0999C83.9491 36.3165 84.0284 36.5321 84.1081 36.7458C84.8053 38.6184 85.4813 40.5226 85.9607 42.4628C86.9328 46.3747 87.5727 50.361 87.9447 54.3745ZM20.6206 72.0787C20.4201 71.9402 20.2178 71.8005 19.9989 71.6968C19.9714 71.6839 18.8137 71.3079 19.0376 71.8046C19.1137 71.9694 18.9151 72.1533 18.7735 72.0074C18.3721 71.5995 18.5961 71.1092 18.9785 70.7457C19.6691 70.0884 20.7003 70.2403 21.5475 70.397C22.7264 70.6146 23.8714 71.1303 24.8644 71.7919C25.9334 72.5041 27.2538 73.4911 27.4651 74.8417C27.6573 76.0823 26.4235 77.4497 25.1538 76.6191C24.4668 76.1687 23.9858 75.4994 23.503 74.8276C23.1588 74.3487 22.8137 73.8686 22.3926 73.4658C21.8959 72.9923 21.3592 72.576 20.7911 72.1953C20.7342 72.1571 20.6775 72.1179 20.6206 72.0787Z" fill="black"/>
<path fill-rule="evenodd" clip-rule="evenodd" d="M65.1522 91.2739C63.732 90.6943 62.4648 89.7275 61.5384 88.4924C61.2163 88.0631 61.1328 87.6097 61.2003 87.195C61.2763 86.7287 61.5521 86.3061 61.9281 86.0227C62.3053 85.7383 62.7772 85.5981 63.2334 85.6696C63.6298 85.7317 64.0244 85.9488 64.3367 86.3991L64.4019 86.4892C64.9527 87.2346 65.6704 87.8462 66.4882 88.2404C67.2764 88.6204 68.158 88.7978 69.0702 88.6946C70.8076 88.4983 72.0052 87.5583 73.278 86.2818C73.4358 86.1206 73.5936 85.9544 73.7523 85.7855C73.8525 85.6325 73.9915 85.5341 74.1458 85.4824C74.3172 85.4251 74.5111 85.4284 74.6887 85.4903C74.86 85.5501 75.0131 85.6635 75.1158 85.8143C75.2133 85.9576 75.2687 86.1347 75.2507 86.3383C75.1342 87.6612 74.4429 88.8418 73.4608 89.7688C72.3702 90.7984 70.9244 91.5107 69.5633 91.7605C68.0638 92.0357 66.5358 91.8385 65.1522 91.2739V91.2739ZM70.2707 70.866C71.8661 71.8361 74.2969 74.0982 72.5807 76.5032C70.5605 78.6238 67.6519 76.1924 66.2186 75.0928C64.8895 74.2406 63.3963 76.4324 64.6294 77.4275C74.9865 85.0985 79.1896 71.1197 71.0776 69.7254C70.1845 69.5718 69.8527 70.5659 70.2707 70.866ZM51.7106 61.9426C51.8869 59.7538 55.2192 59.2568 55.5506 61.4227C55.8475 63.3629 55.498 65.1452 54.6244 66.892C53.7897 68.5609 51.6917 67.7823 51.5331 66.2627C51.3204 64.2257 51.601 63.3042 51.7106 61.9426ZM77.0762 60.9736C77.5408 60.3649 78.2116 59.9494 79.0152 60.1842C81.5261 60.9182 80.7861 64.4844 79.9042 66.2202C79.4251 67.1628 77.8763 67.4018 77.1763 66.5719C76.0355 65.2184 75.4892 62.5154 76.9395 61.1822C76.9788 61.1133 77.0225 61.0438 77.0762 60.9736ZM54.5891 52.3651L54.9857 52.2957C56.2127 52.0834 57.7383 51.8794 58.6063 52.8662C59.0667 53.3895 59.2251 54.3622 58.6063 54.8631C57.5179 55.7444 56.3145 55.4028 55.0101 55.4775C53.9352 55.5392 52.9021 55.7171 51.8667 56.0132C49.5951 56.6627 47.7442 57.8484 45.8041 59.1503C45.5496 59.3211 45.2897 58.9954 45.4112 58.7572C46.5311 56.5627 48.7015 54.7601 50.8754 53.6613C52.0357 53.0748 53.3054 52.5883 54.5891 52.3651ZM74.7873 51.3821L75.0909 51.4442C78.3945 52.1351 82.6867 53.515 84.2512 56.7613C84.3108 57.2203 84.2478 57.3187 84.1966 57.3829L84.1795 57.4043C84.1373 57.4592 84.1036 57.5349 83.9048 57.5974C83.8496 57.5842 83.7938 57.5703 83.7375 57.5555C83.0204 57.3675 82.453 57.1085 81.9037 56.8398L81.3082 56.5462C80.6172 56.2073 79.9202 55.8807 79.1814 55.6396C77.6049 55.1252 75.9833 54.7628 74.3367 54.5693C73.9797 54.5274 73.6361 54.4069 73.3649 54.2004C73.1076 54.0044 72.9109 53.733 72.8213 53.3722C72.7051 52.9053 72.7385 52.5518 72.9889 52.1306C73.1772 51.8143 73.4466 51.5951 73.756 51.4692C74.0714 51.3408 74.4304 51.3106 74.7873 51.3821Z" fill="black"/>
</svg>
