<svg width="111" height="120" viewBox="0 0 111 120" fill="none" xmlns="http://www.w3.org/2000/svg">
<path fill-rule="evenodd" clip-rule="evenodd" d="M87.8869 34.2154C75.183 25.803 49.732 26.7167 35.7473 31.8707C22.102 36.1998 17.3246 48.2626 15.059 61.2951C12.3051 75.9423 12.6752 97.0568 32.4782 96.8013C35.2623 98.1482 38.3466 98.7324 41.2272 99.8479C45.1699 101.212 49.0356 102.795 53.0364 103.989C60.9163 106.528 69.6847 106.307 77.1596 102.592C81.2893 100.596 82.9986 97.4883 85.6993 94.1767C93.5564 84.5422 97.5099 70.7541 97.1559 58.5036C96.5345 49.8773 95.1083 39.8914 87.8869 34.2154Z" fill="white"/>
<path fill-rule="evenodd" clip-rule="evenodd" d="M103.963 69.7239C102.659 61.6292 102.298 53.3971 100.591 45.3658C98.9853 37.8081 95.9832 30.6664 90.7374 24.905C86.043 19.7502 79.9733 15.9649 73.4578 13.5661C60.7649 8.8931 46.1663 9.94985 33.8874 15.405C22.3944 20.5089 13.2275 29.952 7.88458 41.2846C4.41345 48.6481 2.66838 56.4765 1.89303 64.5564C1.03317 73.5325 0.940215 82.6015 0.589511 91.6093C0.547257 92.721 0.48599 93.8327 0.471201 94.9446C0.4543 96.1617 0.946553 97.2291 1.34796 98.3619C1.37543 98.4422 1.41557 98.5185 1.46416 98.5904C1.16205 98.6282 0.859933 98.6726 0.557821 98.7212C0.219793 98.774 0.234581 99.3235 0.557821 99.3891C3.29374 99.947 6.10571 100.025 8.8881 100.163C11.7719 100.306 14.6599 100.385 17.548 100.482C20.3642 100.577 23.1804 100.672 25.9966 100.767C27.4754 100.818 28.9543 100.869 30.4332 100.917C31.1367 100.94 31.8402 100.966 32.5458 100.989C32.8966 101.002 33.2494 101.012 33.6001 101.025C33.8853 101.033 34.3501 101.215 34.3797 101.006C34.4325 101.038 34.4895 101.065 34.5508 101.084C34.6184 101.12 34.6839 101.162 34.7473 101.209C35.0916 101.446 35.6135 101.416 35.962 101.209C35.9937 101.19 36.0275 101.169 36.0613 101.148C36.3212 100.993 36.5029 100.769 36.6043 100.516C38.0494 102.261 40.6078 100.3 39.1289 98.4528C38.3346 97.4594 30.4332 73.1055 33.7036 54.5532L46.8191 52.8159C49.217 52.5729 53.6789 52.0889 53.6789 52.0889C53.6789 52.0889 54.7712 48.5234 55.0839 47.3758C55.1071 47.2912 55.1304 47.2046 55.1557 47.12C55.4684 47.6719 55.7832 48.2212 56.1001 48.7707L57.7184 52.0614C57.7184 52.0614 81.6043 51.6619 87.4606 51.7C87.5599 51.7 88.0311 58.8225 87.8177 61.9589C87.3867 68.2572 86.9282 74.5512 86.2902 80.8325C85.883 84.8546 84.9014 88.799 83.4393 92.506C81.1295 98.3619 74.4234 103.928 67.8846 103.928C63.8144 103.928 54.617 100.63 53.2775 99.9642C51.9381 99.2982 51.14 101.116 52.3606 101.843C54.8333 103.316 61.6491 106.44 67.8846 106.44C76.9401 106.44 83.7761 97.8441 84.6149 96.6119C92.8606 96.1598 101.294 96.3689 109.53 97.1868C110.22 97.2544 110.816 96.4217 110.594 95.7855C107.637 87.3169 105.387 78.5818 103.963 69.7239Z" fill="black"/>
<path fill-rule="evenodd" clip-rule="evenodd" d="M70.1522 90.2739C68.732 89.6943 67.4648 88.7275 66.5384 87.4924C66.2163 87.0631 66.1328 86.6097 66.2003 86.195C66.2763 85.7287 66.5521 85.3061 66.9281 85.0227C67.3053 84.7383 67.7772 84.5981 68.2334 84.6696C68.6298 84.7317 69.0244 84.9488 69.3367 85.3991L69.4019 85.4892C69.9527 86.2346 70.6704 86.8462 71.4882 87.2404C72.2764 87.6204 73.158 87.7978 74.0702 87.6946C75.8076 87.4983 77.0052 86.5583 78.278 85.2818C78.4358 85.1206 78.5936 84.9544 78.7523 84.7855C78.8525 84.6325 78.9915 84.5341 79.1458 84.4824C79.3172 84.4251 79.5111 84.4284 79.6887 84.4903C79.86 84.5501 80.0131 84.6635 80.1158 84.8143C80.2133 84.9576 80.2687 85.1347 80.2507 85.3383C80.1342 86.6612 79.4429 87.8418 78.4608 88.7688C77.3702 89.7984 75.9244 90.5107 74.5633 90.7605C73.0638 91.0357 71.5358 90.8385 70.1522 90.2739V90.2739ZM75.2707 69.866C76.8661 70.8361 79.2969 73.0982 77.5807 75.5032C75.5605 77.6238 72.6519 75.1924 71.2186 74.0928C69.8895 73.2406 68.3963 75.4324 69.6294 76.4275C79.9865 84.0985 84.1896 70.1197 76.0776 68.7254C75.1845 68.5718 74.8527 69.5659 75.2707 69.866ZM56.7106 60.9426C56.8869 58.7538 60.2192 58.2568 60.5506 60.4227C60.8475 62.3629 60.498 64.1452 59.6244 65.892C58.7897 67.5609 56.6917 66.7823 56.5331 65.2627C56.3204 63.2257 56.601 62.3042 56.7106 60.9426ZM82.0762 59.9736C82.5408 59.3649 83.2116 58.9494 84.0152 59.1842C86.5261 59.9182 85.7861 63.4844 84.9042 65.2202C84.4251 66.1628 82.8763 66.4018 82.1763 65.5719C81.0355 64.2184 80.4892 61.5154 81.9395 60.1822C81.9788 60.1133 82.0225 60.0438 82.0762 59.9736ZM59.5891 51.3651L59.9857 51.2957C61.2127 51.0834 62.7383 50.8794 63.6063 51.8662C64.0667 52.3895 64.2251 53.3622 63.6063 53.8631C62.5179 54.7444 61.3145 54.4028 60.0101 54.4775C58.9352 54.5392 57.9021 54.7171 56.8667 55.0132C54.5951 55.6627 52.7442 56.8484 50.8041 58.1503C50.5496 58.3211 50.2897 57.9954 50.4112 57.7572C51.5311 55.5627 53.7015 53.7601 55.8754 52.6613C57.0357 52.0748 58.3054 51.5883 59.5891 51.3651ZM79.7873 50.3821L80.0909 50.4442C83.3945 51.1351 87.6867 52.515 89.2512 55.7613C89.3108 56.2203 89.2478 56.3187 89.1966 56.3829L89.1795 56.4043C89.1373 56.4592 89.1036 56.5349 88.9048 56.5974C88.8496 56.5842 88.7938 56.5703 88.7375 56.5555C88.0204 56.3675 87.453 56.1085 86.9037 55.8398L86.3082 55.5462C85.6172 55.2073 84.9202 54.8807 84.1814 54.6396C82.6049 54.1252 80.9833 53.7628 79.3367 53.5693C78.9797 53.5274 78.6361 53.4069 78.3649 53.2004C78.1076 53.0044 77.9109 52.733 77.8213 52.3722C77.7051 51.9053 77.7385 51.5518 77.9889 51.1306C78.1772 50.8143 78.4466 50.5951 78.756 50.4692C79.0714 50.3408 79.4304 50.3106 79.7873 50.3821Z" fill="black"/>
<path fill-rule="evenodd" clip-rule="evenodd" d="M99.8033 53.7748C99.6294 53.7458 99.4553 53.7185 99.2812 53.693C99.1454 53.6158 98.9859 53.5564 98.8004 53.5207C98.3768 53.4131 97.9562 53.3407 97.5362 53.3016C91.5083 51.9445 77.5631 53.8714 76.9876 59.0173C75.0681 59.6583 73.4071 59.0843 71.1822 59.1414C69.4887 52.0601 40.2106 53.0596 38.8025 57.3288C38.7972 57.3274 38.7919 57.3261 38.7864 57.3244C37.4335 56.9055 35.4389 57.0065 33.8903 56.9402C30.5838 56.8708 27.2734 57.1657 24.0383 57.8633C17.9802 58.8265 9.71222 59.954 13.9255 67.522C13.9264 67.5233 13.927 67.5248 13.9281 67.5261L13.9287 67.5254C14.6548 68.27 15.8872 67.6704 15.933 66.6625C14.5164 63.0771 17.7159 62.6466 20.1776 61.6163C26.3029 59.4149 32.5391 59.1097 38.8741 59.7906C39.3507 60.352 40.0739 60.8415 40.8383 61.0976C45.074 61.801 42.8417 64.9442 45.5191 65.4014C45.0273 76.3582 58.3247 82.339 66.0294 75.1364C69.1057 72.1276 69.839 67.6704 70.5522 63.6529C70.9293 63.5681 71.1691 63.3618 71.3092 63.0888C72.2162 62.1829 72.786 61.3464 74.5794 61.0976C76.3729 60.8491 77.7535 61.3481 77.9402 61.5009C77.9874 61.5958 78.0379 61.6909 78.0966 61.786C78.1786 61.9278 78.2901 62.0409 78.4169 62.1299C76.6458 73.0406 85.1128 79.9408 93.6605 74.2819C97.3746 70.7868 98.1594 65.4358 98.3145 60.6597C98.8179 60.3558 99.1367 59.7668 98.9624 59.0262C98.7222 58.0054 99.2855 57.1215 100.183 56.6777C101.348 56.1013 101.142 53.9965 99.8033 53.7748M63.0749 58.951C62.0139 58.7175 61.5608 60.354 62.6252 60.588C63.3789 60.7538 64.0177 61.134 64.4492 61.7782L64.4947 61.8482C65.0738 62.7701 66.5382 61.9191 65.9551 60.9913C65.299 59.9471 64.2794 59.2158 63.0749 58.951ZM94.1495 57.9363C93.7754 57.6727 93.2094 57.8684 92.9923 58.2409C92.7533 58.651 92.9099 59.1076 93.2602 59.3759L93.2959 59.4021C93.6172 59.6287 93.9302 60.0348 93.9694 60.4509L93.9729 60.5029C94.015 61.5919 95.7067 61.5974 95.6644 60.5029C95.6232 59.4323 95.0034 58.5378 94.1495 57.9363Z" fill="black"/>
</svg>
