<svg width="101" height="121" viewBox="0 0 101 121" fill="none" xmlns="http://www.w3.org/2000/svg">
<path fill-rule="evenodd" clip-rule="evenodd" d="M54.7978 8.28079C66.7937 8.28079 81.8181 21.9701 86.2153 27.7955C89.9123 32.6932 89.3893 57.9244 89.3893 72.8916C89.3893 76.0219 87.9749 81.9463 87.4614 84.9406C85.5798 95.9128 77.3821 105.115 61.157 105.115C47.946 105.115 37.7793 100.929 27.9479 90.2219C25.7049 87.7792 14.751 96.5238 12.5108 93.3746C6.6594 93.3746 1.76666 38.6819 13.2551 22.2772C24.7436 5.87258 42.8019 8.28079 54.7978 8.28079Z" fill="white"/>
<path fill-rule="evenodd" clip-rule="evenodd" d="M18.743 12.1333C25.6747 5.82446 34.9092 2.78947 44.2261 3.0135C49.0514 3.12975 53.8599 4.04912 58.4169 5.62368C60.6965 6.41413 62.9042 7.44552 65.0148 8.61217C65.7754 9.03162 66.4765 9.5231 67.1515 10.0451L67.3197 10.1762H67.3218C69.1324 10.8271 70.7486 11.9959 72.2148 13.3633C75.1535 13.1287 78.1155 13.3929 80.9571 14.2996C84.912 15.5635 88.5733 17.8778 91.1444 21.1643C94.1393 24.9904 95.1349 29.6314 94.7797 34.4224L94.7141 35.2363C94.3628 39.4685 93.7335 44.9121 90.2613 47.693C89.9972 47.9043 89.7056 48.0649 89.4035 48.1622C91.6409 51.996 93.4768 56.2526 94.5754 60.5515C98.769 76.9713 95.5451 94.0949 90.5021 109.921C90.088 111.225 88.1169 112.091 87.1134 110.817C85.3218 108.539 82.719 106.801 79.7909 106.476C77.9845 106.275 76.1866 106.639 74.4796 105.819C73.8099 105.495 73.1634 104.967 72.6986 104.324C69.8169 105.417 66.7134 105.933 63.6352 105.806C58.5838 105.599 53.1838 103.849 49.7085 100.011C49.1507 99.3945 49.0094 98.7028 49.1378 98.0793C49.5737 97.9237 50.0211 97.8079 50.4821 97.7354C54.8892 100.334 59.7471 102.07 64.9679 102.179C67.9846 102.242 70.9271 101.82 73.3732 99.9356C73.9024 99.5277 74.3892 99.076 74.8392 98.5908C79.9533 95.2996 83.559 89.7096 85.2733 83.7218C86.8704 78.138 86.674 72.3237 86.1247 66.5961L85.8349 63.5737C85.4124 59.1376 85.0205 54.6883 84.9107 50.2334L84.9439 50.2317V50.2317C86.0239 50.1619 86.0317 48.4705 84.9439 48.5409C82.13 48.7231 79.3375 48.2613 76.5323 48.4625C76.5088 47.1358 76.4133 45.8151 76.0235 44.5356C75.8011 43.8045 74.5286 43.6604 74.3938 44.5356C74.2134 45.7065 74.1475 46.8708 74.1278 48.047C69.9297 47.9912 65.7356 47.6378 61.5369 47.783C60.7624 46.9566 60.5159 45.4913 60.1535 44.472C60.1007 44.3219 60.0479 44.174 59.993 44.0239C59.6746 45.4805 59.2233 46.9053 58.6297 48.3L57.5999 48.3034C51.7574 48.3309 45.7959 48.5056 40.0907 49.7194C39.6942 49.4148 39.4582 48.8835 39.3944 48.401C38.9806 45.2612 38.3899 42.2049 37.3432 39.2128L37.1934 38.7907C37.1812 38.7556 37.1683 38.7184 37.1547 38.6793C36.3834 39.9248 35.4631 41.0857 34.4594 42.1668C33.8678 42.804 33.2475 43.4133 32.611 44.0053C31.9926 44.6922 31.3535 45.3687 30.7341 46.0577C30.7584 46.1831 30.7795 46.3103 30.7966 46.4399C30.9861 47.8696 31.0058 49.3197 30.867 50.755C30.616 53.3497 29.8837 55.85 28.7074 58.163L28.6702 58.3946C28.4916 59.4786 28.2374 60.5988 27.6439 61.4151C28.3846 62.2453 28.9552 63.2369 29.2861 64.3387C29.5806 65.3196 28.224 66.1696 27.5205 65.3669C26.9617 64.7293 26.3408 64.2015 25.6588 63.7805C25.6157 63.8391 25.538 63.8678 25.4507 63.819C23.5514 62.7643 20.3254 63.0835 18.4282 64.0768C16.0683 65.3111 15.1472 67.8452 15.4092 70.4131C15.6606 72.8669 16.7338 75.7349 18.8148 76.9924C19.7697 77.5694 20.5134 77.618 21.5275 77.3412C21.8517 77.2531 22.2537 76.9829 22.4262 76.8486L22.5961 76.7125C23.2609 76.1869 23.88 75.8269 24.6648 75.8131C25.4674 75.5627 26.2741 75.9101 26.5811 76.752L26.6 76.8065C26.7437 77.2355 27.0056 77.7744 26.9486 78.4296C26.8894 79.1313 26.5683 79.7696 26.0887 80.2832C26.0064 80.3719 25.9176 80.4607 25.8268 80.5431C34.0873 89.4896 35.1479 103.43 30.912 114.606C30.7282 115.097 30.5317 115.581 30.3268 116.061C29.619 117.705 26.8937 117.196 26.5472 115.566C26.4437 115.078 26.3296 114.592 26.2049 114.11C25.9758 113.219 25.7133 112.337 25.4175 111.468L25.3049 111.142C25.0535 110.424 24.819 109.699 24.5655 108.98L24.5402 108.898C24.5306 108.866 24.5201 108.828 24.5085 108.786L24.0796 109.722V109.722L22.7761 112.548C22.1661 113.867 20.228 113.15 20.156 111.879L20.1542 111.836C20.1479 111.601 20.1394 111.369 20.1247 111.138C20.0317 109.411 19.7338 107.733 19.2606 106.091L19.0898 106.303C16.5475 109.448 13.5637 112.395 9.47044 113.121C8.44368 113.302 7.2817 112.229 7.98734 111.191C8.27889 110.762 8.55987 110.322 8.82607 109.876C8.59579 109.769 8.37818 109.657 8.17748 109.543C6.62466 108.67 5.3317 107.427 4.26269 106.017C1.99579 103.029 1.18452 99.2667 0.985929 95.5849C0.774661 91.694 1.11691 87.5917 2.17959 83.8381C2.64015 82.2149 3.26339 80.6573 3.98382 79.1461C3.93311 79.0108 3.88452 78.8756 3.83593 78.7403C3.05846 76.5719 2.42044 74.3548 1.89015 72.1124C0.82114 67.5852 0.246492 62.9144 0.176774 58.2626C0.0500134 49.929 1.48663 41.4623 4.5141 33.691C7.64086 25.6766 12.3437 17.956 18.743 12.1333ZM14.8493 84.9942C14.2752 84.0898 12.8386 84.9048 13.3717 85.8155L13.3916 85.848C14.3021 87.2831 14.7289 88.9147 15.2528 90.5146C15.5887 91.5439 17.2218 91.1043 16.8817 90.0645L16.7691 89.7173C16.2477 88.0948 15.7721 86.446 14.8493 84.9942ZM19.85 67.7311L20.2315 67.5464C21.4347 66.972 22.4889 66.5807 23.9106 67.0822C25.8141 67.7522 27.8528 69.8847 26.5662 71.9538C26.093 72.7168 25.2521 73.0211 24.3859 72.8415C22.9256 72.5385 22.5488 71.223 21.8078 70.1431L21.6802 69.9603C21.2285 69.3068 20.6571 68.4035 19.9049 68.1474C19.7338 68.0882 19.662 67.8219 19.85 67.7311ZM20.9229 23.8L21.0458 23.6899C21.8634 22.9671 20.6634 21.7751 19.85 22.4937C16.1275 25.7844 14.8345 30.935 12.9035 35.3247C12.4704 36.3117 13.9261 37.174 14.3634 36.1786C16.2054 31.9897 17.428 26.9789 20.9229 23.8V23.8ZM65.6571 22.3605C64.6844 21.922 63.8334 23.3381 64.7685 23.8043L64.8035 23.8209C68.0909 25.3067 69.4895 28.6714 70.8289 31.7952C71.2556 32.7928 72.7113 31.9326 72.2887 30.9434L72.047 30.3829C70.6494 27.1638 69.0193 23.8825 65.6571 22.3605ZM70.8099 20.3273C69.7789 19.9701 69.3373 21.6018 70.3599 21.9589C73.1465 22.929 75.0585 25.0214 76.6704 27.4139C77.2747 28.31 78.7387 27.4646 78.1282 26.56C76.2564 23.7829 74.0338 21.4517 70.8099 20.3273Z" fill="black"/>
<path fill-rule="evenodd" clip-rule="evenodd" d="M65.152 90.2739C63.7319 89.6943 62.4647 88.7275 61.5382 87.4924C61.2162 87.0631 61.1326 86.6097 61.2002 86.195C61.2762 85.7287 61.5519 85.3061 61.928 85.0227C62.3052 84.7383 62.7771 84.5981 63.2333 84.6696C63.6297 84.7317 64.0243 84.9488 64.3366 85.3991L64.4018 85.4892C64.9526 86.2346 65.6703 86.8462 66.4881 87.2404C67.2763 87.6204 68.1578 87.7978 69.0701 87.6946C70.8075 87.4983 72.005 86.5583 73.2779 85.2818C73.4356 85.1206 73.5935 84.9544 73.7522 84.7855C73.8523 84.6325 73.9914 84.5341 74.1457 84.4824C74.3171 84.4251 74.511 84.4284 74.6886 84.4903C74.8599 84.5501 75.013 84.6635 75.1156 84.8143C75.2132 84.9576 75.2685 85.1347 75.2506 85.3383C75.1341 86.6612 74.4427 87.8418 73.4607 88.7688C72.3701 89.7984 70.9243 90.5107 69.5632 90.7605C68.0636 91.0357 66.5356 90.8385 65.152 90.2739V90.2739ZM70.2706 69.866C71.866 70.8361 74.2968 73.0982 72.5805 75.5032C70.5604 77.6238 67.6518 75.1924 66.2185 74.0928C64.8894 73.2406 63.3962 75.4324 64.6293 76.4275C74.9864 84.0985 79.1895 70.1197 71.0775 68.7254C70.1843 68.5718 69.8526 69.5659 70.2706 69.866ZM51.7105 60.9426C51.8868 58.7538 55.219 58.2568 55.5505 60.4227C55.8473 62.3629 55.4979 64.1452 54.6243 65.892C53.7896 67.5609 51.6916 66.7823 51.5329 65.2627C51.3203 63.2257 51.6009 62.3042 51.7105 60.9426ZM77.0761 59.9736C77.5407 59.3649 78.2114 58.9494 79.0151 59.1842C81.526 59.9182 80.7859 63.4844 79.9041 65.2202C79.425 66.1628 77.8762 66.4018 77.1762 65.5719C76.0354 64.2184 75.489 61.5154 76.9394 60.1822C76.9787 60.1133 77.0224 60.0438 77.0761 59.9736ZM54.589 51.3651L54.9856 51.2957C56.2126 51.0834 57.7382 50.8794 58.6062 51.8662C59.0666 52.3895 59.225 53.3622 58.6062 53.8631C57.5178 54.7444 56.3144 54.4028 55.01 54.4775C53.9351 54.5392 52.902 54.7171 51.8666 55.0132C49.595 55.6627 47.7441 56.8484 45.804 58.1503C45.5494 58.3211 45.2896 57.9954 45.4111 57.7572C46.531 55.5627 48.7013 53.7601 50.8753 52.6613C52.0356 52.0748 53.3053 51.5883 54.589 51.3651ZM74.7872 50.3821L75.0908 50.4442C78.3944 51.1351 82.6866 52.515 84.251 55.7613C84.3107 56.2203 84.2477 56.3187 84.1964 56.3829L84.1794 56.4043C84.1372 56.4592 84.1035 56.5349 83.9046 56.5974C83.8494 56.5842 83.7937 56.5703 83.7374 56.5555C83.0203 56.3675 82.4529 56.1085 81.9036 55.8398L81.3081 55.5462C80.6171 55.2073 79.92 54.8807 79.1813 54.6396C77.6048 54.1252 75.9832 53.7628 74.3365 53.5693C73.9796 53.5274 73.6359 53.4069 73.3648 53.2004C73.1074 53.0044 72.9108 52.733 72.8212 52.3722C72.705 51.9053 72.7384 51.5518 72.9888 51.1306C73.1771 50.8143 73.4465 50.5951 73.7559 50.4692C74.0712 50.3408 74.4303 50.3106 74.7872 50.3821Z" fill="black"/>
<path fill-rule="evenodd" clip-rule="evenodd" d="M88.0845 71.7579C86.6621 73.6696 84.025 74.2785 81.5927 74.0682C76.3467 73.5631 74.6956 67.6028 74.5237 62.9702C78.0415 63.9602 74.2262 56.9488 86.2513 56.1778C90.4904 55.8244 89.3217 58.3856 91.1946 60.2569C91.1561 64.1842 90.5027 68.4516 88.0845 71.7579M63.0977 67.2452C60.0005 81.755 43.0404 78.3037 41.2587 65.224C42.9039 64.0625 42.4706 61.1942 44.5144 60.155C47.7535 58.0846 51.8027 58.1732 55.4811 58.2218C60.1828 58.5449 61.5227 60.4934 63.9379 62.6191C63.8217 64.039 63.4866 65.7218 63.0977 67.2452M94.803 53.7748C94.6292 53.7458 94.4551 53.7185 94.281 53.693C94.1451 53.6158 93.9856 53.5564 93.8001 53.5207C93.3766 53.4131 92.9559 53.3407 92.5359 53.3016C86.508 51.9445 72.5629 53.8714 71.9874 59.0173C70.0678 59.6583 68.4068 59.0843 66.182 59.1414C64.4885 52.0601 35.2104 53.0596 33.8023 57.3288C33.797 57.3274 33.7917 57.3261 33.7862 57.3244C32.4332 56.9055 30.4387 57.0065 28.8901 56.9402C25.5835 56.8708 22.2732 57.1657 19.038 57.8633C12.9799 58.8265 4.71198 59.954 8.92529 67.522C8.92614 67.5233 8.92677 67.5248 8.92783 67.5261L8.92846 67.5254C9.65459 68.27 10.8869 67.6704 10.9328 66.6625C9.51621 63.0771 12.7156 62.6466 15.1773 61.6163C21.3026 59.4149 27.5388 59.1097 33.8739 59.7906C34.3505 60.352 35.0737 60.8415 35.838 61.0976C40.0737 61.801 37.8415 64.9442 40.5189 65.4014C40.027 76.3582 53.3244 82.339 61.0292 75.1364C64.1054 72.1276 64.8387 67.6704 65.552 63.6529C65.9291 63.5681 66.1689 63.3618 66.309 63.0888C67.2159 62.1829 67.7857 61.3464 69.5792 61.0976C71.3726 60.8491 72.7532 61.3481 72.94 61.5009C72.9871 61.5958 73.0376 61.6909 73.0963 61.786C73.1783 61.9278 73.2899 62.0409 73.4166 62.1299C71.6456 73.0406 80.1125 79.9408 88.6602 74.2819C92.3743 70.7868 93.1592 65.4358 93.3142 60.6597C93.8177 60.3558 94.1365 59.7668 93.9622 59.0262C93.722 58.0054 94.2852 57.1215 95.1823 56.6777C96.3478 56.1013 96.1416 53.9965 94.803 53.7748" fill="black"/>
</svg>
