<svg width="104" height="120" viewBox="0 0 104 120" fill="none" xmlns="http://www.w3.org/2000/svg">
<path fill-rule="evenodd" clip-rule="evenodd" d="M64.5009 107.49C60.1276 107.478 56.1247 106.625 52.3268 104.759C47.741 103.262 42.7333 102.447 39.0119 99.1332C37.1996 99.5176 35.3421 97.6565 33.8388 96.5484C31.3868 105.574 18.6262 104.072 13.2345 98.2394C9.93616 95.4529 8.6094 88.5598 14.3371 86.7362C4.95278 80.3598 1.5632 69.3451 2.2082 57.4264C2.887 37.4331 18.2516 16.6472 37.9999 13.1794C41.8957 12.4937 45.8964 12.5662 49.7755 13.3816C51.9417 13.8517 54.0355 14.763 56.3538 14.7216C65.3449 13.2998 75.2202 13.4632 82.6467 19.2197C94.5163 27.1642 96.1661 43.0596 94.7791 55.8396L94.8353 55.9592C94.1453 60.6503 92.9986 64.9469 90.8299 67.7751C90.6611 71.8413 89.2488 80.521 89.1442 83.9525C89.3975 99.92 80.332 107.007 64.5009 107.49" fill="white"/>
<path fill-rule="evenodd" clip-rule="evenodd" d="M12.2707 86.5161C-16.1555 61.3899 13.0068 4.84483 49.9926 12.3471C53.7358 13.6011 57.5372 14.0362 61.4137 13.1071C80.949 10.0555 96.9303 26.6382 96.1043 45.8235C96.2418 49.105 96.2152 52.3893 95.8607 55.6577C95.4553 59.9536 94.348 64.5479 91.8787 68.1191C91.8501 70.5178 90.4386 79.5158 90.2117 83.7491L90.1684 84.6332C89.9432 88.9838 89.4578 93.4212 87.546 97.3884C81.6669 108.045 66.5222 110.332 55.663 107.228L55.2115 107.079C53.1944 106.409 50.9077 105.515 49.6269 103.825C48.95 102.932 50.0705 101.792 51.0024 102.034C52.202 102.347 53.1962 103.079 54.3162 103.598C61.6207 106.828 70.2602 105.746 77.4706 102.73L77.6887 102.638C90.6024 97.3939 87.065 78.7397 88.7648 68.103C89.1515 54.5963 77.8905 45.3983 69.4062 36.4649L69.1522 36.1819C68.2805 35.2149 67.3599 34.2724 66.1478 34.0661C65.8159 35.0736 64.9996 35.9311 64.2424 36.6659L62.5301 38.5171C60.8174 40.3661 59.1013 42.2076 57.3605 44.0326C48.9086 52.6216 40.2971 64.2831 27.2688 65.1612C28.0698 65.8862 28.772 66.7145 29.6114 67.3971C29.9655 67.7516 29.6044 68.3465 29.1295 68.225C28.2438 67.9986 27.6774 67.1583 27.0962 66.5016C20.0598 63.5467 14.2812 74.4662 20.2427 78.9867C22.4543 81.3293 28.9167 79.5468 27.4224 82.4355C29.0534 87.5523 31.5639 92.6987 35.8106 96.1213C37.0575 97.0631 39.005 97.5401 39.8323 98.9266C40.0319 99.2607 39.9301 99.806 39.5551 99.9837C37.7511 100.825 35.8131 99.4099 34.4276 98.3439C27.111 112.652 0.280889 96.8439 12.2707 86.5161ZM55.7494 16.6029L55.0163 16.4594C47.1991 14.9123 42.0458 13.3807 33.781 16.1779C15.3599 22.333 3.48434 41.9402 3.99772 60.997C4.00976 71.8228 9.37448 85.6276 21.4581 87.1641C23.2851 87.3093 23.3137 90.1455 21.5135 90.0605L21.4584 90.057C18.4797 89.8711 15.5963 88.7904 13.1384 87.1277C9.84096 92.4702 13.1456 97.318 18.2832 99.6143C23.4888 102.362 29.0538 101.486 32.5322 96.6311C29.3576 93.1028 27.0177 87.8296 26.4764 83.152C17.5609 86.6118 10.8369 73.8581 16.6374 67.0945C18.6787 64.1831 22.6412 62.3634 25.9079 64.43C39.9616 59.0211 49.7733 47.5253 59.1675 36.2644L59.669 35.6938C61.3138 33.8353 65.0958 29.6374 65.5153 29.0947C65.9866 28.4846 66.9384 29.0339 66.9502 29.6893C66.9586 30.1553 66.9327 30.6279 66.8803 31.0994C68.6293 32.2278 70.0467 33.9412 71.3513 35.5232C81.0903 43.1696 89.0103 51.1779 91.4739 63.3088C93.0039 61.5224 93.6977 59.1775 94.1982 56.9378C95.2478 42.1636 92.4276 24.4717 77.1903 18.0627C69.8674 14.4285 63.3341 16.094 55.7494 16.6029ZM21.1952 72.0895C20.5608 71.5228 24.7526 71.4543 25.1483 71.8982L25.2386 71.929C26.7393 72.4569 29.4874 74.1587 28.1379 75.9257C26.2137 77.7397 24.8736 72.3539 21.1952 72.0895Z" fill="#221E1F"/>
<path fill-rule="evenodd" clip-rule="evenodd" d="M68.1522 90.2739C66.732 89.6943 65.4648 88.7275 64.5384 87.4924C64.2163 87.0631 64.1328 86.6097 64.2003 86.195C64.2763 85.7287 64.5521 85.3061 64.9281 85.0227C65.3053 84.7383 65.7772 84.5981 66.2334 84.6696C66.6298 84.7317 67.0244 84.9488 67.3367 85.3991L67.4019 85.4892C67.9527 86.2346 68.6704 86.8462 69.4882 87.2404C70.2764 87.6204 71.158 87.7978 72.0702 87.6946C73.8076 87.4983 75.0052 86.5583 76.278 85.2818C76.4358 85.1206 76.5936 84.9544 76.7523 84.7855C76.8525 84.6325 76.9915 84.5341 77.1458 84.4824C77.3172 84.4251 77.5111 84.4284 77.6887 84.4903C77.86 84.5501 78.0131 84.6635 78.1158 84.8143C78.2133 84.9576 78.2687 85.1347 78.2507 85.3383C78.1342 86.6612 77.4429 87.8418 76.4608 88.7688C75.3702 89.7984 73.9244 90.5107 72.5633 90.7605C71.0638 91.0357 69.5358 90.8385 68.1522 90.2739V90.2739ZM73.2707 69.866C74.8661 70.8361 77.2969 73.0982 75.5807 75.5032C73.5605 77.6238 70.6519 75.1924 69.2186 74.0928C67.8895 73.2406 66.3963 75.4324 67.6294 76.4275C77.9865 84.0985 82.1896 70.1197 74.0776 68.7254C73.1845 68.5718 72.8527 69.5659 73.2707 69.866ZM54.7106 60.9426C54.8869 58.7538 58.2192 58.2568 58.5506 60.4227C58.8475 62.3629 58.498 64.1452 57.6244 65.892C56.7897 67.5609 54.6917 66.7823 54.5331 65.2627C54.3204 63.2257 54.601 62.3042 54.7106 60.9426ZM80.0762 59.9736C80.5408 59.3649 81.2116 58.9494 82.0152 59.1842C84.5261 59.9182 83.7861 63.4844 82.9042 65.2202C82.4251 66.1628 80.8763 66.4018 80.1763 65.5719C79.0355 64.2184 78.4892 61.5154 79.9395 60.1822C79.9788 60.1133 80.0225 60.0438 80.0762 59.9736ZM57.5891 51.3651L57.9857 51.2957C59.2127 51.0834 60.7383 50.8794 61.6063 51.8662C62.0667 52.3895 62.2251 53.3622 61.6063 53.8631C60.5179 54.7444 59.3145 54.4028 58.0101 54.4775C56.9352 54.5392 55.9021 54.7171 54.8667 55.0132C52.5951 55.6627 50.7442 56.8484 48.8041 58.1503C48.5496 58.3211 48.2897 57.9954 48.4112 57.7572C49.5311 55.5627 51.7015 53.7601 53.8754 52.6613C55.0357 52.0748 56.3054 51.5883 57.5891 51.3651ZM77.7873 50.3821L78.0909 50.4442C81.3945 51.1351 85.6867 52.515 87.2512 55.7613C87.3108 56.2203 87.2478 56.3187 87.1966 56.3829L87.1795 56.4043C87.1373 56.4592 87.1036 56.5349 86.9048 56.5974C86.8496 56.5842 86.7938 56.5703 86.7375 56.5555C86.0204 56.3675 85.453 56.1085 84.9037 55.8398L84.3082 55.5462C83.6172 55.2073 82.9202 54.8807 82.1814 54.6396C80.6049 54.1252 78.9833 53.7628 77.3367 53.5693C76.9797 53.5274 76.6361 53.4069 76.3649 53.2004C76.1076 53.0044 75.9109 52.733 75.8213 52.3722C75.7051 51.9053 75.7385 51.5518 75.9889 51.1306C76.1772 50.8143 76.4466 50.5951 76.756 50.4692C77.0714 50.3408 77.4304 50.3106 77.7873 50.3821Z" fill="black"/>
</svg>
