<svg width="124" height="121" viewBox="0 0 124 121" fill="none" xmlns="http://www.w3.org/2000/svg">
<path fill-rule="evenodd" clip-rule="evenodd" d="M102.024 59.8957C101.94 55.161 101.847 50.3317 101.143 45.6431C100.456 41.0593 98.5633 36.916 95.3114 33.5875C88.4045 26.5172 78.3925 24.7902 69.0731 23.2076L53.1395 20.5017C48.2784 19.6764 43.0924 18.3571 38.1811 19.5276C35.761 20.1044 33.7058 21.4443 31.8274 23.0297C30.0169 24.5577 28.0702 26.1987 26.8434 28.2545C25.6145 30.3132 25.1917 32.7199 24.7922 35.0483C24.3416 37.6735 23.9915 40.3192 23.7429 42.9712C23.2445 48.2846 23.1764 53.6378 23.5379 58.9622C23.7131 61.5447 23.9917 64.1198 24.3475 66.6834C24.5239 67.9547 24.7233 69.2228 24.9486 70.4865C25.0149 70.8591 25.0654 71.2716 25.1334 71.6884C24.6308 73.1184 24.3452 74.5994 24.3682 76.0739C24.436 80.4176 28.1009 83.1523 31.7955 84.6205C33.9378 85.4718 36.1774 86.0503 38.2823 87.0014C40.4966 88.0017 42.0038 89.6234 43.5177 91.4733C46.4051 95.0016 49.6635 98.1727 53.3841 100.818C61.2724 106.428 71.2637 109.081 80.835 107.067C83.1314 106.584 85.4482 105.834 87.5125 104.703C89.6919 103.51 91.3307 101.78 92.7069 99.7355C95.2622 95.9394 97.0948 91.6648 98.4811 87.315C99.8951 82.8779 100.899 78.4328 101.446 73.8062C101.992 69.1945 102.107 64.5359 102.024 59.8957V59.8957Z" fill="white"/>
<path fill-rule="evenodd" clip-rule="evenodd" d="M51.1784 4.0087C57.7721 3.10138 66.8728 6.05035 70.1566 11.9965C85.8339 8.29912 105.607 8.17801 118.528 20.4864C132.011 35.0869 115.076 54.3378 103.847 58.678C104.664 62.6529 103.389 88.1174 94.3693 99.476C87.2107 109.1 70.5402 113.542 62.8262 102.046L62.766 101.952C61.9396 100.624 62.6514 100.667 63.4997 101.654C71.0534 108.299 81.3238 108.413 89.2381 101.4C104.071 88.5816 102.541 57.1517 95.4833 38.969C75.3854 36.7608 53.867 42.8547 39.9857 57.9893L40.9243 63.6425C41.0843 64.6056 41.2659 65.5679 41.4045 66.5344C41.4933 67.1536 41.5032 67.7695 41.0743 68.2708C39.6582 69.9257 37.2715 67.4389 35.3078 66.4498C34.7281 66.3682 34.1473 66.3367 33.5777 66.3769C24.1429 67.5926 26.0019 85.9019 36.3713 82.6925C37.2426 82.1495 37.9911 82.3153 38.3291 83.1032C40.8007 85.368 42.4304 89.4073 46.5369 93.2979C47.9857 94.7572 49.3043 95.9782 50.934 97.1489C51.8912 98.1173 54.7797 99.1047 53.864 100.762C52.1325 104.533 41.9217 92.6877 40.1164 89.412C34.4602 91.6464 28.1919 90.8874 22.3302 90.3413C-8.59301 88.7329 -4.46484 56.1237 20.8822 35.5358C25.6535 32.0219 30.9176 29.1554 36.3897 26.9495C37.1367 26.6483 36.8103 25.4212 36.0527 25.7266C32.432 27.1864 28.9023 28.9239 25.5377 30.9349L25.5326 29.7327C25.5277 27.7077 25.5594 25.5994 25.911 23.7492C26.0868 22.4672 26.3823 21.0979 26.8374 20.0677C27.4 16.9095 36.2131 6.06895 51.1784 4.0087ZM33.165 70.5804C33.6425 70.1266 34.5338 70.6677 34.9589 70.6541C36.0459 70.8029 37.0785 71.2622 37.8839 71.829C38.4156 72.127 38.7883 72.4069 39.0997 72.6643L39.1082 72.662C39.1059 72.662 39.1029 72.6643 39.1004 72.6649L39.1297 72.6847C39.5831 73.007 41.243 74.8224 40.1943 74.3342C40.1161 74.2325 40.0361 74.1349 39.9554 74.0391C39.9467 74.0522 39.9347 74.0651 39.9203 74.0776L39.9792 74.165C40.8705 75.5064 39.3316 74.0932 39.0949 73.7179C39.0837 73.7269 39.071 73.7331 39.0585 73.7396L39.3669 74.115C39.41 74.1683 39.4439 74.2109 39.472 74.2469L39.537 74.3097C40.5676 75.323 40.5998 76.235 39.4025 74.7368C39.4496 74.8074 39.4874 74.8822 39.4927 74.9486L39.5636 75.039C40.5037 76.2509 39.7391 75.8205 39.2719 75.3029L39.2329 75.2584L39.2409 75.2705C39.6754 75.9402 38.8132 75.4703 38.6608 75.1121L38.6544 75.0959C38.4883 74.9603 38.3862 74.8083 38.3511 74.7699L38.3447 74.7634C37.5363 73.9349 36.3647 73.2339 35.3694 72.9154C35.2251 72.8879 35.0791 72.8659 34.9316 72.8503C34.3331 72.7167 33.728 72.6252 33.1166 72.5757C33.0418 72.5668 32.966 72.5119 32.9094 72.4409C31.9848 72.4097 32.2702 72.0306 32.6538 71.9602L32.6605 71.959L32.5844 71.9526C31.9911 71.8947 31.5859 71.6817 32.1858 71.551L32.2618 71.5359C32.2525 71.5213 32.2443 71.5067 32.2363 71.4921C31.7225 71.4357 32.0578 70.9361 32.343 71.057C32.223 70.6645 32.7714 70.8604 32.8399 70.8021C32.8921 70.7442 32.9569 70.693 32.9943 70.6903C33.1595 70.5736 33.0794 70.5842 33.165 70.5804ZM36.3088 64.226L36.1883 64.2964C36.0909 64.3532 35.9908 64.3911 35.8902 64.4132C36.0322 64.4737 36.1725 64.539 36.3113 64.6087C36.309 64.5235 36.3074 64.4384 36.3074 64.3534L36.3088 64.226Z" fill="black"/>
<path fill-rule="evenodd" clip-rule="evenodd" d="M78.1522 90.2739C76.732 89.6943 75.4648 88.7275 74.5384 87.4924C74.2163 87.0631 74.1328 86.6097 74.2003 86.195C74.2763 85.7287 74.5521 85.3061 74.9281 85.0227C75.3053 84.7383 75.7772 84.5981 76.2334 84.6696C76.6298 84.7317 77.0244 84.9488 77.3367 85.3991L77.4019 85.4892C77.9527 86.2346 78.6704 86.8462 79.4882 87.2404C80.2764 87.6204 81.158 87.7978 82.0702 87.6946C83.8076 87.4983 85.0052 86.5583 86.278 85.2818C86.4358 85.1206 86.5936 84.9544 86.7523 84.7855C86.8525 84.6325 86.9915 84.5341 87.1458 84.4824C87.3172 84.4251 87.5111 84.4284 87.6887 84.4903C87.86 84.5501 88.0131 84.6635 88.1158 84.8143C88.2133 84.9576 88.2687 85.1347 88.2507 85.3383C88.1342 86.6612 87.4429 87.8418 86.4608 88.7688C85.3702 89.7984 83.9244 90.5107 82.5633 90.7605C81.0638 91.0357 79.5358 90.8385 78.1522 90.2739V90.2739ZM83.2707 69.866C84.8661 70.8361 87.2969 73.0982 85.5807 75.5032C83.5605 77.6238 80.6519 75.1924 79.2186 74.0928C77.8895 73.2406 76.3963 75.4324 77.6294 76.4275C87.9865 84.0985 92.1896 70.1197 84.0776 68.7254C83.1845 68.5718 82.8527 69.5659 83.2707 69.866ZM64.7106 60.9426C64.8869 58.7538 68.2192 58.2568 68.5506 60.4227C68.8475 62.3629 68.498 64.1452 67.6244 65.892C66.7897 67.5609 64.6917 66.7823 64.5331 65.2627C64.3204 63.2257 64.601 62.3042 64.7106 60.9426ZM90.0762 59.9736C90.5408 59.3649 91.2116 58.9494 92.0152 59.1842C94.5261 59.9182 93.7861 63.4844 92.9042 65.2202C92.4251 66.1628 90.8763 66.4018 90.1763 65.5719C89.0355 64.2184 88.4892 61.5154 89.9395 60.1822C89.9788 60.1133 90.0225 60.0438 90.0762 59.9736ZM67.5891 51.3651L67.9857 51.2957C69.2127 51.0834 70.7383 50.8794 71.6063 51.8662C72.0667 52.3895 72.2251 53.3622 71.6063 53.8631C70.5179 54.7444 69.3145 54.4028 68.0101 54.4775C66.9352 54.5392 65.9021 54.7171 64.8667 55.0132C62.5951 55.6627 60.7442 56.8484 58.8041 58.1503C58.5496 58.3211 58.2897 57.9954 58.4112 57.7572C59.5311 55.5627 61.7015 53.7601 63.8754 52.6613C65.0357 52.0748 66.3054 51.5883 67.5891 51.3651ZM87.7873 50.3821L88.0909 50.4442C91.3945 51.1351 95.6867 52.515 97.2512 55.7613C97.3108 56.2203 97.2478 56.3187 97.1966 56.3829L97.1795 56.4043C97.1373 56.4592 97.1036 56.5349 96.9048 56.5974C96.8496 56.5842 96.7938 56.5703 96.7375 56.5555C96.0204 56.3675 95.453 56.1085 94.9037 55.8398L94.3082 55.5462C93.6172 55.2073 92.9202 54.8807 92.1814 54.6396C90.6049 54.1252 88.9833 53.7628 87.3367 53.5693C86.9797 53.5274 86.6361 53.4069 86.3649 53.2004C86.1076 53.0044 85.9109 52.733 85.8213 52.3722C85.7051 51.9053 85.7385 51.5518 85.9889 51.1306C86.1772 50.8143 86.4466 50.5951 86.756 50.4692C87.0714 50.3408 87.4304 50.3106 87.7873 50.3821Z" fill="black"/>
<path fill-rule="evenodd" clip-rule="evenodd" d="M104.071 74.2279C103.371 73.2876 102.112 72.0535 100.839 72.1199C100.676 72.1283 100.615 72.3048 100.713 72.4242C101.129 72.9329 101.698 73.2948 102.116 73.814C102.609 74.4286 102.966 75.1699 103.197 75.9195C103.534 77.0086 103.627 78.2412 103.327 79.3487C102.798 81.3007 101.125 82.7315 99.3004 83.4622C97.4941 84.1854 95.3206 84.4325 93.6123 83.3728C91.0908 81.8084 88.9521 79.5533 85.7829 79.5087C85.0416 79.4983 84.5191 79.8379 84.2079 80.3228C83.8952 79.8553 83.3793 79.5245 82.6566 79.5163C79.1037 79.4763 76.4518 81.9231 73.4698 83.4484C71.4545 84.4794 68.8468 84.1594 66.7678 83.4782C64.8066 82.836 62.6776 81.5461 61.9378 79.5093C61.5294 78.3845 61.6209 77.0712 62.0402 75.9624C62.3159 75.2333 62.7416 74.5288 63.2683 73.9559C63.8145 73.3615 64.5323 72.9879 65.0918 72.4244C65.2061 72.3092 65.1159 72.1302 64.9657 72.1199C62.5897 71.9586 60.4443 74.7966 59.9958 76.8556C59.554 78.8833 60.2128 80.9057 61.5461 82.453C64.2573 85.5987 69.2774 86.6362 73.1846 85.7118C76.3471 84.9638 79.3507 83.2409 82.6566 83.4882C83.3812 83.5425 83.9014 83.2403 84.2153 82.7821C84.5297 83.2536 85.0532 83.5619 85.7829 83.4913C88.864 83.1927 91.6141 85.3755 94.6048 85.9086C96.986 86.3327 99.5582 85.7606 101.599 84.4773C103.731 83.1359 105.233 80.9841 105.331 78.4187C105.388 76.9429 104.955 75.4159 104.071 74.2279" fill="black"/>
</svg>
