<svg width="101" height="121" viewBox="0 0 101 121" fill="none" xmlns="http://www.w3.org/2000/svg">
<path fill-rule="evenodd" clip-rule="evenodd" d="M14.952 21.6854C16.0477 20.5092 17.449 19.633 18.9809 19.353C17.5806 20.0527 16.2118 20.7821 14.952 21.6854ZM12.806 31.8268C12.6123 30.9305 12.4821 30.0255 12.4411 29.1207C12.686 29.4931 13.077 29.7419 13.5163 29.8704C13.2325 30.5059 12.9913 31.1607 12.806 31.8268ZM86.1201 45.8802C84.8555 40.614 78.9552 30.4846 77.5606 28.535C76.0463 23.7075 84.3055 19.8361 79.8137 16.0612C77.7801 14.3579 75.0923 13.7551 72.5711 13.1511C55.114 8.95705 36.3581 11.0722 20.1674 18.7846C17.7046 18.2662 15.1388 19.2794 13.3479 21.059C4.93415 29.5189 16.4005 44.783 18.9078 54.3204C23.2096 64.9549 14.3482 66.7438 15.2985 75.7416C16.0369 80.3901 20.7433 81.6186 24.7149 82.3212C25.3515 82.4702 26.2025 82.4926 26.4078 83.1657C27.0513 87.0949 29.2574 90.8394 32.2192 93.3807C31.9601 94.1483 32.1579 95.0802 33.0712 95.7544C41.3461 101.906 51.78 104.985 62.1008 104.431C74.4004 103.772 80.7611 96.7194 82.2959 94.9035C90.7823 83.4384 89.7683 68.3112 88.0372 54.6476C86.8312 45.1293 88.3604 55.2093 86.1201 45.8802Z" fill="white"/>
<path fill-rule="evenodd" clip-rule="evenodd" d="M48.1947 2.05933C48.5813 0.850402 49.6757 0.123357 50.9285 0.273416C52.0377 0.404453 53.225 1.50559 53.0898 2.72085C53.0644 2.95545 53.0306 3.17525 52.9905 3.38238L52.9958 3.38423V3.38423L53.001 3.38449L52.9736 3.4648C52.8912 3.85158 52.7771 4.19819 52.6081 4.52578C52.3926 5.15349 52.1856 5.78332 51.9806 6.41525C52.2764 6.40257 52.5785 6.41948 52.8849 6.47655C53.2018 5.66496 53.5208 4.85549 53.8377 4.04179C54.1778 3.17314 54.4165 2.05721 55.0884 1.38512C55.9482 0.527036 57.4398 0.349502 58.4877 0.962417C59.5947 1.60915 59.9898 2.75889 59.7489 3.99107C59.6265 4.61958 59.2068 5.05698 58.6874 5.33179L58.6313 5.36062L58.232 6.30747C58.3546 6.25463 58.4813 6.20602 58.6187 6.16586C58.8341 6.10246 59.0454 6.0623 59.2525 6.04539C59.8229 5.01189 60.4503 4.00797 61.0989 3.02308C61.8447 1.89025 63.3025 1.40837 64.5257 2.12484C65.6201 2.76524 66.2074 4.44758 65.4236 5.55295C64.8278 6.39201 64.2637 7.24797 63.7081 8.1124C63.8032 8.12931 63.8982 8.15044 63.9891 8.17792C64.0313 8.12085 64.0757 8.06379 64.1222 8.00672C64.7285 7.25432 65.4341 6.69001 66.1588 6.06441C66.837 5.47686 67.1496 4.55326 68.0412 4.10731C69.163 3.54723 70.5151 3.81565 71.1827 4.93158C72.6151 7.32195 70.2109 9.0677 68.6729 10.5154C70.0102 9.68062 71.4025 8.91764 72.8306 8.25823C73.6334 7.88837 74.4489 7.53118 75.2771 7.22261C76.5046 6.7661 77.4975 6.91214 78.5053 7.76156C78.9553 8.14199 79.1792 8.9728 78.9722 9.52633C78.5708 10.5873 77.937 11.2319 76.8257 11.5384C76.044 11.754 75.2433 11.8998 74.4616 12.1259C73.1518 12.5021 71.8799 12.9608 70.6461 13.5335C70.7348 13.5885 70.8194 13.6477 70.8975 13.7153C71.8187 13.4173 72.7567 13.1594 73.6989 12.9396C75.2617 12.5731 76.8522 12.3254 78.4498 12.1705L78.9805 12.1211C80.8957 11.9372 83.1988 11.5979 84.3743 13.4321C84.7609 14.0365 84.8032 15.0341 84.3743 15.6322C83.5546 16.782 82.7391 17.0102 81.3827 17.0314C82.7179 17.173 84.051 17.3484 85.3778 17.5534C86.2923 17.6929 87.2068 17.851 88.1173 18.0265L88.5722 18.1156C89.6813 18.3375 90.9194 18.4664 91.8722 19.109C93.951 20.5123 92.975 23.2451 90.6722 23.5367C89.5588 23.6762 88.3229 23.2049 87.2306 22.9851C86.1701 22.7717 85.1053 22.5836 84.0363 22.4187C83.4827 22.332 82.9292 22.256 82.3736 22.1862C83.5039 22.349 84.6257 22.5793 85.7179 22.9048L86.0213 22.9964C88.1329 23.6402 90.9832 24.6655 91.6419 26.9226C92.0412 28.2942 90.9489 29.4905 89.6264 29.5708C88.3968 29.6448 87.3722 28.9114 86.3285 28.3703C85.568 27.9772 84.7947 27.6834 83.975 27.4319C83.1278 27.172 82.2637 26.9564 81.3933 26.781C82.1289 27.1864 82.8453 27.632 83.5329 28.1304L83.849 28.364C85.6768 29.7264 88.464 31.8357 87.8201 34.3896C87.6172 35.1948 86.7194 35.9641 85.8574 35.8817C83.6137 35.6725 82.3757 33.2821 80.6834 32.0013C80.2419 31.6674 79.7581 31.3377 79.251 31.0164C81.8158 34.0768 83.8567 37.6148 85.4095 41.269C88.8222 49.3083 89.8692 56.7534 89.8943 65.3975L89.8947 65.6652C89.8989 70.4333 89.7912 75.288 89.3264 80.0349C88.8954 84.4204 88.1053 88.7489 86.1172 92.7203C82.7856 99.3798 76.2933 104.566 69.1334 106.54C61.1665 108.738 52.2616 107.02 45.7356 101.948C44.0708 100.654 46.2785 97.8456 47.9792 99.0395C54.7715 103.805 63.556 105.315 71.3518 102.089C77.5356 99.532 82.5151 94.0305 84.6257 87.6963C85.9691 83.6667 86.3602 79.37 86.8394 75.1705L86.8715 74.8906C87.3785 70.4988 87.6722 66.0773 87.6679 61.6559C87.6616 53.4449 86.4827 46.6859 82.8722 39.238C81.1736 35.7295 78.9701 32.4855 76.3377 29.6384C75.5391 29.8012 74.6898 29.5729 73.8827 29.4862C73.4708 29.4419 73.0588 29.3996 72.6468 29.3616C73.0677 29.6338 73.4804 29.9168 73.8861 30.2065L74.4182 30.5903C76.0833 31.7833 78.1959 33.1421 77.768 35.4484C77.6518 36.0719 77.0306 36.6447 76.4285 36.7863C74.2461 37.3062 72.7461 35.1843 71.2715 33.9246C69.9891 32.8298 68.6475 31.8491 67.2806 30.8664C66.9701 30.6445 66.6574 30.4225 66.3426 30.2027C66.6384 30.5477 66.926 30.898 67.2067 31.2516L67.6216 31.7776C68.877 33.3491 70.6868 35.3917 69.5687 37.4288C69.2518 38.0037 68.5757 38.3862 67.9208 38.3735C65.6687 38.327 64.7729 35.7697 63.7165 34.155C62.8081 32.7706 61.8215 31.4666 60.8011 30.1626C60.5201 29.8054 60.237 29.4482 59.9496 29.091C55.2194 29.3362 50.506 29.9618 45.875 30.9615C42.6933 31.6484 39.5644 32.5384 36.4588 33.5125L36.2007 33.5946C34.52 34.136 32.7882 34.8288 31.5764 36.017C31.4034 36.8356 31.5362 37.6989 31.7017 38.5164L31.8307 39.1422C32.362 41.7588 32.7241 44.3271 32.4532 47.0135C32.1722 49.7843 31.3377 52.2761 30.3194 54.8504C29.8377 56.0635 29.3391 55.8437 29.168 57.1457C29.0369 58.1373 29.1179 59.161 29.2075 60.161L29.2823 61.0087C29.4701 63.2294 29.5645 65.6505 28.1095 67.4828C27.8834 67.7639 27.3996 67.6519 27.2391 67.3708C27.1757 67.2588 27.1081 67.151 27.0341 67.0474C26.3327 66.0308 25.2574 65.4517 24.0278 65.2277C23.8715 65.2002 23.9327 64.991 24.0637 64.9741C25.1032 64.8515 26.0877 65.1115 26.9243 65.6483C26.5275 64.2759 23.4561 64.9433 22.4464 65.21L22.4116 65.2192C21.1525 65.5574 19.9609 66.1069 18.9109 66.8847C16.7982 68.4487 15.5771 70.8877 15.6384 73.5147C15.6996 76.0974 17.0327 78.4836 19.3229 79.72C20.4278 80.316 21.6849 80.6034 22.9356 80.5907C24.2412 80.5781 25.4032 80.0053 26.7109 80.0856C27.4672 80.1321 28.0461 80.9437 27.6088 81.6517C27.3172 82.1251 26.937 82.4971 26.4975 82.7824C27.5687 85.2531 28.9356 87.6097 30.5116 89.7845C31.3841 90.9913 32.3729 92.1051 33.4609 93.1217C34.3102 93.9164 36.1503 94.8358 36.0468 96.1609C36.0109 96.6386 35.7637 96.9302 35.3285 97.1078C33.9754 97.6611 32.3302 95.7557 31.4252 94.8371L31.3525 94.7639C30.2243 93.6395 29.1954 92.3968 28.2996 91.0779C26.7109 88.7362 25.7243 86.0964 25.3165 83.3235C23.1468 83.9766 20.2736 83.3637 18.5032 82.5626C12.9384 80.0476 11.1194 72.551 14.5018 67.5589C15.1567 66.593 15.9764 65.7666 16.9102 65.0988C16.7053 64.9868 16.513 64.843 16.3419 64.6613C15.3953 63.6553 14.726 62.3426 14.0617 61.1327L13.982 60.988C13.3924 59.9228 12.8361 58.8409 12.3147 57.7423L12.1208 57.3295C10.9567 54.825 9.93626 53.7302 9.10598 51.0968C8.30739 48.5564 7.67781 45.9673 7.27006 43.3339L7.16171 42.6369C6.92589 41.1088 6.70288 39.4748 6.87499 37.9234C5.68978 38.3101 4.49823 38.549 3.3257 37.9677C2.55246 37.5852 2.1257 36.4693 2.38978 35.6682C2.58203 35.0786 2.90316 34.6157 3.31091 34.2522C3.06795 34.1296 2.83978 33.9732 2.63908 33.7999L2.46373 33.6479V33.6479C1.75387 33.0306 1.70316 31.8576 2.13415 31.0841C2.1764 31.0101 2.21865 30.934 2.2588 30.86C2.66865 30.1266 3.51584 29.6469 4.35246 29.6596C4.48767 29.6617 4.62288 29.6617 4.7602 29.6596C4.36936 29.5729 3.98696 29.4398 3.62358 29.2157C1.98415 28.2076 2.19119 25.4748 4.17499 24.9929C5.00739 24.7922 5.9264 24.8746 6.8433 25.0902C6.8095 25.0711 6.7757 25.0521 6.74189 25.031C6.04894 24.6062 5.46795 23.7756 5.53344 22.9238C5.60527 21.9812 5.9095 21.3091 6.74189 20.8145C7.46443 20.3876 8.48696 20.3475 9.20527 20.8145C9.82851 21.2225 10.4391 21.6726 11.0264 22.1566C10.437 21.4317 9.9257 20.6434 9.71865 19.8064C9.46302 18.7645 9.88978 17.6295 10.8278 17.08C11.5757 16.6425 12.3658 16.6911 13.0715 17.0293C13.0334 16.4819 13.1665 15.9239 13.5299 15.4293C14.2736 14.4151 15.6257 13.8315 16.8025 14.5713C16.9567 14.6685 17.1637 14.8355 17.3644 15.0405C16.9736 13.7956 17.3264 12.4895 18.6595 11.9273C19.4729 11.5828 20.5736 11.7561 21.2792 12.35C20.8313 9.92578 24.4081 8.1441 25.7982 10.6486C26.1137 11.216 26.4259 11.8134 26.705 12.4245L26.8081 12.6543L26.8187 12.6501L26.7476 12.4821V12.4821L26.675 12.314C26.2884 11.4158 25.7961 10.4816 25.6609 9.50731C25.4623 8.0659 26.1046 6.69846 27.6722 6.48711C28.4813 6.37721 29.3813 6.74496 29.9243 7.38768C29.6306 5.15138 32.1278 3.5261 33.9257 5.19576C34.7771 5.98621 35.2313 7.1423 35.7722 8.15678C36.0785 8.72954 36.3912 9.30019 36.6975 9.87506C36.7757 9.78206 36.8602 9.68907 36.9489 9.59819C36.4947 8.23709 36.1419 6.84218 35.844 5.43882C35.5609 4.11576 36.2222 2.74199 37.587 2.36811C38.8271 2.02551 40.3799 2.79081 40.6567 4.11175C40.851 5.04148 41.0813 5.96106 41.3349 6.876C41.5081 6.83373 41.6792 6.80414 41.8482 6.783C41.8623 6.61111 41.8783 6.43827 41.8961 6.26637L41.9626 5.655C42.1104 4.25809 42.2594 2.66345 42.9891 1.476C44.2334 -0.552964 47.4236 0.28821 47.4574 2.68704C47.4764 3.92766 46.9715 5.15772 46.7961 6.38567C46.7201 6.92038 46.6757 7.46144 46.6503 8.0025C46.9905 6.20602 47.4574 4.43279 47.9982 2.68704C48.0616 2.4778 48.1292 2.26856 48.1947 2.05933ZM20.6707 71.3358C23.47 70.9025 26.0285 72.4644 27.6869 74.6519C27.9891 75.0513 27.7905 75.6156 27.5179 75.9517C27.3215 76.199 27.0574 76.2285 26.7595 76.2666C26.4172 76.311 25.9841 76.0341 25.8341 75.7361C24.7672 73.6057 22.8637 72.2594 20.6707 71.4309C20.6306 71.4161 20.6179 71.3442 20.6707 71.3358ZM24.5513 33.165L24.6361 33.0739C25.2025 32.4862 24.3073 31.5883 23.7396 32.1774C23.142 32.7975 22.7448 33.5507 22.3628 34.3141C21.9988 35.042 23.0919 35.6849 23.4574 34.9543L23.6238 34.6222C23.885 34.1059 24.1636 33.5957 24.5513 33.165V33.165ZM16.6899 31.9586C17.4927 31.8234 17.1523 30.6011 16.3529 30.736C15.3172 30.9105 14.2856 31.109 13.2498 31.2838C12.4472 31.419 12.7875 32.6413 13.587 32.5067C14.6226 32.3319 15.6542 32.1334 16.6899 31.9586ZM64.5141 23.6143C63.7385 23.3554 63.4058 24.5798 64.1771 24.8372C65.243 25.1929 66.3001 25.5575 67.3113 26.0514C68.0416 26.4081 68.6849 25.3148 67.951 24.9564C66.8412 24.4143 65.6841 24.0049 64.5141 23.6143ZM16.5073 21.9708C15.7499 21.6678 15.421 22.8938 16.1703 23.1937L18.9084 24.2891V24.2891C19.6658 24.5922 19.9947 23.3664 19.2453 23.0665L16.5073 21.9708V21.9708ZM74.0748 18.9934L73.9749 18.9304C73.2882 18.4853 72.6521 19.5826 73.3349 20.0254C73.7358 20.2852 74.2232 20.4614 74.5902 20.7708L74.667 20.8393C75.2598 21.3994 76.1579 20.5045 75.5634 19.9425C75.1284 19.5318 74.5778 19.3031 74.0748 18.9934V18.9934Z" fill="black"/>
<path fill-rule="evenodd" clip-rule="evenodd" d="M53.0452 84.8554C55.6324 81.8479 59.9898 81.6385 63.5993 82.3905C65.9156 82.8732 68.1709 83.6772 70.5236 83.9752C71.6224 84.1144 72.733 84.1561 73.8399 84.1356C74.9271 84.1155 76.0159 83.8963 77.0993 83.9371C77.2658 83.9433 77.3287 84.162 77.1844 84.251C75.6982 85.1642 73.696 85.4572 71.9404 85.6357C71.9459 85.7657 71.9537 85.8925 71.9716 86.0001C72.0196 86.2869 72.0633 86.5718 72.0986 86.8605C72.1782 87.5117 72.2674 88.1607 72.3563 88.8107C72.5317 90.0897 72.5868 91.4092 72.8951 92.666L72.949 92.8749C73.0204 93.1391 73.0366 93.3773 73.0128 93.592L73.0842 93.5597L73.3097 93.4504L73.4576 93.3806C73.9972 93.1304 74.512 92.9481 75.1463 93.0089C75.6293 93.055 76.0347 93.3845 76.0377 93.9004C76.0497 96.2157 72.9306 96.9603 71.1464 97.4035L70.6232 97.5325C68.3522 98.0866 66.0334 98.5724 63.6978 98.6885C59.9494 98.8747 55.7374 97.8404 53.2854 94.7988C50.9976 91.961 50.5782 87.723 53.0452 84.8554ZM70.0673 94.5835C69.674 91.0976 65.3919 90.9059 64.16 93.1165C63.6134 90.0352 55.527 92.8502 56.1593 93.4627C58.5559 95.7846 62.1929 95.9936 65.3194 95.5641C66.9118 95.3454 68.5054 94.9893 70.0673 94.5835ZM65.315 85.4469L64.2384 85.2919L63.8144 85.2335C61.1456 84.8759 58.1442 84.6912 55.9499 86.4029C55.1488 87.0277 54.698 87.8427 54.5296 88.7181C56.6058 88.4102 58.6897 88.1754 60.7798 87.9798L61.3499 87.9274C62.6577 87.8095 63.9648 87.6852 65.2713 87.5548L66.1998 87.4608L67.1279 87.3644C67.4545 87.3301 69.6557 87.2175 70.0696 87.2932C70.1137 86.9212 70.1714 86.1161 70.2648 85.7541C68.701 85.8072 67.144 85.691 65.5893 85.4843L65.315 85.4469ZM70.2706 69.8659C71.866 70.8361 74.2968 73.0982 72.5805 75.5032C70.5604 77.6237 67.6518 75.1924 66.2185 74.0927C64.8894 73.2405 63.3962 75.4323 64.6293 76.4275C74.9864 84.0985 79.1895 70.1196 71.0775 68.7253C70.1843 68.5717 69.8526 69.5658 70.2706 69.8659ZM73.1256 73.9528L73.2023 73.9111L73.2282 73.8954C73.2731 73.8663 73.2445 73.8694 73.1425 73.9048L73.066 73.9323V73.9864C73.0857 73.9743 73.1066 73.9652 73.1256 73.9528ZM52.6938 65.3339L52.6935 65.2863C52.6964 63.9385 53.4811 60.8614 55.4206 60.8614C56.6322 60.8614 57.3678 62.9556 57.4951 65.1145L57.4995 65.2025C57.5558 66.5447 57.1876 69.4784 55.4206 69.4784C53.6348 69.4784 52.7121 66.6998 52.6938 65.3339V65.3339ZM81.2477 64.9112L81.248 64.8636C81.245 63.5158 80.4604 60.4387 78.5209 60.4387C77.3396 60.4387 76.6108 62.4295 76.457 64.53L76.4463 64.6918C76.3698 65.9886 76.7141 69.0557 78.5209 69.0557C80.3066 69.0557 81.2293 66.2771 81.2477 64.9112V64.9112ZM53.8003 51.6724C55.3831 51.4317 57.4791 51.889 58.2171 53.4991C58.5458 54.2164 58.1565 55.0096 57.3277 55.0494C55.3246 55.1453 53.5282 54.6994 51.77 56.0023C51.0134 56.5632 50.3773 57.3397 49.8434 58.1143L49.6414 58.4091L49.4742 58.6519C49.1117 59.185 48.7684 59.7643 48.822 60.4075C48.8379 60.5979 48.6433 60.7786 48.4584 60.771C47.3062 60.7237 47.1822 59.2785 47.3336 58.4105C47.6155 56.7996 48.3948 55.2873 49.475 54.0693C50.6096 52.7902 52.1072 51.93 53.8003 51.6724ZM75.6009 53.6275C76.6923 52.9256 78.0883 52.6559 79.3669 52.7593C81.888 52.9624 86.1173 55.1063 85.5607 58.1868C85.3889 59.1368 84.0681 59.6381 83.2897 59.111C82.4529 58.5444 82.2492 57.6637 81.6264 56.9231C81.1295 56.3315 80.4997 55.9035 79.8254 55.539C79.1607 55.1794 78.3917 54.9614 77.6374 54.882L77.5118 54.87C77.0578 54.8314 74.7651 54.8417 75.1016 55.6979C75.1676 55.8655 74.9183 55.9982 74.8038 55.8714C74.1009 55.0936 74.8969 54.0802 75.6009 53.6275Z" fill="black"/>
</svg>
