<svg width="725" height="752" viewBox="0 0 725 752" fill="none" xmlns="http://www.w3.org/2000/svg">
<path d="M364 688H689V282L434.598 391.29L364 688Z" fill="white" stroke="black" stroke-width="4"/>
<path fill-rule="evenodd" clip-rule="evenodd" d="M636.373 530.441C633.603 519.703 631.056 515.151 626.135 511.419C621.533 507.928 614.815 504.996 605.012 502.854C594.802 501.07 594.512 495.766 591.952 487.242C591.205 484.679 587.504 483.997 585.907 485.844C585.682 485.601 585.447 485.379 585.204 485.178C585.421 483.956 583.641 480.453 583.7 479.283C584.321 467.081 580.328 460.953 570.36 458.675C568.193 458.179 553.469 457.887 551.356 458.472C542.116 461.025 533.02 469.132 534.412 478.897C531.512 482.686 528.673 484.998 524.198 486.218C514.24 487.482 504.283 488.606 494.322 489.568C474.824 492.624 456.544 502.939 444.049 517.983C442.897 519.372 442.564 521.257 443.581 522.738C442.784 526.148 438.299 534.422 441.828 536.76C436.025 550.632 422.673 577.444 422.648 585.104C422.543 617.283 426.021 659.169 457.792 676.977C459.064 678.227 459.246 679.61 459.796 681.47C461.193 687.328 466.266 691.515 471.818 691.173C499.17 691.781 525.662 688.446 553.014 688.284C565.076 688.213 579.582 690.012 590.061 691.211C600.539 692.41 611.116 691.35 621.172 688.284C622.02 689.618 623.734 690.396 625.473 690.012C635.898 687.942 644.328 681.522 651.67 674.504C653.914 670.425 662.676 658.801 659.193 654.756C662.35 641.415 662.186 627.082 656.576 614.379C657.371 612.05 655.921 609.491 656.576 607.087C657.049 605.347 658.262 604.627 658.872 602.904C659.731 600.479 658.797 597.226 657.83 594.752C657.434 593.519 658.559 592.191 658.872 590.933C660.356 584.998 656.958 585.521 654.509 581.553C654.546 581.541 655.182 578.708 655.18 578.723C655.555 576.7 654.615 574.11 653.796 572.421C653.242 571.281 652.055 570.566 650.876 570.697C652.063 566.669 653.565 563.317 655.18 559.436C658.035 552.594 661.65 546.043 665.75 539.85C667.429 537.315 665.174 534.377 662.457 534.204C653.661 533.646 644.962 532.38 636.373 530.441Z" fill="white"/>
<path fill-rule="evenodd" clip-rule="evenodd" d="M610.704 582.178C607.186 580.799 603.398 580.037 599.591 579.741C601.64 579.382 603.696 579.036 605.768 578.858C607.214 578.734 608.555 578.747 609.642 579.843C610.367 580.573 610.707 581.514 611.183 582.378C611.028 582.308 610.866 582.241 610.704 582.178ZM648.462 569.286C642.701 569.579 636.933 570.948 631.721 573.429C629.589 574.445 627.657 575.913 627.091 578.327C626.805 579.56 626.875 580.834 627.027 582.08C627.142 583.023 627.171 584.227 627.991 584.865C628.13 584.973 628.28 585.056 628.436 585.116C626.513 585.983 624.682 587.026 623.055 588.099C621.568 589.081 620.04 590.593 619.353 592.299C619.296 592.105 619.239 591.924 619.182 591.753C618.012 588.297 616.211 585.466 613.373 583.563C613.875 583.338 614.221 582.804 614.059 582.067C613.385 578.988 610.541 576.313 607.329 576.504C603.811 576.71 600.032 577.991 596.851 579.608C595.691 579.582 594.534 579.598 593.391 579.649C593.194 579.655 593.203 579.923 593.391 579.944C594.319 580.062 595.246 580.192 596.174 580.345C598.38 580.698 600.579 581.145 602.73 581.701C605.311 582.369 607.98 583.039 610.392 584.204C615.069 586.47 617.965 592.391 617.37 597.544C617.272 598.389 616.945 600.943 615.772 600.679C614.78 600.457 614.386 598.389 614.04 597.623C613.112 595.59 611.441 594.262 609.435 593.363C607.081 592.305 604.561 591.591 602.12 590.759C600.738 590.285 599.355 589.812 597.97 589.341C596.553 588.856 595.205 588.185 593.696 588.525C592.784 588.731 592.679 589.818 593.19 590.441C593.969 591.39 595.126 591.67 596.247 592.061C597.728 592.575 599.206 593.09 600.684 593.605C602.968 594.399 605.361 595.069 607.589 596.041L607.519 596.2C607.338 596.149 607.125 596.33 607.16 596.553C607.494 598.608 607.958 600.984 607.443 603.043C607.036 604.676 605.603 606.484 603.741 606.004C604.033 605.737 604.141 605.276 603.944 604.85C603.207 603.275 593.546 597.055 592.685 599.364C592.657 599.447 592.745 599.507 592.815 599.495C593.549 599.342 594.779 600.593 595.367 600.991C596.215 601.563 597.077 602.122 597.916 602.709C598.834 603.351 599.73 604.025 600.604 604.72C601.291 605.267 601.809 605.835 602.596 606.112C602.184 606.309 601.856 606.674 601.716 607.141C601.361 608.358 600.674 609.39 599.482 609.927C598.234 610.486 596.826 610.133 595.51 610.27C593.718 610.451 592.154 611.303 590.848 612.519C588.106 615.08 586.73 619.591 582.894 620.801C580.603 621.522 578.061 621.068 575.741 620.741C573.151 620.375 570.628 620.086 568.019 620.467C565.521 620.833 563.16 621.697 560.878 622.752C558.74 623.739 556.375 624.858 554.478 626.332C554.087 625.128 553.693 623.936 553.394 622.707C552.689 619.801 552.308 616.84 552.215 613.853C552.13 611.01 552.289 608.155 552.533 605.324C552.654 603.91 552.845 602.503 552.966 601.089C552.997 600.733 553.061 600.352 553.109 599.971C556.496 597.973 560.055 596.442 563.643 594.866C563.653 594.863 563.662 594.856 563.672 594.853C563.783 594.802 563.891 594.755 564.002 594.707C563.999 594.701 563.996 594.695 563.989 594.688C564.399 594.437 564.685 594.103 564.857 593.728C570.027 590.301 574.349 585.622 577.571 580.164C578.922 577.876 580.222 575.503 581.989 573.499C583.87 571.361 586.104 570.09 588.869 569.429C592.1 568.654 595.431 568.19 598.742 567.927C600.55 567.784 602.571 567.561 604.542 567.571C605.914 567.58 607.258 567.698 608.492 568.038C610.319 568.54 611.387 569.928 612.534 571.332C613.63 572.679 614.72 574.03 615.743 575.434C616.712 576.764 617.628 578.14 618.422 579.582C618.899 580.446 619.341 581.336 619.712 582.254C619.843 582.578 620.014 582.946 620.094 583.283C620.173 583.623 620.027 583.982 620.408 583.982C618.835 584.004 618.851 586.517 620.415 586.425C626.535 586.069 617.768 574.125 616.487 572.46C614.672 570.103 612.801 567.028 609.896 565.932C609.855 565.916 609.81 565.9 609.769 565.887C610.614 565.087 611.282 564.128 611.92 563.152C612.578 562.148 613.363 560.998 613.579 559.807C613.716 559.048 612.772 558.616 612.324 559.28C611.673 560.248 611.358 561.475 610.872 562.539C610.376 563.619 609.772 564.639 609.296 565.728C608.148 565.376 606.909 565.214 605.647 565.16C607.24 563.006 609.959 558.851 610.287 558.317C611.793 555.845 613.227 553.298 614.596 550.747C616.077 547.983 617.345 545.105 618.762 542.309C619.566 540.724 620.377 539.126 621.27 537.588C621.578 537.061 621.908 536.534 622.283 536.054C622.356 535.959 622.449 535.88 622.534 535.79C622.633 535.736 622.735 535.676 622.792 535.645C623.306 535.349 623.488 534.663 623.85 534.227C624.428 533.526 625.108 533.443 625.979 533.433C627.835 533.414 629.697 533.487 631.55 533.538C634.273 533.614 636.993 533.722 639.714 533.865C640.537 533.91 641.357 533.954 642.18 534.005C646.136 534.24 650.089 534.548 654.033 534.927C657.522 535.26 661.011 535.803 664.504 536.064C659.775 547.294 654.532 558.32 648.595 568.963C648.535 569.07 648.49 569.178 648.462 569.286ZM622.226 598.217C621.464 598.567 620.723 599.002 620.034 599.498C620.148 598.726 620.177 597.912 620.145 597.096C620.714 597.706 621.441 598.055 622.226 598.217ZM654.783 578.9C654.729 578.906 654.678 578.934 654.653 578.988C653.598 581.164 654.039 583.594 655.762 585.3C656.664 586.19 658.631 587.194 658.568 588.655C658.514 589.837 657.227 590.828 656.677 591.803C656.165 592.712 655.975 593.709 656.385 594.694C656.909 595.955 658.374 596.457 658.876 597.696C659.512 599.269 658.479 601.166 657.754 602.534C657.081 603.802 656.21 605.069 655.632 606.41C651.758 608.415 648.291 611.49 645.31 614.613C642.046 618.028 639.247 622.046 634.064 621.945C633.546 621.935 633.152 622.209 632.917 622.586C631.474 622.653 630.028 622.682 628.585 622.688C626.049 622.701 623.513 622.675 620.981 622.596C620.803 621.983 620.933 621.151 620.923 620.633C620.892 618.965 620.876 617.3 620.806 615.632C620.787 615.169 620.768 614.701 620.749 614.238C621.661 615.886 623.44 616.636 625.468 616.522C628.728 616.331 632.008 615.797 635.236 615.318C636.936 615.067 638.633 614.781 640.327 614.476C641.719 614.228 643.683 614.292 644.655 613.177C644.884 612.916 644.897 612.44 644.538 612.265C643.575 611.792 642.968 612.055 641.909 612.259C640.62 612.509 639.326 612.748 638.029 612.97C635.541 613.402 633.047 613.802 630.546 614.155C629.122 614.355 627.695 614.552 626.269 614.708C625.023 614.841 623.618 615.022 622.614 614.085C620.59 612.192 621.724 609.018 623.005 607.106C623.03 607.068 623.03 607.033 623.021 607.001C624.228 606.718 625.433 606.388 626.634 606.156C628.944 605.711 631.27 605.337 633.6 605.003C638.386 604.32 643.203 603.869 648.014 603.415C649.206 603.3 649.218 601.426 648.014 601.537C641.102 602.169 634.156 602.769 627.336 604.101C625.627 604.431 623.929 604.806 622.242 605.228C621.445 605.426 620.59 605.734 619.754 605.743C619.703 605.743 619.652 605.743 619.601 605.74C617.965 605.689 617.727 604.288 618.626 603.122C618.737 602.979 618.852 602.836 618.969 602.7C620.558 600.806 622.537 599.542 624.578 598.233C626.863 597.922 629.141 597.229 631.378 596.721C636.902 595.463 642.425 594.205 647.951 592.95C649.034 592.702 648.574 591.038 647.49 591.282C643.295 592.232 639.101 593.182 634.906 594.132L628.766 595.524C627.54 595.8 626.008 596.356 624.565 596.556C623.853 596.654 623.164 596.667 622.541 596.521C620.529 596.045 620.428 593.531 621.295 592.038C622.268 590.361 624.104 589.313 625.735 588.363C628.56 586.714 631.566 585.529 634.502 584.163C635.023 584.049 635.545 583.934 636.066 583.82C639.097 583.153 642.561 582.826 645.415 581.603C646.27 581.24 645.802 579.894 644.957 579.913C642.742 579.961 640.426 580.748 638.262 581.215C635.92 581.723 633.574 582.228 631.232 582.734C630.997 582.784 629.605 583.229 629.395 583.131C629.262 583.067 629.214 582.604 629.17 582.298C629.027 581.294 628.922 580.24 629.078 579.233C629.421 576.974 631.305 575.913 633.212 575.046C637.458 573.117 642.113 571.911 646.746 571.427C647.814 571.316 648.882 571.247 649.956 571.211C651.217 571.173 652.257 570.951 652.895 572.193C653.9 574.15 654.453 576.666 654.783 578.9ZM648.887 649.851C647.962 646.653 648.213 643.238 647.58 639.975C647.253 638.292 646.806 636.623 646.319 634.98C645.925 633.652 645.269 632.24 645.195 630.855C645.19 630.763 645.299 630.71 645.374 630.752C646.679 631.499 647.682 633.115 648.426 634.382C649.317 635.899 649.997 637.488 650.546 639.158C651.64 642.485 652.538 646.498 651.127 649.851C650.708 650.849 649.233 651.049 648.887 649.851ZM620.297 607.487C621.079 607.411 621.861 607.261 622.643 607.087C621.769 607.938 620.962 608.964 620.513 610.102C620.444 609.228 620.354 608.357 620.237 607.491C620.256 607.491 620.278 607.491 620.297 607.487ZM612.784 674.063C611.406 673.102 610.401 671.757 609.232 670.571C608.083 669.404 609.88 667.607 611.03 668.774C612.027 669.786 612.893 671.05 614.067 671.869C614.632 672.262 614.894 672.974 614.524 673.607C614.196 674.166 613.348 674.456 612.784 674.063ZM605.097 637.102C607.613 636.014 610.088 634.83 612.722 634.046C614.296 633.578 614.962 636.031 613.398 636.497C610.972 637.219 608.697 638.295 606.38 639.296C604.892 639.939 603.599 637.749 605.097 637.102ZM578.52 636.341C577.905 634.823 580.365 634.169 580.972 635.666C581.67 637.388 582.47 639.066 583.168 640.789C583.783 642.307 581.323 642.961 580.717 641.465C580.019 639.742 579.218 638.064 578.52 636.341ZM552.289 666.654C551.879 667.2 551.196 667.496 550.55 667.11C550.009 666.786 549.679 665.924 550.094 665.371C551.306 663.757 552.533 662.162 553.953 660.722C555.105 659.555 556.901 661.354 555.751 662.519C554.483 663.805 553.372 665.212 552.289 666.654ZM548.538 496.572C549.705 497.368 550.728 498.336 551.724 499.332C552.883 500.49 551.085 502.287 549.926 501.129C549.087 500.29 548.239 499.438 547.255 498.766C546.687 498.378 546.431 497.656 546.799 497.028C547.129 496.465 547.971 496.185 548.538 496.572ZM586.701 537.469C586.041 538.789 585.447 540.084 585.41 541.585C585.37 543.22 582.828 543.221 582.868 541.585C582.917 539.621 583.641 537.917 584.506 536.186C585.237 534.72 587.429 536.009 586.701 537.469ZM600.703 504.623C602.07 503.712 603.341 505.915 601.987 506.818C600.889 507.549 599.79 508.281 598.692 509.013C597.326 509.924 596.054 507.722 597.409 506.819C598.507 506.087 599.605 505.355 600.703 504.623ZM539.97 562.05C539.737 563.666 537.288 562.975 537.519 561.375C537.876 558.903 538.313 556.464 538.983 554.056C539.423 552.48 541.874 553.153 541.435 554.731C540.764 557.139 540.328 559.579 539.97 562.05ZM531.057 591.163C529.421 591.128 529.42 588.587 531.057 588.621C532.538 588.653 533.994 589.042 535.422 589.398C537.011 589.795 536.334 592.246 534.746 591.849C533.539 591.548 532.309 591.189 531.057 591.163ZM527.767 649.806C527.205 650.079 526.628 650.326 526.06 650.586C524.922 651.106 523.784 651.626 522.647 652.148C520.279 653.235 517.911 654.326 515.546 655.42C510.811 657.611 506.039 659.725 501.293 661.892C496.453 664.103 491.625 666.342 486.804 668.593C484.533 669.654 482.244 670.675 479.96 671.707C478.007 672.59 475.592 674.133 473.448 674.278C473.338 674.286 473.301 674.146 473.364 674.075C474.174 673.154 475.466 672.618 476.531 672.02C477.618 671.408 478.726 670.832 479.829 670.249C482.128 669.031 484.429 667.823 486.75 666.649C491.393 664.3 496.045 661.968 500.697 659.639C505.443 657.264 510.182 654.873 514.968 652.582C517.222 651.503 519.478 650.428 521.735 649.356C522.958 648.775 524.182 648.195 525.405 647.617C525.933 647.366 526.457 647.097 526.997 646.873C527.715 646.576 528.26 646.637 529.001 646.454C530.208 646.156 530.731 647.691 529.804 648.359C529.041 648.91 528.639 649.381 527.767 649.806ZM510.795 675.865C510.534 675.232 511.08 674.461 511.683 674.302C512.404 674.112 512.983 674.55 513.246 675.19C513.943 676.884 514.936 678.439 516.214 679.753C517.356 680.926 515.559 682.724 514.416 681.55C512.815 679.904 511.665 677.98 510.795 675.865ZM498.309 635.072C497.15 633.914 498.948 632.117 500.107 633.275L503.401 636.568C504.56 637.727 502.762 639.524 501.604 638.366L498.309 635.072ZM464.506 629.702C462.138 630.397 459.375 631.035 457.76 633.055C457.681 633.154 457.549 633.027 457.596 632.929C459.663 628.644 465.593 627.141 469.698 625.64C472.601 624.578 475.58 623.698 478.585 622.911C478.284 619.485 479.113 615.813 479.4 612.403C479.708 608.763 479.958 605.114 480.086 601.463C480.218 597.738 480.249 593.988 480.127 590.262C480.005 586.55 479.523 582.884 479.312 579.184C479.291 578.826 479.789 578.809 479.897 579.105C481.144 582.538 481.677 586.341 482.084 589.961C482.502 593.69 482.641 597.408 482.587 601.159C482.532 605.016 482.308 608.863 482 612.707C481.854 614.53 481.684 616.349 481.525 618.17C481.403 619.56 481.346 620.938 481.062 622.284C482.874 621.839 484.691 621.419 486.501 621.01C492.274 619.707 498.071 618.499 503.819 617.091C506.641 616.4 509.423 615.572 512.232 614.837C514.877 614.145 517.669 613.305 520.385 612.997C521.354 612.886 521.478 614.211 520.836 614.661C518.629 616.21 515.697 617.289 513.148 618.157C510.589 619.027 507.929 619.653 505.306 620.297C499.837 621.642 494.316 622.742 488.803 623.887C483.298 625.031 477.782 626.166 472.339 627.578C469.717 628.257 467.105 628.94 464.506 629.702ZM451.526 561.712C450.111 562.543 448.833 560.345 450.243 559.517C452.089 558.435 454.055 557.621 456.038 556.828C457.559 556.219 458.214 558.678 456.714 559.279C454.932 559.991 453.184 560.739 451.526 561.712ZM446.401 656.131C444.981 656.953 443.703 654.756 445.118 653.936C447.105 652.785 449.282 652.016 451.341 651.009C452.807 650.291 454.094 652.484 452.624 653.203C450.565 654.211 448.388 654.979 446.401 656.131ZM444.096 602.534C445.468 603.837 447.299 604.451 449.026 605.135C450.532 605.731 449.871 608.188 448.35 607.586C446.199 606.733 444.007 605.954 442.298 604.331C441.109 603.202 442.91 601.408 444.096 602.534ZM459.276 529.746C460.785 530.338 460.124 532.795 458.6 532.197C456.91 531.534 455.165 531.03 453.475 530.367C451.967 529.776 452.627 527.319 454.151 527.916C455.841 528.579 457.586 529.084 459.276 529.746ZM486.057 500.835C487.66 500.565 488.342 503.014 486.733 503.286C484.736 503.623 482.769 504.017 480.875 504.75C479.346 505.341 478.69 502.883 480.199 502.299C482.094 501.567 484.06 501.172 486.057 500.835ZM494.905 571.227C493.436 570.505 494.725 568.314 496.188 569.033C497.73 569.79 499.328 570.376 501.01 570.734C502.612 571.075 501.93 573.525 500.334 573.185C498.441 572.782 496.639 572.079 494.905 571.227ZM503.263 531.576C504.845 531.143 505.515 533.595 503.939 534.027C501.166 534.786 498.312 535.181 495.519 535.857C493.927 536.242 493.253 533.791 494.843 533.406C497.636 532.73 500.491 532.336 503.263 531.576ZM538.716 519.133C540.326 519.431 539.64 521.88 538.041 521.584C536.338 521.269 534.613 521.264 532.887 521.263C531.249 521.263 531.252 518.721 532.887 518.722C534.848 518.723 536.784 518.776 538.716 519.133ZM654.344 532.411C650.191 532.013 646.031 531.696 641.865 531.458C641.671 531.448 641.481 531.435 641.286 531.425C641.265 531.381 641.236 531.34 641.207 531.295C639.847 529.3 638.846 527.305 637.979 525.05C637.149 522.902 636.345 520.688 635.068 518.75C633.611 516.543 631.644 514.815 629.488 513.318C628.18 514.197 626.967 515.226 625.856 516.317C624.688 517.465 622.89 515.668 624.059 514.52C625.045 513.55 626.098 512.655 627.212 511.846C625.926 511.065 624.615 510.331 623.335 509.601C618.54 506.866 613.63 504.337 608.619 502.025C606.29 500.947 603.932 499.991 601.558 499.022C600.28 498.502 599.019 497.831 597.741 497.228C597.833 496.325 597.563 495.315 596.87 494.721C596.359 494.286 595.962 494.124 595.351 493.816C595.215 493.768 595.132 493.739 595.094 493.723C595.123 493.73 595.205 493.755 595.342 493.8C595.666 493.949 595.691 493.905 595.418 493.669C595.402 493.155 594.388 492.069 594.157 491.538C593.349 489.718 593.098 487.792 591.907 486.134C590.264 483.85 587.505 482.986 584.934 483.761C584.668 481.013 584.598 478.145 583.562 475.692C583.533 475.626 583.441 475.597 583.4 475.67C582.319 477.509 582.227 479.558 582.144 481.68C582.065 483.672 582.141 485.708 582.402 487.688C582.237 487.815 582.068 487.936 581.893 488.053C581.074 488.593 580.19 489.009 579.262 489.318C577.495 489.902 575.643 490.156 573.79 490.245C569.007 490.474 564.079 489.991 559.375 489.171C554.618 488.342 547.325 487.097 543.092 484.717C540.299 483.148 537.722 481.232 535.109 479.377C536.057 476.327 536.298 473.049 535.345 470.473C535.23 470.164 534.747 470.107 534.655 470.473C534.058 472.931 533.883 475.403 533.088 477.833C533.076 477.868 533.063 477.907 533.05 477.941C532.802 477.773 532.555 477.608 532.307 477.442C531.735 477.064 530.956 477.347 530.613 477.887C525.125 486.531 516.434 487.027 507.307 488.571C497.319 490.261 487.28 492.084 477.677 495.391C468.493 498.556 459.716 503.162 452.763 510.043C451.189 511.601 449.717 513.261 448.328 514.994C449.672 515.163 451.005 515.427 452.321 515.84C453.879 516.329 453.209 518.782 451.645 518.29C449.954 517.759 448.244 517.497 446.516 517.366C441.792 523.827 438.108 531.153 434.923 538.364C428.813 552.189 424.836 566.913 423.005 581.903C424.01 581.301 425.033 580.728 426.082 580.194C427.538 579.454 428.823 581.647 427.365 582.389C425.745 583.212 424.172 584.12 422.648 585.104C421.982 591.666 421.724 598.27 421.881 604.863C422.253 620.582 424.375 636.761 429.177 651.759C431.532 659.119 434.652 666.42 439.302 672.64C441.405 675.457 443.795 677.999 446.611 680.118C447.974 681.147 449.417 682.065 450.939 682.84C452.899 683.844 455.454 684.174 457.145 685.594C457.701 686.062 458.13 686.678 458.454 687.373C458.267 688.695 458.245 690.02 458.607 691.341C458.721 691.755 459.033 692.091 459.417 692.253C459.424 692.367 459.424 692.479 459.424 692.587C459.424 692.637 459.5 692.65 459.509 692.6C459.525 692.501 459.541 692.402 459.557 692.301C459.681 692.342 459.811 692.361 459.945 692.361C464.772 692.379 469.605 692.262 474.438 692.098C474.065 690.953 473.66 689.819 473.271 688.674C472.743 687.119 475.199 686.458 475.723 687.999C476.177 689.337 476.653 690.663 477.076 692.006C482.255 691.813 487.432 691.582 492.6 691.411C503.592 691.046 514.581 690.925 525.576 690.694C542.651 690.332 559.85 689.591 576.951 690.315C577.542 689.061 578.204 687.835 578.832 686.597C579.572 685.136 581.765 686.424 581.027 687.88C580.591 688.74 580.139 689.589 579.709 690.447C583.173 690.627 586.633 690.865 590.086 691.189C595.977 691.742 601.812 692.723 607.697 693.333C613.681 693.956 619.535 693.845 625.471 692.857C626.539 692.679 627.168 692.034 627.428 691.233C627.438 691.23 627.444 691.224 627.45 691.214C627.755 690.858 628.042 690.563 628.337 690.306C628.69 690.077 629.071 689.883 629.519 689.712C630.355 689.394 631.226 689.2 632.109 689.07C633.082 688.924 634.067 688.911 635.039 688.791C635.859 688.686 636.66 688.53 637.46 688.34C638.9 687.996 640.267 687.548 641.627 686.954C642.812 686.437 643.883 685.693 644.894 684.883C646.985 683.355 648.796 681.405 650.379 679.378C651.3 678.193 652.168 676.963 652.956 675.683C654.329 673.466 655.498 671.162 656.68 668.84C657.109 668.152 657.501 667.447 657.859 666.728C655.548 666.047 653.216 665.493 650.767 665.453C649.129 665.427 649.13 662.886 650.767 662.912C653.575 662.957 656.232 663.613 658.872 664.394C659.001 664.053 659.124 663.709 659.238 663.36C659.553 662.633 659.814 661.886 660.03 661.13C660.156 660.787 660.284 660.444 660.411 660.101C660.697 658.913 660.983 657.721 661.272 656.53C661.847 654.624 662.301 652.689 662.635 650.729C662.915 649.44 663.131 648.14 663.277 646.825C663.722 643.639 664.084 640.459 664.11 637.238C664.072 635.252 663.945 633.27 663.729 631.297C663.636 629.956 663.481 628.622 663.271 627.297C662.998 625.328 662.728 623.378 662.273 621.433C661.933 620.118 661.593 618.803 661.253 617.488C660.405 614.746 659.404 612.058 658.25 609.431C658.186 609.266 657.865 608.904 657.672 608.901C657.525 608.898 657.322 609.031 657.389 609.209C657.395 609.225 657.401 609.244 657.408 609.26C657.341 609.11 657.278 608.958 657.211 608.809C657.154 608.669 656.931 608.39 656.76 608.393C656.75 608.393 656.74 608.393 656.728 608.396C656.772 608.364 656.814 608.323 656.855 608.275C657.996 606.925 658.736 605.149 659.553 603.586C660.23 602.296 660.869 600.937 661.053 599.478C661.215 598.198 660.996 596.937 660.192 595.901C659.276 594.723 657.554 594.17 658.511 592.467C659.597 590.529 661.196 588.849 659.604 586.647C658.793 585.526 657.51 584.91 656.556 583.934C655.46 582.807 654.938 581.298 654.967 579.757C655.034 579.795 655.123 579.776 655.155 579.681C656.076 576.898 655.409 573.842 654.465 571.132C653.95 569.661 652.86 569.258 651.592 569.185C657.083 558.463 662.222 547.57 666.802 536.426C666.954 536.06 667.103 535.695 667.252 535.33C667.475 534.783 667.005 534.056 666.462 533.935C662.502 533.068 658.377 532.791 654.344 532.411Z" fill="black"/>
<path fill-rule="evenodd" clip-rule="evenodd" d="M604.693 377.211C603.466 369.79 607.492 368.25 604.693 361.196C598.47 348.126 581.511 348.689 569.067 347.684C555.187 347.152 541.138 348.984 528.343 354.545C525.286 355.874 522.346 357.436 519.528 359.211C517.092 360.745 517.426 363.664 518.963 365.255C507.883 380.94 514.22 401.993 505.38 418.502C503.747 421.454 501.587 424.1 500.167 427.17C498.01 431.838 497.871 438.526 502.765 441.626C509.656 445.324 513.502 438.002 516.888 448.616C533.8 485.622 567.803 487.706 600.082 468.412C602.874 466.859 605.724 465.104 607.833 462.665C612.62 457.279 612.056 449.707 612.162 442.982C612.221 439.041 612.231 435.1 612.192 431.158C612.042 415.192 606.749 393.045 604.693 377.211Z" fill="white"/>
<path fill-rule="evenodd" clip-rule="evenodd" d="M535.941 332.827C555.431 323.989 577.536 320.637 598.795 322.836C609.289 323.919 619.644 326.243 629.499 330.019L630.362 330.352C632.795 331.288 635.417 332.218 637.266 334.123C639.418 336.337 640.021 339.685 638.483 342.421C637.288 344.546 635.14 346.07 632.849 346.884C633.656 347.545 634.422 348.282 635.14 349.104C636.351 350.483 636.443 352.449 635.14 353.809C632.63 356.43 629.372 358.326 625.864 359.235C626.258 361.138 626.045 363.244 625.2 365.141C622.774 370.585 615.942 371.234 610.684 370.91L610.525 370.9L610.232 374.246C610.077 376.028 609.009 377.41 607.198 377.683C607.134 377.692 607.07 377.699 607.007 377.705C609.873 388.068 611.605 398.751 613.204 409.371C614.039 414.915 614.786 420.472 615.502 426.032L615.739 427.885C616.502 433.88 617.456 439.935 617.786 445.974C618.082 451.454 617.036 456.686 613.658 461.108C610.626 465.073 606.492 468.043 602.046 470.248C592.001 475.232 581.429 478.943 570.319 480.664L569.578 480.778C565.29 481.433 560.871 481.984 556.629 480.798C552.902 479.756 548.993 477.068 549.835 472.751C550.118 471.293 552.158 471.229 552.857 472.357L553.018 472.616C553.857 473.945 554.775 475.181 556.238 475.867C557.951 476.674 559.937 476.9 561.809 476.922C567.036 476.982 572.48 475.68 577.514 474.374C586.914 471.935 596.568 467.957 604.268 461.931C607.544 459.37 610.175 456.168 611.103 452.048C612.25 446.968 611.195 441.415 610.674 436.31C609.602 425.776 608.325 415.262 606.978 404.759L606.708 402.659C605.574 393.878 604.382 385.094 603.816 376.263C603.581 375.942 603.422 375.577 603.359 375.176L603.27 374.601C603.193 374.109 603.181 373.658 603.235 373.242C603.238 371.647 603.282 370.062 603.375 368.467C603.39 368.181 603.403 367.895 603.413 367.612C601.754 367.978 600.082 368.273 598.405 368.524C586.608 370.3 574.628 370.745 562.737 369.862C556.804 369.42 550.916 368.661 545.046 367.711C542.058 367.228 539.081 366.694 536.113 366.097C533.968 365.668 531.867 365.087 529.757 364.54C527.581 367.708 526.405 371.606 526.634 375.434C526.891 379.802 529.802 383.763 528.985 388.227C528.219 392.404 524.639 393.699 521.104 394.733L519.601 395.168C518.445 395.505 517.605 395.831 517.396 397.22C517.037 399.606 517.478 402.29 517.57 404.689C517.682 407.525 517.827 410.362 517.895 413.199C517.929 414.667 517.986 416.141 517.984 417.609C517.98 418.651 517.825 419.362 517.421 420.035C517.732 420.426 518.012 420.849 518.26 421.297C518.339 421.443 518.142 421.598 518.025 421.478C517.71 421.151 517.376 420.855 517.024 420.591C516.846 420.811 516.639 421.033 516.397 421.271L516.379 421.246C515.622 421.999 514.421 422.072 513.483 421.271L513.237 421.058C512.551 420.457 512.079 419.956 511.888 418.962C511.879 418.911 511.869 418.86 511.863 418.809C510.118 418.749 508.345 419.162 506.775 420.029C504.287 421.405 502.536 423.365 501.5 425.786C501.913 426.268 502.396 426.7 502.959 427.063C503.038 427.117 502.968 427.234 502.883 427.193C502.307 426.923 501.793 426.589 501.332 426.199C500.96 427.152 500.699 428.174 500.54 429.258C499.981 433.083 500.979 437.756 504.436 439.935C505.933 440.878 507.643 441.39 509.416 441.396C510.28 441.399 511.027 441.253 511.866 441.047C512.435 440.907 513.001 440.704 513.595 440.704C514.103 440.704 514.574 440.831 515.009 441.085L514.888 441.095C514.595 441.123 514.651 441.135 515.06 441.135C516.331 441.19 517.058 442.48 516.474 443.601L516.397 443.774C516.381 443.809 516.368 443.838 516.357 443.861L516.311 444.159C516.306 444.187 516.301 444.216 516.296 444.246L516.278 444.306C516.275 444.316 516.272 444.325 516.267 444.335L518.174 447.241C520.511 450.796 522.901 454.338 525.62 457.585C527.526 459.863 529.548 462.096 531.683 464.164C533.602 466.023 535.903 466.918 538.077 468.38C539.237 469.155 539.577 470.778 538.522 471.823C535.427 474.895 531.044 472.456 528.505 469.959C526.103 467.592 524.028 464.746 522.239 461.896C519.064 456.829 516.538 451.441 515.432 445.593C514.971 446.015 514.383 446.279 513.789 446.485C512.597 446.898 511.285 447.07 510.026 447.114C507.614 447.194 505.199 446.609 503.029 445.574C494.198 441.364 492.901 428.759 498.3 421.325C497.572 419.215 497.165 416.925 496.724 414.972L496.523 414.099C494.29 404.349 492.791 394.083 496.749 384.529C497.258 383.296 497.83 382.095 498.507 380.945C499.05 380.021 499.984 379.036 500.242 377.985C500.814 375.675 497.283 373.248 496.254 371.415C495.043 369.264 494.871 366.726 496.521 364.759C496.73 364.512 496.959 364.283 497.207 364.083C495.643 361.249 495.57 357.685 497.63 354.889C498.983 353.047 501.049 351.757 503.305 351.366C504.684 351.128 506.343 351.217 507.859 351.643C516.159 343.939 525.629 337.503 535.941 332.827ZM504.067 429.22C506.282 427.266 508.729 426.243 511.748 426.5C514.783 426.761 518.437 428.016 520.22 430.617C521.628 432.673 518.758 435.688 516.693 434.144C514.812 432.736 513.556 431.148 511.221 430.392C509.123 429.715 506.527 429.28 504.331 429.668C504.089 429.709 503.848 429.41 504.067 429.22Z" fill="black"/>
<path fill-rule="evenodd" clip-rule="evenodd" d="M590.494 448.875C590.714 448.815 590.909 449.111 590.726 449.273C589.978 449.937 589.503 451.174 588.957 452.016C588.438 452.818 587.937 453.612 587.48 454.451C586.968 455.392 586.474 456.329 586.075 457.324L585.997 457.525C586.116 457.809 586.209 458.089 586.278 458.273L586.298 458.325C586.979 460.062 585.55 461.994 583.938 462.479C581.182 463.31 578.817 461.047 578.751 458.356C578.699 456.239 580.135 454.353 581.593 452.953C582.869 451.729 584.298 450.687 585.896 449.924C586.601 449.588 587.334 449.306 588.099 449.143C588.882 448.976 589.727 449.082 590.494 448.875ZM585.299 456.547C585.501 456.642 585.674 456.875 585.819 457.147C585.747 456.917 585.597 456.687 585.299 456.547ZM587.024 427.132C589.424 428.59 593.08 431.991 590.498 435.605C587.46 438.793 583.085 435.138 580.929 433.485C578.93 432.205 576.684 435.499 578.538 436.995C594.117 448.525 600.439 427.514 588.238 425.418C586.894 425.187 586.395 426.681 587.024 427.132ZM567.298 413.131L567.722 413.095C569.561 412.933 571.423 412.686 573.237 413.102C575.673 413.661 575.495 417.205 573.237 417.856C571.247 418.43 569.042 418.182 566.988 418.201C566.664 418.205 566.342 418.213 566.019 418.218C565.955 418.986 565.703 419.648 565.318 420.31C565.041 420.784 564.688 421.235 564.341 421.656C563.516 422.658 561.571 422.636 560.738 421.656C560.122 420.932 559.632 420.098 559.624 419.116C559.622 418.865 559.652 418.598 559.713 418.336L558.591 418.355C555.847 418.397 553.082 418.379 550.388 417.943C549.429 418.141 548.645 416.412 549.968 415.895C553.564 414.489 557.582 414.075 561.398 413.653C563.359 413.435 565.331 413.286 567.298 413.131ZM597.936 411.678L598.034 411.668C600.414 411.424 603.037 411.002 605.421 411.245C608.982 411.607 608.976 416.418 605.421 416.778C604.117 416.911 602.742 416.846 601.371 416.72C602.072 418.206 601.24 419.981 599.552 420.208C597.983 420.418 596.357 418.894 596.872 417.259L596.896 417.187C596.996 416.904 597.086 416.587 597.193 416.274L596.626 416.226C594.928 416.076 592.573 415.769 591.948 414.43C591.76 414.026 591.803 413.651 592.093 413.306C593.283 411.891 596.216 411.844 597.936 411.678ZM572.629 400.661C574.351 400.036 576.141 401.5 576.365 403.149C576.622 405.05 575.25 406.302 573.512 406.529L573.425 406.54C569.587 406.962 565.778 407.735 561.936 408.171C560.191 408.37 558.432 408.5 556.675 408.547L555.42 408.575C553.881 408.614 552.231 408.649 550.811 408.119L550.816 408.11C550.439 408.001 550.265 407.457 550.685 407.159C552.197 406.09 554.236 405.686 555.996 405.178C557.767 404.667 559.55 404.196 561.337 403.754C565.092 402.825 568.992 401.982 572.629 400.661ZM588.514 401.106C588.97 398.7 592.379 398.443 593.63 400.193C594.439 400.47 595.626 400.76 596.361 400.978C597.641 401.358 598.923 401.735 600.207 402.101C602.867 402.858 605.463 403.818 608.078 404.713C608.347 404.805 608.273 405.147 608.014 405.181C604.365 405.656 600.776 405.877 597.104 405.725L596.351 405.691C593.115 405.565 587.623 405.805 588.514 401.106Z" fill="black"/>
<path fill-rule="evenodd" clip-rule="evenodd" d="M587.373 439.509C583.839 437.918 577.493 439.307 575.189 439.859C569.833 441.143 564.445 443.918 562.779 448.265C560.903 453.165 564.647 454.707 565.198 454.455C568.906 454.716 573.321 452.386 577.207 451.785C580.361 451.292 583.688 450.863 586.644 449.187C588.802 450.374 593.675 451.015 597.608 452.053C600.958 452.936 602.409 454.851 605.515 454.444C609.236 453.956 607.713 446.13 603.565 442.96C599.025 439.491 591.347 438.084 587.373 439.509ZM594.371 472.969C591.279 473.722 591.071 466.948 590.725 464.555C590.454 462.685 588.928 457.863 585.059 458.071C581.189 458.279 579.735 462.319 579.931 464.832C580.059 466.461 581.561 474.715 576.766 475.759C573.709 475.748 570.173 475.542 566.959 474.95C563.176 474.093 558.257 471.094 556.958 477C556.49 479.125 573.154 485.44 580.548 486.011C588.048 487.53 596.822 485.194 602.161 479.459C603.375 478.154 606.796 472.739 607.04 471.412C607.552 468.625 606.367 466.831 602.916 467.813C600.479 469.114 596.359 472.484 594.371 472.969Z" fill="black"/>
<path d="M3 570.347V688H345.779L416 393L3 570.347Z" fill="white" stroke="black" stroke-width="4"/>
<mask id="mask0_0_190" style="mask-type:alpha" maskUnits="userSpaceOnUse" x="1" y="389" width="418" height="301">
<path d="M3 570.347V688H345.779L416 393L3 570.347Z" fill="white" stroke="white" stroke-width="4"/>
</mask>
<g mask="url(#mask0_0_190)">
<path fill-rule="evenodd" clip-rule="evenodd" d="M430.044 1049.92C424.541 1033.01 431.095 1013.48 426.811 995.253C425.343 988.043 422.553 961.255 419.751 945.591C418.183 936.829 427.56 934.108 429.001 930.611C439.143 899.194 365.16 825.286 360.644 822.563C353.877 818.652 347.889 815.285 341.276 811.29C321.987 804.514 298.856 785.665 281.369 797.772C251.071 752.669 263.057 697.1 246.616 690.496C230.175 683.891 181.625 670.543 153.868 687.588C137.23 699.898 138.457 721.089 130.865 738.565C126.41 746.792 124.22 758.709 119.033 764.074C101.409 782.305 79.4309 785.448 54.8607 788.542C52.9893 788.778 51.0205 783.688 49.202 784.317C7.75583 798.642 -40.4708 802.821 -87.4085 883.032C-94.0375 894.504 -111.92 912.909 -105.941 926.165C-145.339 1017.78 -184.106 1223.99 -76.0004 1275.41C-72.5448 1277.62 -49.1022 1265.77 -45.2825 1265.88C-38.9152 1266.06 -51.1153 1281.52 -45.2825 1278.77C-2.45946 1282.02 233.173 1273.63 323.494 1282.02C385.605 1281.55 424.945 1292.44 439.287 1281.55C433.554 1267.7 433.819 1252.86 435.632 1238.21C448.831 1228.39 432.514 1159.16 433.895 1138.89C446.251 1124.08 436.413 1068.53 430.044 1049.92Z" fill="white"/>
<path fill-rule="evenodd" clip-rule="evenodd" d="M318.788 475.229C269.296 442.468 170.143 446.026 115.661 466.098C62.501 482.957 43.8891 529.933 35.0626 580.685C24.3339 637.726 25.7759 719.953 102.925 718.958C113.771 724.203 125.787 726.478 137.01 730.822C152.37 736.132 167.43 742.297 183.016 746.948C213.715 756.835 247.875 755.975 276.996 741.508C293.085 733.736 299.744 721.633 310.266 708.737C340.876 671.217 356.278 617.522 354.898 569.814C352.478 536.221 346.921 497.333 318.788 475.229Z" fill="white"/>
<path fill-rule="evenodd" clip-rule="evenodd" d="M381.417 613.511C376.339 581.988 374.932 549.93 368.281 518.653C362.026 489.221 350.33 461.409 329.894 438.973C311.605 418.898 287.959 404.157 262.575 394.815C213.126 376.617 156.252 380.733 108.416 401.977C63.6409 421.853 27.9282 458.627 7.11291 502.76C-6.41002 531.436 -13.2085 561.922 -16.2292 593.387C-19.579 628.343 -19.9412 663.661 -21.3075 698.74C-21.4721 703.069 -21.7108 707.398 -21.7684 711.728C-21.8342 716.468 -19.9165 720.625 -18.3527 725.036C-18.2457 725.349 -18.0893 725.646 -17.9 725.926C-19.077 726.074 -20.2539 726.246 -21.4309 726.436C-22.7478 726.641 -22.6902 728.781 -21.4309 729.037C-10.7723 731.209 0.18272 731.514 11.0225 732.049C22.2573 732.609 33.5086 732.914 44.7598 733.292C55.7313 733.662 66.7027 734.033 77.6741 734.403C83.4356 734.6 89.197 734.798 94.9585 734.987C97.6993 735.078 100.44 735.177 103.189 735.267C104.555 735.317 105.93 735.357 107.296 735.407C108.407 735.44 110.218 736.148 110.333 735.333C110.539 735.457 110.761 735.563 111 735.638C111.263 735.777 111.519 735.942 111.765 736.123C113.107 737.045 115.14 736.93 116.498 736.123C116.621 736.049 116.753 735.967 116.885 735.884C117.897 735.284 118.605 734.411 119 733.423C124.63 740.222 134.597 732.584 128.836 725.39C125.741 721.522 94.9585 626.68 107.7 554.432L158.795 547.666C168.137 546.72 185.52 544.835 185.52 544.835C185.52 544.835 189.775 530.95 190.994 526.481C191.084 526.151 191.175 525.814 191.273 525.485C192.491 527.634 193.718 529.773 194.952 531.913L201.257 544.728C201.257 544.728 294.313 543.172 317.128 543.321C317.515 543.321 319.35 571.058 318.519 583.272C316.84 607.799 315.054 632.31 312.568 656.772C310.982 672.435 307.158 687.796 301.461 702.232C292.463 725.036 266.337 746.712 240.863 746.712C225.006 746.712 189.175 733.87 183.956 731.276C178.738 728.683 175.629 735.761 180.384 738.592C190.017 744.328 216.571 756.494 240.863 756.494C276.142 756.494 302.774 723.02 306.041 718.222C338.165 716.461 371.022 717.275 403.105 720.46C405.797 720.724 408.118 717.481 407.253 715.003C395.731 682.024 386.965 648.007 381.417 613.511Z" fill="black"/>
<path fill-rule="evenodd" clip-rule="evenodd" d="M202.53 672.438C212.61 660.726 229.585 659.91 243.647 662.839C252.671 664.719 261.458 667.85 270.623 669.01C274.904 669.553 279.231 669.715 283.543 669.635C287.778 669.557 292.02 668.703 296.241 668.862C296.89 668.886 297.135 669.738 296.573 670.084C290.783 673.641 282.982 674.782 276.143 675.477C276.164 675.983 276.195 676.477 276.265 676.896C276.451 678.013 276.622 679.122 276.759 680.247C277.07 682.783 277.417 685.31 277.763 687.841C278.446 692.822 278.661 697.96 279.862 702.855L280.072 703.669C280.35 704.697 280.414 705.625 280.321 706.461L280.599 706.335L281.478 705.91L282.054 705.638C284.156 704.663 286.161 703.954 288.633 704.19C290.514 704.37 292.094 705.653 292.105 707.662C292.152 716.679 280 719.578 273.05 721.304L271.011 721.807C262.164 723.964 253.13 725.856 244.031 726.309C229.428 727.034 213.019 723.006 203.466 711.161C194.553 700.11 192.92 683.606 202.53 672.438ZM268.845 710.322C267.313 696.747 250.631 696.001 245.832 704.609C243.702 692.61 212.199 703.572 214.662 705.958C223.999 715 238.168 715.814 250.349 714.141C256.552 713.289 262.761 711.903 268.845 710.322ZM250.331 674.742L246.137 674.138L244.486 673.91C234.088 672.518 222.395 671.799 213.847 678.465C210.726 680.898 208.969 684.071 208.313 687.481C216.402 686.282 224.521 685.367 232.663 684.606L234.884 684.402C239.979 683.942 245.071 683.458 250.161 682.95L253.779 682.584L257.394 682.209C258.667 682.076 267.242 681.637 268.855 681.932C269.027 680.483 269.251 677.348 269.615 675.938C263.523 676.145 257.457 675.692 251.4 674.887L250.331 674.742ZM269.638 614.065C275.853 617.842 285.323 626.652 278.637 636.018C270.767 644.276 259.435 634.807 253.851 630.525C248.674 627.206 242.856 635.742 247.66 639.617C288.01 669.49 304.384 615.052 272.781 609.623C269.302 609.024 268.009 612.896 269.638 614.065ZM280.76 629.98L281.059 629.817L281.16 629.756C281.335 629.643 281.224 629.655 280.826 629.793L280.528 629.9V630.111C280.605 630.064 280.686 630.028 280.76 629.98ZM201.161 596.415L201.16 596.23C201.172 590.981 204.229 578.998 211.784 578.998C216.505 578.998 219.37 587.154 219.867 595.561L219.884 595.904C220.103 601.13 218.668 612.556 211.784 612.556C204.827 612.556 201.233 601.735 201.161 596.415ZM312.403 594.769L312.404 594.584C312.392 589.335 309.335 577.352 301.779 577.352C297.177 577.352 294.338 585.105 293.739 593.285L293.697 593.915C293.399 598.965 294.741 610.909 301.779 610.909C308.736 610.909 312.331 600.088 312.403 594.769ZM205.472 543.213C211.639 542.276 219.804 544.057 222.679 550.327C223.96 553.121 222.443 556.209 219.214 556.364C211.411 556.738 204.412 555.001 197.563 560.075C194.615 562.26 192.137 565.284 190.057 568.3L189.27 569.448L188.618 570.394C187.206 572.47 185.869 574.726 186.078 577.231C186.139 577.972 185.381 578.676 184.661 578.646C180.172 578.462 179.689 572.834 180.279 569.453C181.377 563.18 184.413 557.291 188.622 552.548C193.042 547.567 198.876 544.217 205.472 543.213ZM290.404 550.827C294.655 548.094 300.094 547.043 305.075 547.446C314.897 548.237 331.374 556.586 329.205 568.582C328.536 572.282 323.39 574.234 320.358 572.181C317.098 569.975 316.304 566.545 313.878 563.661C311.942 561.357 309.489 559.691 306.861 558.271C304.272 556.87 301.276 556.022 298.337 555.712L297.848 555.666C296.079 555.515 287.147 555.556 288.459 558.89C288.715 559.542 287.744 560.059 287.298 559.566C284.56 556.537 287.661 552.59 290.404 550.827Z" fill="black"/>
</g>
<path d="M510.001 335.5L688.675 259.586V2.5H319.675L510.001 335.5Z" fill="white" stroke="black" stroke-width="4"/>
<mask id="mask1_0_190" style="mask-type:alpha" maskUnits="userSpaceOnUse" x="316" y="0" width="375" height="339">
<path d="M510.001 335.5L688.675 259.586V2.5H319.675L510.001 335.5Z" fill="white" stroke="white" stroke-width="4"/>
</mask>
<g mask="url(#mask1_0_190)">
<path fill-rule="evenodd" clip-rule="evenodd" d="M513.934 36.0269C519.995 12.5235 525.569 2.55824 536.335 -5.61087C546.406 -13.2519 561.107 -19.6695 582.558 -24.3574C604.9 -28.2629 605.533 -39.8726 611.135 -58.5322C612.769 -64.1418 620.868 -65.6344 624.363 -61.5911C624.856 -62.1229 625.369 -62.6099 625.901 -63.05C625.425 -65.7253 629.321 -73.3932 629.191 -75.9523C627.833 -102.663 636.571 -116.077 658.382 -121.063C663.125 -122.148 695.343 -122.786 699.968 -121.508C720.186 -115.919 740.09 -98.174 737.044 -76.7978C743.391 -68.5053 749.602 -63.444 759.393 -60.7722C781.184 -58.0059 802.972 -55.5462 824.768 -53.4406C867.433 -46.7503 907.436 -24.1714 934.776 8.75804C937.298 11.7977 938.026 15.9236 935.801 19.1651C937.544 26.631 947.358 44.7409 939.636 49.8594C952.334 80.2231 981.551 138.913 981.605 155.68C981.836 226.118 974.225 317.802 904.705 356.782C901.921 359.518 901.523 362.545 900.318 366.616C897.261 379.439 886.161 388.604 874.012 387.856C814.161 389.185 756.192 381.885 696.34 381.532C669.945 381.376 638.203 385.314 615.274 387.939C592.345 390.563 569.2 388.242 547.196 381.532C545.341 384.452 541.589 386.153 537.784 385.314C514.973 380.784 496.527 366.729 480.461 351.368C475.551 342.439 456.378 316.997 463.999 308.141C457.09 278.94 457.449 247.565 469.726 219.759C467.986 214.662 471.158 209.061 469.726 203.798C468.69 199.989 466.036 198.413 464.701 194.642C462.821 189.334 464.865 182.214 466.981 176.798C467.848 174.099 465.385 171.193 464.701 168.439C461.454 155.447 468.888 156.592 474.248 147.907C474.168 147.88 472.775 141.68 472.781 141.711C471.96 137.285 474.016 131.614 475.809 127.919C477.021 125.421 479.618 123.858 482.198 124.145C479.6 115.327 476.314 107.989 472.781 99.4936C466.532 84.5184 458.623 70.1783 449.65 56.6234C445.976 51.0731 450.911 44.6424 456.857 44.2643C476.103 43.0417 495.139 40.2713 513.934 36.0269Z" fill="white"/>
<path fill-rule="evenodd" clip-rule="evenodd" d="M570.104 149.274C577.801 146.256 586.09 144.588 594.421 143.94C589.935 143.155 585.437 142.397 580.903 142.007C577.739 141.736 574.805 141.764 572.427 144.163C570.841 145.762 570.097 147.82 569.054 149.712C569.394 149.559 569.749 149.413 570.104 149.274ZM487.48 121.056C500.087 121.696 512.708 124.693 524.112 130.123C528.778 132.349 533.006 135.561 534.243 140.846C534.869 143.545 534.716 146.333 534.383 149.059C534.132 151.123 534.07 153.759 532.276 155.157C531.97 155.393 531.643 155.574 531.302 155.706C535.509 157.604 539.515 159.886 543.075 162.236C546.329 164.384 549.674 167.694 551.176 171.428C551.301 171.004 551.426 170.608 551.551 170.232C554.11 162.667 558.053 156.472 564.263 152.306C563.164 151.813 562.406 150.644 562.76 149.031C564.235 142.292 570.459 136.437 577.488 136.855C585.186 137.307 593.454 140.109 600.415 143.648C602.953 143.593 605.485 143.627 607.987 143.739C608.418 143.753 608.398 144.337 607.987 144.385C605.957 144.643 603.926 144.928 601.896 145.262C597.07 146.034 592.258 147.014 587.551 148.231C581.904 149.692 576.063 151.158 570.785 153.71C560.55 158.669 554.214 171.631 555.515 182.909C555.73 184.758 556.447 190.349 559.013 189.772C561.182 189.285 562.044 184.758 562.802 183.083C564.833 178.632 568.49 175.726 572.878 173.758C578.031 171.442 583.545 169.878 588.886 168.056C591.91 167.02 594.935 165.984 597.967 164.954C601.068 163.891 604.017 162.423 607.32 163.167C609.315 163.619 609.545 165.997 608.425 167.361C606.722 169.44 604.191 170.051 601.736 170.907C598.495 172.033 595.262 173.16 592.029 174.286C587.03 176.025 581.793 177.492 576.919 179.62L577.071 179.967C577.468 179.856 577.934 180.253 577.857 180.739C577.127 185.238 576.112 190.44 577.239 194.946C578.128 198.52 581.265 202.477 585.339 201.426C584.699 200.842 584.463 199.834 584.894 198.902C586.508 195.453 607.647 181.838 609.531 186.894C609.594 187.074 609.4 187.206 609.246 187.179C607.64 186.845 604.949 189.584 603.663 190.454C601.806 191.706 599.922 192.929 598.085 194.215C596.076 195.621 594.115 197.095 592.202 198.617C590.7 199.814 589.567 201.058 587.843 201.664C588.746 202.094 589.463 202.894 589.769 203.916C590.547 206.579 592.049 208.839 594.657 210.015C597.39 211.238 600.47 210.466 603.349 210.766C607.271 211.162 610.692 213.026 613.55 215.689C619.551 221.293 622.562 231.168 630.955 233.817C635.969 235.396 641.532 234.401 646.608 233.685C652.275 232.885 657.797 232.252 663.505 233.087C668.971 233.887 674.138 235.778 679.13 238.086C683.81 240.249 688.984 242.697 693.135 245.923C693.99 243.288 694.853 240.68 695.507 237.989C697.05 231.627 697.884 225.146 698.087 218.609C698.274 212.386 697.926 206.135 697.391 199.938C697.127 196.844 696.709 193.763 696.445 190.669C696.376 189.89 696.236 189.056 696.132 188.222C688.72 183.848 680.932 180.497 673.081 177.048C673.06 177.041 673.039 177.026 673.018 177.02C672.775 176.908 672.538 176.804 672.295 176.7C672.302 176.685 672.309 176.672 672.323 176.657C671.426 176.109 670.8 175.378 670.424 174.557C659.111 167.054 649.654 156.812 642.603 144.865C639.647 139.859 636.803 134.664 632.937 130.277C628.821 125.597 623.932 122.815 617.882 121.369C610.81 119.673 603.523 118.657 596.277 118.08C592.321 117.767 587.899 117.28 583.587 117.301C580.583 117.322 577.642 117.579 574.943 118.323C570.945 119.422 568.609 122.461 566.098 125.534C563.699 128.483 561.314 131.438 559.075 134.512C556.955 137.425 554.952 140.436 553.213 143.593C552.17 145.484 551.203 147.432 550.39 149.441C550.105 150.151 549.729 150.957 549.555 151.694C549.382 152.438 549.702 153.224 548.867 153.224C552.309 153.272 552.274 158.773 548.853 158.571C535.46 157.792 554.646 131.647 557.449 128.002C561.419 122.843 565.514 116.112 571.87 113.713C571.96 113.678 572.058 113.644 572.148 113.615C570.298 111.863 568.838 109.764 567.44 107.628C566.001 105.431 564.284 102.914 563.811 100.306C563.512 98.6447 565.577 97.6983 566.557 99.1516C567.983 101.273 568.671 103.957 569.735 106.287C570.82 108.65 572.141 110.883 573.184 113.268C575.694 112.496 578.406 112.142 581.167 112.024C577.683 107.309 571.731 98.2129 571.015 97.0447C567.719 91.6347 564.582 86.0585 561.585 80.474C558.346 74.4243 555.57 68.1243 552.469 62.0051C550.71 58.5359 548.937 55.0375 546.983 51.6719C546.308 50.5176 545.585 49.3633 544.764 48.3132C544.604 48.1053 544.403 47.9315 544.215 47.7361C543.999 47.6179 543.777 47.4858 543.652 47.4169C542.526 46.7702 542.129 45.2682 541.337 44.3149C540.071 42.7788 538.583 42.598 536.677 42.5764C532.617 42.5347 528.541 42.6947 524.487 42.8059C518.528 42.9728 512.576 43.2092 506.623 43.5222C504.822 43.6195 503.028 43.7169 501.227 43.8281C492.57 44.3434 483.92 45.0172 475.29 45.8454C467.655 46.5748 460.02 47.7646 452.378 48.3348C462.725 72.9161 474.198 97.0523 487.189 120.347C487.32 120.583 487.418 120.819 487.48 121.056ZM544.889 184.383C546.558 185.149 548.179 186.1 549.688 187.186C549.437 185.496 549.375 183.715 549.444 181.928C548.199 183.263 546.607 184.028 544.889 184.383ZM473.649 142.098C473.767 142.111 473.878 142.174 473.934 142.292C476.243 147.056 475.277 152.375 471.507 156.109C469.532 158.056 465.228 160.254 465.368 163.452C465.486 166.039 468.302 168.209 469.504 170.343C470.624 172.332 471.041 174.516 470.144 176.672C468.997 179.432 465.791 180.531 464.693 183.243C463.302 186.685 465.562 190.837 467.147 193.833C468.621 196.608 470.527 199.382 471.792 202.316C480.269 206.705 487.855 213.436 494.378 220.272C501.519 227.747 507.645 236.543 518.987 236.321C520.12 236.299 520.983 236.898 521.497 237.725C524.654 237.871 527.818 237.933 530.975 237.948C536.524 237.975 542.073 237.919 547.615 237.746C548.005 236.403 547.72 234.582 547.741 233.448C547.81 229.797 547.845 226.154 547.998 222.503C548.039 221.488 548.081 220.466 548.123 219.45C546.127 223.059 542.233 224.7 537.797 224.45C530.662 224.034 523.486 222.865 516.422 221.815C512.701 221.265 508.988 220.639 505.281 219.972C502.235 219.43 497.938 219.569 495.81 217.128C495.31 216.558 495.282 215.515 496.068 215.132C498.175 214.096 499.503 214.673 501.819 215.119C504.641 215.668 507.472 216.189 510.309 216.677C515.754 217.622 521.212 218.498 526.685 219.27C529.8 219.708 532.922 220.139 536.044 220.479C538.77 220.772 541.844 221.168 544.041 219.117C548.471 214.972 545.988 208.025 543.186 203.839C543.13 203.757 543.13 203.679 543.151 203.61C540.509 202.991 537.873 202.268 535.245 201.76C530.189 200.787 525.099 199.967 520.002 199.237C509.53 197.741 498.988 196.754 488.461 195.76C485.853 195.509 485.825 191.407 488.461 191.65C503.585 193.034 518.785 194.348 533.708 197.262C537.449 197.984 541.163 198.805 544.855 199.73C546.6 200.162 548.471 200.836 550.299 200.857C550.411 200.857 550.523 200.857 550.633 200.849C554.214 200.739 554.736 197.672 552.768 195.12C552.525 194.806 552.274 194.494 552.017 194.195C548.54 190.05 544.209 187.283 539.744 184.418C534.744 183.736 529.758 182.22 524.863 181.108C512.777 178.354 500.692 175.6 488.599 172.854C486.229 172.311 487.236 168.668 489.608 169.203C498.786 171.283 507.965 173.361 517.145 175.44L530.579 178.487C533.263 179.091 536.615 180.308 539.772 180.747C541.329 180.962 542.838 180.99 544.201 180.67C548.603 179.627 548.825 174.126 546.927 170.858C544.799 167.187 540.78 164.892 537.213 162.813C531.031 159.204 524.453 156.61 518.027 153.62C516.887 153.369 515.746 153.119 514.606 152.869C507.972 151.409 500.393 150.692 494.148 148.016C492.278 147.222 493.301 144.274 495.15 144.316C499.996 144.421 505.066 146.145 509.801 147.167C514.926 148.279 520.058 149.385 525.183 150.491C525.697 150.602 528.743 151.575 529.202 151.36C529.494 151.221 529.598 150.206 529.696 149.538C530.009 147.341 530.238 145.033 529.897 142.828C529.146 137.884 525.023 135.561 520.85 133.663C511.56 129.442 501.373 126.8 491.235 125.742C488.898 125.499 486.562 125.347 484.212 125.27C481.452 125.186 479.177 124.699 477.779 127.418C475.582 131.702 474.372 137.21 473.649 142.098ZM486.551 297.405C488.575 290.404 488.024 282.929 489.411 275.788C490.126 272.104 491.103 268.449 492.17 264.852C493.031 261.947 494.467 258.857 494.63 255.825C494.639 255.623 494.401 255.506 494.237 255.599C491.381 257.235 489.188 260.771 487.559 263.545C485.609 266.866 484.121 270.342 482.92 273.998C480.526 281.281 478.561 290.065 481.648 297.405C482.566 299.59 485.793 300.027 486.551 297.405ZM549.11 204.674C547.4 204.508 545.689 204.18 543.978 203.798C545.891 205.662 547.657 207.907 548.638 210.397C548.79 208.485 548.986 206.579 549.242 204.681C549.201 204.681 549.152 204.681 549.11 204.674ZM565.55 350.403C568.567 348.298 570.765 345.355 573.323 342.758C575.839 340.204 571.906 336.27 569.389 338.825C567.207 341.04 565.312 343.807 562.743 345.599C561.507 346.461 560.934 348.019 561.744 349.405C562.461 350.628 564.317 351.263 565.55 350.403ZM582.373 269.499C576.866 267.118 571.45 264.525 565.687 262.81C562.243 261.784 560.785 267.155 564.208 268.173C569.516 269.754 574.494 272.11 579.565 274.302C582.82 275.709 585.65 270.915 582.373 269.499ZM640.526 267.833C641.873 264.51 636.489 263.079 635.162 266.354C633.635 270.125 631.884 273.798 630.356 277.569C629.01 280.891 634.393 282.324 635.72 279.048C637.248 275.277 638.999 271.604 640.526 267.833ZM697.925 334.184C698.822 335.38 700.318 336.028 701.731 335.183C702.915 334.473 703.637 332.588 702.729 331.377C700.078 327.843 697.391 324.352 694.284 321.201C691.765 318.647 687.833 322.583 690.35 325.135C693.125 327.948 695.557 331.028 697.925 334.184ZM706.133 -38.11C703.579 -36.366 701.342 -34.2472 699.161 -32.0672C696.625 -29.5326 700.56 -25.5996 703.096 -28.1342C704.933 -29.9714 706.787 -31.8364 708.941 -33.3064C710.185 -34.1561 710.743 -35.7367 709.939 -37.1121C709.218 -38.3443 707.374 -38.9569 706.133 -38.11ZM622.625 51.4097C624.069 54.3003 625.369 57.1339 625.451 60.4196C625.538 63.9986 631.101 64.0007 631.013 60.4196C630.907 56.1201 629.321 52.3915 627.429 48.6018C625.828 45.394 621.032 48.2151 622.625 51.4097ZM591.986 -20.4865C588.995 -22.4801 586.213 -17.6592 589.177 -15.6829C591.581 -14.0815 593.985 -12.4787 596.388 -10.8765C599.377 -8.88361 602.159 -13.7039 599.196 -15.6801C596.792 -17.2823 594.389 -18.8844 591.986 -20.4865ZM724.881 105.217C725.392 108.753 730.752 107.24 730.246 103.739C729.464 98.3276 728.509 92.9878 727.041 87.7169C726.08 84.2679 720.715 85.7421 721.677 89.196C723.145 94.4669 724.1 99.8066 724.881 105.217ZM744.386 168.941C747.966 168.865 747.967 163.302 744.386 163.378C741.145 163.447 737.96 164.299 734.834 165.08C731.357 165.948 732.84 171.311 736.313 170.444C738.956 169.784 741.646 168.999 744.386 168.941ZM751.586 297.306C752.816 297.905 754.078 298.444 755.321 299.012C757.811 300.151 760.3 301.29 762.788 302.433C767.971 304.812 773.152 307.2 778.327 309.595C788.688 314.391 799.129 319.018 809.515 323.762C820.107 328.6 830.67 333.503 841.22 338.43C846.191 340.751 851.199 342.986 856.197 345.246C860.471 347.179 865.753 350.555 870.445 350.873C870.686 350.89 870.767 350.584 870.629 350.428C868.857 348.412 866.029 347.24 863.7 345.93C861.32 344.59 858.896 343.331 856.483 342.054C851.453 339.388 846.417 336.745 841.338 334.173C831.178 329.032 820.999 323.928 810.818 318.83C800.435 313.631 790.065 308.397 779.591 303.383C774.659 301.021 769.723 298.668 764.784 296.321C762.108 295.05 759.431 293.78 756.754 292.514C755.597 291.966 754.453 291.376 753.27 290.886C751.7 290.236 750.506 290.369 748.885 289.968C746.243 289.316 745.099 292.676 747.128 294.139C748.798 295.344 749.677 296.375 751.586 297.306ZM788.723 354.348C789.294 352.96 788.099 351.274 786.78 350.926C785.201 350.51 783.935 351.47 783.358 352.869C781.834 356.578 779.661 359.982 776.865 362.857C774.366 365.426 778.298 369.361 780.799 366.791C784.303 363.187 786.82 358.976 788.723 354.348ZM816.045 265.055C818.581 262.519 814.647 258.586 812.111 261.122L804.902 268.331C802.366 270.867 806.301 274.8 808.835 272.264L816.045 265.055ZM890.011 253.301C895.195 254.821 901.24 256.219 904.774 260.641C904.946 260.857 905.236 260.579 905.133 260.364C900.609 250.985 887.635 247.695 878.652 244.409C872.298 242.085 865.779 240.157 859.205 238.435C859.862 230.936 858.05 222.898 857.42 215.435C856.748 207.468 856.2 199.479 855.919 191.487C855.632 183.334 855.563 175.126 855.831 166.97C856.098 158.845 857.153 150.819 857.615 142.721C857.659 141.938 856.569 141.9 856.334 142.547C853.604 150.062 852.438 158.387 851.549 166.31C850.634 174.473 850.33 182.613 850.447 190.823C850.568 199.265 851.059 207.686 851.733 216.101C852.052 220.089 852.422 224.073 852.772 228.058C853.039 231.1 853.163 234.117 853.783 237.062C849.818 236.089 845.844 235.169 841.883 234.274C829.251 231.423 816.566 228.778 803.987 225.695C797.812 224.183 791.725 222.371 785.578 220.762C779.79 219.247 773.68 217.409 767.738 216.734C765.617 216.492 765.347 219.393 766.751 220.377C771.581 223.769 777.996 226.13 783.575 228.028C789.174 229.933 794.994 231.304 800.733 232.715C812.701 235.658 824.782 238.065 836.846 240.572C848.892 243.076 860.962 245.561 872.873 248.65C878.609 250.138 884.325 251.632 890.011 253.301ZM918.415 104.476C921.512 106.294 924.308 101.485 921.222 99.6725C917.184 97.3026 912.881 95.5218 908.542 93.7848C905.213 92.4525 903.78 97.8346 907.063 99.1495C910.962 100.71 914.787 102.347 918.415 104.476ZM929.63 311.15C932.735 312.951 935.534 308.142 932.437 306.347C928.088 303.826 923.326 302.144 918.819 299.939C915.613 298.368 912.797 303.169 916.012 304.742C920.518 306.948 925.281 308.629 929.63 311.15ZM934.674 193.832C931.672 196.685 927.664 198.027 923.886 199.526C920.591 200.831 922.036 206.209 925.365 204.89C930.072 203.023 934.867 201.319 938.608 197.765C941.21 195.294 937.269 191.367 934.674 193.832ZM901.456 34.506C898.155 35.8008 899.6 41.1788 902.935 39.8708C906.633 38.4202 910.452 37.316 914.15 35.8654C917.45 34.5707 916.005 29.1934 912.671 30.5007C908.973 31.9512 905.154 33.0555 901.456 34.506ZM842.855 -28.7781C839.347 -29.3692 837.854 -24.0079 841.376 -23.4134C845.746 -22.6756 850.049 -21.8126 854.193 -20.2091C857.54 -18.9143 858.976 -24.2951 855.672 -25.5732C851.527 -27.1767 847.224 -28.0403 842.855 -28.7781ZM823.492 125.304C826.708 123.722 823.887 118.927 820.685 120.501C817.311 122.159 813.816 123.442 810.134 124.225C806.629 124.972 808.122 130.334 811.613 129.59C815.756 128.707 819.698 127.169 823.492 125.304ZM805.205 38.5113C801.742 37.5628 800.277 42.9304 803.726 43.8761C809.793 45.538 816.039 46.4024 822.151 47.8814C825.634 48.7242 827.108 43.3587 823.63 42.5173C817.518 41.0376 811.271 40.1746 805.205 38.5113ZM727.625 11.2751C724.104 11.9267 725.605 17.2872 729.104 16.6399C732.829 15.9507 736.604 15.9396 740.38 15.9375C743.966 15.9361 743.96 10.3732 740.38 10.3746C736.09 10.3767 731.855 10.4928 727.625 11.2751ZM474.609 40.338C483.697 39.4688 492.799 38.7735 501.916 38.2519C502.341 38.2304 502.757 38.2033 503.182 38.1817C503.23 38.0851 503.292 37.9939 503.356 37.8966C506.331 33.5297 508.522 29.1635 510.42 24.2256C512.235 19.525 513.994 14.6789 516.79 10.4372C519.978 5.60438 524.282 1.82297 529 -1.45431C531.861 0.46978 534.517 2.72276 536.946 5.11066C539.503 7.62303 543.438 3.69003 540.88 1.17696C538.721 -0.945297 536.416 -2.90555 533.98 -4.67665C536.793 -6.38586 539.663 -7.99216 542.463 -9.59012C552.956 -15.5765 563.699 -21.1124 574.665 -26.174C579.762 -28.532 584.922 -30.625 590.116 -32.7459C592.912 -33.8856 595.672 -35.3535 598.468 -36.674C598.266 -38.6496 598.857 -40.8608 600.373 -42.1612C601.492 -43.1138 602.362 -43.4685 603.697 -44.1423C603.996 -44.2473 604.177 -44.3099 604.26 -44.3446C604.197 -44.3307 604.017 -44.2751 603.718 -44.1778C603.008 -43.8502 602.953 -43.9483 603.551 -44.4629C603.585 -45.5887 605.804 -47.9668 606.311 -49.1281C608.078 -53.1132 608.627 -57.3272 611.235 -60.957C614.83 -65.9567 620.865 -67.8474 626.492 -66.1514C627.075 -72.1663 627.228 -78.4448 629.495 -83.8138C629.557 -83.9591 629.759 -84.0224 629.85 -83.8624C632.214 -79.8356 632.415 -75.3511 632.596 -70.7061C632.77 -66.3461 632.604 -61.8888 632.033 -57.5566C632.395 -57.2785 632.763 -57.0136 633.146 -56.757C634.94 -55.5748 636.873 -54.6639 638.903 -53.9887C642.77 -52.7099 646.824 -52.1536 650.878 -51.9589C661.343 -51.4583 672.128 -52.5152 682.419 -54.3093C692.829 -56.1242 708.788 -58.85 718.05 -64.0583C724.163 -67.4928 729.802 -71.6865 735.518 -75.7475C733.446 -82.423 732.917 -89.5992 735.003 -95.2387C735.254 -95.9132 736.31 -96.0383 736.512 -95.2387C737.819 -89.8565 738.202 -84.4465 739.94 -79.127C739.968 -79.0505 739.996 -78.9664 740.024 -78.8906C740.566 -79.2584 741.109 -79.6207 741.651 -79.9823C742.903 -80.8098 744.606 -80.1902 745.357 -79.0088C757.367 -60.0878 776.385 -59.003 796.356 -55.6228C818.212 -51.9242 840.178 -47.9327 861.192 -40.694C881.288 -33.7674 900.494 -23.6845 915.709 -8.62286C919.153 -5.21278 922.374 -1.57948 925.414 2.21376C922.472 2.58439 919.555 3.16154 916.676 4.06622C913.267 5.13708 914.732 10.506 918.155 9.4303C921.856 8.26764 925.597 7.69257 929.377 7.40608C939.716 21.5485 947.776 37.5844 954.747 53.3685C968.116 83.6317 976.819 115.861 980.824 148.673C978.625 147.355 976.387 146.1 974.092 144.933C970.905 143.312 968.094 148.113 971.285 149.736C974.828 151.539 978.27 153.525 981.605 155.68C983.062 170.042 983.627 184.498 983.285 198.93C982.471 233.337 977.826 268.752 967.319 301.58C962.166 317.692 955.338 333.672 945.164 347.288C940.561 353.455 935.332 359.018 929.171 363.656C926.188 365.909 923.031 367.919 919.7 369.615C915.41 371.813 909.819 372.536 906.12 375.644C904.903 376.667 903.964 378.015 903.255 379.538C903.665 382.431 903.714 385.331 902.921 388.223C902.67 389.128 901.989 389.864 901.148 390.219C901.134 390.469 901.134 390.713 901.134 390.949C901.134 391.06 900.967 391.088 900.946 390.978C900.911 390.761 900.876 390.546 900.842 390.324C900.57 390.414 900.285 390.456 899.993 390.456C889.431 390.496 878.855 390.238 868.278 389.88C869.096 387.374 869.982 384.89 870.832 382.385C871.987 378.982 866.613 377.535 865.468 380.907C864.473 383.836 863.433 386.739 862.507 389.678C851.175 389.257 839.846 388.75 828.537 388.377C804.484 387.577 780.439 387.312 756.38 386.805C719.017 386.013 681.382 384.392 643.961 385.978C642.667 383.231 641.219 380.548 639.845 377.839C638.225 374.641 633.427 377.46 635.042 380.647C635.997 382.529 636.985 384.388 637.925 386.267C630.346 386.66 622.775 387.18 615.22 387.89C602.328 389.099 589.56 391.248 576.682 392.584C563.589 393.946 550.779 393.704 537.79 391.541C535.453 391.152 534.076 389.739 533.506 387.987C533.486 387.98 533.471 387.967 533.458 387.945C532.791 387.166 532.164 386.52 531.518 385.956C530.746 385.456 529.911 385.032 528.931 384.656C527.102 383.961 525.197 383.536 523.263 383.251C521.136 382.932 518.98 382.904 516.852 382.64C515.059 382.411 513.306 382.069 511.554 381.653C508.403 380.902 505.413 379.921 502.437 378.62C499.843 377.487 497.501 375.86 495.289 374.086C490.713 370.742 486.75 366.473 483.287 362.036C481.27 359.442 479.372 356.751 477.647 353.949C474.643 349.095 472.084 344.053 469.498 338.97C468.559 337.464 467.702 335.922 466.919 334.347C471.974 332.857 477.078 331.643 482.438 331.557C486.02 331.499 486.02 325.936 482.438 325.994C476.291 326.092 470.477 327.528 464.701 329.239C464.419 328.491 464.149 327.738 463.9 326.975C463.211 325.384 462.641 323.749 462.168 322.094C461.891 321.343 461.612 320.592 461.334 319.841C460.708 317.24 460.082 314.632 459.45 312.025C458.191 307.853 457.197 303.618 456.466 299.327C455.854 296.504 455.382 293.66 455.062 290.781C454.088 283.807 453.295 276.846 453.24 269.795C453.323 265.449 453.601 261.11 454.074 256.792C454.276 253.857 454.617 250.937 455.076 248.037C455.674 243.726 456.265 239.457 457.259 235.2C458.003 232.322 458.747 229.443 459.491 226.564C461.348 220.564 463.538 214.68 466.063 208.929C466.202 208.569 466.905 207.775 467.328 207.768C467.648 207.761 468.094 208.053 467.948 208.443C467.933 208.477 467.92 208.519 467.905 208.554C468.051 208.227 468.19 207.893 468.336 207.567C468.461 207.261 468.948 206.649 469.324 206.656C469.345 206.656 469.366 206.656 469.393 206.663C469.296 206.594 469.206 206.503 469.115 206.399C466.619 203.444 464.999 199.556 463.211 196.135C461.73 193.311 460.333 190.335 459.929 187.144C459.575 184.342 460.054 181.581 461.814 179.314C463.816 176.734 467.585 175.524 465.492 171.797C463.114 167.555 459.616 163.877 463.1 159.058C464.873 156.603 467.683 155.255 469.769 153.119C472.168 150.651 473.309 147.348 473.246 143.975C473.1 144.059 472.905 144.018 472.835 143.808C470.819 137.717 472.279 131.028 474.344 125.096C475.471 121.877 477.857 120.993 480.63 120.834C468.615 97.3652 457.371 73.5203 447.35 49.1268C447.016 48.3271 446.689 47.5282 446.363 46.7278C445.876 45.5317 446.905 43.94 448.094 43.6751C456.758 41.7767 465.784 41.1718 474.609 40.338Z" fill="black"/>
</g>
<path d="M488.675 342.831L298.048 3.5H2.67488V551.5L488.675 342.831Z" fill="white" stroke="black" stroke-width="4"/>
<mask id="mask2_0_190" style="mask-type:alpha" maskUnits="userSpaceOnUse" x="0" y="1" width="492" height="554">
<path d="M488.675 342.831L298.048 3.5H2.67488V551.5L488.675 342.831Z" fill="white" stroke="white" stroke-width="4"/>
</mask>
<g mask="url(#mask2_0_190)">
<path fill-rule="evenodd" clip-rule="evenodd" d="M223.631 336.736C218.593 334.94 213.738 332.866 209.314 329.815C196.561 320.322 188.246 306.037 180.389 292.503C169.322 272.818 161.438 251.843 155.988 229.961C153.646 220.56 152.85 209.66 147.53 201.325C135.468 183.872 100.1 186.133 81.3188 189.197C68.7421 191.422 66.1427 205.497 63.2862 215.911C60.9078 224.565 59.3508 233.316 58.0438 242.185C54.9344 244.229 51.4242 245.889 48.0782 247.336C11.6133 258.517 5.20431 279.247 -8.72345 311.267C-32.2473 357.809 -96.0792 376.032 -105.721 431.112C-111.934 467.476 -94.2676 501.686 -76.054 531.917C-59.0917 564.937 -35.4112 580.786 2.30088 572.984C37.6728 565.05 71.667 551.776 106.416 541.519C123.247 537.382 140.051 526.618 157.755 530.371C194.235 538.564 231.716 542.416 269.102 541.352C321.592 543.475 321.584 493.096 316.197 454.082C312.423 393.367 281.799 354.382 223.631 336.736Z" fill="white"/>
<path fill-rule="evenodd" clip-rule="evenodd" d="M227.14 424.59C231.527 427.491 235.215 431.889 238.177 436.517C225.814 435.231 213.472 433.748 201.157 432.06C202.77 431.029 204.397 430.022 206.061 429.07C212.133 425.649 220.36 420.107 227.14 424.59ZM21.7335 461.136C19.4682 460.249 18.5916 456.795 17.7087 454.815C14.9404 448.606 12.4141 442.292 9.78561 436.022C19.7657 433.178 29.4709 430.021 39.8096 428.505C50.9261 426.876 62.2069 426.481 73.4261 426.848C96.1512 427.589 118.665 431.303 141.007 435.285C163.323 439.263 185.638 443.085 208.11 446.084C230.127 449.022 252.214 451.173 274.341 453.06C278.64 453.427 285.809 454.973 289.266 451.59C292.004 448.911 292.092 443.969 288.667 441.79C286.533 440.432 283.442 440.413 281.004 440.099C277.934 439.704 274.852 439.442 271.764 439.237C270.505 439.154 269.247 439.077 267.988 439.001C278.092 435.191 288.645 433.114 299.598 433.693C300.218 437.456 303.009 441.328 304.536 444.431C307.204 449.849 309.283 455.333 310.648 461.225C313.501 473.539 313.625 486.32 312.819 498.88C312.079 509.352 310.489 520.935 302.274 528.352C296.055 533.967 287.28 536.047 279.14 536.7C269.678 537.46 260.07 536.649 250.688 535.381C237.529 533.601 224.309 531.249 211.408 528.095C186.423 521.988 162.473 512.27 140.378 499.094C129.602 492.67 119.321 485.442 108.397 479.261C97.2667 472.962 85.4233 468.076 72.987 465.042C59.0697 461.647 44.5206 460.198 30.2164 461.035C27.7341 461.18 24.1479 462.081 21.7335 461.136ZM5.6055 454.831C7.06793 459.577 8.18696 464.996 11.3085 468.983C14.4005 472.935 19.0651 474.33 23.8974 474.681C29.724 475.104 35.619 474.833 41.4583 475.05C53.4346 475.495 65.2467 477.44 76.6957 481.008C87.365 484.334 97.2691 489.522 106.81 495.276C115.632 500.598 124.195 506.311 133.02 511.617C130.672 512.694 128.349 513.859 126.015 514.873C121.117 516.999 116.19 519.051 111.24 521.052C101.48 524.997 91.6787 528.846 81.7768 532.421C61.8108 539.632 41.5164 545.931 20.9777 551.297C11.1821 553.856 1.24716 556.846 -8.92964 557.271C-17.9538 557.649 -26.3125 555.098 -33.5905 549.732C-48.686 538.604 -60.6959 522.541 -70.4046 506.696C-76.1726 497.283 -81.2062 487.392 -85.3696 477.165C-87.4754 471.994 -89.3851 466.742 -91.1039 461.43C-91.9103 458.935 -92.6748 456.427 -93.3988 453.907C-93.7173 452.799 -94.0224 451.688 -94.3247 450.575C-78.8886 445.865 -63.2693 441.612 -47.2833 439.252C-38.7482 437.991 -30.0994 437.353 -21.4709 437.446C-17.188 437.492 -12.9074 437.723 -8.64713 438.165C-6.35396 438.403 -4.07009 438.709 -1.79607 439.089C-0.856295 439.245 0.109571 439.476 1.07835 439.646C2.5582 444.716 4.05023 449.783 5.6055 454.831ZM324.688 434.67C325.52 432.987 325.871 431.332 326.169 429.5C326.396 428.102 327 426.135 326.471 424.321C325.879 422.288 324.267 420.471 323.11 418.738C321.832 416.822 320.555 414.905 319.28 412.988C316.729 409.153 314.184 405.314 311.644 401.473C301.267 385.786 290.962 370.054 280.64 354.332C271.48 340.38 262.474 326.302 253.036 312.538C244.964 300.767 236.167 289.191 225.12 280.037C211.151 268.463 194.519 263.011 177.145 258.756C175.247 256.787 172.713 255.711 170.004 255.929C166.176 251.588 163.134 248.556 161.755 243.036C161.095 240.392 161.302 232.962 158.727 231.398C155.668 229.539 154.07 231.999 153.227 234.772C150.404 244.048 153.644 256.519 161.098 265.81C157.957 276.665 153.793 292.091 146.365 300.786C138.411 310.098 127.41 312.996 115.541 313.187C92.9067 313.551 70.2959 305.139 53.0314 290.56C47.7837 286.129 42.9103 281.18 38.5009 275.917C35.1937 271.968 31.2815 265.874 28.6942 261.268C28.6942 259.473 26.5749 257.596 48.1509 256.146C69.727 254.695 71.3633 225.152 71.843 221.132C72.2329 217.867 73.8908 212.799 71.5901 210.137C70.6138 209.006 68.6101 208.824 67.3722 209.592C65.0378 211.042 64.2709 214.749 63.5371 217.266C62.5091 220.792 59.1486 242.678 52.7807 245.212C49.7996 246.398 46.3804 246.42 43.227 246.639C39.3327 246.911 35.4304 247.11 31.5518 247.564C30.1212 247.731 28.5608 248.194 27.1494 248.207C26.2311 248.216 25.2838 247.769 24.3962 247.456C21.4005 246.398 18.4072 247.192 15.321 247.606C-11.9648 251.273 -40.0599 259.642 -63.3338 274.701C-83.8475 287.974 -98.2996 307.063 -107.836 329.38C-117.566 352.157 -123.143 376.786 -127.817 401.032C-129.383 409.156 -130.75 417.318 -131.925 425.507C-133.06 433.42 -134.48 441.51 -134.82 449.504C-134.955 452.666 -134.199 455.604 -133.036 458.493C-131.726 461.745 -128.63 463.027 -125.66 464.545C-119.142 467.88 -112.265 470.466 -105.18 472.297C-100.852 480.171 -97.2096 488.352 -94.2824 496.843C-95.3684 498.995 -95.391 502.208 -95.5998 504.299C-96.1179 509.507 -96.3395 514.742 -96.3859 519.973C-96.4793 530.458 -95.8487 540.933 -95.3544 551.403C-94.8532 562.021 -93.1872 603.915 -92.9157 609.031C-92.7045 613.006 -92.9888 618.565 -90.8952 622.093C-87.6779 627.516 -79.7374 627.334 -76.0595 622.936C15.321 642.581 187.091 636.664 256.271 626.78C265.272 625.494 262.445 626.921 264.735 624.647C266.452 622.939 267.914 620.015 268.389 617.665C269.024 614.527 267.999 611.688 266.203 609.15C264.315 606.481 263.971 602.159 263.27 598.986C261.611 591.485 260.787 558.541 260.012 554.89C259.771 553.753 259.537 552.55 259.255 551.347C271.945 552.549 285.167 552.549 297.24 548.305C304.085 545.898 310.47 542.117 315.385 536.719C321.335 530.183 324.646 521.955 326.349 513.367C328.546 502.292 329.012 490.82 328.58 479.562C327.981 466.257 325.774 452.764 320.296 440.548C322.099 438.874 323.609 436.855 324.688 434.67Z" fill="black"/>
<path fill-rule="evenodd" clip-rule="evenodd" d="M221.872 100.677C219.673 64.5936 207.964 23.684 173.504 5.96754C97.5336 -24.5217 -2.35128 52.2588 -7.63952 130.696C-9.4831 157.546 5.42446 186.884 32.6668 194.349C38.7237 202.374 47.8835 207.275 56.9245 211.528C164.608 267.396 234.166 221.981 221.872 100.677Z" fill="white"/>
<path fill-rule="evenodd" clip-rule="evenodd" d="M246.404 78.2314C242.598 67.6618 238.578 57.1735 234.349 46.7664C230.23 36.6378 226.51 26.2902 221.395 16.6415C190.847 -40.9862 135.296 -40.9862 106.581 -33.4564C91.6894 -39.8724 63.7976 -38.0626 48.2917 -32.273C23.1894 -22.9002 -7.4106 13.9701 -17.8728 30.5356C-40.972 67.1107 -55.3876 115.791 -40.0439 158.056C-38.0384 163.579 -35.4807 168.695 -32.6011 173.626C-34.4151 176.084 -36.5029 178.413 -38.8158 180.701C-45.6889 187.501 -52.562 194.077 -58.4993 201.746C-64.3996 209.368 -69.291 217.474 -72.9324 226.41C-79.7985 243.263 -80.1292 262.346 -71.0517 278.428C-63.1541 292.42 -49.1637 302.839 -33.4016 303.833C-32.5924 303.945 -31.782 304.048 -30.9681 304.13C-28.8797 307.57 -26.3331 310.738 -23.4267 313.499C-14.5221 321.969 6.70396 326.314 18.8108 326.592C19.4315 327.091 20.058 327.59 20.6845 328.083C28.0925 333.913 35.8659 339.795 44.3702 343.943C50.1307 346.756 57.6836 349.106 63.6935 347.076C66.42 348.897 70.8926 348.514 73.5959 347.023C78.0395 344.575 81.6536 340.166 83.8522 335.653C89.1834 324.695 87.9013 312.704 86.5323 300.998C85.024 288.067 83.5738 275.131 82.1003 262.2C80.9459 252.089 79.7393 241.81 76.6647 232.07C75.0752 227.023 72.9926 222.173 70.3009 217.613C70.3706 217.23 70.3589 216.848 70.2487 216.488C69.367 213.622 67.5454 212.12 65.3874 210.171C65.109 209.921 64.8305 209.666 64.5579 209.405C63.4789 208.175 62.3245 207.032 61.0889 206.063C60.6132 205.582 60.1433 205.095 59.6734 204.607C55.7693 200.518 52.0798 196.219 48.8022 191.613C45.6232 187.146 42.7517 182.482 40.0194 177.731C37.2407 172.899 35.4018 167.568 32.6289 162.77C32.391 162.358 31.7877 162.277 31.4513 162.619C30.5927 163.507 30.0416 164.493 30.146 165.531L29.7167 165.595C29.5543 164.029 28.1099 162.753 26.1491 163.095C23.2138 163.605 20.8005 163.797 18.2597 162.822C18.7063 159.858 19.1182 156.888 19.5243 153.912C20.2668 148.436 20.9571 142.942 21.5489 137.449C22.9817 137.791 24.403 138.284 25.7952 138.91C27.7792 139.798 29.6529 140.993 31.254 142.461C32.8319 143.911 33.9225 145.866 35.8485 146.875C38.0645 148.03 40.7387 146.121 40.089 143.615C38.7722 138.551 31.3178 135.65 26.706 134.693C25.1223 134.362 23.5038 134.223 21.8853 134.258C22.2508 130.731 22.5756 127.204 22.8425 123.671C22.9701 122 23.0861 120.33 23.1964 118.653C26.7814 117.568 30.6217 117.243 34.3518 117.754C35.5816 118.734 36.8114 119.703 38.0006 120.683C41.7771 123.804 45.5362 126.943 49.2489 130.139C49.5854 130.423 49.916 130.708 50.2525 130.998C52.4569 132.895 55.2066 131.015 54.8353 128.329C51.8072 106.32 65.2888 88.8125 81.0735 75.2496C98.5463 60.2307 130.313 58.4818 151.092 32.4668C160.662 34.4146 182.029 40.1996 190.847 54.2498C203.192 73.9386 201.579 91.5796 202.519 113.914C203.458 136.265 205.848 159.58 200.772 181.618C196.091 201.939 183.416 219.301 163.75 227.284C163.263 227.481 162.77 227.672 162.277 227.858C152.107 231.693 141.01 232.777 130.313 230.759C118.473 228.519 108.588 223.101 98.7377 216.436C98.1692 216.059 97.3397 216.836 97.7689 217.404C110.752 234.61 136.253 240.359 156.481 235.817C157.427 235.602 158.367 235.37 159.301 235.115C154.776 248.127 155.687 262.409 161.581 275.079C165.125 282.701 170.532 289.297 177.116 294.501C184.373 300.232 193.376 304.861 198.411 312.907C203.023 320.28 201.654 328.564 193.759 332.822C191.769 333.901 191.004 337.388 192.976 338.919C193.73 339.499 194.484 340.091 195.256 340.671C199.676 344.007 211.818 350.272 213.784 350.504C231.245 352.575 242.987 339.755 250.511 324.631C259.346 306.88 257.049 285.248 247.314 268.344C239.506 254.781 224.128 241.415 230.242 224.25C232.423 218.118 236.884 212.891 241.217 208.169C246.16 202.792 251.474 197.756 256.213 192.187C260.924 186.659 265.1 180.643 267.432 173.705C270.838 163.565 269.144 152.601 266.585 142.478C261.103 120.747 253.986 99.3066 246.404 78.2314Z" fill="black"/>
<path fill-rule="evenodd" clip-rule="evenodd" d="M162.783 191.235C158.509 192.473 153.922 192.584 149.566 191.305C145.615 190.146 141.558 187.594 138.651 184.218C136.067 181.218 134.395 177.573 134.46 173.682C134.468 173.238 134.627 172.867 134.871 172.579C135.134 172.269 135.502 172.057 135.895 171.964C136.3 171.869 136.728 171.903 137.093 172.068C137.423 172.218 137.705 172.473 137.882 172.845C138.329 173.432 138.774 174.01 139.221 174.573C142.814 179.009 146.294 182.325 151.697 183.514C154.629 184.16 157.556 183.874 160.243 182.889C163.118 181.835 165.718 179.982 167.755 177.61C168.676 176.538 169.762 176.101 170.825 176.093C172.029 176.085 173.22 176.645 174.117 177.539C174.998 178.418 175.588 179.613 175.642 180.863C175.689 181.96 175.331 183.106 174.379 184.128C171.243 187.495 167.18 189.962 162.783 191.235ZM162.651 135.666C167.032 138.329 173.706 144.538 168.994 151.139C163.447 156.959 155.46 150.286 151.525 147.267C147.875 144.928 143.775 150.944 147.161 153.676C175.6 174.731 187.141 136.362 164.867 132.535C162.414 132.114 161.503 134.842 162.651 135.666ZM121.673 123.949C120.265 123.049 118.609 122.74 116.773 123.575C115.339 124.227 112.823 126.402 111.072 129.261C109.874 131.216 109.025 133.51 109.202 135.9C109.243 136.455 109.038 136.864 108.714 137.167C108.459 137.406 108.09 137.582 107.656 137.636C107.288 137.683 106.876 137.641 106.542 137.536C105.904 137.338 105.567 136.924 105.44 136.587C104.214 133.331 104.743 129.698 106.116 126.421C107.971 121.997 111.338 118.292 113.544 117.098C117.319 115.053 121.773 114.959 125.553 117.042C128.771 118.815 130.784 121.677 132.785 124.595C133.21 125.216 133.632 125.831 134.069 126.436C134.943 127.648 135.031 128.851 134.692 129.881C134.317 131.023 133.36 131.987 132.164 132.491C131.058 132.958 129.774 133.023 128.639 132.544C127.679 132.14 126.799 131.351 126.242 130.013C125.304 127.759 123.741 125.272 121.673 123.949ZM193.18 128.964C192.215 129.467 191.461 129.618 190.391 129.298C189.8 129.12 189.215 128.779 188.758 128.322C188.304 127.868 187.977 127.304 187.849 126.678C187.537 125.134 186.692 123.688 185.487 122.746C184.458 121.94 183.159 121.513 181.718 121.754C180.163 122.014 178.682 123.011 177.661 124.187C177.32 124.58 177.053 125.027 176.784 125.471C176.281 126.301 175.793 127.072 175.1 127.682C174.837 127.913 174.441 128.074 174.057 128.074C173.901 128.074 173.743 128.049 173.592 128.002C172.045 126.448 171.747 125.27 171.797 124.101C171.849 122.876 172.332 121.635 173.113 120.477C174.945 117.761 178.423 115.534 180.77 115.029C183.984 114.339 187.176 115.168 189.735 116.963C192.368 118.81 194.319 121.678 194.928 124.91C195.074 125.688 195.012 126.528 194.715 127.257C194.426 127.968 193.921 128.578 193.18 128.964ZM128.761 94.9921C126.832 96.8714 124.549 97.1624 122.24 97.4214C120.957 97.5666 119.932 97.6836 118.924 97.9111C116.153 98.5365 113.414 99.4785 110.916 100.835C108.304 102.253 105.457 103.964 103.409 106.155C102.922 106.676 102.463 107.223 102.004 107.772C101.585 108.272 101.181 108.753 100.755 109.217C100.266 109.75 99.8024 110.309 99.3408 110.866C99.0553 111.336 98.999 111.452 98.9415 111.572C98.855 111.753 98.7544 111.956 98.6394 112.173C98.482 112.47 98.2977 112.796 98.1046 113.091C97.7834 113.631 97.611 113.779 97.4621 113.846C97.2149 113.956 96.9806 114.01 96.7532 113.981C96.54 113.953 96.3391 113.851 96.1407 113.683C95.1505 112.847 94.8584 111.474 94.8883 110.016C94.9338 107.804 95.7496 105.355 96.5016 103.85C98.2503 100.352 100.675 96.7159 103.591 94.1052C106.919 91.1253 110.559 88.8693 114.741 87.3147C117.339 86.3483 120.348 85.4613 123.179 85.5733C125.217 85.654 127.162 86.2597 128.768 87.7723C129.755 88.7009 130.228 90.0217 130.228 91.3416C130.228 92.6878 129.737 94.0419 128.761 94.9921ZM197.103 112.201C196.98 112.402 196.81 112.54 196.621 112.624C196.423 112.711 196.202 112.736 195.99 112.7C195.779 112.665 195.578 112.569 195.419 112.423C195.266 112.282 195.15 112.096 195.098 111.868C193.817 106.244 191.331 102.059 186.023 99.3609C183.413 98.0334 180.41 97.19 177.569 96.5175C176.743 96.3221 175.87 96.1954 174.991 96.0671C172.237 95.665 169.463 95.2044 167.667 92.9781C166.585 91.637 166.131 89.922 166.388 88.3535C166.63 86.8767 167.493 85.5225 169.061 84.711C172.967 82.6917 177.82 84.6732 181.764 86.3611C182.057 86.4864 182.344 86.6093 182.625 86.7279C186.482 88.3559 190 90.5049 192.891 93.5781C195.186 96.0162 197.311 99.6205 198.168 103.328C198.88 106.413 198.712 109.562 197.103 112.201Z" fill="black"/>
</g>
</svg>
