<svg width="640" height="867" viewBox="0 0 640 867" fill="none" xmlns="http://www.w3.org/2000/svg">
<path d="M279 803H604V397L349.598 506.29L279 803Z" fill="#0ECCB5" stroke="black" stroke-width="4"/>
<path fill-rule="evenodd" clip-rule="evenodd" d="M551.373 645.441C548.603 634.704 546.056 630.151 541.135 626.419C536.533 622.928 529.815 619.996 520.012 617.855C509.802 616.07 509.512 610.767 506.952 602.242C506.205 599.679 502.504 598.997 500.907 600.844C500.682 600.602 500.447 600.379 500.204 600.178C500.421 598.956 498.641 595.453 498.7 594.284C499.321 582.081 495.328 575.953 485.36 573.675C483.193 573.179 468.469 572.888 466.356 573.472C457.116 576.025 448.02 584.132 449.412 593.897C446.512 597.686 443.673 599.998 439.198 601.219C429.24 602.482 419.283 603.606 409.322 604.568C389.824 607.624 371.544 617.94 359.049 632.983C357.897 634.372 357.564 636.257 358.581 637.738C357.784 641.149 353.299 649.422 356.828 651.76C351.025 665.632 337.673 692.444 337.648 700.104C337.543 732.284 341.021 774.169 372.792 791.977C374.064 793.227 374.246 794.61 374.796 796.47C376.193 802.328 381.266 806.515 386.818 806.173C414.17 806.781 440.662 803.446 468.014 803.284C480.076 803.213 494.582 805.012 505.061 806.211C515.539 807.41 526.116 806.35 536.172 803.284C537.02 804.618 538.734 805.396 540.473 805.012C550.898 802.942 559.328 796.522 566.67 789.504C568.914 785.425 577.676 773.801 574.193 769.756C577.35 756.416 577.186 742.082 571.576 729.379C572.371 727.05 570.921 724.491 571.576 722.087C572.049 720.347 573.262 719.627 573.872 717.904C574.731 715.479 573.797 712.226 572.83 709.752C572.434 708.519 573.559 707.192 573.872 705.933C575.356 699.998 571.958 700.521 569.509 696.553C569.546 696.541 570.183 693.709 570.18 693.723C570.555 691.7 569.615 689.11 568.796 687.422C568.242 686.281 567.055 685.567 565.876 685.697C567.063 681.669 568.565 678.317 570.18 674.436C573.035 667.594 576.65 661.043 580.75 654.851C582.43 652.315 580.174 649.377 577.457 649.204C568.661 648.646 559.962 647.38 551.373 645.441Z" fill="white"/>
<path fill-rule="evenodd" clip-rule="evenodd" d="M525.703 697.178C522.186 695.799 518.398 695.037 514.591 694.741C516.64 694.382 518.696 694.036 520.768 693.858C522.214 693.734 523.555 693.747 524.642 694.843C525.367 695.573 525.707 696.514 526.183 697.378C526.027 697.308 525.865 697.241 525.703 697.178ZM563.462 684.286C557.701 684.579 551.933 685.948 546.721 688.429C544.589 689.445 542.657 690.913 542.091 693.327C541.805 694.56 541.875 695.834 542.027 697.079C542.142 698.023 542.171 699.227 542.991 699.865C543.131 699.973 543.28 700.056 543.436 700.116C541.513 700.983 539.682 702.026 538.055 703.099C536.568 704.081 535.04 705.593 534.353 707.299C534.296 707.105 534.239 706.924 534.182 706.752C533.012 703.296 531.211 700.466 528.373 698.563C528.875 698.337 529.221 697.803 529.059 697.067C528.385 693.988 525.541 691.313 522.329 691.504C518.811 691.71 515.032 692.991 511.851 694.608C510.691 694.582 509.534 694.598 508.391 694.649C508.194 694.655 508.203 694.922 508.391 694.944C509.319 695.062 510.246 695.192 511.174 695.345C513.38 695.698 515.579 696.145 517.73 696.701C520.311 697.369 522.98 698.039 525.392 699.204C530.069 701.47 532.965 707.391 532.37 712.544C532.272 713.389 531.945 715.943 530.772 715.679C529.781 715.457 529.386 713.389 529.04 712.623C528.112 710.59 526.441 709.262 524.435 708.363C522.081 707.305 519.561 706.59 517.12 705.758C515.738 705.285 514.355 704.811 512.97 704.341C511.553 703.856 510.205 703.185 508.696 703.525C507.784 703.731 507.679 704.818 508.19 705.441C508.969 706.39 510.126 706.67 511.247 707.061C512.728 707.575 514.206 708.09 515.684 708.605C517.968 709.399 520.361 710.069 522.589 711.041L522.519 711.2C522.338 711.149 522.125 711.33 522.16 711.553C522.494 713.608 522.958 715.984 522.443 718.043C522.036 719.676 520.603 721.483 518.741 721.003C519.033 720.737 519.141 720.276 518.944 719.85C518.207 718.275 508.546 712.054 507.685 714.364C507.657 714.447 507.745 714.507 507.815 714.495C508.55 714.342 509.779 715.593 510.367 715.991C511.215 716.563 512.077 717.121 512.916 717.709C513.834 718.351 514.73 719.025 515.604 719.72C516.291 720.267 516.809 720.835 517.596 721.112C517.184 721.308 516.856 721.674 516.717 722.141C516.361 723.357 515.674 724.39 514.482 724.927C513.234 725.486 511.826 725.133 510.51 725.27C508.718 725.451 507.154 726.303 505.848 727.519C503.106 730.08 501.73 734.591 497.894 735.801C495.603 736.522 493.061 736.068 490.741 735.741C488.151 735.375 485.628 735.086 483.019 735.467C480.521 735.833 478.16 736.697 475.878 737.751C473.74 738.739 471.375 739.858 469.478 741.332C469.087 740.128 468.693 738.936 468.394 737.707C467.689 734.801 467.308 731.839 467.215 728.853C467.13 726.01 467.289 723.154 467.533 720.324C467.654 718.91 467.845 717.503 467.966 716.089C467.997 715.733 468.061 715.352 468.109 714.971C471.496 712.973 475.055 711.442 478.643 709.866C478.653 709.863 478.662 709.856 478.672 709.853C478.783 709.802 478.891 709.755 479.002 709.707C478.999 709.7 478.996 709.694 478.989 709.688C479.399 709.437 479.685 709.103 479.857 708.728C485.027 705.301 489.349 700.622 492.571 695.164C493.922 692.876 495.222 690.503 496.989 688.499C498.87 686.361 501.104 685.09 503.869 684.429C507.1 683.654 510.431 683.19 513.742 682.927C515.55 682.784 517.571 682.561 519.542 682.571C520.914 682.58 522.258 682.698 523.492 683.038C525.319 683.54 526.387 684.928 527.534 686.332C528.63 687.679 529.72 689.03 530.743 690.434C531.712 691.764 532.628 693.14 533.422 694.582C533.899 695.446 534.341 696.336 534.712 697.254C534.843 697.578 535.014 697.946 535.094 698.283C535.173 698.623 535.027 698.982 535.408 698.982C533.835 699.004 533.851 701.517 535.415 701.425C541.535 701.069 532.768 689.125 531.487 687.46C529.672 685.103 527.801 682.028 524.896 680.932C524.855 680.916 524.81 680.9 524.769 680.887C525.614 680.087 526.282 679.128 526.92 678.152C527.578 677.148 528.363 675.998 528.579 674.807C528.716 674.048 527.772 673.615 527.324 674.279C526.673 675.248 526.358 676.475 525.872 677.539C525.376 678.619 524.772 679.639 524.296 680.728C523.148 680.376 521.909 680.214 520.647 680.16C522.24 678.006 524.959 673.851 525.287 673.317C526.793 670.845 528.227 668.298 529.596 665.747C531.077 662.983 532.345 660.105 533.762 657.309C534.566 655.724 535.377 654.126 536.27 652.588C536.578 652.061 536.908 651.534 537.283 651.054C537.356 650.959 537.449 650.88 537.534 650.79C537.633 650.736 537.735 650.676 537.792 650.645C538.306 650.349 538.488 649.663 538.85 649.227C539.428 648.526 540.108 648.443 540.979 648.433C542.835 648.414 544.697 648.487 546.55 648.538C549.273 648.614 551.993 648.722 554.714 648.865C555.537 648.91 556.357 648.954 557.18 649.005C561.136 649.24 565.089 649.548 569.033 649.927C572.522 650.26 576.011 650.803 579.504 651.064C574.775 662.294 569.532 673.32 563.595 683.963C563.535 684.07 563.49 684.178 563.462 684.286ZM537.226 713.217C536.463 713.567 535.723 714.002 535.033 714.498C535.148 713.726 535.176 712.912 535.145 712.096C535.713 712.706 536.441 713.055 537.226 713.217ZM569.783 693.9C569.729 693.906 569.678 693.934 569.653 693.988C568.598 696.164 569.039 698.594 570.762 700.3C571.664 701.19 573.631 702.194 573.567 703.655C573.513 704.837 572.227 705.828 571.677 706.803C571.165 707.712 570.975 708.709 571.384 709.694C571.909 710.955 573.374 711.457 573.876 712.697C574.511 714.269 573.479 716.166 572.754 717.534C572.08 718.802 571.209 720.07 570.631 721.41C566.758 723.415 563.291 726.49 560.31 729.613C557.046 733.028 554.247 737.046 549.064 736.945C548.546 736.935 548.151 737.209 547.916 737.586C546.474 737.653 545.028 737.682 543.585 737.688C541.049 737.701 538.513 737.675 535.98 737.596C535.802 736.983 535.933 736.151 535.923 735.633C535.891 733.965 535.876 732.3 535.806 730.632C535.787 730.169 535.768 729.701 535.748 729.238C536.66 730.886 538.44 731.636 540.468 731.522C543.728 731.331 547.007 730.797 550.236 730.318C551.936 730.067 553.633 729.781 555.327 729.476C556.719 729.228 558.683 729.292 559.655 728.177C559.884 727.916 559.897 727.44 559.538 727.265C558.575 726.792 557.968 727.055 556.909 727.259C555.619 727.51 554.326 727.748 553.029 727.97C550.541 728.402 548.047 728.802 545.546 729.155C544.122 729.355 542.695 729.552 541.268 729.708C540.023 729.841 538.618 730.022 537.614 729.086C535.59 727.192 536.724 724.018 538.005 722.106C538.03 722.068 538.03 722.033 538.021 722.001C539.228 721.718 540.433 721.388 541.634 721.156C543.944 720.711 546.27 720.337 548.6 720.003C553.385 719.32 558.203 718.869 563.014 718.415C564.205 718.3 564.218 716.426 563.014 716.537C556.102 717.169 549.156 717.77 542.336 719.101C540.626 719.431 538.929 719.806 537.242 720.228C536.444 720.426 535.59 720.734 534.754 720.743C534.703 720.743 534.652 720.743 534.601 720.74C532.965 720.689 532.726 719.288 533.626 718.122C533.737 717.979 533.851 717.836 533.969 717.7C535.558 715.806 537.537 714.542 539.577 713.233C541.863 712.922 544.141 712.229 546.378 711.721C551.901 710.463 557.424 709.205 562.951 707.95C564.034 707.702 563.573 706.038 562.49 706.282C558.295 707.232 554.1 708.182 549.905 709.132L543.766 710.524C542.539 710.8 541.007 711.356 539.565 711.556C538.853 711.654 538.164 711.667 537.541 711.521C535.529 711.045 535.427 708.531 536.295 707.038C537.267 705.361 539.104 704.313 540.734 703.363C543.56 701.714 546.566 700.529 549.502 699.163C550.023 699.049 550.544 698.934 551.066 698.82C554.097 698.153 557.561 697.826 560.415 696.603C561.269 696.24 560.802 694.894 559.957 694.913C557.742 694.961 555.425 695.748 553.261 696.215C550.919 696.723 548.574 697.228 546.232 697.734C545.997 697.784 544.605 698.229 544.395 698.131C544.262 698.067 544.214 697.604 544.17 697.298C544.026 696.295 543.922 695.24 544.078 694.233C544.421 691.974 546.305 690.913 548.212 690.046C552.457 688.117 557.113 686.911 561.746 686.427C562.814 686.316 563.882 686.247 564.956 686.211C566.217 686.173 567.257 685.951 567.895 687.193C568.899 689.15 569.452 691.666 569.783 693.9ZM563.887 764.851C562.962 761.653 563.213 758.238 562.58 754.975C562.253 753.292 561.806 751.623 561.319 749.98C560.925 748.652 560.269 747.24 560.195 745.855C560.19 745.763 560.299 745.71 560.374 745.752C561.679 746.499 562.682 748.115 563.426 749.382C564.317 750.899 564.997 752.488 565.546 754.158C566.64 757.485 567.538 761.498 566.127 764.851C565.708 765.849 564.233 766.049 563.887 764.851ZM535.297 722.487C536.079 722.411 536.861 722.261 537.642 722.087C536.769 722.938 535.961 723.964 535.513 725.102C535.443 724.228 535.354 723.357 535.237 722.491C535.256 722.491 535.278 722.491 535.297 722.487ZM527.784 789.063C526.406 788.101 525.401 786.757 524.232 785.571C523.082 784.404 524.88 782.607 526.03 783.774C527.027 784.786 527.893 786.05 529.067 786.869C529.632 787.262 529.894 787.974 529.523 788.607C529.196 789.166 528.348 789.456 527.784 789.063ZM520.096 752.102C522.613 751.015 525.088 749.83 527.722 749.046C529.296 748.578 529.962 751.031 528.398 751.497C525.972 752.219 523.697 753.295 521.38 754.296C519.892 754.939 518.599 752.749 520.096 752.102ZM493.52 751.341C492.905 749.823 495.365 749.169 495.972 750.666C496.67 752.388 497.47 754.066 498.168 755.789C498.783 757.307 496.323 757.961 495.717 756.465C495.019 754.742 494.218 753.064 493.52 751.341ZM467.289 781.654C466.879 782.2 466.196 782.496 465.55 782.11C465.009 781.786 464.679 780.924 465.094 780.371C466.306 778.757 467.533 777.162 468.953 775.722C470.105 774.555 471.901 776.354 470.751 777.519C469.483 778.805 468.371 780.212 467.289 781.654ZM463.538 611.572C464.705 612.368 465.727 613.336 466.724 614.332C467.883 615.49 466.085 617.287 464.926 616.129C464.086 615.29 463.239 614.438 462.255 613.766C461.687 613.378 461.431 612.656 461.799 612.028C462.129 611.465 462.971 611.185 463.538 611.572ZM501.701 652.469C501.041 653.789 500.447 655.084 500.41 656.585C500.37 658.22 497.828 658.221 497.868 656.585C497.917 654.621 498.641 652.917 499.506 651.186C500.237 649.72 502.429 651.009 501.701 652.469ZM515.703 619.623C517.07 618.712 518.341 620.915 516.987 621.817C515.888 622.549 514.79 623.281 513.692 624.013C512.325 624.924 511.054 622.722 512.408 621.819C513.507 621.087 514.605 620.355 515.703 619.623ZM454.97 677.051C454.737 678.666 452.288 677.975 452.519 676.375C452.876 673.903 453.312 671.464 453.983 669.056C454.422 667.48 456.874 668.153 456.435 669.731C455.764 672.139 455.327 674.579 454.97 677.051ZM446.057 706.163C444.421 706.128 444.42 703.586 446.057 703.621C447.538 703.653 448.993 704.042 450.422 704.398C452.011 704.795 451.333 707.245 449.746 706.849C448.538 706.548 447.309 706.189 446.057 706.163ZM442.766 764.806C442.204 765.079 441.628 765.326 441.059 765.585C439.921 766.105 438.784 766.626 437.647 767.148C435.278 768.235 432.911 769.326 430.546 770.42C425.811 772.611 421.039 774.725 416.293 776.892C411.453 779.103 406.625 781.342 401.804 783.593C399.532 784.653 397.244 785.675 394.959 786.707C393.006 787.59 390.592 789.133 388.448 789.278C388.338 789.285 388.301 789.146 388.364 789.075C389.174 788.154 390.466 787.618 391.531 787.019C392.618 786.408 393.726 785.832 394.828 785.249C397.127 784.031 399.429 782.823 401.75 781.648C406.393 779.3 411.045 776.968 415.697 774.639C420.442 772.264 425.181 769.873 429.968 767.582C432.222 766.503 434.478 765.428 436.735 764.356C437.958 763.775 439.181 763.195 440.405 762.616C440.933 762.366 441.456 762.097 441.996 761.873C442.714 761.576 443.26 761.637 444 761.454C445.208 761.156 445.731 762.691 444.804 763.359C444.04 763.91 443.639 764.38 442.766 764.806ZM425.795 790.865C425.534 790.232 426.08 789.461 426.683 789.302C427.404 789.112 427.983 789.55 428.246 790.19C428.943 791.884 429.936 793.439 431.214 794.753C432.356 795.926 430.559 797.724 429.416 796.55C427.815 794.904 426.664 792.98 425.795 790.865ZM413.309 750.072C412.15 748.914 413.948 747.117 415.106 748.275L418.401 751.569C419.56 752.727 417.762 754.524 416.604 753.366L413.309 750.072ZM379.506 744.702C377.138 745.397 374.375 746.035 372.76 748.055C372.681 748.154 372.548 748.027 372.596 747.929C374.663 743.644 380.592 742.141 384.698 740.64C387.601 739.578 390.58 738.697 393.585 737.911C393.284 734.485 394.113 730.813 394.4 727.403C394.708 723.763 394.958 720.114 395.086 716.463C395.217 712.738 395.249 708.988 395.127 705.262C395.005 701.55 394.522 697.884 394.311 694.184C394.291 693.826 394.789 693.809 394.897 694.105C396.144 697.538 396.677 701.341 397.083 704.961C397.502 708.69 397.641 712.408 397.587 716.159C397.532 720.016 397.307 723.863 397 727.707C396.854 729.53 396.684 731.349 396.524 733.17C396.402 734.56 396.346 735.938 396.062 737.284C397.874 736.839 399.691 736.418 401.501 736.01C407.274 734.707 413.071 733.499 418.819 732.091C421.641 731.4 424.423 730.572 427.232 729.837C429.877 729.145 432.669 728.305 435.385 727.997C436.354 727.886 436.478 729.211 435.836 729.661C433.629 731.21 430.697 732.289 428.148 733.157C425.589 734.027 422.929 734.653 420.306 735.297C414.837 736.642 409.316 737.742 403.803 738.887C398.298 740.031 392.782 741.166 387.339 742.578C384.717 743.257 382.105 743.94 379.506 744.702ZM366.526 676.712C365.11 677.543 363.833 675.345 365.243 674.517C367.088 673.435 369.055 672.621 371.038 671.828C372.559 671.219 373.214 673.678 371.714 674.278C369.932 674.991 368.184 675.739 366.526 676.712ZM361.401 771.13C359.981 771.953 358.703 769.756 360.118 768.936C362.105 767.785 364.282 767.016 366.341 766.009C367.807 765.291 369.094 767.484 367.624 768.203C365.565 769.211 363.388 769.979 361.401 771.13ZM359.096 717.534C360.468 718.837 362.299 719.451 364.026 720.135C365.532 720.732 364.871 723.188 363.35 722.586C361.199 721.733 359.007 720.954 357.298 719.331C356.109 718.202 357.91 716.408 359.096 717.534ZM374.276 644.746C375.785 645.338 375.124 647.795 373.6 647.197C371.91 646.534 370.165 646.03 368.475 645.367C366.967 644.776 367.627 642.319 369.151 642.916C370.841 643.579 372.586 644.084 374.276 644.746ZM401.057 615.835C402.66 615.565 403.342 618.014 401.733 618.286C399.736 618.623 397.769 619.017 395.875 619.75C394.346 620.341 393.69 617.883 395.199 617.299C397.094 616.567 399.06 616.172 401.057 615.835ZM409.905 686.227C408.436 685.505 409.725 683.314 411.188 684.033C412.73 684.79 414.328 685.376 416.01 685.734C417.612 686.075 416.93 688.525 415.334 688.185C413.441 687.782 411.639 687.079 409.905 686.227ZM418.263 646.576C419.845 646.143 420.514 648.595 418.939 649.027C416.166 649.786 413.311 650.181 410.518 650.857C408.927 651.242 408.253 648.791 409.842 648.406C412.635 647.73 415.49 647.336 418.263 646.576ZM453.716 634.133C455.326 634.431 454.64 636.88 453.041 636.584C451.338 636.269 449.613 636.264 447.887 636.263C446.249 636.263 446.252 633.721 447.887 633.722C449.848 633.723 451.784 633.776 453.716 634.133ZM569.344 647.411C565.191 647.013 561.031 646.696 556.865 646.458C556.671 646.448 556.481 646.435 556.286 646.425C556.264 646.381 556.236 646.34 556.207 646.295C554.847 644.3 553.846 642.305 552.979 640.05C552.149 637.902 551.345 635.688 550.068 633.75C548.611 631.543 546.644 629.815 544.488 628.318C543.18 629.197 541.966 630.226 540.856 631.317C539.688 632.465 537.89 630.668 539.058 629.52C540.045 628.55 541.098 627.655 542.211 626.846C540.926 626.065 539.615 625.331 538.335 624.601C533.54 621.866 528.63 619.337 523.619 617.025C521.289 615.947 518.931 614.991 516.558 614.022C515.28 613.502 514.019 612.831 512.741 612.228C512.833 611.325 512.563 610.315 511.87 609.721C511.359 609.286 510.961 609.124 510.351 608.816C510.215 608.768 510.132 608.739 510.094 608.723C510.123 608.73 510.205 608.755 510.341 608.8C510.666 608.949 510.691 608.905 510.418 608.669C510.402 608.155 509.388 607.069 509.156 606.538C508.349 604.718 508.098 602.792 506.907 601.134C505.264 598.85 502.505 597.986 499.934 598.761C499.667 596.013 499.598 593.145 498.562 590.692C498.533 590.626 498.441 590.597 498.4 590.67C497.319 592.509 497.227 594.558 497.144 596.68C497.065 598.672 497.141 600.708 497.402 602.688C497.236 602.815 497.068 602.936 496.893 603.053C496.073 603.593 495.19 604.009 494.262 604.318C492.495 604.902 490.643 605.156 488.79 605.245C484.007 605.474 479.078 604.991 474.375 604.171C469.618 603.342 462.325 602.097 458.092 599.717C455.299 598.148 452.722 596.232 450.109 594.377C451.056 591.327 451.298 588.049 450.345 585.473C450.23 585.164 449.747 585.107 449.655 585.473C449.058 587.931 448.883 590.403 448.088 592.833C448.076 592.868 448.063 592.907 448.05 592.941C447.802 592.773 447.554 592.608 447.307 592.442C446.735 592.064 445.956 592.347 445.613 592.887C440.124 601.531 431.433 602.027 422.307 603.571C412.319 605.261 402.28 607.084 392.677 610.391C383.493 613.556 374.716 618.162 367.763 625.043C366.189 626.601 364.717 628.261 363.327 629.994C364.672 630.163 366.005 630.427 367.321 630.84C368.879 631.329 368.209 633.782 366.645 633.29C364.953 632.759 363.244 632.497 361.516 632.366C356.792 638.827 353.108 646.153 349.922 653.364C343.812 667.189 339.835 681.913 338.005 696.903C339.01 696.301 340.033 695.728 341.081 695.194C342.538 694.454 343.823 696.647 342.365 697.389C340.745 698.212 339.172 699.12 337.648 700.104C336.982 706.666 336.724 713.27 336.881 719.863C337.252 735.582 339.375 751.761 344.177 766.759C346.532 774.119 349.652 781.42 354.301 787.64C356.405 790.457 358.795 792.999 361.61 795.118C362.974 796.147 364.416 797.065 365.939 797.84C367.899 798.844 370.454 799.174 372.145 800.594C372.701 801.062 373.13 801.678 373.454 802.373C373.267 803.695 373.244 805.02 373.607 806.341C373.721 806.755 374.033 807.091 374.417 807.253C374.423 807.367 374.423 807.479 374.423 807.587C374.423 807.637 374.5 807.65 374.509 807.6C374.525 807.501 374.541 807.402 374.557 807.301C374.681 807.342 374.811 807.361 374.945 807.361C379.772 807.379 384.605 807.262 389.438 807.098C389.065 805.953 388.66 804.819 388.271 803.674C387.743 802.119 390.199 801.458 390.722 802.999C391.177 804.337 391.653 805.663 392.076 807.006C397.254 806.813 402.432 806.582 407.6 806.411C418.592 806.046 429.581 805.925 440.576 805.694C457.65 805.332 474.849 804.591 491.95 805.315C492.542 804.061 493.204 802.835 493.831 801.597C494.572 800.136 496.765 801.424 496.027 802.88C495.59 803.74 495.138 804.589 494.709 805.447C498.173 805.627 501.633 805.865 505.085 806.189C510.977 806.742 516.812 807.723 522.697 808.333C528.681 808.956 534.535 808.845 540.471 807.857C541.538 807.679 542.168 807.034 542.428 806.233C542.437 806.23 542.444 806.224 542.45 806.214C542.755 805.858 543.042 805.563 543.337 805.306C543.69 805.077 544.071 804.883 544.519 804.712C545.355 804.394 546.226 804.2 547.109 804.07C548.082 803.924 549.067 803.911 550.039 803.791C550.859 803.686 551.66 803.53 552.46 803.34C553.9 802.996 555.267 802.548 556.627 801.954C557.812 801.437 558.883 800.693 559.893 799.883C561.984 798.355 563.796 796.405 565.378 794.378C566.3 793.193 567.168 791.963 567.956 790.683C569.328 788.466 570.498 786.162 571.68 783.84C572.109 783.152 572.501 782.447 572.858 781.728C570.548 781.047 568.216 780.493 565.766 780.453C564.129 780.427 564.13 777.886 565.766 777.912C568.575 777.957 571.232 778.613 573.872 779.394C574.001 779.053 574.124 778.709 574.238 778.36C574.553 777.633 574.813 776.886 575.029 776.13C575.156 775.787 575.284 775.444 575.411 775.101C575.697 773.913 575.983 772.721 576.272 771.53C576.847 769.624 577.301 767.689 577.635 765.729C577.915 764.44 578.131 763.14 578.277 761.825C578.722 758.639 579.084 755.459 579.11 752.238C579.072 750.252 578.945 748.27 578.728 746.297C578.636 744.956 578.481 743.622 578.271 742.297C577.998 740.328 577.727 738.378 577.273 736.433C576.933 735.118 576.593 733.803 576.253 732.488C575.404 729.746 574.403 727.058 573.25 724.431C573.186 724.266 572.865 723.904 572.671 723.901C572.525 723.898 572.322 724.031 572.388 724.209C572.395 724.225 572.401 724.244 572.408 724.26C572.341 724.11 572.277 723.958 572.211 723.809C572.154 723.669 571.931 723.39 571.759 723.393C571.75 723.393 571.74 723.393 571.728 723.396C571.772 723.364 571.813 723.323 571.855 723.275C572.996 721.925 573.736 720.149 574.553 718.586C575.23 717.296 575.868 715.937 576.053 714.478C576.214 713.198 575.995 711.937 575.192 710.901C574.276 709.723 572.554 709.17 573.51 707.467C574.597 705.529 576.196 703.849 574.604 701.647C573.793 700.526 572.509 699.91 571.556 698.934C570.46 697.807 569.938 696.298 569.967 694.757C570.034 694.795 570.123 694.776 570.155 694.681C571.076 691.898 570.409 688.842 569.465 686.132C568.95 684.661 567.86 684.258 566.592 684.185C572.083 673.463 577.222 662.57 581.801 651.426C581.954 651.06 582.103 650.695 582.252 650.33C582.475 649.783 582.005 649.056 581.461 648.935C577.502 648.068 573.377 647.791 569.344 647.411Z" fill="black"/>
<path fill-rule="evenodd" clip-rule="evenodd" d="M519.693 492.211C518.466 484.79 522.492 483.25 519.693 476.196C513.47 463.126 496.511 463.689 484.067 462.684C470.187 462.152 456.138 463.984 443.343 469.545C440.286 470.874 437.346 472.436 434.528 474.211C432.092 475.745 432.426 478.664 433.963 480.255C422.883 495.94 429.22 516.993 420.38 533.502C418.747 536.454 416.587 539.1 415.167 542.17C413.01 546.838 412.871 553.526 417.765 556.626C424.656 560.324 428.502 553.002 431.888 563.616C448.8 600.622 482.803 602.706 515.082 583.412C517.874 581.859 520.724 580.104 522.833 577.665C527.62 572.279 527.056 564.707 527.162 557.982C527.221 554.041 527.231 550.1 527.192 546.158C527.042 530.192 521.749 508.045 519.693 492.211Z" fill="white"/>
<path fill-rule="evenodd" clip-rule="evenodd" d="M450.941 447.827C470.431 438.989 492.536 435.637 513.795 437.836C524.289 438.919 534.644 441.243 544.499 445.019L545.362 445.352C547.795 446.288 550.417 447.218 552.266 449.123C554.418 451.337 555.021 454.685 553.483 457.421C552.288 459.546 550.14 461.07 547.849 461.884C548.656 462.545 549.422 463.282 550.14 464.104C551.351 465.483 551.443 467.449 550.14 468.809C547.63 471.43 544.372 473.326 540.864 474.235C541.258 476.138 541.045 478.244 540.2 480.141C537.774 485.585 530.942 486.234 525.684 485.91L525.525 485.9L525.232 489.245C525.077 491.028 524.009 492.41 522.198 492.683C522.134 492.692 522.07 492.699 522.007 492.705C524.873 503.068 526.605 513.751 528.204 524.371C529.039 529.915 529.786 535.472 530.502 541.032L530.74 542.885C531.502 548.88 532.456 554.935 532.786 560.974C533.082 566.454 532.036 571.686 528.658 576.108C525.626 580.073 521.492 583.043 517.046 585.248C507.001 590.232 496.429 593.943 485.319 595.664L484.578 595.778C480.29 596.433 475.871 596.984 471.629 595.798C467.902 594.756 463.993 592.068 464.835 587.751C465.118 586.293 467.158 586.229 467.857 587.357L468.018 587.616C468.857 588.945 469.775 590.181 471.238 590.867C472.951 591.674 474.937 591.9 476.809 591.922C482.036 591.982 487.48 590.68 492.514 589.374C501.914 586.935 511.568 582.957 519.268 576.931C522.544 574.37 525.175 571.168 526.103 567.048C527.25 561.968 526.195 556.415 525.674 551.31C524.602 540.776 523.325 530.262 521.978 519.759L521.708 517.659C520.574 508.878 519.382 500.094 518.816 491.263C518.581 490.942 518.422 490.577 518.359 490.176L518.27 489.601C518.194 489.109 518.181 488.658 518.235 488.242C518.238 486.647 518.282 485.062 518.375 483.467C518.39 483.181 518.403 482.895 518.413 482.612C516.754 482.978 515.082 483.273 513.405 483.524C501.608 485.3 489.628 485.745 477.737 484.862C471.804 484.42 465.916 483.661 460.046 482.711C457.058 482.228 454.081 481.694 451.113 481.097C448.968 480.668 446.867 480.087 444.757 479.54C442.581 482.708 441.405 486.606 441.634 490.434C441.891 494.802 444.802 498.763 443.985 503.226C443.219 507.404 439.639 508.699 436.104 509.733L434.601 510.168C433.445 510.505 432.605 510.831 432.396 512.22C432.037 514.606 432.478 517.29 432.57 519.689C432.682 522.525 432.827 525.362 432.895 528.199C432.929 529.667 432.986 531.141 432.984 532.609C432.98 533.65 432.825 534.362 432.421 535.035C432.732 535.426 433.012 535.849 433.26 536.297C433.339 536.443 433.142 536.598 433.025 536.478C432.71 536.151 432.376 535.855 432.024 535.591C431.846 535.811 431.639 536.033 431.397 536.271L431.379 536.246C430.622 536.999 429.421 537.072 428.483 536.271L428.237 536.058C427.551 535.457 427.079 534.956 426.888 533.962C426.879 533.911 426.869 533.86 426.863 533.809C425.118 533.749 423.345 534.162 421.775 535.029C419.287 536.405 417.536 538.365 416.5 540.786C416.913 541.268 417.396 541.7 417.959 542.063C418.038 542.117 417.968 542.234 417.883 542.193C417.307 541.923 416.793 541.589 416.332 541.199C415.96 542.152 415.699 543.174 415.54 544.258C414.981 548.083 415.979 552.756 419.436 554.935C420.933 555.878 422.643 556.39 424.416 556.396C425.28 556.399 426.027 556.253 426.866 556.047C427.435 555.907 428.001 555.704 428.595 555.704C429.103 555.704 429.574 555.831 430.009 556.085L429.888 556.095C429.595 556.123 429.651 556.135 430.06 556.135C431.331 556.19 432.058 557.48 431.474 558.601L431.397 558.774C431.381 558.809 431.368 558.838 431.357 558.861L431.311 559.159C431.306 559.187 431.301 559.216 431.296 559.246L431.278 559.306C431.275 559.316 431.272 559.325 431.267 559.335L433.174 562.241C435.511 565.796 437.901 569.338 440.62 572.585C442.527 574.863 444.548 577.096 446.683 579.164C448.602 581.023 450.903 581.918 453.077 583.38C454.237 584.155 454.577 585.778 453.522 586.823C450.427 589.895 446.044 587.456 443.505 584.959C441.103 582.592 439.028 579.746 437.239 576.896C434.064 571.829 431.538 566.441 430.432 560.593C429.971 561.015 429.383 561.279 428.789 561.485C427.597 561.898 426.285 562.07 425.026 562.114C422.614 562.194 420.199 561.609 418.029 560.574C409.198 556.364 407.901 543.759 413.3 536.325C412.572 534.215 412.165 531.925 411.724 529.972L411.523 529.099C409.29 519.349 407.791 509.083 411.749 499.529C412.258 498.296 412.83 497.095 413.507 495.945C414.05 495.021 414.984 494.036 415.242 492.985C415.814 490.675 412.283 488.248 411.254 486.415C410.043 484.264 409.871 481.726 411.521 479.759C411.73 479.512 411.959 479.283 412.207 479.083C410.643 476.249 410.57 472.685 412.63 469.889C413.983 468.047 416.049 466.757 418.305 466.366C419.684 466.128 421.343 466.217 422.859 466.643C431.159 458.939 440.629 452.503 450.941 447.827ZM419.068 544.22C421.283 542.266 423.73 541.243 426.749 541.5C429.784 541.761 433.438 543.016 435.221 545.617C436.629 547.673 433.759 550.688 431.693 549.144C429.812 547.736 428.557 546.148 426.221 545.392C424.124 544.715 421.527 544.28 419.331 544.668C419.09 544.709 418.849 544.41 419.068 544.22Z" fill="black"/>
<path fill-rule="evenodd" clip-rule="evenodd" d="M505.494 563.875C505.715 563.815 505.909 564.112 505.726 564.274C504.978 564.937 504.503 566.174 503.957 567.016C503.438 567.818 502.937 568.612 502.481 569.451C501.969 570.392 501.474 571.329 501.076 572.324L500.997 572.525C501.116 572.809 501.21 573.089 501.278 573.273L501.298 573.325C501.979 575.063 500.55 576.994 498.939 577.479C496.182 578.31 493.817 576.047 493.752 573.356C493.7 571.239 495.135 569.353 496.594 567.954C497.87 566.73 499.298 565.688 500.897 564.924C501.602 564.588 502.334 564.306 503.1 564.143C503.883 563.976 504.727 564.082 505.494 563.875ZM500.299 571.547C500.501 571.642 500.674 571.875 500.819 572.147C500.747 571.917 500.597 571.687 500.299 571.547ZM502.024 542.132C504.423 543.59 508.08 546.991 505.498 550.606C502.46 553.793 498.085 550.138 495.929 548.486C493.93 547.205 491.683 550.499 493.538 551.995C509.117 563.525 515.439 542.514 503.237 540.418C501.894 540.187 501.395 541.681 502.024 542.132ZM487.629 515.661C489.351 515.036 491.141 516.5 491.365 518.149C491.622 520.05 490.251 521.302 488.512 521.529L488.425 521.54C484.587 521.962 480.779 522.735 476.936 523.172C475.191 523.37 473.432 523.5 471.676 523.547L470.42 523.575C468.881 523.614 467.231 523.649 465.811 523.119L465.816 523.11C465.439 523.001 465.265 522.457 465.685 522.159C467.198 521.09 469.236 520.686 470.997 520.178C472.767 519.667 474.55 519.196 476.338 518.754C480.092 517.825 483.992 516.982 487.629 515.661ZM503.514 516.106C503.97 513.701 507.378 513.443 508.63 515.193C509.439 515.47 510.625 515.76 511.361 515.978C512.641 516.358 513.923 516.735 515.207 517.101C517.867 517.858 520.463 518.818 523.078 519.713C523.347 519.805 523.273 520.147 523.014 520.181C519.364 520.656 515.776 520.877 512.104 520.725L511.351 520.691C508.115 520.565 502.622 520.805 503.514 516.106Z" fill="black"/>
<path fill-rule="evenodd" clip-rule="evenodd" d="M502.373 554.509C498.839 552.918 492.493 554.307 490.189 554.859C484.833 556.143 479.445 558.918 477.78 563.265C475.903 568.165 479.647 569.707 480.198 569.455C483.906 569.716 488.321 567.386 492.207 566.785C495.361 566.292 498.689 565.862 501.644 564.187C503.802 565.373 508.675 566.015 512.608 567.052C515.958 567.936 517.409 569.851 520.515 569.444C524.237 568.956 522.713 561.13 518.565 557.96C514.025 554.491 506.347 553.084 502.373 554.509ZM509.371 587.969C506.279 588.722 506.071 581.948 505.725 579.554C505.454 577.685 503.928 572.863 500.059 573.071C496.19 573.279 494.735 577.319 494.931 579.831C495.059 581.461 496.561 589.715 491.766 590.759C488.71 590.748 485.173 590.542 481.959 589.949C478.176 589.093 473.257 586.094 471.958 592C471.49 594.125 488.154 600.439 495.549 601.011C503.048 602.53 511.822 600.194 517.161 594.459C518.376 593.154 521.797 587.739 522.04 586.412C522.552 583.624 521.367 581.831 517.916 582.813C515.479 584.114 511.359 587.484 509.371 587.969Z" fill="black"/>
<path fill-rule="evenodd" clip-rule="evenodd" d="M516.469 519.211C522.799 519.211 526.411 520.574 527.734 520.68L527.774 520.683C528.324 520.718 528.818 520.764 529.337 520.965C531.242 521.699 531.552 523.7 530.44 524.961C530.362 527.57 530.705 530.618 530.117 533.235C529.392 544.27 524.208 546.132 521.262 546.811C519.783 547.153 518.03 547.289 516.459 546.928C513.778 546.828 511.129 545.988 508.861 544.525C505.704 542.486 503.359 539.353 502.598 535.634C502.237 533.861 502.068 532.016 502.265 530.214L502.294 529.965C501.268 529.474 500.078 529.381 498.852 529.337C498.267 529.317 497.689 529.298 497.129 529.323C496.58 529.384 496.039 529.466 495.496 529.577C494.902 529.756 494.342 530.052 493.825 530.52L493.789 531.204C493.692 532.912 493.468 534.625 493.123 536.3C492.613 538.773 491.792 541.134 490.046 542.888C489.455 543.771 488.724 544.56 487.836 545.243C484.611 547.73 480.229 548.642 476.207 548.299C468.043 547.601 463.323 541.112 462.236 538.339L462.171 538.171C461.385 536.109 460.759 533.433 458.277 532.99L457.749 532.895C456.616 532.683 455.57 532.386 454.906 531.28C454.615 530.797 454.465 530.256 454.429 529.705C454.041 529.735 453.654 529.764 453.268 529.791C450.192 530.443 431.74 530.995 430.267 530.995C430.267 530.995 427.436 532.188 426.241 531.264C425.412 530.621 425.139 529.764 425.596 528.794C426.284 527.333 429.459 526.455 430.868 526.177C430.868 526.177 453.618 526.366 455.255 526.055C456.269 525.01 458.081 525.153 459.595 524.987C460.848 524.092 462.602 523.493 463.987 523.092C464.27 522.985 464.549 522.881 464.821 522.784C467.36 521.878 470 521.399 472.68 521.141C475.443 520.878 478.215 520.997 480.962 521.374C482.12 521.531 483.267 521.735 484.406 522C486.445 522.27 488.472 522.713 490.512 523.239L490.92 523.345C493.069 523.909 495.276 524.397 497.5 524.014C499.31 523.705 501.051 523.008 502.72 522.253L502.938 522.155C506.608 520.477 512.34 519.211 516.469 519.211ZM484.185 525.345C482.831 525.047 482.252 527.138 483.611 527.437C484.573 527.648 485.388 528.134 485.939 528.957L485.997 529.046C486.736 530.224 488.605 529.137 487.861 527.952C487.024 526.618 485.722 525.684 484.185 525.345ZM523.848 524.049C523.371 523.713 522.648 523.963 522.371 524.438C522.066 524.962 522.266 525.546 522.713 525.888L522.759 525.922C523.169 526.211 523.568 526.73 523.618 527.261L523.623 527.328C523.676 528.719 525.836 528.726 525.782 527.328C525.729 525.96 524.938 524.818 523.848 524.049Z" fill="black"/>
<path d="M176.28 13L2.99996 287.953L346.48 504.419L389.658 230.923L176.28 13Z" fill="#F2DC11" stroke="black" stroke-width="4"/>
<path fill-rule="evenodd" clip-rule="evenodd" d="M144.813 252.478C147.547 241.868 150.062 237.369 154.919 233.681C159.462 230.231 166.093 227.334 175.77 225.218C185.848 223.455 186.134 218.214 188.661 209.79C189.398 207.257 193.052 206.583 194.628 208.409C194.851 208.169 195.082 207.949 195.322 207.75C195.108 206.542 196.865 203.081 196.806 201.925C196.194 189.867 200.136 183.811 209.974 181.56C212.114 181.071 226.648 180.782 228.734 181.359C237.855 183.883 246.833 191.893 245.459 201.544C248.322 205.287 251.124 207.572 255.541 208.778C265.371 210.027 275.2 211.138 285.032 212.088C304.279 215.109 322.324 225.302 334.657 240.168C335.795 241.54 336.123 243.403 335.119 244.866C335.906 248.236 340.333 256.412 336.85 258.723C342.578 272.431 355.757 298.926 355.782 306.495C355.886 338.294 352.453 379.685 321.092 397.283C319.836 398.518 319.657 399.884 319.113 401.722C317.734 407.511 312.727 411.649 307.246 411.311C280.247 411.911 254.097 408.615 227.097 408.456C215.191 408.385 200.872 410.164 190.528 411.348C180.185 412.533 169.744 411.485 159.818 408.456C158.981 409.774 157.289 410.542 155.572 410.164C145.282 408.118 136.961 401.773 129.713 394.839C127.499 390.807 118.849 379.322 122.287 375.324C119.171 362.141 119.333 347.977 124.871 335.424C124.086 333.123 125.517 330.594 124.871 328.218C124.403 326.499 123.206 325.787 122.604 324.085C121.756 321.689 122.678 318.474 123.633 316.029C124.024 314.811 122.913 313.499 122.604 312.255C121.139 306.39 124.493 306.907 126.911 302.986C126.875 302.974 126.246 300.175 126.249 300.189C125.879 298.191 126.806 295.631 127.615 293.963C128.162 292.835 129.333 292.13 130.497 292.259C129.325 288.278 127.843 284.966 126.249 281.13C123.43 274.37 119.862 267.896 115.815 261.777C114.157 259.271 116.383 256.368 119.066 256.197C127.748 255.645 136.335 254.394 144.813 252.478Z" fill="white"/>
<path fill-rule="evenodd" clip-rule="evenodd" d="M170.152 303.603C173.624 302.241 177.363 301.488 181.121 301.196C179.098 300.841 177.069 300.499 175.023 300.323C173.596 300.2 172.273 300.213 171.2 301.296C170.484 302.018 170.149 302.947 169.678 303.801C169.832 303.732 169.992 303.666 170.152 303.603ZM132.88 290.864C138.567 291.154 144.26 292.507 149.405 294.958C151.509 295.963 153.417 297.413 153.975 299.799C154.257 301.017 154.188 302.276 154.038 303.506C153.925 304.438 153.897 305.628 153.087 306.259C152.949 306.366 152.802 306.448 152.648 306.507C154.546 307.364 156.353 308.394 157.959 309.455C159.427 310.425 160.936 311.919 161.613 313.605C161.67 313.413 161.726 313.235 161.783 313.065C162.937 309.65 164.716 306.853 167.517 304.972C167.021 304.75 166.679 304.222 166.839 303.494C167.504 300.452 170.312 297.808 173.483 297.997C176.956 298.201 180.685 299.466 183.826 301.064C184.97 301.039 186.112 301.054 187.241 301.105C187.436 301.111 187.426 301.375 187.241 301.397C186.325 301.513 185.409 301.641 184.493 301.792C182.316 302.141 180.146 302.583 178.022 303.133C175.475 303.792 172.84 304.454 170.459 305.606C165.842 307.845 162.984 313.696 163.571 318.788C163.668 319.623 163.991 322.147 165.149 321.886C166.127 321.667 166.516 319.623 166.858 318.866C167.774 316.857 169.424 315.545 171.403 314.657C173.728 313.611 176.215 312.905 178.625 312.083C179.989 311.615 181.353 311.147 182.721 310.682C184.12 310.202 185.45 309.54 186.94 309.876C187.84 310.08 187.944 311.153 187.439 311.769C186.67 312.707 185.529 312.983 184.421 313.37C182.959 313.878 181.501 314.387 180.042 314.895C177.787 315.68 175.425 316.342 173.226 317.303L173.295 317.46C173.474 317.41 173.684 317.589 173.649 317.808C173.32 319.839 172.862 322.188 173.37 324.222C173.772 325.835 175.187 327.622 177.025 327.148C176.736 326.884 176.629 326.429 176.824 326.008C177.552 324.451 187.088 318.304 187.938 320.587C187.966 320.668 187.878 320.728 187.809 320.716C187.084 320.565 185.87 321.802 185.29 322.194C184.453 322.759 183.603 323.311 182.774 323.892C181.868 324.527 180.983 325.192 180.121 325.879C179.443 326.42 178.932 326.981 178.154 327.255C178.562 327.449 178.885 327.81 179.023 328.271C179.374 329.474 180.052 330.494 181.228 331.025C182.461 331.577 183.85 331.229 185.149 331.364C186.918 331.543 188.461 332.384 189.751 333.586C192.458 336.116 193.816 340.574 197.602 341.77C199.864 342.483 202.373 342.034 204.663 341.711C207.22 341.35 209.71 341.064 212.286 341.441C214.751 341.802 217.082 342.655 219.334 343.698C221.445 344.674 223.779 345.779 225.652 347.236C226.038 346.046 226.427 344.869 226.722 343.654C227.418 340.782 227.794 337.856 227.886 334.905C227.97 332.095 227.813 329.273 227.572 326.476C227.452 325.079 227.264 323.688 227.145 322.291C227.114 321.94 227.051 321.563 227.004 321.187C223.66 319.212 220.147 317.699 216.606 316.142C216.596 316.139 216.586 316.132 216.577 316.129C216.467 316.079 216.361 316.032 216.251 315.985C216.254 315.978 216.257 315.972 216.263 315.966C215.859 315.718 215.576 315.388 215.407 315.018C210.303 311.63 206.037 307.007 202.856 301.613C201.523 299.353 200.24 297.008 198.496 295.027C196.639 292.914 194.434 291.659 191.705 291.006C188.515 290.24 185.227 289.781 181.959 289.521C180.174 289.38 178.179 289.16 176.234 289.17C174.879 289.179 173.552 289.295 172.335 289.631C170.531 290.127 169.477 291.499 168.345 292.886C167.263 294.217 166.187 295.552 165.177 296.939C164.22 298.254 163.317 299.613 162.532 301.039C162.062 301.893 161.626 302.772 161.259 303.679C161.13 303.999 160.961 304.363 160.882 304.696C160.804 305.032 160.948 305.387 160.572 305.387C162.125 305.408 162.109 307.892 160.566 307.801C154.524 307.449 163.179 295.646 164.443 294C166.234 291.671 168.081 288.632 170.948 287.549C170.989 287.534 171.033 287.518 171.074 287.505C170.24 286.714 169.581 285.767 168.95 284.803C168.301 283.811 167.526 282.674 167.313 281.497C167.178 280.747 168.11 280.32 168.552 280.976C169.195 281.933 169.506 283.145 169.985 284.197C170.475 285.264 171.071 286.272 171.541 287.348C172.674 287 173.897 286.84 175.142 286.787C173.571 284.658 170.886 280.552 170.563 280.025C169.076 277.582 167.661 275.065 166.309 272.544C164.848 269.813 163.596 266.969 162.197 264.206C161.403 262.64 160.603 261.061 159.722 259.541C159.417 259.02 159.091 258.499 158.721 258.025C158.649 257.931 158.558 257.853 158.473 257.764C158.376 257.711 158.276 257.651 158.219 257.62C157.711 257.328 157.532 256.65 157.175 256.22C156.604 255.526 155.932 255.445 155.073 255.435C153.241 255.416 151.403 255.488 149.574 255.539C146.886 255.614 144.201 255.721 141.515 255.862C140.703 255.906 139.894 255.95 139.081 256C135.176 256.233 131.274 256.537 127.381 256.911C123.937 257.24 120.492 257.777 117.045 258.035C121.713 269.132 126.888 280.028 132.748 290.545C132.808 290.651 132.852 290.758 132.88 290.864ZM158.778 319.453C159.53 319.799 160.261 320.229 160.942 320.719C160.829 319.956 160.801 319.152 160.832 318.345C160.271 318.948 159.552 319.293 158.778 319.453ZM126.641 300.364C126.694 300.37 126.744 300.398 126.769 300.452C127.811 302.602 127.375 305.003 125.674 306.689C124.784 307.568 122.842 308.56 122.905 310.004C122.958 311.172 124.228 312.152 124.771 313.115C125.276 314.013 125.464 314.999 125.06 315.972C124.542 317.218 123.096 317.714 122.6 318.939C121.973 320.492 122.992 322.367 123.708 323.72C124.373 324.972 125.232 326.225 125.803 327.549C129.627 329.531 133.049 332.569 135.991 335.655C139.213 339.03 141.977 343.001 147.093 342.901C147.604 342.891 147.993 343.161 148.225 343.534C149.649 343.6 151.077 343.629 152.501 343.635C155.004 343.647 157.507 343.622 160.007 343.544C160.183 342.938 160.054 342.116 160.064 341.604C160.095 339.956 160.111 338.311 160.18 336.663C160.199 336.205 160.217 335.743 160.236 335.285C159.336 336.914 157.579 337.655 155.578 337.542C152.36 337.354 149.122 336.826 145.936 336.352C144.257 336.104 142.582 335.821 140.91 335.52C139.536 335.275 137.598 335.338 136.638 334.236C136.412 333.979 136.399 333.508 136.754 333.335C137.704 332.867 138.303 333.128 139.348 333.329C140.621 333.577 141.898 333.812 143.178 334.032C145.634 334.459 148.097 334.854 150.565 335.203C151.971 335.401 153.379 335.595 154.787 335.749C156.017 335.881 157.404 336.06 158.395 335.134C160.393 333.263 159.273 330.127 158.009 328.237C157.984 328.2 157.984 328.165 157.993 328.133C156.801 327.854 155.612 327.527 154.427 327.298C152.146 326.859 149.85 326.489 147.551 326.159C142.827 325.484 138.071 325.038 133.322 324.589C132.146 324.476 132.133 322.624 133.322 322.734C140.145 323.359 147.002 323.952 153.733 325.268C155.421 325.594 157.096 325.964 158.762 326.382C159.549 326.577 160.393 326.881 161.218 326.891C161.268 326.891 161.319 326.891 161.369 326.887C162.984 326.837 163.219 325.453 162.332 324.301C162.222 324.159 162.109 324.018 161.993 323.883C160.424 322.012 158.47 320.762 156.457 319.469C154.201 319.161 151.952 318.477 149.743 317.975C144.292 316.732 138.84 315.489 133.385 314.249C132.315 314.004 132.77 312.359 133.84 312.6C137.98 313.539 142.121 314.478 146.262 315.416L152.322 316.792C153.533 317.064 155.045 317.614 156.469 317.812C157.171 317.909 157.852 317.921 158.467 317.777C160.453 317.306 160.553 314.823 159.697 313.348C158.737 311.69 156.924 310.654 155.314 309.715C152.526 308.086 149.558 306.915 146.66 305.565C146.145 305.452 145.631 305.339 145.117 305.226C142.124 304.567 138.705 304.244 135.888 303.036C135.044 302.677 135.506 301.346 136.34 301.365C138.526 301.413 140.813 302.191 142.949 302.652C145.261 303.154 147.576 303.654 149.888 304.153C150.12 304.203 151.494 304.642 151.701 304.545C151.833 304.482 151.88 304.024 151.924 303.723C152.065 302.731 152.168 301.689 152.014 300.693C151.676 298.461 149.816 297.413 147.933 296.556C143.743 294.65 139.147 293.458 134.574 292.98C133.52 292.87 132.466 292.802 131.405 292.767C130.16 292.729 129.134 292.509 128.504 293.737C127.513 295.671 126.967 298.157 126.641 300.364ZM132.461 370.477C133.374 367.316 133.125 363.942 133.751 360.718C134.074 359.055 134.514 357.405 134.996 355.781C135.384 354.47 136.032 353.075 136.105 351.706C136.109 351.614 136.002 351.562 135.928 351.604C134.64 352.342 133.65 353.938 132.916 355.191C132.036 356.69 131.364 358.26 130.823 359.91C129.743 363.198 128.856 367.163 130.249 370.477C130.663 371.463 132.119 371.661 132.461 370.477ZM160.682 328.614C159.91 328.539 159.138 328.391 158.367 328.218C159.229 329.06 160.026 330.073 160.469 331.198C160.537 330.334 160.625 329.474 160.741 328.617C160.722 328.617 160.7 328.617 160.682 328.614ZM168.098 394.403C169.458 393.453 170.45 392.124 171.604 390.952C172.739 389.799 170.965 388.023 169.83 389.176C168.845 390.176 167.99 391.425 166.831 392.234C166.274 392.623 166.015 393.327 166.381 393.952C166.704 394.505 167.542 394.791 168.098 394.403ZM175.686 357.879C173.202 356.804 170.759 355.633 168.16 354.859C166.606 354.396 165.948 356.821 167.492 357.28C169.887 357.994 172.132 359.058 174.42 360.047C175.888 360.682 177.165 358.518 175.686 357.879ZM201.92 357.127C202.527 355.627 200.099 354.98 199.5 356.459C198.811 358.161 198.021 359.82 197.332 361.522C196.725 363.022 199.153 363.669 199.752 362.19C200.441 360.488 201.231 358.829 201.92 357.127ZM227.813 387.081C228.218 387.621 228.892 387.913 229.53 387.532C230.064 387.211 230.389 386.36 229.98 385.814C228.784 384.218 227.572 382.642 226.17 381.22C225.034 380.067 223.26 381.844 224.396 382.995C225.647 384.266 226.744 385.656 227.813 387.081ZM231.515 219.009C230.363 219.797 229.354 220.753 228.37 221.737C227.226 222.882 229.001 224.657 230.145 223.513C230.974 222.683 231.81 221.841 232.782 221.178C233.343 220.794 233.595 220.081 233.232 219.46C232.907 218.903 232.075 218.627 231.515 219.009ZM193.845 259.423C194.496 260.728 195.082 262.007 195.119 263.49C195.159 265.106 197.668 265.107 197.628 263.49C197.58 261.549 196.865 259.866 196.012 258.155C195.289 256.707 193.126 257.981 193.845 259.423ZM180.023 226.965C178.674 226.065 177.419 228.242 178.756 229.134C179.84 229.857 180.925 230.58 182.009 231.304C183.357 232.203 184.612 230.027 183.275 229.135C182.191 228.412 181.107 227.689 180.023 226.965ZM239.973 283.714C240.203 285.31 242.621 284.627 242.393 283.047C242.04 280.604 241.609 278.193 240.947 275.814C240.514 274.257 238.094 274.922 238.527 276.481C239.19 278.861 239.62 281.272 239.973 283.714ZM248.771 312.482C250.387 312.448 250.387 309.936 248.771 309.971C247.31 310.002 245.873 310.387 244.463 310.739C242.894 311.131 243.563 313.552 245.13 313.16C246.322 312.863 247.535 312.508 248.771 312.482ZM252.019 370.432C252.574 370.703 253.143 370.946 253.704 371.203C254.828 371.717 255.95 372.231 257.073 372.747C259.411 373.821 261.748 374.899 264.083 375.98C268.756 378.145 273.466 380.234 278.152 382.376C282.929 384.56 287.695 386.773 292.454 388.998C294.696 390.045 296.955 391.055 299.21 392.075C301.138 392.947 303.521 394.472 305.637 394.615C305.746 394.623 305.783 394.485 305.72 394.414C304.921 393.504 303.645 392.975 302.595 392.383C301.521 391.779 300.428 391.21 299.339 390.634C297.07 389.43 294.798 388.237 292.507 387.076C287.924 384.755 283.332 382.451 278.739 380.149C274.056 377.802 269.378 375.439 264.653 373.176C262.428 372.11 260.201 371.047 257.973 369.987C256.766 369.414 255.558 368.841 254.351 368.269C253.829 368.022 253.313 367.755 252.779 367.534C252.071 367.241 251.532 367.301 250.801 367.12C249.609 366.825 249.093 368.342 250.008 369.003C250.762 369.547 251.158 370.012 252.019 370.432ZM268.772 396.184C269.03 395.557 268.49 394.796 267.896 394.639C267.183 394.451 266.612 394.884 266.352 395.516C265.664 397.191 264.684 398.727 263.423 400.025C262.296 401.185 264.069 402.961 265.197 401.801C266.778 400.174 267.914 398.273 268.772 396.184ZM281.097 355.873C282.241 354.728 280.466 352.952 279.323 354.097L276.07 357.351C274.926 358.496 276.701 360.272 277.845 359.127L281.097 355.873ZM314.464 350.566C316.802 351.253 319.529 351.884 321.123 353.88C321.201 353.977 321.332 353.852 321.285 353.755C319.244 349.521 313.392 348.035 309.339 346.552C306.473 345.503 303.532 344.633 300.567 343.855C300.863 340.47 300.046 336.841 299.762 333.472C299.458 329.875 299.211 326.269 299.085 322.66C298.955 318.98 298.924 315.274 299.045 311.592C299.165 307.924 299.641 304.301 299.849 300.645C299.87 300.292 299.378 300.275 299.272 300.567C298.04 303.959 297.514 307.717 297.113 311.295C296.7 314.98 296.563 318.654 296.616 322.361C296.671 326.172 296.892 329.974 297.196 333.772C297.34 335.573 297.507 337.371 297.665 339.171C297.785 340.544 297.841 341.906 298.121 343.235C296.332 342.796 294.54 342.38 292.753 341.976C287.054 340.69 281.332 339.495 275.658 338.104C272.872 337.421 270.126 336.603 267.353 335.877C264.742 335.193 261.986 334.363 259.305 334.058C258.349 333.949 258.227 335.258 258.86 335.703C261.039 337.234 263.933 338.3 266.45 339.157C268.975 340.017 271.601 340.636 274.19 341.273C279.589 342.601 285.039 343.688 290.48 344.82C295.915 345.95 301.359 347.072 306.732 348.467C309.32 349.139 311.899 349.813 314.464 350.566ZM327.277 283.38C328.674 284.2 329.935 282.029 328.543 281.211C326.722 280.141 324.78 279.337 322.823 278.553C321.321 277.951 320.675 280.381 322.156 280.975C323.915 281.679 325.64 282.418 327.277 283.38ZM332.336 376.682C333.737 377.495 334.999 375.324 333.602 374.514C331.64 373.376 329.492 372.617 327.459 371.621C326.013 370.912 324.742 373.079 326.193 373.789C328.225 374.785 330.374 375.544 332.336 376.682ZM334.611 323.719C333.257 325.007 331.449 325.613 329.745 326.29C328.258 326.879 328.91 329.307 330.412 328.711C332.535 327.868 334.699 327.099 336.386 325.495C337.56 324.379 335.782 322.606 334.611 323.719ZM319.626 251.792C318.137 252.376 318.789 254.804 320.294 254.214C321.962 253.559 323.684 253.06 325.353 252.405C326.841 251.821 326.19 249.393 324.685 249.983C323.017 250.638 321.295 251.137 319.626 251.792ZM293.191 223.222C291.609 222.955 290.935 225.376 292.524 225.644C294.495 225.977 296.436 226.367 298.306 227.091C299.816 227.675 300.463 225.246 298.973 224.669C297.103 223.945 295.162 223.555 293.191 223.222ZM284.457 292.782C285.907 292.068 284.635 289.903 283.19 290.614C281.668 291.363 280.091 291.941 278.431 292.295C276.85 292.632 277.523 295.053 279.098 294.717C280.967 294.318 282.745 293.624 284.457 292.782ZM276.207 253.6C274.645 253.172 273.984 255.595 275.54 256.022C278.277 256.772 281.095 257.162 283.852 257.83C285.423 258.21 286.088 255.788 284.519 255.408C281.762 254.74 278.944 254.351 276.207 253.6ZM241.211 241.304C239.622 241.598 240.299 244.018 241.877 243.726C243.558 243.415 245.261 243.41 246.965 243.409C248.582 243.408 248.579 240.897 246.965 240.898C245.029 240.899 243.118 240.951 241.211 241.304ZM127.073 254.425C131.173 254.032 135.279 253.718 139.392 253.483C139.584 253.473 139.771 253.461 139.963 253.451C139.985 253.407 140.013 253.366 140.041 253.322C141.384 251.351 142.372 249.38 143.228 247.151C144.047 245.028 144.841 242.841 146.102 240.926C147.54 238.744 149.481 237.037 151.61 235.557C152.9 236.426 154.098 237.443 155.194 238.521C156.348 239.655 158.123 237.88 156.969 236.745C155.995 235.787 154.955 234.902 153.856 234.103C155.125 233.331 156.42 232.606 157.683 231.885C162.417 229.182 167.263 226.683 172.209 224.398C174.509 223.333 176.836 222.388 179.18 221.431C180.441 220.916 181.686 220.254 182.947 219.658C182.856 218.766 183.123 217.767 183.806 217.18C184.311 216.75 184.704 216.59 185.306 216.286C185.441 216.239 185.522 216.21 185.56 216.195C185.532 216.201 185.45 216.226 185.316 216.27C184.995 216.418 184.97 216.374 185.24 216.141C185.256 215.633 186.257 214.559 186.485 214.035C187.282 212.236 187.53 210.334 188.706 208.695C190.328 206.438 193.051 205.584 195.589 206.35C195.852 203.635 195.921 200.8 196.943 198.376C196.972 198.311 197.063 198.282 197.103 198.354C198.17 200.172 198.261 202.197 198.343 204.294C198.421 206.262 198.346 208.274 198.088 210.23C198.252 210.356 198.418 210.475 198.59 210.591C199.4 211.125 200.272 211.536 201.188 211.841C202.932 212.418 204.76 212.669 206.589 212.757C211.31 212.983 216.175 212.506 220.818 211.696C225.514 210.877 232.713 209.646 236.891 207.295C239.649 205.744 242.192 203.851 244.771 202.018C243.836 199.004 243.598 195.765 244.539 193.219C244.652 192.914 245.129 192.858 245.219 193.219C245.809 195.648 245.982 198.091 246.766 200.492C246.779 200.527 246.791 200.565 246.804 200.599C247.048 200.433 247.293 200.269 247.538 200.106C248.102 199.733 248.871 200.012 249.21 200.546C254.627 209.087 263.206 209.577 272.215 211.103C282.075 212.773 291.984 214.575 301.463 217.843C310.529 220.97 319.193 225.522 326.056 232.321C327.61 233.861 329.063 235.501 330.434 237.213C329.107 237.381 327.791 237.641 326.492 238.05C324.954 238.533 325.615 240.957 327.159 240.471C328.829 239.946 330.517 239.687 332.222 239.557C336.886 245.942 340.522 253.181 343.666 260.307C349.697 273.969 353.623 288.519 355.43 303.332C354.438 302.737 353.428 302.171 352.393 301.644C350.955 300.912 349.687 303.079 351.127 303.812C352.725 304.626 354.278 305.523 355.782 306.495C356.439 312.979 356.694 319.505 356.54 326.021C356.173 341.554 354.077 357.542 349.338 372.362C347.013 379.636 343.933 386.85 339.344 392.996C337.267 395.781 334.908 398.292 332.129 400.386C330.783 401.403 329.359 402.311 327.856 403.076C325.921 404.068 323.399 404.395 321.73 405.798C321.181 406.26 320.758 406.868 320.438 407.556C320.623 408.862 320.645 410.171 320.287 411.477C320.174 411.885 319.867 412.218 319.487 412.378C319.481 412.491 319.481 412.601 319.481 412.707C319.481 412.758 319.406 412.77 319.396 412.72C319.381 412.623 319.365 412.525 319.349 412.425C319.227 412.466 319.098 412.485 318.967 412.485C314.202 412.503 309.431 412.387 304.66 412.225C305.029 411.093 305.428 409.972 305.812 408.841C306.333 407.305 303.909 406.651 303.392 408.174C302.943 409.496 302.474 410.807 302.057 412.134C296.944 411.943 291.834 411.715 286.732 411.546C275.882 411.185 265.035 411.066 254.182 410.837C237.327 410.479 220.35 409.747 203.469 410.463C202.886 409.223 202.232 408.012 201.613 406.789C200.882 405.345 198.717 406.618 199.446 408.056C199.876 408.906 200.322 409.745 200.746 410.593C197.327 410.771 193.912 411.006 190.504 411.326C184.688 411.872 178.929 412.842 173.119 413.445C167.213 414.06 161.434 413.951 155.575 412.975C154.521 412.799 153.9 412.161 153.643 411.37C153.633 411.367 153.627 411.361 153.621 411.351C153.32 411 153.037 410.708 152.746 410.453C152.397 410.228 152.021 410.036 151.578 409.866C150.753 409.552 149.894 409.361 149.022 409.232C148.062 409.088 147.09 409.075 146.13 408.956C145.321 408.853 144.53 408.699 143.74 408.511C142.319 408.171 140.97 407.729 139.627 407.141C138.457 406.63 137.4 405.896 136.402 405.095C134.338 403.585 132.551 401.658 130.988 399.654C130.079 398.484 129.222 397.269 128.444 396.004C127.089 393.812 125.935 391.536 124.768 389.242C124.344 388.562 123.958 387.865 123.605 387.154C125.885 386.482 128.188 385.934 130.605 385.895C132.221 385.869 132.221 383.357 130.605 383.383C127.833 383.428 125.21 384.076 122.604 384.848C122.477 384.511 122.355 384.171 122.243 383.826C121.932 383.108 121.675 382.37 121.462 381.623C121.336 381.284 121.211 380.945 121.085 380.606C120.803 379.432 120.521 378.254 120.235 377.077C119.667 375.194 119.219 373.282 118.889 371.345C118.613 370.07 118.4 368.786 118.256 367.487C117.817 364.338 117.459 361.196 117.434 358.013C117.472 356.051 117.597 354.092 117.81 352.142C117.901 350.817 118.055 349.499 118.262 348.19C118.532 346.244 118.798 344.316 119.247 342.395C119.583 341.096 119.918 339.796 120.254 338.496C121.091 335.787 122.08 333.131 123.219 330.535C123.281 330.372 123.598 330.014 123.789 330.011C123.933 330.007 124.135 330.139 124.069 330.315C124.062 330.331 124.056 330.35 124.05 330.365C124.115 330.218 124.178 330.067 124.244 329.92C124.3 329.781 124.52 329.505 124.689 329.509C124.699 329.509 124.709 329.509 124.721 329.511C124.677 329.48 124.636 329.439 124.595 329.392C123.469 328.058 122.738 326.303 121.932 324.759C121.264 323.484 120.634 322.141 120.452 320.7C120.292 319.435 120.508 318.188 121.302 317.165C122.205 316 123.905 315.454 122.961 313.771C121.888 311.856 120.31 310.196 121.882 308.02C122.682 306.912 123.949 306.303 124.89 305.339C125.972 304.225 126.487 302.734 126.459 301.211C126.393 301.249 126.305 301.23 126.274 301.136C125.364 298.386 126.023 295.366 126.954 292.688C127.462 291.235 128.539 290.836 129.79 290.764C124.37 280.169 119.298 269.405 114.777 258.392C114.626 258.031 114.479 257.67 114.332 257.309C114.112 256.769 114.576 256.051 115.113 255.931C119.021 255.074 123.093 254.801 127.073 254.425Z" fill="black"/>
<path fill-rule="evenodd" clip-rule="evenodd" d="M214.199 75.2747C198.123 75.2747 177.987 93.6016 172.094 101.4C167.14 107.957 167.841 141.736 167.841 161.774C167.841 165.964 169.736 173.896 170.425 177.905C172.946 192.594 183.932 204.913 205.676 204.913C223.381 204.913 237.006 199.309 250.182 184.975C253.188 181.705 267.868 193.412 270.87 189.196C278.712 189.196 285.269 115.975 269.873 94.0127C254.476 72.0507 230.275 75.2747 214.199 75.2747Z" fill="white"/>
<path fill-rule="evenodd" clip-rule="evenodd" d="M262.518 80.4321C253.228 71.9861 240.853 67.9229 228.367 68.2228C221.9 68.3785 215.456 69.6093 209.349 71.7173C206.294 72.7755 203.335 74.1563 200.507 75.7182C199.487 76.2797 198.548 76.9377 197.643 77.6365L197.418 77.812H197.415C194.988 78.6835 192.822 80.2482 190.857 82.0789C186.919 81.7648 182.95 82.1185 179.141 83.3323C173.841 85.0244 168.935 88.1227 165.489 92.5225C161.475 97.6448 160.141 103.858 160.617 110.272L160.705 111.362C161.176 117.028 162.019 124.315 166.672 128.038C167.026 128.321 167.417 128.536 167.822 128.667C164.824 133.799 162.363 139.498 160.891 145.253C155.271 167.235 159.591 190.16 166.35 211.347C166.905 213.093 169.546 214.253 170.891 212.547C173.292 209.497 176.78 207.171 180.704 206.735C183.125 206.466 185.535 206.953 187.822 205.855C188.72 205.422 189.586 204.715 190.209 203.855C194.071 205.318 198.23 206.008 202.355 205.838C209.125 205.561 216.362 203.218 221.019 198.08C221.767 197.255 221.956 196.329 221.784 195.494C221.2 195.286 220.6 195.131 219.983 195.034C214.076 198.512 207.566 200.837 200.569 200.983C196.527 201.067 192.583 200.502 189.305 197.979C188.596 197.433 187.943 196.828 187.34 196.179C180.487 191.773 175.654 184.289 173.357 176.273C171.217 168.797 171.48 161.013 172.216 153.345L172.604 149.299C173.171 143.36 173.696 137.404 173.843 131.439L173.798 131.437C172.351 131.344 172.341 129.079 173.798 129.174C177.57 129.417 181.312 128.799 185.071 129.069C185.103 127.293 185.231 125.524 185.753 123.811C186.051 122.833 187.757 122.64 187.937 123.811C188.179 125.379 188.267 126.938 188.294 128.512C193.92 128.438 199.541 127.965 205.167 128.159C206.205 127.053 206.536 125.091 207.021 123.726C207.092 123.525 207.163 123.327 207.237 123.126C207.663 125.076 208.268 126.984 209.064 128.851L210.444 128.856C218.274 128.892 226.263 129.126 233.909 130.751C234.44 130.344 234.756 129.632 234.842 128.986C235.397 124.783 236.188 120.691 237.591 116.685L237.792 116.12C237.808 116.073 237.825 116.024 237.843 115.971C238.877 117.639 240.11 119.193 241.456 120.64C242.248 121.493 243.08 122.309 243.933 123.101C244.761 124.021 245.618 124.927 246.448 125.849C246.416 126.017 246.387 126.187 246.364 126.361C246.11 128.275 246.084 130.216 246.27 132.138C246.606 135.612 247.588 138.959 249.164 142.055L249.214 142.365C249.453 143.817 249.794 145.316 250.589 146.409C249.597 147.521 248.832 148.848 248.389 150.323C247.994 151.636 249.812 152.774 250.755 151.7C251.504 150.846 252.336 150.14 253.25 149.576C253.307 149.654 253.412 149.693 253.529 149.627C256.074 148.215 260.397 148.643 262.94 149.973C266.102 151.625 267.337 155.018 266.986 158.455C266.649 161.74 265.211 165.58 262.422 167.264C261.142 168.036 260.145 168.101 258.786 167.731C258.352 167.613 257.813 167.251 257.582 167.071L257.354 166.889C256.463 166.185 255.634 165.703 254.582 165.685C253.506 165.35 252.425 165.815 252.014 166.942L251.988 167.015C251.796 167.589 251.445 168.311 251.521 169.188C251.6 170.127 252.031 170.982 252.674 171.669C252.784 171.788 252.903 171.907 253.025 172.017C241.954 183.994 240.533 202.658 246.21 217.62C246.456 218.277 246.719 218.925 246.994 219.567C247.942 221.768 251.595 221.086 252.059 218.905C252.198 218.251 252.351 217.6 252.518 216.955C252.825 215.763 253.177 214.582 253.573 213.418L253.724 212.983C254.061 212.021 254.375 211.05 254.715 210.088L254.749 209.978C254.762 209.935 254.776 209.884 254.791 209.828L255.366 211.081L257.113 214.864C257.931 216.63 260.528 215.67 260.624 213.969L260.627 213.911C260.635 213.597 260.647 213.285 260.666 212.977C260.791 210.665 261.19 208.419 261.824 206.22L262.053 206.504C265.46 210.714 269.459 214.66 274.945 215.631C276.321 215.874 277.878 214.437 276.932 213.048C276.542 212.473 276.165 211.885 275.808 211.288C276.117 211.143 276.408 210.993 276.677 210.841C278.758 209.672 280.491 208.008 281.924 206.121C284.962 202.12 286.049 197.084 286.315 192.155C286.598 186.946 286.14 181.454 284.716 176.428C284.098 174.255 283.263 172.17 282.298 170.147C282.366 169.966 282.431 169.785 282.496 169.604C283.538 166.701 284.393 163.732 285.103 160.73C286.536 154.67 287.306 148.416 287.4 142.189C287.57 131.032 285.644 119.697 281.587 109.293C277.397 98.5635 271.094 88.2274 262.518 80.4321ZM267.736 177.976C268.506 176.765 270.431 177.856 269.716 179.076L269.69 179.119C268.469 181.04 267.898 183.225 267.195 185.367C266.745 186.745 264.557 186.156 265.012 184.764L265.163 184.299C265.862 182.127 266.499 179.92 267.736 177.976ZM261.034 154.865L260.523 154.618C258.911 153.849 257.498 153.325 255.593 153.996C253.042 154.893 250.309 157.748 252.034 160.518C252.668 161.54 253.795 161.947 254.956 161.707C256.913 161.301 257.418 159.54 258.411 158.094L258.582 157.849C259.187 156.974 259.953 155.765 260.961 155.422C261.19 155.343 261.286 154.986 261.034 154.865ZM259.597 96.0513L259.432 95.9038C258.336 94.9361 259.944 93.3403 261.034 94.3023C266.023 98.7078 267.756 105.603 270.344 111.48C270.924 112.802 268.973 113.956 268.387 112.623C265.919 107.015 264.28 100.307 259.597 96.0513ZM199.646 94.124C200.949 93.537 202.09 95.4328 200.837 96.057L200.79 96.0792C196.384 98.0684 194.51 102.573 192.715 106.755C192.143 108.09 190.192 106.939 190.758 105.615L191.082 104.864C192.955 100.555 195.14 96.1617 199.646 94.124ZM192.74 91.4021C194.122 90.9239 194.714 93.1083 193.343 93.5864C189.609 94.8852 187.046 97.6864 184.886 100.889C184.076 102.089 182.114 100.957 182.933 99.7463C185.441 96.0283 188.42 92.9074 192.74 91.4021Z" fill="black"/>
<path fill-rule="evenodd" clip-rule="evenodd" d="M200.323 185.045C202.226 184.269 203.924 182.975 205.166 181.322C205.597 180.747 205.709 180.14 205.619 179.585C205.517 178.961 205.147 178.395 204.643 178.015C204.138 177.635 203.505 177.447 202.894 177.543C202.363 177.626 201.834 177.916 201.415 178.519L201.328 178.64C200.59 179.638 199.628 180.457 198.532 180.984C197.476 181.493 196.294 181.73 195.072 181.592C192.743 181.33 191.138 180.071 189.433 178.362C189.221 178.146 189.01 177.924 188.797 177.698C188.663 177.493 188.476 177.361 188.27 177.292C188.04 177.215 187.78 177.22 187.542 177.303C187.313 177.383 187.107 177.534 186.97 177.736C186.839 177.928 186.765 178.165 186.789 178.438C186.945 180.209 187.872 181.789 189.188 183.03C190.649 184.409 192.587 185.362 194.411 185.697C196.421 186.065 198.468 185.801 200.323 185.045ZM193.463 157.724C191.325 159.023 188.067 162.051 190.367 165.271C193.075 168.11 196.973 164.855 198.893 163.383C200.674 162.242 202.676 165.176 201.023 166.508C187.143 176.778 181.51 158.064 192.382 156.197C193.578 155.991 194.023 157.322 193.463 157.724ZM218.336 145.778C218.1 142.847 213.634 142.182 213.19 145.082C212.792 147.679 213.261 150.065 214.431 152.404C215.55 154.638 218.362 153.596 218.574 151.561C218.859 148.834 218.483 147.6 218.336 145.778ZM184.342 144.48C183.72 143.665 182.821 143.109 181.744 143.423C178.379 144.406 179.371 149.18 180.552 151.504C181.195 152.766 183.27 153.086 184.208 151.975C185.737 150.163 186.469 146.544 184.526 144.76C184.473 144.667 184.414 144.574 184.342 144.48ZM214.479 132.955L213.947 132.863C212.303 132.578 210.258 132.305 209.095 133.626C208.478 134.327 208.266 135.629 209.095 136.3C210.554 137.48 212.166 137.022 213.914 137.122C215.355 137.205 216.74 137.443 218.127 137.839C221.171 138.709 223.652 140.296 226.252 142.039C226.593 142.268 226.941 141.832 226.779 141.513C225.278 138.575 222.369 136.162 219.456 134.691C217.901 133.906 216.199 133.254 214.479 132.955ZM187.41 131.639L187.003 131.723C182.576 132.648 176.823 134.495 174.727 138.841C174.647 139.455 174.731 139.587 174.8 139.673L174.823 139.702C174.879 139.775 174.925 139.877 175.191 139.96C175.265 139.943 175.34 139.924 175.415 139.904C176.376 139.653 177.137 139.306 177.873 138.946L178.671 138.553C179.597 138.099 180.531 137.662 181.521 137.339C183.634 136.651 185.807 136.165 188.014 135.906C188.492 135.85 188.953 135.689 189.316 135.413C189.661 135.15 189.925 134.787 190.045 134.304C190.2 133.679 190.156 133.205 189.82 132.642C189.568 132.218 189.207 131.925 188.792 131.756C188.369 131.584 187.888 131.544 187.41 131.639Z" fill="black"/>
<path fill-rule="evenodd" clip-rule="evenodd" d="M169.589 160.256C171.496 162.815 175.03 163.63 178.289 163.349C185.32 162.673 187.532 154.693 187.763 148.491C183.048 149.817 188.162 140.43 172.046 139.398C166.365 138.925 167.931 142.354 165.421 144.859C165.473 150.117 166.349 155.83 169.589 160.256M203.076 154.214C207.226 173.64 229.955 169.019 232.343 151.509C230.138 149.954 230.719 146.114 227.98 144.722C223.639 141.951 218.213 142.069 213.283 142.134C206.982 142.567 205.186 145.175 201.949 148.021C202.105 149.922 202.554 152.175 203.076 154.214M160.585 136.181C160.818 136.142 161.052 136.105 161.285 136.071C161.467 135.968 161.681 135.888 161.929 135.841C162.497 135.697 163.061 135.6 163.624 135.547C171.702 133.73 190.391 136.31 191.162 143.199C193.734 144.057 195.96 143.289 198.942 143.365C201.212 133.885 240.449 135.223 242.336 140.939C242.343 140.937 242.35 140.935 242.357 140.933C244.171 140.372 246.844 140.507 248.919 140.418C253.35 140.326 257.787 140.72 262.122 141.654C270.241 142.944 281.321 144.453 275.675 154.585C275.674 154.587 275.673 154.589 275.672 154.591L275.671 154.59C274.698 155.587 273.046 154.784 272.985 153.434C274.883 148.634 270.595 148.058 267.296 146.679C259.087 143.731 250.73 143.323 242.24 144.235C241.601 144.986 240.632 145.641 239.608 145.984C233.931 146.926 236.923 151.134 233.335 151.746C233.994 166.415 216.173 174.422 205.848 164.779C201.725 160.751 200.742 154.784 199.786 149.405C199.281 149.292 198.96 149.016 198.772 148.65C197.556 147.437 196.793 146.317 194.389 145.984C191.986 145.652 190.136 146.32 189.885 146.524C189.822 146.651 189.754 146.779 189.676 146.906C189.566 147.096 189.416 147.247 189.247 147.366C191.62 161.973 180.273 171.211 168.818 163.635C163.84 158.956 162.788 151.792 162.581 145.398C161.906 144.991 161.479 144.203 161.712 143.211C162.034 141.844 161.279 140.661 160.077 140.067C158.515 139.295 158.791 136.478 160.585 136.181" fill="black"/>
</svg>
